<?xml version="1.0" standalone="no"?>
<!DOCTYPE svg PUBLIC "-//W3C//DTD SVG 20010904//EN"
 "http://www.w3.org/TR/2001/REC-SVG-20010904/DTD/svg10.dtd">
<svg version="1.0" xmlns="http://www.w3.org/2000/svg"
 width="360.000000pt" height="270.000000pt" viewBox="0 0 360.000000 270.000000"
 preserveAspectRatio="xMidYMid meet">

<g transform="translate(0.000000,270.000000) scale(0.100000,-0.100000)"
fill="#000000" stroke="none">
<path d="M0 1350 l0 -1350 395 0 395 0 0 1350 0 1350 -395 0 -395 0 0 -1350z"/>
<path d="M2370 2670 c0 -31 37 -83 52 -74 4 3 6 9 3 14 -8 14 46 22 61 9 12
-10 17 -8 28 6 8 11 20 16 30 12 9 -4 16 -4 16 -1 0 2 -10 9 -22 14 l-23 9 23
0 c14 1 22 7 22 19 0 15 -2 15 -10 2 -9 -13 -12 -13 -21 3 -15 25 -39 21 -39
-7 0 -37 -17 -41 -25 -6 -7 30 -29 41 -38 18 -4 -10 -6 -10 -6 0 -1 6 -12 12
-26 12 -21 0 -25 -5 -25 -30z"/>
<path d="M2672 2680 c0 -14 2 -19 5 -12 2 6 2 18 0 25 -3 6 -5 1 -5 -13z"/>
<path d="M2720 2650 l0 -50 -52 0 c-28 0 -48 3 -44 7 4 4 17 8 29 8 14 0 23 7
25 20 3 19 2 19 -12 2 -11 -15 -18 -16 -34 -8 -11 6 -23 16 -25 23 -4 10 -6
10 -6 1 -1 -7 -8 -13 -17 -13 -12 0 -15 -6 -11 -20 4 -17 2 -20 -13 -15 -10 3
-21 1 -25 -5 -4 -6 8 -10 32 -11 35 0 36 -1 14 -10 -14 -5 -53 -8 -87 -5 -75
5 -72 13 -70 -167 1 -109 -1 -127 -14 -127 -34 0 -40 -22 -40 -156 0 -131 0
-133 26 -153 28 -22 29 -28 32 -228 2 -78 5 -92 20 -96 10 -3 9 -3 -3 -1 -11
1 -30 6 -43 9 -13 4 -22 4 -21 -1 1 -5 1 -69 0 -143 -1 -122 -2 -133 -18 -126
-10 3 -36 10 -58 14 -49 9 -97 32 -103 49 -2 7 2 10 12 6 13 -5 16 2 16 40 0
40 -6 52 -47 100 -34 38 -56 55 -74 55 -18 1 -30 9 -38 27 -10 23 -10 26 5 20
10 -4 14 -2 11 6 -2 7 -12 12 -21 12 -9 -1 -35 26 -63 65 -40 55 -48 74 -49
113 0 26 -6 53 -13 61 -20 24 -59 29 -96 12 -34 -17 -149 -16 -235 0 -28 5
-41 2 -63 -15 -15 -12 -27 -28 -27 -36 0 -9 -11 -14 -31 -14 -40 0 -72 -18
-65 -36 4 -11 -5 -14 -39 -14 l-45 0 0 -52 c0 -28 -3 -48 -7 -44 -4 4 -6 23
-4 43 2 23 -1 33 -8 29 -6 -4 -11 -18 -11 -32 0 -13 -4 -24 -9 -24 -15 0 -35
31 -39 58 -4 36 -12 42 -12 10 0 -24 -3 -25 -57 -27 -84 -2 -147 -12 -155 -25
-4 -6 -8 -25 -8 -42 0 -31 -1 -32 -60 -38 l-59 -7 -3 -54 -3 -54 -45 20 c-24
11 -48 25 -52 32 -4 7 -8 -103 -8 -243 0 -237 1 -256 18 -256 9 0 28 -4 41 -8
l24 -8 -20 28 c-28 40 -35 64 -20 64 22 0 57 -30 57 -49 0 -10 14 -24 33 -34
31 -15 31 -16 7 -17 -22 -1 -20 -3 12 -15 20 -8 59 -16 85 -19 l48 -6 -45 15
-45 15 43 -4 c52 -5 102 17 102 45 0 10 7 19 15 19 9 0 15 -9 15 -24 0 -44 12
-86 26 -86 27 0 24 -22 -12 -80 -76 -124 -107 -134 -269 -94 l-104 26 -4 82
-3 81 -2 -87 -2 -87 53 -16 c28 -8 69 -18 90 -22 20 -3 37 -7 37 -9 0 -2 -11
-20 -25 -40 -14 -20 -25 -43 -25 -50 0 -17 36 -19 46 -3 4 8 9 7 14 -2 16 -24
129 35 187 99 61 66 59 70 38 -102 -16 -125 -25 -158 -25 -88 0 22 -3 43 -7
45 -5 3 -6 -20 -5 -50 4 -50 2 -54 -15 -50 -10 3 -38 8 -63 11 -48 6 -32 -7
23 -18 24 -6 27 -11 27 -46 0 -21 5 -42 10 -45 6 -4 10 -3 9 2 -5 27 2 83 10
83 6 0 9 -45 9 -107 -2 -148 7 -274 21 -301 6 -12 9 -22 6 -22 -3 0 -1 -8 4
-18 6 -12 2 -34 -15 -76 -13 -33 -24 -63 -24 -68 0 -4 37 -8 83 -8 l82 0 19
43 c10 23 31 75 46 115 16 40 46 103 68 140 22 37 71 130 110 207 80 161 96
184 136 191 31 5 55 -16 56 -49 0 -16 -6 -18 -47 -13 -35 4 -41 3 -23 -3 14
-5 37 -9 53 -10 23 -1 27 3 27 26 0 39 14 19 43 -63 39 -108 73 -188 133 -307
30 -59 54 -119 54 -132 0 -13 12 -51 26 -84 l27 -61 78 0 c44 0 79 2 79 4 0
31 -60 193 -90 243 -40 66 -61 139 -80 275 -6 40 -19 111 -30 157 l-20 84 20
42 c11 22 33 54 50 70 16 16 30 34 30 40 0 5 -19 33 -43 60 -68 80 -73 87 -57
83 17 -4 26 30 11 45 -8 8 -11 5 -11 -10 0 -17 -5 -21 -21 -18 -29 6 -29 7
-31 49 -1 31 -5 36 -27 37 -14 1 -29 1 -33 0 -13 -2 -9 33 7 55 8 12 12 24 8
27 -6 7 24 77 33 77 3 0 3 -4 0 -9 -3 -5 3 -11 13 -14 15 -4 21 2 26 29 3 19
3 39 0 44 -3 6 1 10 9 10 9 0 15 -3 15 -7 -3 -20 2 -27 10 -14 8 13 18 12 71
-4 33 -10 62 -21 64 -24 2 -3 0 -15 -5 -26 -7 -19 -8 -19 -8 3 -1 12 -5 22
-11 22 -13 0 -13 -81 1 -100 9 -13 10 -12 5 3 -9 27 4 50 20 36 7 -6 19 -7 25
-3 7 4 9 3 6 -3 -4 -6 -1 -13 7 -16 21 -8 133 -240 187 -391 31 -84 36 -110
13 -61 l-14 30 3 -45 c2 -36 7 -47 25 -55 23 -10 23 -12 20 -152 -3 -130 -1
-142 14 -137 23 7 32 -13 14 -32 -9 -8 -16 -29 -16 -45 0 -18 -4 -28 -10 -24
-5 3 -10 2 -10 -4 0 -5 -3 -17 -7 -26 -5 -15 -3 -16 15 -6 12 6 25 23 28 36 3
14 10 25 15 25 5 0 12 15 17 32 5 19 18 38 33 45 19 10 20 13 5 13 -12 0 -16
5 -12 16 3 9 6 46 6 83 l0 67 35 -4 34 -4 4 -87 3 -86 2 88 2 87 39 0 c22 0
47 3 56 6 15 6 16 -2 11 -90 -4 -62 -3 -96 4 -96 5 0 10 -8 10 -17 0 -15 -2
-16 -10 -3 -8 12 -10 11 -10 -7 0 -12 6 -24 13 -26 10 -4 10 -6 0 -6 -10 -1
-13 -45 -13 -186 l0 -185 450 0 450 0 0 1350 0 1350 -440 0 -440 0 0 -50z m0
-87 c0 -22 -2 -25 -10 -13 -5 8 -29 20 -52 27 l-43 11 53 1 c50 1 52 0 52 -26z
m0 -353 c-1 -157 -4 -210 -13 -211 -9 0 -9 -2 1 -6 6 -2 12 -10 12 -16 0 -9
-41 -11 -152 -9 -204 3 -221 21 -23 24 83 1 132 3 110 5 -22 3 -43 10 -47 16
-4 7 -8 46 -8 87 0 56 5 86 20 115 13 26 20 33 20 20 1 -19 1 -19 11 -2 5 9 7
22 4 27 -3 6 5 10 19 10 13 0 27 -6 29 -12 3 -7 6 26 6 75 1 48 3 87 6 87 3 0
5 -94 5 -210z m-130 -300 c0 -37 -2 -40 -29 -40 -15 0 -49 3 -75 6 -42 6 -46
9 -46 35 0 34 8 37 88 38 l62 1 0 -40z m130 0 l0 -40 -60 0 -60 0 0 40 0 40
60 0 60 0 0 -40z m-4 -147 l-1 -98 -55 0 -55 0 -3 92 -3 92 58 4 c32 2 59 4
59 5 1 1 1 -42 0 -95z m-126 -3 l0 -90 -75 0 -75 0 0 90 0 90 75 0 75 0 0 -90z
m-926 -85 c-3 -14 -2 -25 4 -25 5 0 9 8 8 17 0 12 7 19 22 21 18 3 22 -1 22
-21 0 -40 -10 -57 -34 -57 -29 0 -51 43 -36 71 15 27 22 24 14 -6z m184 8 c10
-19 0 -57 -16 -67 -6 -4 -8 10 -6 36 4 37 3 40 -6 19 -12 -28 -35 -16 -24 12
8 22 41 22 52 0z m112 -25 c0 -5 -12 -8 -27 -8 -26 0 -26 0 -8 20 14 16 20 17
27 8 4 -7 8 -16 8 -20z m-160 -29 c0 -6 -4 -7 -10 -4 -5 3 -10 11 -10 16 0 6
5 7 10 4 6 -3 10 -11 10 -16z m900 -103 c0 -76 -4 -127 -10 -131 -6 -4 -18
-24 -27 -46 -17 -43 -23 -44 -89 -28 -53 14 -70 36 -79 99 -6 46 19 129 44
144 6 4 11 17 11 28 0 12 3 18 7 15 7 -8 33 11 33 24 0 4 -21 10 -47 12 -27 2
-2 4 55 5 l102 2 0 -124z m-1490 50 c0 -30 -5 -46 -15 -50 -12 -4 -15 4 -15
38 0 23 3 46 7 49 15 16 23 4 23 -37z m-82 -8 c-2 -24 -7 -43 -13 -43 -5 0
-11 19 -13 43 -3 33 0 42 13 42 13 0 16 -9 13 -42z m222 -6 c0 -14 2 -15 10
-2 7 11 12 12 20 4 8 -8 8 -20 -2 -42 -13 -30 -14 -30 -45 -17 -28 12 -33 19
-33 48 0 18 3 37 6 40 11 11 44 -13 44 -31z m-520 -61 c0 -6 -4 -13 -10 -16
-5 -3 -10 1 -10 9 0 9 5 16 10 16 6 0 10 -4 10 -9z m382 -96 c2 -22 -1 -36 -9
-39 -7 -3 -13 -2 -13 3 0 5 -3 23 -6 40 -5 24 -3 31 9 31 10 0 16 -12 19 -35z
m109 -45 c-9 -23 -10 -23 -10 11 -1 20 2 39 7 43 11 12 14 -27 3 -54z m-400
-42 c1 -17 2 -19 6 -5 6 22 2 22 103 -12 125 -42 120 -39 120 -77 0 -40 -2
-40 -72 -15 -29 11 -88 31 -130 46 -70 24 -76 28 -62 42 8 9 13 22 10 29 -3 8
1 14 9 14 9 0 16 -10 16 -22z m1793 -200 c-3 -117 -7 -251 -8 -298 -1 -83 -2
-85 -26 -88 -42 -6 -47 -22 -7 -22 37 0 37 -1 37 -40 l0 -40 -97 2 -97 3 -17
85 c-9 47 -24 109 -33 139 -9 30 -16 56 -16 58 0 8 74 83 82 83 5 0 16 7 24
15 9 8 26 15 38 15 38 0 86 12 86 21 0 5 -18 9 -40 9 l-40 0 0 79 c0 78 0 79
28 84 15 3 39 3 55 0 27 -5 27 -5 27 51 0 31 2 56 5 56 3 0 3 -96 -1 -212z
m-324 163 l35 -7 3 -122 c3 -133 -7 -155 -36 -79 -9 23 -36 82 -59 130 -24 49
-43 90 -43 92 0 4 17 2 100 -14z m-841 -32 c63 -19 106 -108 45 -93 -29 7 -54
-15 -54 -48 0 -24 -16 -48 -32 -48 -4 0 -8 30 -8 66 0 61 1 65 20 59 12 -4 20
-2 20 5 0 7 -13 10 -31 8 -17 -2 -31 0 -30 5 1 4 1 13 1 20 0 9 2 9 9 -1 7
-11 10 -10 15 3 3 9 4 21 0 26 -7 12 1 11 45 -2z m-709 -13 c0 -2 -7 -6 -15
-10 -8 -3 -15 -1 -15 4 0 6 7 10 15 10 8 0 15 -2 15 -4z m437 -43 c-3 -10 -5
-4 -5 12 0 17 2 24 5 18 2 -7 2 -21 0 -30z m1290 31 c20 -6 22 -12 22 -85 l0
-79 -70 0 -69 0 0 79 0 80 33 4 c56 7 62 7 84 1z m-1099 -98 c3 -29 0 -37 -10
-32 -7 3 -21 9 -30 12 -35 12 -8 71 27 60 6 -1 11 -20 13 -40z m-218 -43 c-11
-17 -11 -17 -6 0 3 10 7 26 7 35 1 15 2 15 6 0 2 -10 -1 -25 -7 -35z m116
-148 c-2 -7 -13 -11 -23 -9 -15 4 -18 13 -15 39 5 44 36 53 40 12 2 -16 1 -35
-2 -42z m8 -68 c13 -31 40 -68 64 -88 29 -25 38 -39 32 -49 -12 -22 -110 -351
-110 -370 0 -19 -51 -102 -90 -147 -24 -27 -30 -30 -40 -17 -10 11 -9 14 4 14
18 0 20 8 6 30 -5 8 -5 19 0 25 5 6 2 33 -6 64 -21 82 -6 200 68 521 15 68 16
70 33 70 9 0 25 -22 39 -53z m1101 -328 c14 -74 10 -88 -21 -89 -8 0 -13 147
-5 169 4 13 13 -15 26 -80z"/>
<path d="M1688 1655 c-22 -29 -22 -35 -4 -35 8 0 17 12 20 26 9 35 5 37 -16 9z"/>
<path d="M2608 1353 c6 -2 18 -2 25 0 6 3 1 5 -13 5 -14 0 -19 -2 -12 -5z"/>
<path d="M1431 1134 c0 -11 3 -14 6 -6 3 7 2 16 -1 19 -3 4 -6 -2 -5 -13z"/>
<path d="M1341 954 c0 -11 3 -14 6 -6 3 7 2 16 -1 19 -3 4 -6 -2 -5 -13z"/>
<path d="M1300 809 c0 -5 6 -9 14 -9 8 0 22 -3 32 -7 11 -4 15 -3 11 4 -8 13
-57 23 -57 12z"/>
<path d="M2370 2601 c0 -5 5 -13 10 -16 6 -3 10 -2 10 4 0 5 -4 13 -10 16 -5
3 -10 2 -10 -4z"/>
<path d="M804 1915 c0 -143 2 -200 3 -127 2 73 2 190 0 260 -1 70 -3 10 -3
-133z"/>
<path d="M914 1835 c0 -66 1 -92 3 -57 2 34 2 88 0 120 -2 31 -3 3 -3 -63z"/>
<path d="M2050 1939 c0 -5 9 -9 20 -9 11 0 20 2 20 4 0 2 -9 6 -20 9 -11 3
-20 1 -20 -4z"/>
<path d="M1090 1910 c0 -5 7 -7 15 -4 8 4 15 8 15 10 0 2 -7 4 -15 4 -8 0 -15
-4 -15 -10z"/>
<path d="M2160 1900 c0 -11 4 -20 8 -20 4 0 8 9 8 20 0 11 -4 20 -8 20 -4 0
-8 -9 -8 -20z"/>
<path d="M947 1903 c-10 -9 -9 -33 1 -33 4 0 8 9 8 20 0 23 0 22 -9 13z"/>
<path d="M2065 1890 c3 -5 8 -10 11 -10 2 0 4 5 4 10 0 6 -5 10 -11 10 -5 0
-7 -4 -4 -10z"/>
<path d="M2133 1853 c0 -7 4 -13 9 -13 4 0 8 4 8 9 0 5 8 12 18 14 9 3 6 4 -9
4 -14 -1 -26 -7 -26 -14z"/>
<path d="M2205 1861 c9 -9 55 -9 50 0 -3 5 -17 8 -30 7 -13 -1 -22 -4 -20 -7z"/>
<path d="M2050 1845 c0 -11 7 -14 25 -11 14 3 25 0 25 -5 0 -5 -11 -9 -25 -9
-14 0 -25 -4 -25 -8 0 -12 63 -8 67 4 2 6 -3 17 -12 24 -8 7 -15 9 -15 6 0 -4
-9 -2 -20 4 -16 9 -20 8 -20 -5z"/>
<path d="M968 1813 c6 -2 18 -2 25 0 6 3 1 5 -13 5 -14 0 -19 -2 -12 -5z"/>
<path d="M1018 1813 c7 -3 16 -2 19 1 4 3 -2 6 -13 5 -11 0 -14 -3 -6 -6z"/>
<path d="M2230 1809 c0 -5 5 -7 10 -4 6 3 10 8 10 11 0 2 -4 4 -10 4 -5 0 -10
-5 -10 -11z"/>
<path d="M2047 1758 c-8 -5 -4 -8 11 -8 12 0 22 -4 22 -10 0 -17 17 -11 22 8
4 14 -1 18 -19 18 -13 0 -29 -4 -36 -8z"/>
<path d="M2130 1754 c0 -8 5 -12 10 -9 6 4 8 11 5 16 -9 14 -15 11 -15 -7z"/>
<path d="M2110 1709 c0 -5 9 -9 20 -9 11 0 20 2 20 4 0 2 -9 6 -20 9 -11 3
-20 1 -20 -4z"/>
<path d="M882 975 c-12 -25 -26 -45 -32 -45 -5 0 -10 -4 -10 -9 0 -7 95 -31
127 -31 7 0 13 11 13 25 0 14 -5 25 -11 25 -7 0 -9 11 -6 30 5 23 2 32 -13 40
-33 18 -45 11 -68 -35z"/>
<path d="M990 977 c0 -9 5 -19 11 -22 6 -4 8 -13 5 -21 -3 -8 -1 -14 4 -14 6
0 10 9 10 20 0 11 5 20 11 20 5 0 7 -4 4 -10 -3 -5 1 -10 9 -10 9 0 16 6 16
13 0 8 4 7 10 -3 8 -12 10 -11 10 8 0 18 -6 22 -29 22 -16 0 -36 3 -45 6 -10
4 -16 1 -16 -9z"/>
<path d="M2220 891 c0 -6 5 -13 10 -16 6 -3 10 1 10 9 0 9 -4 16 -10 16 -5 0
-10 -4 -10 -9z"/>
<path d="M2248 833 c7 -3 16 -2 19 1 4 3 -2 6 -13 5 -11 0 -14 -3 -6 -6z"/>
<path d="M1163 823 c-15 -5 -18 -83 -4 -83 5 0 11 20 13 45 2 25 3 45 3 44 0
0 -6 -3 -12 -6z"/>
<path d="M803 660 c0 -36 2 -50 4 -32 2 17 2 47 0 65 -2 17 -4 3 -4 -33z"/>
<path d="M855 660 c3 -5 8 -10 11 -10 2 0 4 5 4 10 0 6 -5 10 -11 10 -5 0 -7
-4 -4 -10z"/>
<path d="M2272 650 c0 -14 2 -19 5 -12 2 6 2 18 0 25 -3 6 -5 1 -5 -13z"/>
<path d="M1750 650 c0 -5 5 -10 11 -10 5 0 7 5 4 10 -3 6 -8 10 -11 10 -2 0
-4 -4 -4 -10z"/>
<path d="M2233 570 c0 -36 2 -50 4 -32 2 17 2 47 0 65 -2 17 -4 3 -4 -33z"/>
<path d="M1661 534 c0 -11 3 -14 6 -6 3 7 2 16 -1 19 -3 4 -6 -2 -5 -13z"/>
<path d="M1661 510 c-1 -3 -5 -39 -7 -80 -2 -41 -6 -95 -8 -121 -5 -52 9 -88
19 -48 6 23 2 259 -4 249z"/>
<path d="M2230 480 c0 -11 4 -20 9 -20 5 0 7 9 4 20 -3 11 -7 20 -9 20 -2 0
-4 -9 -4 -20z"/>
<path d="M1632 350 c0 -14 2 -19 5 -12 2 6 2 18 0 25 -3 6 -5 1 -5 -13z"/>
<path d="M1723 362 l-43 -3 2 -87 2 -87 5 75 c5 63 9 75 24 74 9 0 30 -1 45
-2 l29 -2 -1 -96 c-1 -53 2 -101 6 -107 4 -7 8 42 8 107 0 66 -3 116 -7 113
-3 -4 -11 -1 -17 6 -6 7 -29 11 -53 9z"/>
<path d="M1740 276 c0 -8 4 -17 9 -20 10 -7 23 19 14 28 -11 11 -23 6 -23 -8z"/>
<path d="M2401 267 c-1 -10 -8 -20 -16 -23 -8 -4 -15 -11 -15 -17 0 -6 10 -2
21 10 12 11 19 27 16 34 -4 10 -6 8 -6 -4z"/>
<path d="M1682 155 c0 -16 2 -22 5 -12 2 9 2 23 0 30 -3 6 -5 -1 -5 -18z"/>
</g>
</svg>
