<?xml version="1.0" standalone="no"?>
<!DOCTYPE svg PUBLIC "-//W3C//DTD SVG 20010904//EN"
 "http://www.w3.org/TR/2001/REC-SVG-20010904/DTD/svg10.dtd">
<svg version="1.0" xmlns="http://www.w3.org/2000/svg"
 width="1920.000000pt" height="1080.000000pt" viewBox="0 0 1920.000000 1080.000000"
 preserveAspectRatio="xMidYMid meet">

<g transform="translate(0.000000,1080.000000) scale(0.100000,-0.100000)"
fill="#000000" stroke="none">
<path d="M0 5400 l0 -5400 1911 0 c1050 0 1908 4 1905 8 -2 4 0 14 5 22 8 12
9 11 7 -4 -2 -10 3 -21 10 -23 6 -3 12 2 12 11 0 9 8 16 21 16 11 0 17 5 14
10 -4 6 -12 7 -18 3 -7 -4 -6 0 2 10 7 9 18 14 24 10 6 -4 8 2 5 15 -3 12 -2
23 3 26 5 2 4 3 -3 2 -7 -2 -13 -9 -13 -16 0 -7 -6 -15 -13 -18 -16 -5 -5 29
15 45 8 6 12 16 9 21 -3 6 2 8 14 5 11 -3 20 0 20 6 0 6 -5 11 -11 11 -5 0 -7
5 -4 10 3 6 -1 10 -9 10 -10 0 -13 6 -9 16 3 9 9 12 12 7 8 -13 44 -25 36 -13
-3 5 5 19 19 31 19 16 24 29 21 58 -3 41 10 73 29 69 21 -5 68 59 61 82 -4 11
-2 20 4 20 6 0 11 -6 12 -12 0 -7 5 -1 11 15 5 15 14 27 19 27 5 0 5 10 -1 25
-8 20 -7 23 7 18 11 -4 14 -3 9 6 -6 8 -1 10 18 5 23 -5 25 -4 20 21 -7 40 4
68 26 62 14 -4 20 1 22 22 2 15 8 25 16 23 8 -1 11 2 8 7 -5 8 23 39 31 34 1
-2 9 -3 16 -3 7 1 5 6 -6 14 -13 10 -15 16 -7 21 9 6 9 10 -1 16 -11 7 -12 10
-1 21 8 7 13 9 12 3 -5 -21 1 -23 27 -10 15 8 31 11 37 8 6 -4 4 1 -4 11 -13
17 -12 21 15 43 17 14 25 22 18 19 -6 -4 -14 -2 -17 3 -6 10 19 9 29 -1 11
-11 75 17 75 34 0 9 6 19 12 21 7 3 2 6 -12 7 l-25 1 22 11 c13 6 23 15 23 21
0 5 7 7 15 4 8 -4 17 -1 21 5 5 7 2 8 -6 3 -9 -6 -11 -4 -5 4 4 8 17 10 31 7
17 -5 23 -2 22 6 -2 7 3 12 10 10 10 -2 10 2 1 20 l-12 23 22 -19 c16 -15 20
-16 16 -5 -3 9 1 22 10 29 9 8 15 9 15 2 0 -6 10 -1 23 11 13 12 22 23 21 25
-5 8 44 51 76 67 29 15 33 15 22 2 -10 -12 -10 -17 -1 -23 7 -4 9 -3 6 3 -6
10 28 25 61 27 7 1 16 7 21 14 5 8 10 13 12 11 11 -6 49 14 49 27 0 11 -4 12
-19 4 -11 -5 -23 -10 -28 -10 -4 1 4 7 18 15 18 10 36 11 62 6 27 -7 37 -5 41
6 3 8 1 11 -4 8 -16 -10 -12 12 6 29 18 18 34 21 34 6 0 -5 5 -10 10 -10 6 0
10 8 8 18 -2 11 4 18 20 20 12 2 22 -1 22 -7 0 -6 5 -11 11 -11 6 0 9 7 5 15
-3 8 0 15 6 15 6 0 17 8 25 18 7 9 13 13 12 7 -3 -23 2 -36 12 -30 6 4 8 13 5
21 -3 7 3 18 14 24 16 9 18 8 13 -6 -4 -12 -3 -15 5 -10 7 4 12 14 12 22 0 8
5 14 11 14 5 0 8 -4 5 -9 -3 -5 5 -11 18 -13 17 -3 29 2 41 18 10 13 21 21 25
19 4 -3 21 2 36 10 16 8 38 13 49 10 11 -3 7 1 -9 9 -23 11 -25 14 -11 19 25
10 37 8 29 -4 -7 -12 20 -8 59 7 12 4 14 0 10 -15 -3 -13 -1 -21 6 -21 7 0 10
4 6 10 -3 5 3 18 13 28 11 11 21 25 24 32 2 7 25 16 51 20 42 6 47 5 47 -12 0
-10 5 -18 11 -18 5 0 8 4 5 9 -6 10 58 26 88 22 12 -2 16 1 11 10 -5 8 -4 10
4 5 9 -6 9 -11 0 -22 -24 -29 4 -13 35 20 33 36 89 56 78 28 -4 -12 -1 -14 14
-8 18 7 89 17 142 20 20 1 26 8 23 29 0 4 9 7 21 7 17 0 19 -3 9 -9 -8 -5 -9
-11 -3 -15 6 -3 13 -2 17 4 3 5 16 10 29 10 12 0 27 5 34 12 7 7 12 8 12 4 0
-5 7 -3 15 4 13 11 14 10 9 -3 -4 -13 0 -15 23 -12 15 2 39 4 53 4 20 1 22 3
10 11 -9 6 -10 10 -3 10 6 0 14 -4 17 -9 3 -5 17 -11 31 -13 13 -3 22 -1 19 3
-3 5 4 9 15 9 12 0 21 3 21 8 0 13 103 8 107 -5 3 -7 9 -13 14 -13 6 0 7 5 4
10 -4 6 18 10 59 10 36 0 67 -4 70 -9 3 -4 -6 -6 -19 -3 -14 2 -25 0 -25 -5 0
-11 43 -10 79 1 14 5 26 4 30 -3 10 -16 69 -32 77 -20 3 5 11 6 17 2 7 -4 21
-9 31 -10 11 -2 26 -9 35 -16 12 -9 13 -9 7 1 -5 8 1 12 19 12 18 0 24 4 19
12 -4 7 2 4 14 -6 12 -11 25 -16 29 -13 3 4 0 7 -7 7 -7 0 -11 2 -8 5 8 9 38
-6 32 -16 -3 -5 0 -9 5 -9 6 0 11 6 11 13 0 9 3 8 9 -2 5 -7 13 -11 19 -7 6 3
12 2 14 -4 1 -5 12 -11 23 -13 11 -2 37 -11 58 -21 25 -12 49 -17 72 -13 44 7
45 1 3 -12 -33 -10 -33 -10 9 -7 35 2 43 -1 54 -21 9 -16 15 -20 20 -11 6 9
13 9 34 0 34 -15 48 -15 39 0 -5 9 -3 9 9 -1 9 -7 14 -17 11 -22 -3 -5 5 -9
18 -9 13 0 34 -9 48 -20 14 -11 32 -20 41 -20 9 0 19 -3 23 -7 10 -11 50 -11
57 -1 4 6 16 0 27 -12 11 -12 25 -19 31 -16 5 4 13 1 17 -5 4 -8 3 -9 -4 -5
-7 4 -12 2 -12 -3 0 -6 7 -11 15 -11 8 0 15 -5 15 -11 0 -5 -4 -7 -10 -4 -6 3
-7 -1 -4 -9 3 -9 12 -16 20 -16 8 0 14 -4 14 -10 0 -5 10 -9 23 -9 16 1 18 2
5 6 -29 7 -20 18 16 19 24 0 33 -3 29 -13 -3 -7 -9 -10 -14 -7 -5 3 -9 0 -9
-5 0 -6 8 -10 17 -9 10 1 34 0 53 -1 33 -3 33 -4 10 -11 -24 -8 -24 -8 -2 -9
23 -1 30 -25 11 -37 -16 -10 12 -25 34 -18 11 3 17 0 17 -10 0 -9 7 -16 15
-16 9 0 12 6 8 15 -5 13 -2 14 20 4 14 -6 28 -20 30 -31 3 -10 9 -18 14 -17
21 4 29 -3 31 -28 3 -34 21 -56 23 -28 1 11 0 24 -1 30 -1 5 2 7 6 3 4 -4 14
-2 23 4 12 10 12 8 -1 -8 -22 -25 -23 -41 -2 -24 13 11 16 10 20 -8 5 -15 12
-19 31 -16 14 3 22 1 19 -5 -7 -11 19 -22 38 -15 8 3 17 0 22 -7 4 -8 3 -10
-5 -5 -6 4 -18 2 -27 -4 -18 -16 -1 -40 24 -33 22 5 61 -28 67 -57 5 -28 15
-39 15 -17 0 21 17 31 26 16 5 -8 3 -9 -6 -4 -8 5 -11 3 -8 -6 3 -8 10 -14 15
-14 6 0 15 -3 19 -8 4 -4 2 -7 -6 -7 -10 0 -10 -3 0 -15 6 -8 22 -13 33 -12
16 1 22 -3 21 -15 -1 -10 2 -18 8 -18 5 0 7 -4 4 -8 -3 -5 0 -9 7 -9 46 -2
105 -28 93 -41 -3 -2 -13 3 -22 12 -9 9 -19 14 -22 11 -4 -3 0 -10 8 -15 13
-8 12 -10 -2 -10 -22 0 -24 -16 -3 -24 8 -3 15 -1 15 5 0 6 5 7 11 4 6 -4 8
-14 4 -22 -5 -13 -3 -14 10 -3 9 7 15 9 14 4 -5 -26 2 -43 15 -38 9 3 12 13 9
22 -4 9 -4 15 -2 12 35 -41 43 -54 27 -41 -18 13 -24 7 -19 -21 0 -5 -9 -8
-22 -8 -20 0 -20 -2 8 -18 27 -17 31 -17 37 -3 5 9 6 3 4 -16 -3 -21 1 -33 10
-37 17 -7 14 -26 -6 -44 -13 -11 -11 -11 8 -2 20 10 26 23 25 58 -1 6 4 12 9
12 5 0 7 -13 3 -31 -6 -25 -2 -34 20 -55 14 -13 31 -24 36 -24 6 0 8 -4 5 -8
-7 -12 28 -39 44 -34 11 4 11 2 0 -10 -11 -12 -18 -10 -43 14 -24 21 -34 25
-49 17 -25 -14 -23 -17 8 -11 20 4 25 1 22 -9 -5 -16 -37 -20 -55 -6 -9 6 -13
5 -13 -4 0 -12 -2 -12 -9 -1 -4 8 -12 12 -17 10 -5 -1 -13 7 -19 19 -5 12 -20
27 -33 32 -13 6 -21 15 -18 19 3 5 -4 14 -14 22 -10 8 -17 17 -14 21 2 4 -5 5
-16 2 -14 -4 -21 1 -26 21 -4 19 -13 26 -30 26 -13 0 -24 4 -24 8 0 5 -13 7
-30 4 -18 -3 -30 0 -30 7 0 6 10 11 22 11 12 0 18 3 14 8 -11 10 -30 9 -39 -3
-8 -11 -49 34 -41 46 2 4 -3 9 -11 13 -8 3 -15 0 -15 -7 0 -9 -2 -9 -8 0 -5 7
-20 14 -35 15 -15 1 -27 8 -27 15 0 7 -5 13 -11 13 -5 0 -7 5 -4 10 6 10 3 11
-32 14 -10 0 -28 11 -41 24 -12 12 -27 20 -32 17 -6 -4 -13 1 -16 9 -3 9 -10
16 -16 16 -5 0 -6 -4 -3 -10 3 -6 -1 -7 -10 -4 -9 4 -14 9 -11 11 9 10 -22 33
-44 33 -13 0 -19 4 -14 11 4 8 0 9 -15 4 -13 -4 -21 -2 -21 5 0 6 -4 9 -9 5
-5 -3 -21 6 -35 20 -14 14 -26 23 -26 19 0 -3 -6 -2 -12 3 -7 6 -25 8 -41 6
-18 -2 -29 1 -33 12 -4 10 -13 13 -26 9 -15 -4 -28 3 -50 27 -17 19 -27 28
-23 20 6 -11 1 -12 -26 -8 -58 9 -123 29 -140 43 -9 8 -19 11 -23 7 -4 -4 -11
-2 -15 5 -4 7 -27 13 -49 14 -31 0 -42 5 -42 15 0 12 -3 13 -13 5 -15 -13 -57
-5 -57 10 0 6 -8 4 -17 -3 -10 -9 -14 -9 -10 -2 6 9 -6 11 -45 7 -34 -3 -46
-1 -34 4 19 8 18 9 -5 15 -13 4 -26 2 -28 -4 -2 -6 -10 -4 -20 5 -19 17 -81
29 -81 15 0 -4 -13 -7 -29 -7 -23 1 -29 5 -26 20 2 10 0 16 -5 13 -5 -3 -20 1
-32 9 -15 9 -30 11 -43 6 -11 -5 -15 -9 -10 -9 6 -1 3 -6 -5 -11 -23 -15 -123
-13 -114 2 5 9 2 9 -9 -1 -15 -12 -17 -11 -17 3 0 11 -9 16 -30 16 -16 0 -30
-5 -30 -10 0 -7 -13 -8 -37 -4 -21 4 -46 8 -55 8 -10 0 -18 7 -18 16 -1 9 -6
6 -14 -9 -13 -24 -56 -37 -56 -18 0 6 -8 0 -19 -11 -10 -12 -21 -19 -24 -15
-4 3 -17 7 -29 8 -13 2 -31 6 -41 10 -13 5 -16 3 -12 -8 7 -17 -28 -30 -42
-16 -11 11 -45 1 -39 -10 3 -4 -16 -7 -42 -8 -26 0 -56 -3 -67 -7 -20 -8 -20
-8 0 8 18 16 18 16 -15 10 -19 -4 -39 -11 -45 -17 -7 -7 -6 -8 2 -3 6 3 14 3
16 -2 3 -4 -22 -7 -56 -6 -55 2 -60 1 -42 -12 18 -13 17 -14 -17 -9 -21 4 -39
2 -43 -5 -3 -6 -10 -8 -15 -5 -5 3 -19 1 -31 -6 -17 -9 -20 -8 -13 3 4 7 -2 5
-13 -5 -21 -18 -58 -23 -68 -7 -7 12 -36 2 -52 -18 -7 -9 -16 -12 -20 -9 -3 4
-15 -1 -26 -10 -11 -10 -17 -13 -14 -7 4 7 -1 18 -10 25 -14 12 -15 11 -9 -9
6 -17 4 -21 -8 -16 -10 4 -16 1 -16 -7 0 -11 -3 -11 -10 1 -6 10 -10 11 -10 3
0 -7 -11 -13 -24 -13 -32 0 -73 -23 -68 -38 7 -21 -14 -13 -27 11 l-12 22 5
-22 c5 -26 -4 -29 -23 -10 -10 10 -11 8 -5 -7 6 -15 4 -17 -15 -11 -18 5 -22
3 -19 -12 2 -13 -4 -18 -22 -19 -45 -2 -50 -4 -50 -18 0 -8 -15 -17 -35 -20
-20 -4 -33 -11 -30 -17 4 -5 -3 -9 -14 -9 -12 0 -21 -5 -21 -11 0 -5 -4 -7
-10 -4 -5 3 -10 1 -10 -5 0 -6 -4 -9 -9 -6 -14 9 -41 -4 -41 -19 0 -8 -11 -14
-27 -13 -28 0 -90 -20 -65 -21 20 -1 14 -21 -7 -21 -10 0 -31 -10 -47 -22 -15
-13 -24 -16 -19 -9 5 10 4 12 -3 7 -7 -4 -12 -13 -12 -21 0 -8 -18 -24 -40
-36 -22 -13 -40 -28 -40 -35 0 -6 -14 -14 -30 -17 -17 -4 -30 -11 -30 -17 0
-6 6 -8 13 -4 6 4 1 -5 -12 -19 -16 -18 -28 -24 -35 -17 -7 5 -17 5 -26 0 -8
-6 -10 -10 -5 -10 6 0 -5 -10 -22 -21 -18 -12 -33 -29 -33 -39 0 -11 -5 -22
-10 -25 -6 -3 -10 -1 -10 4 0 6 -4 11 -10 11 -5 0 -10 -7 -10 -15 0 -8 -6 -15
-13 -15 -8 0 -22 -10 -33 -22 l-19 -23 25 20 25 20 -24 -27 c-13 -15 -28 -25
-32 -22 -5 3 -9 0 -9 -6 0 -6 -4 -9 -9 -5 -5 3 -12 1 -16 -5 -3 -5 -1 -10 4
-10 6 0 11 -5 11 -11 0 -8 -11 -9 -32 -5 -25 4 -29 3 -18 -5 11 -7 12 -12 3
-15 -7 -3 -9 -12 -6 -21 4 -11 3 -14 -6 -9 -8 5 -14 0 -18 -14 -3 -12 -11 -19
-19 -16 -15 6 -38 -19 -30 -33 3 -5 -1 -12 -10 -15 -22 -9 -26 -8 -18 6 4 7 3
8 -4 4 -7 -4 -9 -19 -5 -38 3 -18 2 -29 -3 -26 -5 3 -15 0 -22 -8 -7 -8 -10
-14 -7 -14 3 0 -2 -13 -12 -30 -9 -16 -21 -30 -26 -30 -4 0 -5 -5 -2 -10 6 -9
-8 -14 -27 -11 -5 0 -8 -4 -8 -9 0 -7 110 -10 340 -8 275 2 342 6 349 17 7 11
9 11 14 0 5 -12 7 -11 16 1 5 8 13 11 17 7 4 -4 13 1 20 11 12 16 14 16 29 -3
15 -19 15 -19 9 10 -3 17 -2 26 3 20 10 -13 73 -16 73 -3 0 5 -6 6 -12 3 -7
-4 -4 1 7 10 18 14 20 14 27 -2 3 -10 7 -13 7 -6 1 7 9 10 19 7 13 -4 12 -2
-3 7 -29 18 -31 19 -18 27 6 4 15 20 19 36 5 22 4 27 -6 21 -8 -5 -11 -4 -6 3
4 6 13 9 21 6 8 -4 12 -11 8 -17 -4 -7 0 -8 11 -4 14 6 17 3 12 -8 -3 -9 -2
-14 2 -13 70 34 74 39 40 56 -23 11 -23 11 -2 11 12 1 27 8 34 16 14 17 50 20
50 4 0 -6 -9 -8 -22 -4 -18 5 -20 4 -8 -4 13 -9 13 -11 -2 -11 -10 0 -18 -4
-18 -10 0 -18 24 -11 52 15 16 14 30 21 33 15 7 -12 25 -4 25 11 0 5 -6 9 -13
9 -8 0 -14 7 -14 15 0 8 4 15 9 15 4 0 8 -4 8 -9 0 -5 8 -8 18 -6 9 2 21 4 26
4 4 1 5 8 2 16 -7 19 21 32 36 17 15 -15 56 5 60 29 3 17 6 18 29 5 25 -13 26
-12 23 11 -2 23 0 25 27 19 21 -4 28 -2 23 6 -5 8 -2 9 9 5 10 -3 17 -2 17 4
0 6 7 6 20 -1 16 -9 18 -8 14 5 -7 17 11 21 21 4 5 -6 12 -4 20 8 13 17 14 17
21 0 5 -15 9 -16 15 -5 5 8 1 17 -14 25 -21 11 -21 12 8 13 68 2 91 6 103 18
16 14 42 16 42 2 0 -5 -12 -16 -26 -23 l-27 -14 37 2 c20 1 40 6 44 10 4 5 1
5 -5 1 -7 -4 -13 -3 -13 3 0 14 29 28 75 36 26 4 35 3 27 -3 -11 -8 -11 -10 1
-15 9 -3 21 0 27 8 10 12 75 31 93 26 5 -1 5 4 1 10 -3 6 0 15 7 20 22 14 28
11 22 -10 -4 -15 0 -20 15 -18 11 0 18 5 16 9 -3 4 11 8 30 8 22 0 36 -5 36
-12 0 -9 3 -9 8 -2 10 15 81 12 91 -4 6 -10 10 -9 14 7 3 14 12 20 24 18 28
-4 44 -17 37 -29 -5 -7 -1 -9 9 -5 10 4 17 1 17 -6 0 -7 7 1 15 17 8 15 12 33
9 38 -4 6 2 8 12 6 11 -2 18 -9 17 -15 -1 -6 7 -13 17 -16 11 -3 18 -1 14 4
-9 15 16 10 32 -6 8 -8 21 -12 30 -8 12 5 12 7 -3 20 -10 8 -3 7 17 -4 19 -10
38 -22 42 -28 5 -6 8 -6 8 2 0 6 -4 15 -10 18 -5 3 -10 12 -10 18 0 9 2 9 8 1
12 -18 92 -56 92 -43 0 7 9 9 22 6 15 -4 31 1 48 16 25 22 25 22 7 0 -18 -21
-18 -21 2 -16 11 3 34 0 52 -6 26 -9 30 -8 25 4 -3 8 -1 15 4 15 6 0 10 -9 10
-19 0 -24 20 -38 30 -21 6 9 9 9 12 0 2 -7 28 -12 71 -12 37 0 67 -5 67 -9 0
-5 11 -9 24 -9 14 0 28 -5 31 -10 3 -6 16 -8 29 -4 15 3 28 -2 41 -17 l20 -22
-25 8 c-22 7 -23 6 -12 -8 13 -15 56 -12 46 4 -3 5 3 9 12 9 10 0 15 -3 11 -6
-9 -9 26 -44 37 -36 16 10 76 10 76 -1 0 -14 24 -34 38 -29 6 2 12 -3 12 -11
0 -9 9 -19 20 -22 11 -4 17 -11 14 -17 -4 -6 3 -5 15 2 18 9 20 14 10 26 -7 9
-8 14 -1 14 6 0 19 -11 29 -24 20 -24 93 -52 93 -35 0 5 5 9 11 9 5 0 7 -5 3
-12 -4 -6 -3 -8 4 -4 6 3 25 -7 42 -24 17 -17 36 -27 42 -24 7 5 8 2 3 -6 -6
-10 -4 -12 11 -6 15 6 16 5 7 -5 -10 -10 -16 -9 -28 1 -13 11 -14 10 -9 -5 5
-12 15 -16 41 -13 23 3 32 0 29 -8 -7 -19 6 -25 22 -11 13 10 15 9 10 -4 -5
-13 -2 -16 13 -12 10 3 19 0 19 -6 0 -6 8 -11 18 -12 14 0 14 -2 -3 -8 -19 -8
-19 -8 3 -16 19 -5 23 -12 19 -31 -3 -19 -2 -22 9 -13 8 6 23 9 34 6 11 -3 18
-1 15 3 -3 5 -1 11 5 15 6 3 10 -3 10 -16 0 -18 2 -19 15 -9 14 11 19 7 16
-12 0 -5 2510 -8 5578 -8 l5580 0 0 5400 1 5400 -9600 0 -9600 0 0 -5400z
m9730 3121 c0 -21 -112 -104 -200 -149 -57 -30 -122 -66 -145 -81 -22 -15 -55
-33 -72 -40 -18 -8 -33 -17 -33 -22 0 -17 -29 -9 -44 13 -14 20 -13 22 32 51
26 17 75 43 110 59 34 15 83 41 110 57 129 80 242 132 242 112z m-710 -558 c0
-56 -65 -161 -86 -140 -4 3 42 142 52 158 12 20 34 8 34 -18z m-1284 -1606
c98 -62 124 -129 124 -316 0 -162 -18 -228 -89 -322 -62 -82 -86 -92 -199 -83
-137 11 -201 68 -242 216 -26 93 -28 257 -4 314 42 102 114 174 210 210 58 21
151 13 200 -19z m3442 -4 c60 -24 120 -90 140 -153 22 -73 21 -250 -2 -340
-44 -166 -131 -282 -222 -296 -68 -10 -138 0 -172 25 -44 31 -90 118 -108 200
-12 62 -12 86 0 193 27 230 105 380 203 391 53 6 117 -2 161 -20z m-740 -37
c-2 -19 -5 -22 -15 -14 -9 7 -13 7 -13 -2 0 -6 9 -14 20 -17 l20 -5 -20 -18
c-20 -17 -27 -40 -12 -40 4 0 14 6 21 13 10 10 10 6 0 -18 -7 -16 -20 -37 -28
-45 -9 -8 -15 -22 -13 -31 1 -8 -6 -24 -18 -34 -11 -10 -20 -26 -20 -37 0 -10
-5 -18 -10 -18 -6 0 -8 -11 -4 -26 5 -19 4 -25 -5 -20 -6 4 -11 5 -11 2 0 -2
-3 -11 -6 -20 -4 -11 -1 -16 10 -16 9 0 16 5 16 12 0 6 3 8 6 5 4 -4 1 -13 -6
-22 -10 -12 -10 -15 1 -15 8 -1 0 -13 -17 -28 -17 -15 -34 -35 -37 -45 -4 -10
-11 -16 -16 -13 -14 9 -21 -62 -10 -117 9 -48 19 -74 19 -48 0 7 5 9 13 5 10
-6 10 -4 0 7 -7 7 -13 20 -13 28 1 25 30 -18 30 -44 0 -11 10 -26 22 -34 19
-12 24 -11 40 9 10 12 15 27 11 33 -3 6 -1 7 5 3 9 -5 9 -13 2 -26 -13 -25
-13 -33 2 -23 7 4 21 7 30 8 10 0 18 3 18 8 0 4 0 11 0 16 0 5 -8 12 -18 15
-23 8 -23 44 1 52 12 4 16 12 12 25 -7 21 10 27 19 7 3 -7 3 -3 0 10 -5 21 -3
22 35 20 31 -2 41 -7 41 -20 0 -10 5 -18 11 -18 5 0 7 5 4 10 -4 6 8 2 27 -8
22 -13 34 -28 39 -50 3 -17 2 -29 -2 -26 -5 3 -9 -2 -9 -11 0 -9 5 -13 10 -10
6 3 10 -1 10 -10 0 -9 -4 -14 -9 -11 -5 4 -7 -3 -4 -14 3 -11 1 -20 -4 -20 -4
0 -8 -17 -8 -38 0 -24 -7 -46 -18 -56 -9 -10 -17 -22 -17 -27 0 -6 -4 -7 -10
-4 -5 3 -10 1 -10 -4 0 -18 17 -12 32 11 9 14 19 19 28 13 10 -6 10 -11 -4
-21 -10 -7 -17 -15 -16 -18 4 -29 -84 -39 -102 -12 -6 8 -11 7 -18 -4 -8 -13
-10 -13 -10 1 0 9 -7 22 -15 29 -9 7 -13 15 -11 18 3 3 -9 13 -27 22 -31 17
-33 17 -45 -1 -7 -10 -12 -27 -10 -36 2 -11 -3 -18 -13 -17 -9 1 -16 -5 -16
-12 0 -7 5 -11 11 -8 6 3 1 -4 -12 -15 -28 -25 -37 -64 -20 -94 7 -12 14 -33
14 -47 3 -48 5 -55 18 -73 12 -16 17 -16 35 -5 19 12 24 58 5 49 -5 -2 -8 -12
-6 -22 2 -11 -3 -17 -14 -15 -12 2 -18 15 -21 52 -2 27 -8 53 -14 59 -15 15
-10 35 10 35 11 0 28 8 37 18 17 16 18 16 11 -1 -4 -11 -4 -24 0 -30 10 -17
11 -47 1 -53 -4 -3 -6 -10 -2 -15 3 -6 12 -5 22 3 10 7 14 8 9 3 -8 -9 19 -55
40 -68 7 -5 11 -12 8 -17 -9 -15 14 -62 27 -54 7 5 9 0 6 -14 -3 -12 -3 -21 1
-20 3 0 11 -1 16 -2 6 -1 17 -3 25 -4 8 0 15 -10 15 -21 0 -11 4 -19 8 -17 12
5 58 -48 52 -58 -3 -5 -1 -11 5 -15 5 -3 10 2 10 11 0 15 4 14 25 -6 23 -22
23 -24 7 -37 -16 -12 -16 -13 2 -6 15 5 17 3 11 -8 -7 -11 -6 -12 6 -3 11 9
17 9 26 -1 6 -7 9 -16 6 -19 -4 -3 1 -6 11 -6 9 0 14 -4 11 -10 -3 -5 -2 -10
3 -10 5 0 14 -10 20 -22 8 -18 11 -19 11 -6 1 10 7 17 14 15 6 -1 11 5 9 13
-3 11 0 11 15 -3 14 -12 22 -14 30 -6 8 8 13 7 18 -2 6 -8 4 -10 -6 -4 -8 5
-11 4 -6 -1 4 -4 24 -7 43 -5 25 2 34 -1 32 -11 -2 -9 9 -13 40 -12 23 1 42
-2 42 -6 0 -4 10 -10 23 -13 21 -6 21 -6 3 8 -18 14 -16 15 30 15 27 0 69 5
94 11 74 18 80 18 80 9 0 -4 -3 -10 -7 -13 -5 -2 -2 -2 6 0 7 2 19 -1 26 -7 9
-8 14 -5 18 10 3 11 0 20 -6 20 -19 0 1 12 35 20 18 4 42 11 53 15 15 5 16 4
6 -3 -7 -5 -11 -14 -8 -19 7 -11 87 -4 87 9 0 5 -4 6 -10 3 -5 -3 -10 -1 -10
4 0 14 13 14 27 0 7 -7 12 -4 16 10 6 25 -4 26 -43 6 -16 -8 -31 -11 -34 -6
-6 10 43 35 63 32 8 -1 10 2 5 11 -4 7 -4 10 1 6 4 -4 20 -1 35 7 15 8 31 11
34 7 4 -3 4 2 0 13 -4 11 -4 17 0 13 4 -3 33 22 64 55 31 34 65 64 75 67 10 3
19 10 20 15 1 6 10 9 19 9 10 -1 15 3 12 7 -3 5 -10 7 -15 4 -5 -4 -9 1 -9 10
0 11 5 15 15 11 15 -5 19 8 16 47 -1 9 3 17 8 17 6 0 11 10 11 23 1 25 32 67
50 67 9 0 10 3 1 14 -12 14 -5 46 9 46 5 0 11 -6 13 -12 3 -7 6 -3 6 10 1 13
8 30 16 38 21 22 19 31 -12 42 -27 9 -27 9 9 9 33 -1 35 -3 27 -24 -6 -17 -5
-23 5 -23 9 0 12 -7 9 -19 -4 -16 -1 -19 16 -14 16 4 20 2 16 -9 -3 -8 3 -25
15 -38 21 -24 28 -66 9 -54 -8 4 -8 0 0 -15 7 -11 18 -21 26 -21 8 0 15 -2 15
-5 0 -19 -47 -117 -79 -164 -41 -60 -179 -195 -245 -240 -21 -14 -57 -38 -80
-53 -48 -33 -96 -37 -96 -10 0 10 5 23 12 30 7 7 8 12 2 12 -6 0 -16 -11 -24
-24 -13 -25 -50 -42 -50 -24 0 5 -7 2 -16 -6 -17 -18 -28 -21 -19 -6 7 11 0
12 -32 4 -13 -4 -23 -14 -23 -23 0 -14 2 -14 10 -1 6 9 10 10 10 3 0 -6 -4
-14 -9 -18 -12 -7 -42 35 -35 47 4 5 -3 4 -14 -3 -12 -7 -18 -17 -16 -21 3 -4
-7 -13 -22 -18 -20 -8 -29 -8 -34 0 -5 8 -9 6 -14 -5 -3 -9 -11 -13 -17 -9 -8
4 -9 3 -5 -5 10 -15 -34 -31 -55 -20 -9 4 -20 5 -25 1 -5 -4 -3 0 4 9 10 14
10 18 -3 23 -13 5 -19 -5 -16 -26 0 -3 -24 -8 -54 -10 -29 -1 -52 -1 -49 1 11
12 -20 28 -49 25 -23 -3 -28 -1 -17 6 15 10 12 11 -22 14 -7 1 -16 6 -20 11
-5 6 -8 5 -8 -2 0 -7 -7 -10 -17 -6 -13 5 -15 2 -10 -11 6 -14 3 -17 -9 -12
-8 3 -20 6 -24 6 -5 0 -7 9 -5 20 3 16 -2 20 -28 21 -18 1 -24 3 -14 6 9 2 17
9 17 15 0 6 -10 8 -22 4 -13 -3 -30 -6 -38 -6 -13 0 -13 -2 0 -11 12 -9 11 -9
-5 -4 -11 5 -30 8 -43 9 -12 1 -26 6 -30 12 -4 6 -20 10 -37 10 -23 -1 -29 3
-27 16 2 12 -2 16 -13 12 -8 -3 -12 -10 -9 -15 3 -5 -1 -9 -9 -9 -18 0 -104
88 -135 138 -33 53 -68 132 -82 183 -7 24 -23 78 -35 119 -38 123 -48 247 -42
493 7 296 44 518 86 509 21 -4 52 8 46 19 -4 5 1 9 10 9 10 0 13 -5 9 -12 -4
-6 3 -4 17 5 32 23 39 21 37 -7z m-2064 -217 c-3 -6 -1 -15 6 -19 8 -5 5 -9
-9 -13 -23 -6 -28 12 -9 31 15 15 21 16 12 1z m41 -69 c-3 -5 -11 -10 -16 -10
-6 0 -7 5 -4 10 3 6 11 10 16 10 6 0 7 -4 4 -10z m19 -96 c3 -43 8 -113 13
-154 20 -202 -5 -516 -48 -618 -19 -45 -56 -89 -70 -85 -4 1 -10 -10 -14 -25
-11 -45 -55 -83 -55 -47 0 8 9 15 20 15 11 0 20 5 20 10 0 9 -15 14 -23 8 -2
-2 -12 4 -23 12 -12 9 -15 9 -7 1 6 -7 9 -20 6 -27 -4 -12 -8 -12 -21 -2 -10
8 -13 9 -9 1 9 -14 -2 -45 -13 -38 -5 3 -11 -4 -15 -15 -3 -11 -9 -19 -13 -17
-13 4 -54 -31 -43 -37 14 -9 2 -36 -15 -36 -8 0 -14 -4 -14 -8 0 -4 -13 -15
-29 -25 -32 -19 -81 -23 -81 -7 0 6 -12 15 -26 20 -23 9 -30 7 -50 -17 -24
-28 -24 -28 -24 -5 0 13 -4 20 -10 17 -6 -3 -10 4 -10 16 l0 23 -21 -23 c-17
-18 -23 -20 -30 -9 -6 9 -9 6 -9 -11 0 -17 -4 -22 -18 -19 -21 6 -49 -18 -29
-25 7 -2 0 -4 -15 -3 -16 0 -28 4 -28 7 0 3 -7 6 -15 6 -8 0 -15 -4 -15 -9 0
-4 5 -8 11 -8 5 0 8 -4 4 -10 -3 -5 -19 -8 -35 -7 -23 1 -30 7 -30 22 0 16 -2
17 -9 5 -6 -8 -7 -18 -4 -24 3 -5 1 -6 -5 -2 -7 4 -12 2 -12 -3 0 -6 -11 -11
-25 -11 -14 0 -25 5 -25 10 0 6 -15 10 -33 10 -18 0 -38 5 -44 11 -13 13 -36
3 -28 -12 7 -11 3 -11 -19 -3 -21 8 -21 24 0 24 14 0 14 1 0 16 -21 20 -54 10
-58 -19 -3 -23 -43 -36 -59 -20 -6 6 2 8 21 5 23 -3 30 -1 30 13 0 14 -7 16
-32 13 -18 -3 -41 -8 -51 -13 -10 -4 -17 -4 -16 1 1 5 1 18 0 29 -1 15 -3 17
-10 6 -5 -7 -14 -10 -20 -7 -6 4 -11 2 -11 -3 0 -6 -5 -11 -11 -11 -5 0 -7 5
-3 12 5 8 2 9 -11 4 -15 -5 -16 -4 -6 8 10 12 7 16 -22 21 -19 4 -45 5 -57 3
-22 -3 -22 -4 9 -37 17 -19 29 -36 27 -38 -13 -13 -118 51 -170 103 -104 105
-286 400 -299 484 -3 19 -8 42 -11 50 -4 9 1 25 11 36 20 22 29 49 13 39 -6
-4 -10 18 -10 62 1 76 14 146 29 151 5 2 7 10 4 18 -3 8 -1 14 5 14 6 0 16 15
22 34 13 39 23 45 65 35 17 -4 24 -7 17 -8 -13 -1 -14 -58 -2 -76 7 -9 10 -33
14 -107 0 -14 4 -24 8 -22 4 3 12 -4 17 -15 6 -10 17 -21 26 -24 19 -8 55 30
48 50 -3 8 0 19 7 23 7 5 14 19 16 32 1 12 3 25 3 28 1 3 6 -2 11 -10 6 -10
10 -11 10 -2 0 6 7 12 15 12 9 0 15 9 15 24 0 21 3 23 32 17 22 -5 34 -13 35
-26 3 -19 3 -19 -6 0 -8 17 -10 15 -10 -13 -1 -18 3 -31 8 -27 5 3 12 1 16 -5
4 -6 10 -8 15 -5 4 3 13 -2 20 -10 8 -9 8 -15 2 -15 -6 0 -13 6 -15 13 -4 7
-6 6 -6 -4 -1 -9 9 -23 21 -31 22 -14 22 -16 5 -41 -20 -32 -22 -53 -4 -60 8
-3 14 1 14 9 0 8 -4 14 -9 14 -5 0 -6 5 -3 10 12 19 26 10 23 -15 -2 -14 -7
-25 -12 -24 -9 1 -26 -20 -26 -33 0 -4 7 -5 15 -2 8 4 15 1 15 -5 0 -6 -6 -10
-12 -8 -8 1 -13 -8 -12 -25 1 -15 -3 -25 -8 -22 -4 3 -6 9 -3 14 3 4 -3 14
-12 21 -12 10 -14 10 -9 2 5 -9 0 -13 -14 -13 -14 0 -19 -4 -14 -12 6 -9 3 -9
-9 0 -12 10 -20 11 -34 3 -17 -11 -17 -11 1 -9 10 2 21 -2 23 -9 3 -9 -4 -9
-29 -1 -18 5 -45 12 -59 15 -24 5 -27 2 -25 -24 2 -17 6 -36 11 -43 5 -9 4
-11 -3 -6 -21 13 -13 -8 13 -36 14 -15 25 -33 25 -39 0 -7 -6 -5 -13 6 -11 14
-16 15 -22 5 -5 -8 -2 -16 9 -22 9 -5 16 -19 16 -30 0 -12 3 -18 7 -15 3 4 13
1 21 -6 13 -10 14 -9 8 3 -5 8 3 2 17 -15 14 -16 23 -34 20 -39 -4 -5 -1 -6 4
-3 6 4 14 0 17 -9 3 -8 10 -13 15 -9 5 3 12 1 16 -5 3 -5 1 -10 -4 -10 -6 0
-11 -5 -11 -11 0 -6 9 -9 20 -6 11 3 18 0 17 -6 -1 -6 3 -11 10 -12 16 0 29
-15 13 -15 -9 0 -8 -6 5 -20 9 -10 20 -19 24 -18 17 2 34 -3 28 -8 -10 -10 16
-31 33 -27 8 2 29 -3 45 -11 17 -9 37 -16 46 -16 20 0 30 -10 23 -22 -3 -5
-11 -4 -19 2 -10 9 -13 7 -11 -5 3 -22 119 -60 179 -59 26 0 47 -3 47 -7 0 -5
10 -5 23 0 12 4 28 6 36 3 7 -2 16 0 20 6 3 5 32 12 64 15 41 4 56 3 51 -5 -4
-6 -3 -8 4 -4 5 3 13 0 16 -6 3 -7 4 -4 3 7 -1 12 4 20 13 20 8 0 14 -6 12
-13 -1 -8 2 -11 9 -6 6 3 14 2 18 -4 4 -6 15 -1 29 15 14 15 17 23 8 20 -9 -4
-18 -2 -21 2 -8 13 48 21 63 9 14 -12 41 15 42 42 0 12 2 12 8 2 5 -7 16 -10
25 -6 11 4 17 1 17 -9 0 -8 -5 -17 -12 -19 -6 -2 -12 -12 -14 -21 -1 -9 2 -15
7 -11 5 3 6 10 3 16 -5 7 0 9 12 6 16 -4 20 0 19 23 0 15 -4 25 -9 22 -5 -4
-6 -1 -2 5 11 18 36 15 30 -3 -5 -11 -2 -13 9 -9 9 3 13 12 10 20 -3 8 0 21 7
29 13 16 35 21 26 6 -4 -5 1 -8 11 -7 10 2 17 13 17 29 2 28 26 64 26 38 0
-11 3 -11 17 0 11 9 14 10 9 2 -5 -9 -2 -11 8 -7 18 7 21 30 7 39 -17 10 15
70 35 67 15 -3 16 -1 5 12 -12 14 -8 20 11 17 4 0 5 6 2 14 -5 11 1 15 20 15
16 0 26 6 26 14 0 8 6 17 13 19 7 3 5 6 -5 6 -10 1 -18 -6 -18 -16 0 -9 -2
-14 -5 -11 -10 9 7 68 18 61 6 -4 8 2 5 14 -4 16 -2 19 13 16 13 -4 19 0 19
11 0 10 5 14 10 11 6 -3 10 -1 10 6 0 13 8 10 9 -4 1 -12 28 -37 40 -37 6 0
11 7 11 15 0 8 -5 15 -11 15 -5 0 -8 4 -5 8 5 9 -9 12 -51 13 -19 1 -23 6 -22
33 1 20 3 24 6 10 3 -16 11 -21 33 -20 36 1 37 4 5 16 -18 7 -23 14 -18 26 4
10 2 15 -4 11 -5 -3 -10 1 -10 9 0 10 7 14 19 11 10 -3 18 -1 18 4 0 5 -5 9
-10 9 -7 0 -9 20 -5 58 4 31 8 67 8 80 1 12 5 22 10 22 4 0 5 11 3 25 -4 22
-2 24 14 15 10 -6 25 -10 32 -9 10 0 10 2 -1 6 -11 5 -11 7 0 15 10 7 9 9 -7
5 -17 -4 -21 1 -22 25 0 15 4 26 9 23 5 -4 9 -14 10 -23 0 -13 3 -12 11 5 8
18 7 28 -7 50 -16 24 -16 26 -2 14 14 -11 17 -11 18 0 0 8 2 23 4 34 2 10 -1
25 -7 32 -6 7 -7 13 -3 13 4 0 2 7 -6 16 -7 9 -9 18 -3 22 5 4 11 21 13 37 3
31 10 49 17 43 2 -2 6 -40 8 -84z m-372 -35 c62 -16 131 -40 153 -52 l40 -22
3 -74 c4 -102 1 -108 -46 -80 -20 12 -89 49 -152 82 -157 81 -168 90 -163 124
11 65 9 65 165 22z m2252 -34 c-4 -8 -1 -15 5 -15 8 0 7 -6 -1 -20 -11 -17
-10 -22 0 -29 11 -7 11 -9 -2 -14 -44 -17 -54 17 -20 71 16 25 26 29 18 7z
m1305 -21 c36 -9 78 -23 94 -31 25 -12 27 -18 27 -71 0 -67 -16 -132 -33 -132
-6 0 -77 31 -157 69 -80 37 -157 71 -172 75 -31 7 -33 14 -17 69 l10 37 91 0
c51 0 121 -7 157 -16z m-1074 -4 c-3 -5 -11 -10 -16 -10 -6 0 -7 5 -4 10 3 6
11 10 16 10 6 0 7 -4 4 -10z m-2578 -237 c102 -110 213 -249 213 -266 0 -5
-12 -31 -27 -58 -38 -71 -52 -66 -109 44 -125 243 -158 303 -180 330 -27 32
-31 57 -10 57 8 0 59 -48 113 -107z m2660 -35 c-3 -8 -6 -5 -6 6 -1 11 2 17 5
13 3 -3 4 -12 1 -19z m725 -31 c30 -20 103 -79 162 -132 89 -81 106 -101 106
-126 0 -36 -57 -103 -80 -94 -8 3 -31 31 -50 63 -19 31 -78 105 -132 164 -93
101 -114 139 -91 162 9 9 19 4 85 -37z m472 29 c-3 -9 -12 -12 -22 -9 -15 6
-9 11 25 22 1 1 0 -5 -3 -13z m-3524 -191 c0 -5 -5 -3 -10 5 -5 8 -10 20 -10
25 0 6 5 3 10 -5 5 -8 10 -19 10 -25z m2220 -226 c0 -6 -4 -7 -10 -4 -5 3 -10
11 -10 16 0 6 5 7 10 4 6 -3 10 -11 10 -16z m-3340 -89 c0 -5 -2 -10 -4 -10
-3 0 -8 5 -11 10 -3 6 -1 10 4 10 6 0 11 -4 11 -10z m800 -50 c0 -5 -5 -10
-11 -10 -5 0 -7 5 -4 10 3 6 8 10 11 10 2 0 4 -4 4 -10z m-65 -40 c3 -5 1 -10
-4 -10 -6 0 -11 5 -11 10 0 6 2 10 4 10 3 0 8 -4 11 -10z m-498 -26 c-3 -3
-12 -4 -19 -1 -8 3 -5 6 6 6 11 1 17 -2 13 -5z m793 -4 c0 -5 -5 -10 -11 -10
-5 0 -7 5 -4 10 3 6 8 10 11 10 2 0 4 -4 4 -10z m-255 -100 c-3 -5 -12 -10
-18 -10 -7 0 -6 4 3 10 19 12 23 12 15 0z m-85 -10 c0 -5 -5 -10 -11 -10 -5 0
-7 5 -4 10 3 6 8 10 11 10 2 0 4 -4 4 -10z m3500 -35 c0 -2 -10 -9 -22 -15
-22 -11 -22 -10 -4 4 21 17 26 19 26 11z m-149 -46 c11 -7 -12 -7 -50 0 -2 1
2 8 9 16 10 12 15 13 20 4 4 -6 14 -15 21 -20z m-5251 -1445 c0 -6 -18 -39
-40 -72 -22 -33 -40 -65 -40 -71 0 -6 -3 -11 -7 -11 -14 0 -8 157 6 174 26 32
81 19 81 -20z m6417 -270 c6 -27 12 -76 12 -108 1 -51 -1 -57 -12 -42 -7 9
-24 22 -37 29 -22 11 -25 19 -24 67 2 64 19 113 37 108 6 -3 17 -27 24 -54z
m-5791 -1184 c28 0 43 4 39 10 -4 6 7 10 27 9 18 0 27 -3 20 -6 -6 -2 -10 -9
-7 -13 3 -5 0 -12 -6 -16 -8 -4 -9 -3 -5 4 4 7 1 12 -7 12 -10 0 -13 -7 -10
-19 4 -16 9 -18 28 -11 28 11 97 1 89 -11 -3 -5 -10 -7 -15 -4 -12 8 -42 -22
-34 -35 4 -6 -5 -7 -25 -4 -16 4 -30 3 -30 -2 0 -5 -13 -9 -29 -10 -26 -1 -28
1 -15 13 18 18 18 23 -2 23 -8 0 -12 -4 -9 -10 3 -5 0 -10 -7 -11 -7 0 -21 -2
-30 -4 -10 -2 -18 1 -18 5 0 5 10 11 23 13 19 4 18 4 -5 6 -16 0 -28 -3 -28
-9 0 -16 -30 -12 -36 5 -5 12 -9 12 -28 0 -20 -14 -22 -13 -24 11 -2 21 2 25
21 23 12 -2 27 0 33 4 7 4 14 0 18 -8 3 -8 14 -15 24 -15 28 0 99 32 84 37 -7
3 -24 -2 -37 -11 -30 -20 -35 -20 -35 -1 0 9 -6 12 -17 8 -11 -4 -14 -3 -9 5
5 8 -2 12 -19 12 -14 0 -24 4 -20 10 4 6 15 6 31 0 14 -6 46 -10 70 -10z
m-193 3 c-7 -2 -21 -2 -30 0 -10 3 -4 5 12 5 17 0 24 -2 18 -5z m70 -7 c4 -10
1 -13 -9 -9 -7 3 -14 9 -14 14 0 14 17 10 23 -5z m440 -3 c-7 -2 -19 -2 -25 0
-7 3 -2 5 12 5 14 0 19 -2 13 -5z m-621 -41 c-5 -15 -4 -15 12 1 10 9 22 15
27 11 5 -3 16 2 25 11 17 17 41 15 37 -3 -1 -5 4 -16 12 -22 16 -13 20 -4 16
29 -2 7 2 10 7 7 18 -11 12 -76 -8 -86 -24 -13 -30 -13 -30 0 0 6 7 10 15 10
19 0 19 7 1 25 -11 12 -17 11 -34 -5 -19 -18 -21 -18 -27 -2 -6 14 -10 12 -20
-13 -7 -16 -10 -36 -7 -44 4 -11 -2 -10 -27 5 -17 10 -29 24 -27 31 3 7 -1 10
-10 6 -7 -3 -14 -11 -14 -18 0 -7 -11 -20 -24 -28 -23 -15 -23 -15 -21 14 2
22 -1 29 -14 28 -35 -3 -42 1 -36 21 5 15 3 18 -9 14 -9 -3 -13 -10 -10 -15 3
-5 -5 -9 -17 -9 -19 0 -20 2 -8 17 10 11 10 14 2 9 -7 -4 -13 -2 -13 3 0 6 13
11 30 11 16 0 41 6 56 12 22 10 28 10 32 0 2 -6 11 -12 20 -11 12 0 13 2 3 6
-27 11 11 21 40 11 20 -7 26 -14 21 -26z m595 12 c-8 -9 25 -44 35 -38 5 3 18
-2 29 -12 11 -10 31 -19 45 -20 42 -2 39 -14 -4 -14 -22 0 -49 -3 -59 -6 -15
-5 -15 -4 -3 5 8 6 10 11 4 11 -6 0 -14 -3 -18 -7 -4 -5 -27 -8 -51 -8 -35 0
-45 4 -49 19 -5 19 -6 19 -24 3 -20 -18 -37 -23 -27 -8 3 5 0 13 -7 17 -7 5
-3 11 13 17 13 6 27 9 32 9 4 -1 7 4 7 12 0 8 6 16 13 19 18 6 70 7 64 1z m66
-7 c-2 -4 -5 -7 -8 -7 -3 0 -12 0 -21 0 -8 0 -13 4 -10 9 7 10 42 8 39 -2z
m31 1 c-6 -10 -4 -10 8 0 13 10 17 10 22 -3 3 -8 0 -15 -6 -15 -6 0 -8 -3 -5
-7 4 -3 17 2 29 13 12 10 18 13 14 7 -4 -7 2 -22 15 -35 16 -17 20 -18 16 -6
-4 11 -2 15 6 12 7 -2 13 -13 14 -23 2 -21 -37 -22 -46 0 -4 8 -21 14 -44 15
-21 1 -40 4 -43 7 -6 6 13 47 22 47 3 0 2 -6 -2 -12z m183 -4 c-3 -3 -12 -4
-19 -1 -8 3 -5 6 6 6 11 1 17 -2 13 -5z m-1134 -49 c9 -17 37 -21 37 -5 0 11
69 10 76 -2 3 -4 -4 -8 -15 -8 -15 0 -19 -5 -14 -16 5 -13 2 -15 -17 -9 -17 5
-21 4 -15 -5 6 -10 1 -12 -23 -7 -29 6 -44 -2 -48 -25 -1 -5 -2 -11 -3 -14 0
-3 -7 -2 -13 2 -7 5 -21 9 -30 9 -15 1 -15 -1 -5 -13 10 -13 9 -15 -11 -10
-12 4 -20 2 -16 -3 3 -5 0 -10 -5 -10 -15 -2 -23 -4 -48 -13 -13 -4 -31 -2
-43 4 -16 8 -20 8 -18 -2 4 -16 -123 -20 -134 -4 -4 6 -8 -1 -8 -16 0 -21 -4
-25 -20 -21 -11 3 -20 10 -20 16 0 6 -2 8 -5 5 -10 -10 7 -38 24 -38 15 -1 15
-1 0 -10 -21 -12 -131 -22 -124 -11 2 5 16 6 31 3 24 -4 25 -3 15 17 -7 11 -9
21 -6 21 4 0 3 5 -1 11 -4 8 -9 7 -15 -2 -8 -12 -11 -11 -19 1 -5 8 -10 12
-11 8 -2 -11 -6 -26 -9 -35 -1 -5 -2 -11 -1 -15 1 -8 -56 -28 -80 -28 -10 0
-22 7 -27 16 -8 14 -12 12 -31 -15 -26 -36 -70 -40 -72 -6 -1 15 -2 16 -6 3
-5 -18 -33 -33 -33 -17 0 6 -4 7 -10 4 -15 -9 -12 7 5 29 15 19 15 19 16 -5 2
-23 2 -23 6 -1 2 12 9 22 14 22 5 0 8 5 7 11 -2 6 10 13 26 15 16 1 34 8 39
13 16 16 27 13 28 -6 1 -16 2 -17 6 -1 2 9 10 15 18 12 7 -3 16 -1 20 5 3 6
12 11 18 11 8 0 7 -3 -2 -9 -19 -12 -6 -61 17 -61 16 1 16 1 0 14 -10 7 -18
19 -18 27 0 11 2 11 10 -1 6 -10 10 -11 10 -2 0 6 5 12 11 12 5 0 7 -4 4 -10
-3 -5 -1 -10 5 -10 6 0 8 10 4 24 -4 18 -1 27 14 35 28 15 32 14 26 -4 -8 -19
3 -19 21 -1 8 7 11 17 7 21 -4 4 3 4 16 1 15 -5 22 -3 22 6 1 8 7 5 16 -7 16
-19 16 -19 9 5 -5 14 -15 31 -24 38 -14 11 -11 12 18 8 19 -3 38 -11 43 -18 6
-9 8 -7 6 7 -2 11 -7 23 -13 27 -6 4 -2 8 8 8 9 0 17 -4 17 -10 0 -5 7 -10 16
-10 8 0 12 -4 9 -10 -3 -6 1 -7 10 -4 14 6 14 8 -1 25 -15 17 -15 18 9 25 15
3 32 4 39 1 7 -3 2 -6 -12 -6 -20 -1 -22 -3 -10 -11 8 -5 25 -10 38 -10 13 0
21 -4 17 -10 -3 -5 -13 -6 -23 -3 -15 6 -16 5 -2 -13 8 -10 15 -20 16 -22 1
-2 11 13 22 33 12 19 25 34 29 33 4 -1 18 3 30 10 12 6 28 9 36 6 8 -3 18 0
23 7 5 8 3 10 -6 4 -9 -6 -11 -4 -5 5 10 17 96 5 108 -15z m1177 -6 c0 -3 -9
-9 -20 -12 -19 -5 -27 3 -15 15 8 7 35 6 35 -3z m-60 -9 c0 -5 -4 -10 -9 -10
-6 0 -13 5 -16 10 -3 6 1 10 9 10 9 0 16 -4 16 -10z m-785 -28 c-8 -8 -25 10
-19 20 4 6 9 5 15 -3 4 -7 6 -15 4 -17z m821 -2 c24 0 16 -17 -11 -22 -13 -3
-22 -2 -20 3 3 4 1 10 -5 14 -5 3 -10 2 -10 -4 0 -6 -8 -7 -17 -4 -15 6 -15 7
3 14 10 4 25 6 32 3 8 -2 20 -4 28 -4z m40 -27 c-11 -11 -17 4 -9 23 7 18 8
18 11 1 2 -10 1 -21 -2 -24z m54 13 c0 -10 7 -13 20 -11 11 2 18 0 15 -5 -3
-4 -13 -7 -23 -5 -9 2 -23 4 -30 4 -7 1 -11 5 -8 10 4 5 0 12 -6 14 -7 3 -3 6
10 6 13 1 22 -5 22 -13z m231 -4 c-7 -2 -18 1 -23 6 -8 8 -4 9 13 5 13 -4 18
-8 10 -11z m-2021 -26 c0 -2 -8 -10 -17 -17 -16 -13 -17 -12 -4 4 13 16 21 21
21 13z m2169 -73 c4 -3 -28 2 -47 6 -2 1 0 6 3 11 5 8 12 7 23 -2 10 -7 19
-14 21 -15z m-1322 1 c-3 -3 -12 -4 -19 -1 -8 3 -5 6 6 6 11 1 17 -2 13 -5z
m-100 -10 c-3 -3 -12 -4 -19 -1 -8 3 -5 6 6 6 11 1 17 -2 13 -5z m633 -22 c0
-4 -16 -6 -35 -4 -19 2 -35 6 -35 8 0 2 16 4 35 4 19 0 35 -4 35 -8z m-857 -9
c-7 -2 -21 -2 -30 0 -10 3 -4 5 12 5 17 0 24 -2 18 -5z m-843 -89 c0 -2 -9 -4
-21 -4 -11 0 -18 4 -14 10 5 8 35 3 35 -6z m328 -15 c-2 -7 -19 -13 -38 -15
-29 -3 -32 -2 -17 7 10 6 25 8 33 5 8 -3 14 -1 14 4 0 6 3 10 6 10 3 0 4 -5 2
-11z m-448 -64 c-7 -9 -15 -13 -19 -10 -3 3 1 10 9 15 21 14 24 12 10 -5z m40
-15 c-8 -5 -19 -10 -25 -10 -5 0 -3 5 5 10 8 5 20 10 25 10 6 0 3 -5 -5 -10z
m167 -12 c-3 -8 -6 -5 -6 6 -1 11 2 17 5 13 3 -3 4 -12 1 -19z m-287 -122 c0
-2 -7 -7 -16 -10 -8 -3 -12 -2 -9 4 6 10 25 14 25 6z m2957 -112 c-3 -3 -12
-4 -19 -1 -8 3 -5 6 6 6 11 1 17 -2 13 -5z m-3282 -73 c-3 -6 -11 -8 -17 -5
-6 4 -5 9 3 15 16 10 23 4 14 -10z m5160 -188 c-3 -16 -35 -57 -71 -93 -35
-36 -71 -75 -80 -87 -8 -13 -22 -23 -31 -23 -13 0 -15 9 -9 58 11 96 30 121
111 148 89 29 88 29 80 -3z m-5545 -138 c0 -8 -10 -19 -22 -25 -21 -10 -21
-10 -5 3 9 8 17 19 17 26 0 6 2 11 5 11 3 0 5 -7 5 -15z m2250 -225 c0 -11 -2
-20 -5 -20 -2 0 -9 9 -15 20 -9 16 -8 20 5 20 8 0 15 -9 15 -20z m-480 -24 c0
-3 -4 -8 -10 -11 -5 -3 -10 -1 -10 4 0 6 5 11 10 11 6 0 10 -2 10 -4z m-1975
-87 c-4 -6 -12 -3 -20 8 -10 13 -10 20 -2 25 14 8 31 -18 22 -33z m4525 6 c11
-13 10 -14 -4 -9 -9 3 -16 10 -16 15 0 13 6 11 20 -6z m-1190 -24 c0 -5 -7
-11 -14 -14 -10 -4 -13 -1 -9 9 6 15 23 19 23 5z m1213 -36 c-17 -22 -43 -34
-43 -18 0 12 33 43 47 43 11 0 10 -6 -4 -25z m34 -20 c1 -6 -7 -10 -18 -9 -12
0 -18 -4 -15 -12 3 -8 0 -11 -9 -8 -11 4 -11 10 -3 23 11 18 41 22 45 6z
m-3147 1 c0 -2 -8 -10 -17 -17 -16 -13 -17 -12 -4 4 13 16 21 21 21 13z m2077
-2 c-3 -3 -12 -4 -19 -1 -8 3 -5 6 6 6 11 1 17 -2 13 -5z m-3592 -44 c2 -20 0
-21 -10 -7 -7 9 -15 14 -19 10 -4 -4 -4 1 0 10 9 24 27 16 29 -13z m4765 -65
c0 -10 -45 -23 -55 -17 -5 4 4 10 20 13 17 4 31 7 33 8 1 0 2 -1 2 -4z m-3443
-40 c0 -8 -4 -15 -9 -15 -10 0 -11 14 -1 23 9 10 10 9 10 -8z m2593 -27 c0 -6
-6 -5 -15 2 -8 7 -15 14 -15 16 0 2 7 1 15 -2 8 -4 15 -11 15 -16z m-2705 -27
c3 -5 1 -12 -5 -16 -5 -3 -10 1 -10 9 0 18 6 21 15 7z"/>
<path d="M10302 6130 c0 -14 2 -19 5 -12 2 6 2 18 0 25 -3 6 -5 1 -5 -13z"/>
<path d="M10296 6071 c-15 -23 -16 -79 -2 -84 8 -3 12 3 11 16 -1 12 1 24 5
27 3 3 4 16 0 30 -4 19 -8 21 -14 11z"/>
<path d="M10279 5965 c0 -11 -2 -30 -5 -42 -3 -16 1 -23 11 -23 17 0 20 46 5
70 -8 12 -10 12 -11 -5z"/>
<path d="M10581 5744 c0 -11 3 -14 6 -6 3 7 2 16 -1 19 -3 4 -6 -2 -5 -13z"/>
<path d="M10292 5510 c0 -14 2 -19 5 -12 2 6 2 18 0 25 -3 6 -5 1 -5 -13z"/>
<path d="M11769 5073 c-13 -16 -12 -17 4 -4 16 13 21 21 13 21 -2 0 -10 -8
-17 -17z"/>
<path d="M11712 5035 c-13 -7 -19 -15 -14 -19 5 -3 17 3 27 14 21 23 19 23
-13 5z"/>
<path d="M11294 4915 c-18 -14 -18 -14 4 -8 12 3 22 9 22 14 0 12 -3 11 -26
-6z"/>
<path d="M11550 4910 c-8 -5 -12 -12 -9 -15 4 -3 12 1 19 10 14 17 11 19 -10
5z"/>
<path d="M11168 4893 c7 -3 16 -2 19 1 4 3 -2 6 -13 5 -11 0 -14 -3 -6 -6z"/>
<path d="M11070 4870 c0 -6 4 -9 9 -6 5 4 12 1 14 -4 3 -6 4 -5 3 2 -3 15 -26
23 -26 8z"/>
<path d="M10938 4863 c7 -3 16 -2 19 1 4 3 -2 6 -13 5 -11 0 -14 -3 -6 -6z"/>
<path d="M11378 4853 c7 -3 16 -2 19 1 4 3 -2 6 -13 5 -11 0 -14 -3 -6 -6z"/>
<path d="M10855 4840 c-3 -5 -2 -10 4 -10 5 0 13 5 16 10 3 6 2 10 -4 10 -5 0
-13 -4 -16 -10z"/>
<path d="M10936 4835 c4 -8 10 -12 15 -9 11 6 2 24 -11 24 -5 0 -7 -7 -4 -15z"/>
<path d="M11150 4841 c0 -11 26 -22 34 -14 3 3 3 10 0 14 -7 12 -34 11 -34 0z"/>
<path d="M10815 4820 c3 -5 10 -10 16 -10 5 0 9 5 9 10 0 6 -7 10 -16 10 -8 0
-12 -4 -9 -10z"/>
<path d="M10926 4794 c-4 -10 -1 -14 6 -12 15 5 23 28 10 28 -5 0 -13 -7 -16
-16z"/>
<path d="M11050 4799 c0 -5 5 -7 10 -4 6 3 10 8 10 11 0 2 -4 4 -10 4 -5 0
-10 -5 -10 -11z"/>
<path d="M11150 4806 c0 -2 7 -7 16 -10 8 -3 12 -2 9 4 -6 10 -25 14 -25 6z"/>
<path d="M6797 5789 c7 -7 15 -10 18 -7 3 3 -2 9 -12 12 -14 6 -15 5 -6 -5z"/>
<path d="M6760 5749 c0 -5 5 -7 10 -4 6 3 10 8 10 11 0 2 -4 4 -10 4 -5 0 -10
-5 -10 -11z"/>
<path d="M8403 5665 c-3 -9 -3 -19 1 -22 3 -3 2 -11 -3 -17 -6 -7 -5 -17 2
-27 10 -13 12 -7 14 33 2 49 -3 61 -14 33z"/>
<path d="M8347 5603 c-14 -13 -7 -23 16 -22 17 1 18 2 4 6 -9 2 -15 9 -12 14
7 10 1 12 -8 2z"/>
<path d="M8380 5560 c0 -5 5 -10 10 -10 6 0 10 -7 10 -16 0 -8 5 -12 10 -9 19
12 11 45 -10 45 -11 0 -20 -4 -20 -10z"/>
<path d="M6710 5441 c0 -5 5 -13 10 -16 6 -3 10 -2 10 4 0 5 -4 13 -10 16 -5
3 -10 2 -10 -4z"/>
<path d="M6776 5328 c3 -4 0 -8 -5 -8 -6 0 -11 -4 -11 -10 0 -16 14 -12 27 8
9 15 8 19 -3 19 -7 0 -11 -4 -8 -9z"/>
<path d="M8194 5193 c3 -6 2 -14 -4 -18 -5 -3 -10 -11 -10 -16 0 -6 7 -3 16 6
14 13 14 19 4 28 -10 9 -11 9 -6 0z"/>
<path d="M8330 5160 c0 -19 3 -21 12 -12 9 9 9 15 0 24 -9 9 -12 7 -12 -12z"/>
<path d="M6850 5160 c0 -5 5 -10 10 -10 6 0 10 5 10 10 0 6 -4 10 -10 10 -5 0
-10 -4 -10 -10z"/>
<path d="M8240 5111 c0 -5 7 -11 15 -15 8 -3 15 -1 15 3 0 5 -7 11 -15 15 -8
3 -15 1 -15 -3z"/>
<path d="M8298 5113 c7 -3 16 -2 19 1 4 3 -2 6 -13 5 -11 0 -14 -3 -6 -6z"/>
<path d="M8287 5082 c-14 -15 -15 -19 -2 -19 8 0 17 7 20 15 8 23 0 24 -18 4z"/>
<path d="M6990 4966 c0 -2 8 -10 18 -17 15 -13 16 -12 3 4 -13 16 -21 21 -21
13z"/>
<path d="M8050 4902 c0 -11 7 -22 15 -26 9 -3 15 0 15 8 0 7 -7 19 -15 26 -12
10 -15 9 -15 -8z"/>
<path d="M7360 4900 c0 -5 5 -10 10 -10 6 0 10 5 10 10 0 6 -4 10 -10 10 -5 0
-10 -4 -10 -10z"/>
<path d="M7920 4885 c-7 -9 -11 -17 -9 -20 3 -2 10 5 17 15 14 24 10 26 -8 5z"/>
<path d="M8026 4885 c-3 -8 -1 -15 4 -15 6 0 10 7 10 15 0 8 -2 15 -4 15 -2 0
-6 -7 -10 -15z"/>
<path d="M7475 4830 c-3 -5 -1 -10 4 -10 6 0 11 5 11 10 0 6 -2 10 -4 10 -3 0
-8 -4 -11 -10z"/>
<path d="M7592 4803 c-6 -2 -10 -9 -6 -14 8 -14 21 -11 21 6 0 8 -1 15 -1 14
-1 0 -7 -3 -14 -6z"/>
<path d="M6678 1783 c7 -3 16 -2 19 1 4 3 -2 6 -13 5 -11 0 -14 -3 -6 -6z"/>
<path d="M6845 1790 c3 -5 11 -10 16 -10 6 0 7 5 4 10 -3 6 -11 10 -16 10 -6
0 -7 -4 -4 -10z"/>
<path d="M5970 1730 c-13 -8 -12 -10 3 -10 9 0 17 5 17 10 0 12 -1 12 -20 0z"/>
<path d="M5916 1702 c-3 -5 1 -9 9 -9 8 0 12 4 9 9 -3 4 -7 8 -9 8 -2 0 -6 -4
-9 -8z"/>
<path d="M5766 1664 c-3 -9 -6 -19 -6 -24 0 -13 26 -19 41 -9 11 8 9 9 -6 7
-15 -2 -19 2 -18 20 3 26 -2 29 -11 6z"/>
<path d="M6538 1573 c7 -3 16 -2 19 1 4 3 -2 6 -13 5 -11 0 -14 -3 -6 -6z"/>
<path d="M5540 1455 c-11 -13 -8 -13 21 -3 44 15 48 18 17 18 -14 0 -31 -7
-38 -15z"/>
<path d="M7755 1180 c-3 -5 -1 -10 4 -10 6 0 11 5 11 10 0 6 -2 10 -4 10 -3 0
-8 -4 -11 -10z"/>
<path d="M6034 1128 l-19 -23 23 19 c12 11 22 21 22 23 0 8 -8 2 -26 -19z"/>
<path d="M4725 1110 c-3 -6 1 -7 9 -4 18 7 21 14 7 14 -6 0 -13 -4 -16 -10z"/>
<path d="M4745 1080 c3 -5 8 -10 11 -10 2 0 4 5 4 10 0 6 -5 10 -11 10 -5 0
-7 -4 -4 -10z"/>
<path d="M4670 1025 c0 -8 2 -15 4 -15 2 0 6 7 10 15 3 8 1 15 -4 15 -6 0 -10
-7 -10 -15z"/>
<path d="M8030 992 c0 -15 11 -21 27 -15 12 5 12 7 1 14 -17 11 -28 11 -28 1z"/>
<path d="M7605 940 c3 -5 8 -10 11 -10 2 0 4 5 4 10 0 6 -5 10 -11 10 -5 0 -7
-4 -4 -10z"/>
<path d="M8255 810 c-3 -5 -2 -10 4 -10 5 0 13 5 16 10 3 6 2 10 -4 10 -5 0
-13 -4 -16 -10z"/>
<path d="M8305 630 c3 -5 8 -10 11 -10 2 0 4 5 4 10 0 6 -5 10 -11 10 -5 0 -7
-4 -4 -10z"/>
<path d="M7146 388 c3 -5 10 -6 15 -3 13 9 11 12 -6 12 -8 0 -12 -4 -9 -9z"/>
<path d="M4001 321 c-9 -6 -10 -14 -4 -25 8 -15 11 -14 21 9 12 26 7 31 -17
16z"/>
<path d="M5745 320 c-3 -5 1 -10 9 -10 9 0 16 5 16 10 0 6 -4 10 -9 10 -6 0
-13 -4 -16 -10z"/>
<path d="M7387 319 c7 -7 15 -10 18 -7 3 3 -2 9 -12 12 -14 6 -15 5 -6 -5z"/>
<path d="M7424 310 c0 -11 5 -21 11 -21 16 -1 17 17 2 30 -12 9 -14 7 -13 -9z"/>
<path d="M7240 309 c0 -5 5 -7 10 -4 6 3 10 8 10 11 0 2 -4 4 -10 4 -5 0 -10
-5 -10 -11z"/>
<path d="M7354 298 c-4 -7 -4 -10 1 -6 4 4 14 3 22 -4 11 -8 12 -7 7 6 -7 19
-20 21 -30 4z"/>
<path d="M5380 171 c0 -6 4 -13 10 -16 6 -3 7 1 4 9 -7 18 -14 21 -14 7z"/>
</g>
</svg>
