<?xml version="1.0" standalone="no"?>
<!DOCTYPE svg PUBLIC "-//W3C//DTD SVG 20010904//EN"
 "http://www.w3.org/TR/2001/REC-SVG-20010904/DTD/svg10.dtd">
<svg version="1.0" xmlns="http://www.w3.org/2000/svg"
 width="480.000000pt" height="360.000000pt" viewBox="0 0 480.000000 360.000000"
 preserveAspectRatio="xMidYMid meet">

<g transform="translate(0.000000,360.000000) scale(0.100000,-0.100000)"
fill="#000000" stroke="none">
<path d="M0 3160 l0 -441 64 -59 c35 -33 88 -78 119 -101 30 -22 60 -51 67
-65 8 -13 19 -24 26 -24 6 0 33 -20 60 -45 26 -25 48 -45 49 -45 1 0 17 -13
36 -29 19 -16 57 -49 85 -73 134 -114 167 -145 177 -165 12 -22 6 -258 -7
-270 -3 -3 -12 0 -20 6 -8 7 -17 8 -20 3 -3 -5 15 -23 39 -41 24 -17 50 -37
57 -44 7 -7 29 -22 48 -33 19 -10 39 -25 43 -32 5 -7 12 -10 17 -7 5 3 11 -4
14 -17 4 -21 4 -48 -2 -218 -1 -36 -6 -60 -10 -54 -4 6 -18 15 -32 19 -45 14
-170 78 -170 86 0 5 -6 9 -13 9 -26 0 -134 59 -141 76 -13 33 -4 303 10 315
13 11 41 -1 78 -33 11 -10 27 -18 35 -18 13 1 12 4 -4 16 -11 8 -27 20 -36 27
-8 6 -22 17 -31 22 -68 45 -97 65 -109 77 -8 8 -48 38 -89 67 -72 50 -75 54
-81 99 -3 26 -5 98 -3 160 2 65 -1 112 -7 112 -5 0 -9 -55 -9 -129 0 -104 -3
-133 -16 -145 -24 -25 -9 -47 64 -94 37 -24 88 -58 115 -77 26 -20 47 -32 48
-28 0 5 4 -1 9 -12 10 -24 12 -244 2 -300 -6 -34 -11 -40 -32 -40 -14 0 -27 3
-30 6 -12 15 -201 101 -207 95 -4 -4 -2 -11 5 -15 8 -4 19 -30 27 -57 12 -44
13 -46 14 -16 1 25 5 32 20 32 11 0 23 -5 26 -10 3 -6 18 -10 33 -10 15 0 41
-9 57 -20 36 -24 49 -31 95 -54 90 -45 184 -95 199 -104 10 -6 0 -257 -11
-263 -12 -8 -65 5 -105 26 -15 8 -35 15 -43 15 -8 1 -60 17 -115 36 -55 19
-112 38 -127 41 -20 4 -28 13 -32 38 -4 19 -4 45 0 59 3 15 2 26 -4 26 -6 0
-13 -19 -17 -42 -4 -24 -9 -46 -11 -49 -5 -9 -101 17 -136 37 -34 18 -68 18
-68 -1 0 -8 6 -15 14 -15 30 0 414 -127 435 -144 11 -9 12 -39 7 -164 -6 -122
-5 -153 5 -150 9 3 12 23 10 63 -1 32 1 101 4 153 7 89 8 93 29 88 11 -4 46
-11 76 -17 30 -6 57 -14 60 -18 7 -9 161 -61 182 -61 18 0 20 -4 36 -100 l9
-55 2 68 c0 37 3 67 6 67 3 0 62 -19 131 -41 104 -34 127 -45 134 -65 5 -13
12 -24 16 -24 3 0 3 7 0 16 -5 14 0 15 41 9 27 -4 67 -16 91 -26 43 -20 43
-20 41 -72 -2 -95 1 -137 11 -137 6 0 10 37 10 90 0 50 4 90 9 90 9 0 61 -16
104 -32 36 -14 38 -64 2 -106 -14 -17 -25 -33 -25 -37 0 -3 -21 -39 -47 -78
-26 -40 -53 -84 -59 -98 -12 -28 -28 -41 -54 -47 -39 -8 -225 -21 -306 -22
-103 0 -104 1 -104 76 0 24 -4 44 -10 44 -5 0 -10 -25 -10 -55 0 -75 -14 -83
-171 -95 -68 -5 -191 -15 -274 -22 -82 -7 -207 -12 -277 -12 l-128 2 0 -229 0
-229 2400 0 2400 0 0 1800 0 1800 -2400 0 -2400 0 0 -440z m4761 -33 c6 -8 5
-661 -1 -1052 -2 -132 -4 -151 -11 -105 -5 30 -7 80 -4 110 3 30 1 80 -4 110
-9 50 -9 48 -5 -30 2 -56 1 -78 -5 -65 -6 13 -7 2 -4 -35 6 -48 4 -53 -9 -43
-8 7 -17 11 -20 8 -3 -3 -5 134 -5 305 -1 205 3 310 10 310 6 0 8 67 5 200 -3
110 -1 200 4 200 4 0 9 -19 9 -42 1 -26 4 -34 6 -19 7 35 -6 98 -17 81 -6 -9
-10 -3 -15 23 -10 53 -2 69 32 61 16 -4 31 -11 34 -17z m-147 -88 c0 -52 -2
-313 -2 -581 -1 -268 -6 -489 -11 -492 -12 -8 -21 45 -21 125 0 67 -1 69 -25
69 -22 0 -25 -4 -25 -40 0 -29 4 -40 15 -40 11 0 15 -12 16 -42 1 -24 1 -47 0
-52 -1 -5 4 -13 11 -17 10 -7 10 -11 0 -21 -6 -6 -12 -18 -12 -26 0 -7 -13
-25 -30 -39 -33 -27 -38 -43 -15 -43 12 0 15 -15 15 -74 0 -50 -4 -76 -12 -79
-8 -3 -6 -6 5 -6 24 -1 24 -73 0 -97 -13 -13 -14 -19 -5 -22 6 -2 12 -12 12
-23 0 -10 6 -19 14 -19 17 0 29 -104 20 -176 -4 -36 -3 -45 5 -34 10 13 11 13
12 0 1 -8 3 -22 4 -30 1 -8 3 -26 4 -39 2 -34 9 -22 15 23 3 21 7 40 9 42 9 9
17 -222 17 -476 l0 -268 -62 -5 c-35 -3 -83 -4 -108 -2 -25 2 -53 4 -62 4 -16
1 -18 13 -20 84 l-2 82 -5 -70 -6 -70 -7 94 c-5 52 -7 173 -6 270 l2 176 6
-125 5 -125 8 198 c4 109 5 202 2 208 -4 5 -4 9 0 9 3 0 10 -10 15 -22 6 -16
7 -9 3 26 l-6 48 46 -3 c33 -3 47 0 47 8 0 7 -11 13 -25 13 -31 0 -32 15 -3
31 16 9 23 9 26 0 2 -6 21 -11 43 -11 37 0 39 2 39 30 0 28 -2 30 -40 30 -39
0 -40 1 -40 36 0 25 -8 44 -30 67 -33 35 -38 57 -15 57 18 0 20 16 3 24 -10 5
-10 7 0 12 6 3 12 14 12 25 0 31 -44 25 -57 -8 -9 -24 -11 -18 -12 48 l-1 76
30 0 c62 0 65 42 4 46 -16 1 -32 7 -36 12 -12 16 -10 885 2 885 6 0 10 22 10
49 0 27 3 63 6 80 6 28 10 31 45 31 l39 0 0 43 c0 36 5 47 30 65 16 12 33 22
38 22 6 0 12 10 16 23 9 36 7 87 -5 87 -5 0 -8 4 -5 8 2 4 17 7 33 6 l28 -1
-1 -94z m-58 4 c-10 -10 -19 5 -10 18 6 11 8 11 12 0 2 -7 1 -15 -2 -18z
m-101 -73 c3 -5 -1 -10 -10 -10 -9 0 -13 5 -10 10 3 6 8 10 10 10 2 0 7 -4 10
-10z m-2320 -60 c10 -11 15 -20 11 -20 -24 0 83 -74 108 -75 28 0 31 -21 5
-42 -12 -10 -30 -26 -41 -35 -25 -24 -35 -23 -42 7 -4 14 -11 23 -16 20 -5 -3
-11 -1 -15 5 -10 16 -25 1 -25 -25 0 -13 -5 -27 -12 -31 -7 -4 -8 -3 -4 5 4 6
1 23 -8 36 -13 20 -22 23 -58 19 -32 -3 -38 -2 -23 5 17 8 18 10 3 10 -10 1
-18 7 -18 15 0 8 -15 17 -36 21 -24 4 -38 13 -41 26 -3 10 -9 16 -14 13 -5 -3
-7 -10 -4 -15 4 -5 -10 -9 -31 -9 -31 0 -35 -2 -24 -15 9 -10 9 -15 1 -15 -6
0 -11 -4 -11 -10 0 -5 6 -8 13 -6 6 1 9 1 5 -1 -5 -3 -8 -12 -8 -21 0 -15 -2
-15 -10 -2 -8 12 -10 12 -16 -3 -9 -25 -18 -21 -31 13 -12 33 -1 41 17 13 11
-17 11 -17 6 1 -4 12 3 26 21 42 16 14 37 33 48 43 20 19 70 32 138 37 21 1
41 5 44 8 13 13 51 5 68 -14z m95 -15 c0 -8 -7 -15 -15 -15 -16 0 -20 12 -8
23 11 12 23 8 23 -8z m-2123 -75 c38 -20 50 -29 89 -68 19 -18 38 -30 44 -27
15 9 12 -2 -5 -19 -14 -14 -13 -17 12 -30 15 -8 35 -24 43 -35 19 -28 33 -27
24 2 -3 12 -3 19 1 14 5 -4 9 -15 10 -25 1 -22 72 -122 86 -122 6 0 21 -13 34
-28 13 -16 30 -29 37 -29 7 0 21 -4 31 -8 13 -5 17 -2 17 13 0 12 -4 24 -10
27 -12 8 -13 35 -1 54 8 13 15 13 50 1 29 -9 44 -10 53 -2 9 7 18 7 31 -2 24
-18 21 -28 -13 -51 -25 -17 -30 -26 -28 -55 2 -45 -8 -63 -33 -55 -10 4 -19 4
-19 1 0 -11 61 -70 75 -72 18 -3 18 -2 6 29 -16 43 0 52 91 52 110 0 145 -11
151 -48 3 -26 2 -27 -25 -21 -24 5 -30 2 -35 -14 -3 -12 -19 -25 -35 -31 -21
-8 -28 -15 -24 -26 7 -20 -21 -32 -37 -16 -6 6 -15 11 -21 11 -5 0 4 -11 20
-25 16 -14 32 -25 37 -25 4 0 7 -6 7 -12 0 -7 29 -40 65 -73 36 -33 65 -65 65
-72 0 -27 -7 -22 -164 120 -38 34 -99 90 -135 125 -36 35 -80 75 -96 90 -17
15 -74 66 -128 115 -53 48 -105 95 -115 105 -10 9 -56 51 -102 92 -46 41 -97
87 -112 101 -27 26 -34 51 -22 83 5 14 10 13 29 -7 13 -12 36 -29 52 -37z
m1658 20 c-3 -5 -10 -10 -16 -10 -5 0 -9 5 -9 10 0 6 7 10 16 10 8 0 12 -4 9
-10z m225 -60 c0 -12 -48 -32 -64 -27 -6 2 3 11 19 19 37 20 45 21 45 8z
m-124 -55 c-4 -11 3 -19 19 -25 19 -7 25 -17 25 -41 0 -29 2 -31 33 -27 17 3
41 9 52 13 15 7 13 1 -10 -24 -51 -55 -123 -83 -110 -42 6 20 -13 71 -27 71
-11 0 -10 -4 8 -60 l16 -48 -38 -68 c-39 -71 -92 -161 -135 -227 -28 -44 -109
-87 -163 -87 -29 0 -38 5 -51 30 -20 38 -19 70 2 100 23 34 24 35 143 129 58
46 115 94 128 108 31 32 43 78 36 135 -6 44 -5 46 15 41 16 -4 27 1 37 16 18
24 29 28 20 6z m-1579 -11 c-3 -3 -12 -4 -19 -1 -8 3 -5 6 6 6 11 1 17 -2 13
-5z m1688 -44 c4 -6 -7 -10 -24 -10 -17 0 -31 5 -31 10 0 6 11 10 24 10 14 0
28 -4 31 -10z m307 -55 c-80 -98 -138 -134 -187 -117 -16 6 -45 13 -62 17 -34
7 -44 29 -19 38 9 4 16 23 18 49 3 40 5 43 33 46 17 2 34 8 40 13 15 15 23 10
30 -20 3 -16 15 -37 26 -47 26 -24 53 -8 57 33 2 22 10 32 30 39 23 9 29 7 39
-10 9 -17 8 -25 -5 -41z m323 25 c3 -5 1 -10 -4 -10 -6 0 -11 5 -11 10 0 6 2
10 4 10 3 0 8 -4 11 -10z m40 -30 c3 -6 -1 -7 -9 -4 -18 7 -21 14 -7 14 6 0
13 -4 16 -10z m15 -74 c0 -8 -6 -16 -12 -19 -7 -2 -10 -8 -5 -12 4 -5 13 -3
19 3 17 17 58 15 64 -3 4 -9 -10 -31 -38 -57 -24 -24 -52 -61 -62 -83 -16 -35
-19 -38 -26 -20 -10 27 -1 72 23 112 10 18 14 33 8 33 -11 0 -51 -83 -51 -106
0 -19 -16 -18 -24 2 -3 9 -6 37 -6 62 0 37 6 53 25 75 28 30 85 39 85 13z
m1638 -126 l-1 -95 -12 85 c-11 75 -13 80 -15 40 l-3 -45 -4 39 c-3 21 0 43 6
49 6 6 11 20 11 32 0 16 2 17 10 5 5 -8 9 -58 8 -110z m-2335 22 c1 -34 1 -62
-2 -62 -26 0 -42 95 -19 118 16 16 18 13 21 -56z m325 46 c-2 -6 -19 -17 -37
-23 -36 -12 -31 -28 5 -19 30 8 30 1 -5 -66 -29 -57 -56 -75 -68 -43 -3 10
-12 25 -20 35 -8 9 -13 31 -11 49 3 30 7 34 40 40 20 3 47 13 60 22 28 19 41
21 36 5z m496 6 c8 -3 12 -12 10 -19 -4 -9 1 -12 13 -9 10 2 33 -9 53 -26 19
-17 29 -30 22 -30 -15 0 -54 21 -64 35 -4 6 -12 11 -18 11 -5 1 -15 2 -21 3
-6 0 -9 7 -6 15 3 8 1 17 -6 20 -17 7 -2 7 17 0z m-252 -56 c-5 -31 -5 -32
-14 -9 -4 13 -6 33 -2 44 9 30 21 3 16 -35z m-622 15 c1 -10 7 -35 14 -55 8
-21 10 -38 6 -38 -13 0 -49 81 -43 96 7 20 23 17 23 -3z m984 -108 l59 -39
-29 -9 c-16 -5 -43 -20 -61 -33 -49 -37 -53 -36 -186 56 -22 15 -37 33 -37 45
0 22 46 79 71 87 8 3 39 -12 69 -32 30 -20 82 -54 114 -75z m-390 88 c14 -41
44 -78 79 -96 20 -10 37 -25 37 -33 0 -28 -33 -95 -53 -105 -17 -10 -24 -6
-46 22 -14 18 -30 56 -36 84 -10 48 -11 50 -49 55 l-38 5 43 43 c48 47 54 49
63 25z m-619 -50 c16 -21 35 -43 42 -50 17 -13 9 -33 -12 -33 -8 0 -48 -13
-90 -30 -42 -16 -80 -30 -85 -30 -17 0 -11 21 20 67 17 24 30 48 30 52 0 15
41 61 55 61 7 0 25 -17 40 -37z m1074 -26 c1 -5 -12 1 -29 13 -16 12 -30 26
-30 31 0 12 59 -32 59 -44z m-910 -33 c2 -2 2 -7 -2 -10 -8 -9 -47 6 -47 17 0
9 37 3 49 -7z m946 6 c3 -5 2 -10 -4 -10 -5 0 -13 5 -16 10 -3 6 -2 10 4 10 5
0 13 -4 16 -10z m-2015 -46 c0 -20 -71 -15 -78 5 -3 10 3 12 27 6 20 -4 31 -3
31 5 0 6 5 8 10 5 6 -3 10 -13 10 -21z m-110 2 c0 -7 10 -20 22 -28 21 -14 21
-15 3 -46 l-19 -31 -37 27 c-45 32 -55 50 -31 59 9 4 21 12 25 20 11 17 37 17
37 -1z m3427 -158 c-2 -24 -4 -5 -4 42 0 47 2 66 4 43 2 -24 2 -62 0 -85z
m-1267 83 c40 -20 49 -50 23 -73 -23 -20 -145 -38 -266 -38 -51 0 -99 -5 -107
-10 -13 -8 -12 -10 3 -10 9 0 17 -6 17 -14 0 -17 -298 -168 -303 -153 -1 5
-10 3 -18 -6 -9 -8 -27 -16 -40 -18 -28 -4 -133 43 -166 74 -37 33 -25 76 18
69 26 -4 31 36 7 58 -13 12 -18 25 -14 38 11 32 35 35 47 6 8 -23 14 -26 39
-21 20 4 34 1 45 -9 12 -12 32 -15 83 -13 109 4 160 0 164 -13 2 -10 13 -11
48 -1 l45 11 -40 1 c-22 1 -58 8 -80 16 -22 8 -55 14 -72 15 -23 0 -33 5 -33
15 0 8 -7 15 -15 15 -8 0 -15 7 -15 16 0 12 -6 15 -22 11 -55 -13 -102 -19
-96 -12 4 5 24 11 45 14 56 9 54 31 -4 33 -42 1 -43 2 -12 5 21 2 93 -9 162
-25 140 -33 150 -33 352 22 98 27 145 26 205 -3z m-1940 -20 c0 -11 -36 -51
-46 -51 -2 0 -8 8 -13 19 -7 13 -7 26 1 43 10 21 15 23 35 14 12 -6 23 -17 23
-25z m40 -37 c0 -4 -7 -12 -17 -19 -21 -16 -8 -35 24 -35 18 0 24 -4 19 -15
-3 -8 0 -26 6 -40 16 -35 6 -39 -35 -16 -19 10 -45 21 -58 23 -24 4 -24 5 5
16 24 10 27 16 22 38 -4 15 -2 32 5 40 12 14 29 19 29 8z m2070 -53 c13 -12
12 -13 -8 -8 -12 3 -20 1 -16 -4 6 -10 -19 -13 -28 -4 -3 4 -1 17 6 30 8 19
13 22 21 12 6 -6 17 -18 25 -26z m-2140 10 c0 -6 -4 -13 -10 -16 -5 -3 -10 1
-10 9 0 9 5 16 10 16 6 0 10 -4 10 -9z m439 -38 c-6 -7 -19 -15 -29 -18 -11
-3 -22 -15 -25 -26 -4 -11 -9 -18 -12 -15 -9 9 31 66 47 67 11 0 12 2 1 6 -11
5 -11 7 0 14 17 10 31 -11 18 -28z m-710 -33 c30 -28 58 -50 63 -50 9 0 10
-238 2 -252 -6 -9 -59 20 -92 50 -14 12 -31 22 -38 22 -11 0 -14 29 -14 140 0
105 3 140 13 140 6 0 36 -23 66 -50z m2461 0 l21 -30 -21 0 c-12 0 -18 4 -15
11 4 5 -1 19 -11 30 -9 10 -12 19 -6 19 6 0 20 -13 32 -30z m-2282 -25 c17 6
121 -55 122 -71 0 -14 30 -27 30 -14 0 6 5 10 12 10 9 0 9 -3 0 -12 -19 -19
-15 -51 4 -44 20 8 55 -21 48 -39 -3 -7 -1 -16 4 -19 6 -3 12 1 16 9 3 8 11
15 17 15 8 0 8 -4 -1 -15 -17 -21 -4 -32 20 -17 18 11 18 10 2 -18 -12 -21
-18 -25 -20 -14 -2 8 -8 14 -14 12 -6 -2 -35 21 -64 51 -54 54 -72 54 -33 0
25 -36 11 -38 -22 -3 -13 14 -54 50 -91 80 -74 61 -78 68 -70 110 l6 29 10
-28 c6 -17 15 -26 24 -22z m592 35 c0 -5 -8 -13 -17 -19 -10 -5 -15 -13 -11
-16 10 -10 -34 -44 -49 -38 -7 3 -16 -3 -19 -13 -14 -43 -27 -62 -40 -57 -8 3
-14 -1 -14 -11 0 -9 -4 -16 -9 -16 -5 0 -11 -10 -15 -22 -5 -19 -8 -21 -16 -8
-8 12 -10 9 -10 -11 0 -15 -7 -29 -15 -33 -14 -5 -94 -122 -109 -161 -6 -14
-10 -16 -13 -7 -3 8 0 19 6 25 6 6 11 17 11 23 0 15 72 125 94 143 9 7 16 18
16 24 0 18 70 78 83 71 9 -5 9 -4 1 5 -9 10 2 27 49 72 58 57 77 69 77 49z
m1608 -19 c3 -8 -1 -12 -9 -9 -7 2 -15 10 -17 17 -3 8 1 12 9 9 7 -2 15 -10
17 -17z m25 -32 c-6 -6 -17 -8 -24 -3 -9 5 -8 9 7 14 23 9 31 3 17 -11z m1568
-274 c6 -51 9 -279 7 -625 l-3 -545 -35 3 c-19 2 -36 5 -38 7 -2 2 -4 144 -5
317 -2 300 6 426 23 399 4 -7 6 22 5 66 -11 303 -14 485 -7 468 7 -16 10 -12
15 20 4 22 7 72 8 110 2 66 2 64 11 -35 4 -58 13 -141 19 -185z m-3581 266 c0
-10 -50 -25 -57 -17 -3 2 -2 9 2 15 8 13 55 15 55 2z m3537 -33 c-3 -7 -5 -2
-5 12 0 14 2 19 5 13 2 -7 2 -19 0 -25z m-1482 10 c14 -6 25 -15 25 -20 0 -4
8 -8 18 -8 12 0 13 -3 5 -8 -10 -6 -40 -7 -74 -3 -3 1 -11 12 -17 26 -13 29
-1 33 43 13z m95 -34 c0 -7 7 -19 15 -28 10 -10 12 -17 5 -21 -20 -13 -40 4
-40 34 0 16 -4 33 -10 36 -5 3 -10 11 -10 17 0 6 9 3 20 -7 11 -10 20 -24 20
-31z m-2086 13 c0 -9 -1 -33 -2 -53 -2 -31 -4 -35 -17 -24 -8 6 -19 9 -24 5
-6 -3 -8 0 -5 9 3 8 1 24 -5 35 -9 16 -7 23 11 35 27 19 43 16 42 -7z m-290
-40 c12 -9 34 -29 50 -43 l29 -26 -5 -109 c-2 -60 -7 -111 -10 -114 -3 -3 -17
-1 -32 4 -41 16 -30 -2 14 -23 22 -11 40 -22 40 -26 0 -4 8 -11 18 -14 79 -29
92 -52 92 -168 0 -97 0 -98 -24 -98 -14 0 -46 11 -72 25 -53 28 -72 32 -54 10
11 -14 14 -45 11 -167 -1 -67 -5 -69 -90 -41 l-51 16 0 124 0 123 49 -25 c28
-14 53 -21 56 -16 7 12 0 16 -51 30 -33 9 -43 17 -49 38 -9 36 5 255 17 271 7
8 7 12 -1 12 -9 0 -11 35 -10 122 2 146 4 156 32 131 11 -10 30 -26 41 -36z
m2361 -33 c19 -13 28 -14 39 -5 11 9 15 7 20 -11 3 -13 5 -32 5 -43 0 -16 -3
-14 -11 8 -7 19 -17 27 -34 27 -24 0 -32 -14 -15 -24 5 -3 11 -15 14 -27 5
-20 5 -20 -14 -3 -10 9 -19 27 -19 40 0 13 -4 26 -10 29 -5 3 -10 1 -10 -6 0
-7 -3 -10 -6 -6 -7 7 2 37 11 37 3 0 17 -7 30 -16z m1292 -86 c-2 -13 -4 -3
-4 22 0 25 2 35 4 23 2 -13 2 -33 0 -45z m-970 -40 c-2 -18 -4 -6 -4 27 0 33
2 48 4 33 2 -15 2 -42 0 -60z m-2245 18 c-15 -30 -31 -51 -36 -48 -5 3 -7 -1
-4 -9 4 -9 -2 -14 -17 -14 -27 0 -21 17 17 52 12 11 31 33 41 47 28 41 28 31
-1 -28z m-268 -12 l58 -55 -6 -57 c-7 -59 -24 -113 -35 -111 -3 0 -26 13 -51
28 l-45 27 -2 105 c-2 143 -2 143 81 63z m36 46 c0 -5 -2 -10 -4 -10 -3 0 -8
5 -11 10 -3 6 -1 10 4 10 6 0 11 -4 11 -10z m2249 -65 c13 -17 21 -45 13 -45
-14 0 -41 72 -34 89 5 12 8 10 10 -9 2 -14 7 -29 11 -35z m-47 18 c-5 -25 -6
-25 -19 -7 -12 16 -11 19 4 26 10 3 19 7 19 7 1 1 -1 -11 -4 -26z m-38 -97
c14 -30 26 -65 26 -78 -1 -15 -8 -5 -24 32 -46 107 -47 141 -2 46z m66 44 c0
-5 -4 -10 -10 -10 -5 0 -10 5 -10 10 0 6 5 10 10 10 6 0 10 -4 10 -10z m159
-152 c1 -27 -2 -48 -6 -48 -5 0 -8 44 -9 98 -1 78 1 87 7 47 4 -27 8 -71 8
-97z m28 20 c-2 -24 -4 -5 -4 42 0 47 2 66 4 43 2 -24 2 -62 0 -85z m-2240 75
c-3 -21 -13 -71 -21 -112 -9 -40 -14 -77 -11 -81 3 -5 -13 -27 -35 -50 -22
-23 -40 -46 -40 -51 0 -5 -7 -9 -16 -9 -13 0 -14 3 -5 14 9 10 8 15 -2 19 -24
9 -27 68 -6 99 11 14 19 31 19 36 0 22 40 103 49 98 5 -3 9 0 8 7 -1 30 4 47
13 47 6 0 10 -7 10 -15 0 -8 5 -15 11 -15 7 0 9 10 7 25 -4 17 -1 25 9 25 12
0 14 -9 10 -37z m2073 13 c0 -8 -4 -18 -10 -21 -5 -3 -10 3 -10 14 0 12 5 21
10 21 6 0 10 -6 10 -14z m-1274 -21 c20 -8 76 -24 125 -36 49 -11 89 -25 89
-31 0 -6 -15 -29 -33 -52 -19 -23 -36 -45 -38 -51 -17 -43 -151 -225 -213
-290 -45 -47 -90 -106 -108 -142 -33 -65 -48 -78 -48 -42 0 61 -35 71 -135 40
-33 -10 -62 -18 -63 -16 -2 2 24 30 57 62 34 32 61 65 61 73 0 8 14 53 31 100
17 47 37 103 44 125 18 58 92 212 117 246 25 33 58 38 114 14z m1311 -67 c-3
-21 -1 -38 4 -38 5 0 9 -19 8 -42 -1 -42 -1 -43 -11 -13 -5 17 -19 52 -29 78
-24 57 -20 73 5 25 l17 -33 -5 55 c-3 43 -2 50 6 30 5 -14 7 -42 5 -62z m70
20 c-3 -7 -5 -2 -5 12 0 14 2 19 5 13 2 -7 2 -19 0 -25z m-752 12 c12 -19 -75
-296 -105 -335 -16 -21 -51 -156 -45 -174 3 -11 19 -31 34 -44 32 -26 104
-117 98 -123 -2 -2 -22 5 -44 16 -22 10 -62 24 -89 31 -27 6 -55 16 -61 22
-19 14 -66 -1 -59 -18 11 -30 -12 -23 -41 13 -55 70 -56 78 -43 329 7 125 16
236 21 245 6 11 26 19 57 23 26 3 72 9 102 14 80 12 168 13 175 1z m628 -107
c14 -41 12 -73 -5 -73 -6 0 -8 10 -5 22 4 12 2 27 -2 32 -5 6 -11 29 -15 51
-7 47 6 30 27 -32z m-64 -61 c1 -7 -3 -10 -9 -7 -5 3 -10 21 -9 38 1 31 1 31
9 7 4 -14 8 -31 9 -38z m261 32 c0 -8 -4 -14 -10 -14 -5 0 -10 9 -10 21 0 11
5 17 10 14 6 -3 10 -13 10 -21z m-2740 -192 l0 -122 -24 4 c-13 2 -49 12 -81
22 l-57 18 4 121 c2 66 7 125 11 132 5 8 27 2 77 -20 l70 -32 0 -123z m2707
66 c-2 -13 -4 -3 -4 22 0 25 2 35 4 23 2 -13 2 -33 0 -45z m-227 37 c11 -13
10 -14 -4 -9 -9 3 -16 10 -16 15 0 13 6 11 20 -6z m86 -51 c-7 -19 -26 -18
-26 1 0 8 5 15 10 15 6 0 10 6 9 13 -3 27 4 40 8 14 3 -16 2 -35 -1 -43z m907
-126 c4 -79 7 -252 7 -385 l0 -243 -89 0 c-59 0 -92 4 -99 13 -22 26 -12 744
10 731 5 -3 6 -15 3 -27 -2 -12 -2 -16 1 -9 3 7 25 12 55 12 35 0 54 5 68 19
11 11 17 22 14 25 -4 3 0 6 9 6 12 0 16 -25 21 -142z m-3128 83 c5 -17 4 -22
-6 -19 -8 3 -15 18 -17 34 -4 33 11 24 23 -15z m-108 -3 c18 -7 33 -15 33 -18
0 -4 18 -13 40 -20 22 -7 40 -17 40 -22 0 -4 7 -8 15 -8 8 0 16 -8 17 -17 0
-10 2 -29 3 -43 2 -14 5 -47 8 -74 l6 -49 -46 7 c-46 6 -121 29 -154 47 -14 7
-19 21 -19 48 0 55 12 161 18 161 3 0 21 -5 39 -12z m2992 -40 c-1 -18 2 -175
6 -348 l8 -315 -74 5 -74 5 -7 60 c-4 33 -7 130 -7 215 0 203 -1 193 11 280
l10 75 56 27 c31 14 61 27 65 27 4 1 7 -14 6 -31z m-403 -77 c5 -24 3 -31 -9
-31 -16 0 -27 29 -27 75 0 29 0 29 15 8 8 -12 18 -36 21 -52z m993 -191 c5
-113 6 -224 2 -245 -8 -48 -22 211 -20 379 2 149 7 112 18 -134z m-769 85 c6
-55 10 -183 8 -285 l-3 -185 -52 0 c-29 1 -55 3 -58 7 -10 10 -17 430 -8 493
8 60 8 60 42 61 19 0 37 6 39 13 10 29 22 -11 32 -104z m-2594 -26 c24 -27 17
-39 -13 -24 -30 16 -37 43 -27 95 l7 35 10 -45 c5 -25 15 -52 23 -61z m2341
39 c-2 -13 -4 -5 -4 17 -1 22 1 32 4 23 2 -10 2 -28 0 -40z m60 0 c2 6 8 12
13 12 19 0 32 -101 37 -292 l5 -208 -35 0 c-50 0 -86 16 -96 42 -9 23 -9 23
-20 -4 -11 -30 -37 -36 -71 -18 -15 8 -18 24 -20 107 -7 271 0 309 52 301 21
-3 24 -10 30 -72 10 -106 25 -103 33 8 6 77 10 94 20 86 10 -8 15 -4 20 21 6
24 9 28 17 18 7 -11 11 -11 15 -1z m-2299 -68 l23 -30 -35 0 c-39 0 -50 11
-41 40 9 28 28 25 53 -10z m472 -2 l0 -32 -20 22 c-12 12 -31 22 -43 22 -18 0
-19 2 -7 10 8 5 27 10 43 10 24 0 27 -4 27 -32z m-402 10 c7 -7 12 -20 12 -30
0 -12 5 -15 17 -11 12 5 14 3 8 -7 -5 -8 -4 -11 2 -7 6 4 16 0 23 -8 10 -12 9
-15 -8 -15 -11 0 -36 7 -56 15 -30 13 -36 20 -36 45 0 31 17 39 38 18z m292
-18 c-14 -11 -31 -20 -38 -20 -7 0 -31 -9 -53 -20 -64 -33 -89 -41 -83 -27 2
7 23 21 47 32 125 57 172 70 127 35z m906 -64 c50 -23 101 -49 115 -59 l24
-19 -25 15 c-14 7 -59 26 -100 42 -41 16 -79 32 -84 37 -6 4 -27 8 -48 8 -36
0 -47 8 -32 23 11 10 51 -3 150 -47z m806 20 c8 -13 12 -81 12 -186 l1 -165
-35 2 c-19 2 -52 2 -72 2 l-36 0 -6 53 c-4 29 -8 78 -9 108 -2 30 -4 6 -5 -55
l-2 -110 -115 0 c-70 0 -115 -4 -115 -10 -1 -10 33 -16 165 -29 33 -3 96 -11
140 -16 44 -5 148 -14 232 -20 83 -5 173 -14 200 -19 26 -6 132 -13 236 -17
103 -3 187 -10 187 -15 0 -5 -261 -9 -613 -9 l-614 0 -15 54 -15 55 35 3 34 3
-1 120 c-2 132 3 162 24 145 10 -9 19 -6 35 10 20 20 23 20 45 6 22 -14 24
-14 28 2 3 12 6 8 11 -13 15 -61 21 -59 26 10 4 39 7 62 8 53 1 -10 7 -18 12
-18 6 0 10 -24 11 -52 0 -29 4 -73 8 -98 7 -36 8 -24 9 60 0 58 5 116 11 130
10 25 10 24 10 -7 1 -45 22 -41 45 8 16 35 20 39 28 24 6 -9 8 -28 5 -41 -2
-13 0 -24 4 -24 5 0 9 -53 10 -117 0 -65 4 -127 9 -138 6 -12 7 41 4 135 -6
172 1 212 36 203 11 -3 26 -15 32 -27z m-1592 -42 c0 -24 -4 -44 -10 -44 -5 0
-10 23 -10 51 0 31 4 48 10 44 6 -3 10 -26 10 -51z m630 -24 c0 -16 -4 -30
-10 -30 -11 0 -14 43 -3 53 11 12 13 8 13 -23z m-995 10 c-3 -5 -10 -10 -16
-10 -5 0 -9 5 -9 10 0 6 7 10 16 10 8 0 12 -4 9 -10z m1466 -190 l2 -85 6 82
c4 45 10 85 14 89 4 4 7 -3 7 -16 0 -18 3 -20 14 -11 12 10 15 5 21 -27 10
-61 3 -132 -14 -142 -16 -9 -71 23 -71 40 0 5 -20 50 -44 100 -46 95 -46 97 9
102 41 4 54 -25 56 -132z m-666 110 c-3 -5 -1 -11 5 -15 5 -3 15 3 22 15 10
16 23 20 69 20 l57 0 39 -52 c21 -29 60 -88 87 -130 26 -43 52 -78 57 -78 5 0
9 -5 9 -12 0 -7 11 -22 23 -33 13 -11 29 -30 36 -42 l12 -23 -575 0 c-507 0
-575 2 -570 15 4 8 9 15 13 15 74 6 368 3 364 -4 -3 -4 61 -5 143 -2 229 10
284 16 284 31 0 8 -4 16 -9 20 -14 8 -519 10 -527 2 -4 -4 7 -7 24 -7 18 0 32
-4 32 -10 0 -6 -40 -10 -100 -10 -96 0 -136 14 -67 23 17 3 2 3 -36 2 -54 -2
-65 0 -57 10 7 8 49 16 108 20 122 8 148 13 135 26 -11 11 -88 7 -165 -6 -42
-8 -46 -1 -21 35 32 46 66 64 61 33 -2 -12 3 -17 15 -15 9 2 17 -2 17 -8 0 -5
14 -10 30 -10 26 0 30 4 30 26 0 14 5 34 10 44 7 13 7 21 0 25 -5 3 -10 19
-10 36 0 24 4 29 24 29 35 0 56 -10 56 -26 0 -27 16 -14 35 29 l19 42 7 -35
c4 -19 11 -53 15 -75 l7 -40 8 40 c4 22 5 48 3 58 -3 10 0 17 9 17 21 0 28
-12 16 -27 -7 -7 -7 -13 -2 -13 5 0 15 11 21 24 10 23 15 24 82 22 49 -2 82 3
108 14 37 17 57 17 47 0z m2342 -217 c-2 -16 -4 -3 -4 27 0 30 2 43 4 28 2
-16 2 -40 0 -55z m-2817 57 c0 -5 -5 -10 -11 -10 -5 0 -7 5 -4 10 3 6 8 10 11
10 2 0 4 -4 4 -10z m-565 -129 c3 -5 -2 -16 -10 -24 -8 -9 -15 -20 -15 -26 0
-8 -118 -11 -387 -11 -212 0 -384 3 -381 6 4 3 89 9 190 14 101 5 246 16 323
24 77 9 165 17 195 19 30 2 60 4 67 5 6 1 14 -2 18 -7z m895 -1 c0 -5 -4 -10
-10 -10 -5 0 -10 5 -10 10 0 6 5 10 10 10 6 0 10 -4 10 -10z"/>
<path d="M4733 2400 c0 -47 2 -66 4 -42 2 23 2 61 0 85 -2 23 -4 4 -4 -43z"/>
<path d="M4703 2100 c0 -36 2 -50 4 -32 2 17 2 47 0 65 -2 17 -4 3 -4 -33z"/>
<path d="M4593 3080 c0 -25 2 -35 4 -22 2 12 2 32 0 45 -2 12 -4 2 -4 -23z"/>
<path d="M4573 2670 c-6 -15 -7 -26 -1 -29 15 -5 20 5 16 31 l-5 23 -10 -25z"/>
<path d="M4460 1720 c0 -22 5 -40 10 -40 6 0 10 18 10 40 0 22 -4 40 -10 40
-5 0 -10 -18 -10 -40z"/>
<path d="M4601 674 c0 -11 3 -14 6 -6 3 7 2 16 -1 19 -3 4 -6 -2 -5 -13z"/>
<path d="M2058 2893 c7 -3 16 -2 19 1 4 3 -2 6 -13 5 -11 0 -14 -3 -6 -6z"/>
<path d="M2023 2833 c-32 -13 1 -47 35 -36 17 6 15 30 -4 37 -9 3 -16 6 -17 5
-1 0 -8 -3 -14 -6z"/>
<path d="M785 2360 c-3 -5 -1 -10 4 -10 6 0 11 5 11 10 0 6 -2 10 -4 10 -3 0
-8 -4 -11 -10z"/>
<path d="M2076 2567 c3 -10 9 -15 12 -12 3 3 0 11 -7 18 -10 9 -11 8 -5 -6z"/>
<path d="M2175 2560 c-3 -5 1 -10 10 -10 9 0 13 5 10 10 -3 6 -8 10 -10 10 -2
0 -7 -4 -10 -10z"/>
<path d="M2094 2529 c-3 -6 -2 -15 4 -21 15 -15 46 -5 50 15 3 12 -3 17 -22
17 -14 0 -28 -5 -32 -11z"/>
<path d="M2483 1998 c-12 -13 -35 -36 -53 -51 -18 -16 -30 -31 -27 -34 3 -3
32 20 64 51 32 31 53 56 47 56 -6 0 -20 -10 -31 -22z"/>
<path d="M2215 1990 c10 -11 20 -20 23 -20 3 0 -3 9 -13 20 -10 11 -20 20 -23
20 -3 0 3 -9 13 -20z"/>
<path d="M2260 1931 c0 -5 7 -12 16 -15 14 -5 15 -4 4 9 -14 17 -20 19 -20 6z"/>
<path d="M4739 1605 c-4 -38 -7 -83 -7 -100 -1 -16 -2 -37 -3 -45 -1 -8 -1
-44 0 -80 1 -48 4 -61 12 -48 5 10 8 85 7 180 -2 127 -4 147 -9 93z"/>
<path d="M1260 1551 c0 -6 4 -13 10 -16 6 -3 7 1 4 9 -7 18 -14 21 -14 7z"/>
<path d="M1245 1510 c3 -5 8 -10 11 -10 2 0 4 5 4 10 0 6 -5 10 -11 10 -5 0
-7 -4 -4 -10z"/>
<path d="M1198 1433 c7 -3 16 -2 19 1 4 3 -2 6 -13 5 -11 0 -14 -3 -6 -6z"/>
<path d="M1215 1390 c-3 -5 -1 -10 4 -10 6 0 11 5 11 10 0 6 -2 10 -4 10 -3 0
-8 -4 -11 -10z"/>
<path d="M3991 1206 c-10 -12 -8 -13 8 -9 12 3 21 9 21 14 0 14 -16 11 -29 -5z"/>
<path d="M3800 1103 c0 -10 5 -25 10 -33 7 -11 10 -7 10 18 0 17 -4 32 -10 32
-5 0 -10 -8 -10 -17z"/>
<path d="M3610 720 c0 -47 4 -80 10 -80 6 0 10 33 10 80 0 47 -4 80 -10 80 -6
0 -10 -33 -10 -80z"/>
<path d="M3112 780 c0 -14 2 -19 5 -12 2 6 2 18 0 25 -3 6 -5 1 -5 -13z"/>
<path d="M1956 711 c-8 -13 4 -91 14 -91 8 0 3 90 -4 98 -2 2 -7 -1 -10 -7z"/>
<path d="M2070 616 c0 -22 3 -27 11 -19 8 8 8 16 0 30 -9 16 -10 14 -11 -11z"/>
<path d="M1939 589 l-24 -5 22 -8 c25 -8 113 2 113 13 0 9 -78 9 -111 0z"/>
<path d="M2590 570 c19 -13 30 -13 30 0 0 6 -10 10 -22 10 -19 0 -20 -2 -8
-10z"/>
<path d="M0 2280 c0 -8 113 -80 127 -80 10 0 -28 33 -72 63 -42 29 -55 33 -55
17z"/>
<path d="M168 2163 c7 -3 16 -2 19 1 4 3 -2 6 -13 5 -11 0 -14 -3 -6 -6z"/>
<path d="M848 913 c0 -26 0 -55 1 -63 1 -8 2 -41 1 -72 0 -34 4 -58 10 -58 13
0 14 227 0 235 -6 4 -11 -13 -12 -42z"/>
<path d="M618 883 c7 -3 16 -2 19 1 4 3 -2 6 -13 5 -11 0 -14 -3 -6 -6z"/>
<path d="M1147 863 c-8 -17 -6 -63 3 -63 6 0 10 16 10 35 0 34 -5 43 -13 28z"/>
</g>
</svg>
