<?xml version="1.0" standalone="no"?>
<!DOCTYPE svg PUBLIC "-//W3C//DTD SVG 20010904//EN"
 "http://www.w3.org/TR/2001/REC-SVG-20010904/DTD/svg10.dtd">
<svg version="1.0" xmlns="http://www.w3.org/2000/svg"
 width="500.000000pt" height="375.000000pt" viewBox="0 0 500.000000 375.000000"
 preserveAspectRatio="xMidYMid meet">

<g transform="translate(0.000000,375.000000) scale(0.100000,-0.100000)"
fill="#000000" stroke="none">
<path d="M0 3500 c0 -165 3 -249 10 -245 5 3 10 11 10 17 0 16 126 232 165
283 18 24 35 50 37 57 4 10 19 7 64 -13 87 -39 122 -48 207 -55 42 -4 77 -10
77 -13 0 -3 -16 -17 -35 -30 -48 -33 -90 -82 -122 -144 -24 -45 -27 -64 -28
-143 0 -63 4 -96 14 -107 11 -15 9 -23 -18 -66 -66 -102 -85 -203 -56 -286 14
-39 14 -41 -14 -70 -26 -28 -77 -101 -248 -354 -39 -57 -63 -103 -61 -115 3
-16 14 -4 48 49 25 39 60 93 79 120 19 28 52 77 74 110 86 128 150 206 160
196 7 -7 3 -27 -11 -62 -12 -28 -22 -57 -22 -64 0 -7 -17 -48 -39 -91 -89
-181 -141 -309 -189 -459 -88 -278 -103 -334 -100 -378 4 -41 4 -41 11 -12 14
52 47 166 116 399 27 93 104 286 113 286 3 0 2 -15 -4 -32 -5 -18 -16 -62 -24
-97 -8 -35 -16 -66 -18 -70 -8 -12 -75 -326 -87 -406 -7 -44 -23 -134 -36
-200 -14 -66 -31 -163 -38 -215 -8 -52 -19 -122 -24 -155 -6 -33 -11 -142 -11
-242 l0 -183 46 0 c102 0 640 -142 690 -181 6 -5 96 -54 200 -108 179 -93 497
-283 630 -378 l62 -43 111 0 112 0 -83 73 c-278 242 -608 431 -1013 579 -233
85 -370 115 -563 125 -129 6 -133 7 -106 22 38 20 233 27 347 12 125 -17 349
-75 497 -131 100 -37 347 -163 477 -244 133 -82 253 -174 407 -314 l136 -122
145 0 c80 0 145 2 145 4 0 2 -14 34 -30 72 -17 37 -29 69 -26 71 9 9 163 -41
220 -71 79 -42 96 -52 109 -65 6 -6 18 -11 26 -11 11 0 10 4 -4 20 -10 11 -26
20 -35 20 -9 0 -25 9 -36 21 -30 33 -90 60 -199 89 l-100 26 -68 120 c-37 65
-84 153 -103 194 -20 41 -52 96 -70 122 -19 27 -32 48 -29 48 3 0 68 -32 145
-70 147 -74 198 -94 265 -105 22 -4 53 -20 70 -35 17 -15 47 -33 68 -40 74
-23 201 15 234 70 9 16 30 35 46 41 45 19 176 124 218 174 20 24 50 66 65 92
l29 48 3 -33 c2 -18 -6 -81 -17 -140 -11 -59 -22 -127 -26 -152 -3 -25 -14
-81 -23 -124 -17 -78 -18 -80 -72 -119 -144 -106 -163 -123 -191 -171 -30 -53
-36 -76 -19 -76 6 0 10 6 10 13 0 33 64 109 135 162 74 54 105 73 105 62 0 -3
-11 -57 -25 -121 -14 -64 -25 -120 -25 -126 0 -6 66 -10 183 -10 l184 0 39 48
c22 26 55 68 74 94 18 27 38 48 43 48 16 0 -2 -62 -28 -94 -14 -17 -37 -46
-51 -63 l-27 -33 56 0 c49 0 57 3 63 23 4 12 8 108 9 212 1 138 5 197 15 215
7 14 40 54 72 90 32 36 75 94 95 130 46 83 51 89 153 173 47 38 120 104 162
145 l77 75 89 -6 c143 -9 189 -46 179 -143 -5 -47 -11 -58 -54 -100 -115 -111
-251 -232 -278 -247 -24 -13 -26 -16 -10 -17 31 0 66 27 210 164 73 69 145
130 160 136 40 15 85 12 133 -10 23 -10 42 -15 42 -9 0 12 -61 39 -87 39 -42
1 -44 14 -15 81 64 142 110 313 127 477 8 75 19 82 102 71 66 -9 151 -58 199
-113 39 -45 71 -134 81 -226 4 -36 9 -57 11 -47 6 28 25 19 62 -28 19 -24 36
-42 38 -40 9 9 -11 43 -48 83 -32 34 -40 50 -40 81 0 59 -61 172 -121 224 -57
50 -165 97 -222 97 -35 0 -37 2 -39 33 -1 17 -1 41 -1 52 1 41 -17 283 -27
360 -6 44 -17 159 -25 255 -20 240 -23 268 -35 325 -6 28 -12 59 -14 70 -3 11
-11 48 -20 83 -8 35 -13 72 -11 83 2 10 0 19 -6 19 -5 0 -9 10 -9 23 0 12 -7
35 -16 52 -14 27 -14 35 2 91 11 41 15 87 12 138 -2 42 0 76 4 76 7 0 70 -127
149 -300 23 -52 49 -100 56 -106 7 -6 13 -16 13 -23 0 -12 21 -53 31 -61 4 -3
18 -36 32 -75 14 -38 46 -119 71 -178 25 -60 46 -117 46 -126 0 -9 4 -21 9
-27 10 -10 32 -67 97 -257 24 -70 44 -133 44 -140 0 -6 6 -24 14 -39 8 -15 17
-41 21 -58 4 -17 14 -43 22 -58 14 -26 14 -24 7 28 -3 30 -15 77 -26 104 -10
27 -17 55 -14 63 3 8 1 11 -4 8 -6 -3 -10 5 -10 18 0 13 -3 27 -7 30 -7 8 -28
65 -75 202 -16 50 -34 95 -39 101 -5 6 -13 34 -20 62 -6 29 -15 52 -20 52 -5
0 -9 8 -9 18 0 10 -4 22 -9 28 -5 5 -23 50 -41 99 -33 91 -84 198 -179 378
-28 53 -51 99 -51 102 0 2 7 2 15 -1 8 -4 15 -3 15 0 0 11 -73 121 -120 181
-26 33 -51 71 -55 85 -4 14 -23 54 -41 89 -19 35 -34 65 -32 66 2 1 19 10 38
20 96 49 214 152 258 227 9 16 20 28 25 28 4 0 24 -35 43 -77 19 -43 41 -91
49 -108 14 -29 216 -571 228 -610 3 -11 24 -72 46 -135 l39 -115 1 533 1 532
-214 0 -214 0 -22 -32 -21 -33 4 33 c3 26 0 32 -15 32 -15 0 -18 -8 -18 -49 0
-61 -16 -82 -115 -150 -72 -50 -106 -63 -70 -28 8 9 18 35 21 59 4 24 12 65
19 92 14 52 11 76 -9 76 -15 0 -42 -43 -29 -47 9 -3 7 -65 -4 -93 -3 -8 -7
-19 -7 -25 -3 -27 -40 -105 -51 -105 -6 0 -22 12 -36 26 -28 30 -91 64 -133
73 -48 10 -40 26 21 46 64 21 147 70 177 104 26 29 7 26 -35 -5 -47 -37 -178
-97 -195 -90 -8 3 -14 18 -14 34 0 27 6 32 60 52 33 12 60 24 60 26 0 2 -36 4
-80 4 l-80 0 5 -27 c3 -16 7 -44 10 -63 3 -19 7 -45 9 -57 3 -14 0 -22 -7 -20
-7 1 -15 -20 -20 -53 -34 -218 -95 -439 -151 -553 -13 -26 -19 -50 -14 -53 10
-6 37 24 38 42 0 5 9 28 19 50 11 22 23 52 26 67 4 15 11 27 17 27 5 0 7 4 4
9 -5 8 16 84 35 126 9 20 19 77 41 223 l12 82 36 0 c87 0 193 -101 252 -239
28 -67 32 -89 36 -189 3 -89 1 -123 -13 -160 -9 -26 -19 -54 -22 -62 -3 -10
-14 3 -30 35 -37 72 -73 115 -95 115 -18 0 -17 -4 12 -36 112 -128 121 -380
17 -515 -46 -61 -53 -59 -49 14 5 89 -31 207 -55 183 -4 -3 0 -18 8 -33 19
-36 19 -244 0 -293 -70 -179 -158 -272 -282 -300 -80 -18 -90 -9 -31 29 56 36
108 94 164 185 43 69 49 106 18 106 -12 0 -17 -5 -14 -13 7 -19 -49 -121 -95
-173 -87 -99 -176 -149 -284 -160 l-68 -7 3 48 c3 48 4 49 57 77 67 34 131 95
164 157 31 58 57 169 46 199 -15 39 -29 24 -29 -31 0 -121 -52 -213 -160 -284
-35 -24 -67 -43 -71 -43 -4 0 -14 39 -23 88 -9 48 -19 99 -22 113 -5 24 -2 27
58 44 69 21 52 33 -23 16 -24 -6 -48 -6 -53 -1 -4 4 4 38 19 75 21 53 25 76
19 108 -8 52 -40 127 -54 127 -14 0 -13 -11 10 -55 22 -44 26 -114 9 -164 -14
-38 -24 -39 -37 -3 -17 50 -100 175 -169 255 -151 175 -396 307 -633 341 -39
5 -43 4 -27 -8 9 -7 40 -17 68 -20 173 -23 376 -125 518 -260 63 -60 71 -71
142 -177 79 -120 139 -266 144 -354 2 -24 7 -49 11 -57 17 -25 8 -307 -11
-378 -46 -175 -56 -200 -83 -214 -40 -21 -67 -55 -87 -108 -15 -41 -21 -47
-39 -42 -17 4 -34 -7 -71 -44 -105 -105 -107 -107 -100 -133 5 -21 1 -26 -30
-38 -71 -25 -139 -115 -104 -137 22 -13 -126 -81 -256 -116 -106 -28 -300 -35
-405 -14 -162 32 -328 98 -198 79 347 -52 711 156 885 507 21 41 38 77 39 80
0 3 3 12 7 20 10 25 37 227 37 278 0 75 -29 277 -46 317 -8 20 -12 41 -8 47 4
6 3 8 -3 5 -6 -4 -16 7 -22 24 -15 45 -86 154 -140 219 -129 153 -291 248
-502 295 -167 36 -465 -17 -590 -106 -17 -12 -33 -18 -36 -15 -19 19 178 173
301 235 134 68 376 122 470 106 17 -3 45 -2 61 3 27 8 24 9 -30 15 -33 3 -105
2 -160 -3 -236 -21 -546 -183 -663 -348 -20 -27 -21 -33 -8 -38 9 -3 37 7 63
22 74 43 124 66 176 80 l48 12 -19 -32 c-40 -67 -57 -138 -57 -236 0 -85 3
-100 27 -141 15 -25 34 -52 43 -59 16 -13 16 -15 -2 -21 -10 -4 -45 -8 -78 -8
-104 0 -179 39 -236 122 -33 48 -34 52 -34 151 0 91 3 107 29 161 16 33 45 75
64 93 19 18 32 36 28 39 -13 13 -84 -70 -129 -150 -58 -104 -73 -179 -54 -263
16 -65 37 -112 73 -161 31 -41 30 -47 -3 -26 -55 33 -102 87 -130 147 -23 51
-28 74 -28 141 0 91 20 146 75 208 22 25 27 37 17 37 -39 0 -107 -122 -134
-242 -12 -55 -13 -77 -4 -114 7 -26 10 -49 7 -51 -3 -3 -42 12 -88 34 -46 22
-106 50 -135 63 -28 12 -54 27 -56 34 -8 20 34 129 65 169 16 20 24 37 18 37
-20 0 -52 -42 -86 -113 -22 -46 -42 -75 -57 -80 -21 -8 -21 -9 -4 -22 15 -11
16 -17 8 -34 -18 -33 -13 -135 10 -197 20 -52 44 -82 137 -168 27 -25 28 -32
1 -46 -26 -14 -65 -9 -61 8 1 8 -2 10 -8 7 -14 -8 -39 23 -40 48 0 27 -20 20
-20 -8 0 -15 12 -38 26 -52 l26 -26 -58 6 c-33 3 -83 18 -118 36 -53 26 -65
38 -93 89 -29 51 -33 70 -34 133 -1 73 -1 74 -14 39 -21 -54 -18 -90 14 -155
34 -73 68 -107 132 -136 27 -13 49 -26 49 -29 0 -11 -42 -29 -93 -40 -101 -22
-197 35 -230 136 -32 97 -32 146 -1 287 11 48 -14 29 -31 -24 -26 -77 -16
-226 19 -293 14 -27 33 -58 43 -68 22 -25 4 -23 -62 7 -100 44 -182 146 -221
274 -17 53 -18 171 -3 243 14 65 69 178 116 235 20 24 33 46 29 50 -20 21
-141 -154 -184 -267 l-20 -55 -17 40 c-24 56 -16 154 18 220 43 83 142 172
211 189 20 5 26 10 18 18 -20 20 -83 -13 -154 -80 -69 -66 -106 -120 -118
-177 -8 -40 -22 -36 -38 12 -31 89 17 220 117 320 57 57 96 81 216 133 21 9
25 15 14 17 -30 7 -127 -38 -194 -89 -82 -64 -90 -59 -89 55 0 64 5 92 23 128
52 108 161 196 255 206 65 7 72 28 10 28 -44 0 -42 -6 -30 113 l7 62 -48 0
c-35 0 -44 -3 -33 -10 8 -5 23 -10 33 -10 16 0 17 -7 11 -67 -3 -38 -7 -74
-10 -80 -5 -19 -155 -17 -200 2 -29 12 -35 19 -31 35 3 11 1 18 -4 15 -5 -4
-7 21 -5 55 3 46 0 60 -10 60 -8 0 -14 -6 -15 -12 -3 -37 1 -120 6 -128 12
-20 -31 -9 -81 20 -52 29 -104 81 -104 104 0 9 -27 13 -90 15 l-90 2 0 -251z
m2376 -656 c95 -19 234 -72 234 -89 0 -6 -12 -17 -27 -24 -15 -7 -65 -37 -110
-67 -46 -30 -91 -54 -100 -54 -9 0 -79 42 -157 94 -77 52 -154 100 -169 105
-37 14 -30 34 14 42 69 13 238 9 315 -7z m-282 -125 c11 -11 24 -19 30 -19 5
0 53 -28 106 -62 52 -34 97 -63 98 -64 2 -1 -14 -18 -36 -38 -22 -20 -51 -62
-66 -96 -24 -54 -27 -71 -24 -145 2 -47 2 -85 1 -85 -1 0 -59 55 -129 123
l-127 124 -3 79 c-1 43 0 69 2 56 11 -46 20 -11 10 38 -8 41 -7 55 6 78 8 15
18 39 22 55 l6 27 42 -26 c23 -15 51 -35 62 -45z m608 -46 c7 -21 13 -76 13
-123 0 -74 -4 -92 -29 -142 -15 -31 -26 -60 -23 -65 3 -5 -20 -35 -51 -66
l-57 -56 -1 97 c0 76 -5 107 -21 143 -21 46 -73 99 -99 99 -29 0 -10 17 104
91 129 85 141 86 164 22z m-506 16 c3 -6 -5 -3 -20 6 -14 10 -26 19 -26 22 0
7 39 -17 46 -28z m-584 -58 c-9 -122 52 -232 160 -285 44 -22 65 -26 140 -26
l87 0 185 -186 c139 -140 188 -184 199 -177 14 7 302 301 347 353 28 32 83 44
141 30 35 -9 57 -9 80 -1 29 10 31 9 44 -22 35 -85 46 -74 -157 -166 -101 -46
-204 -88 -230 -94 -27 -6 -48 -15 -48 -19 0 -22 71 -3 177 47 l118 55 -47 -41
c-27 -22 -48 -47 -48 -54 0 -25 20 -27 47 -5 31 24 45 10 19 -19 -26 -29 -34
-242 -12 -296 16 -37 18 -38 28 -20 16 31 39 45 72 45 31 0 66 -24 66 -46 0
-28 -25 -66 -53 -81 l-29 -15 26 -27 c31 -32 32 -42 8 -65 -16 -13 -24 -14
-51 -5 -45 16 -52 2 -7 -16 l37 -16 -30 -42 c-68 -97 -202 -206 -323 -261
-139 -64 -175 -71 -365 -71 -185 1 -203 -5 -140 -43 64 -39 232 -83 367 -97
141 -14 364 34 509 111 46 24 90 44 98 44 30 0 71 -30 77 -57 4 -15 18 -45 32
-65 13 -21 24 -40 24 -43 0 -9 -69 -67 -119 -101 -162 -109 -360 -214 -570
-304 -165 -70 -165 -70 -456 77 -454 230 -588 372 -715 758 -45 138 -97 271
-134 345 -12 25 -37 82 -56 128 -18 46 -43 99 -56 118 -13 19 -24 37 -24 39 0
2 14 14 31 26 36 25 118 32 187 16 66 -15 46 -32 -36 -32 -40 0 -72 -3 -72 -6
0 -9 42 -27 80 -35 19 -3 41 -11 48 -17 10 -8 29 5 80 55 72 69 99 88 150 106
38 13 40 7 10 -25 -53 -57 -75 -211 -42 -306 17 -50 34 -62 34 -24 0 58 69 89
112 50 39 -35 10 -123 -42 -123 -11 0 -20 -6 -20 -14 0 -21 43 -45 115 -64 55
-14 71 -15 111 -4 62 17 107 49 99 71 -33 80 -39 101 -29 111 8 8 19 0 39 -26
24 -31 26 -40 16 -56 -7 -11 -10 -22 -8 -24 8 -9 67 89 78 130 14 51 17 121 6
164 -8 32 -8 33 17 26 29 -7 33 4 15 37 -9 18 -3 17 48 -9 55 -28 83 -31 83
-11 0 5 -7 9 -15 9 -32 0 -395 202 -395 220 0 4 -16 25 -36 46 -59 64 -96 148
-102 229 -3 57 10 155 22 155 1 0 0 -26 -2 -59z m1203 -33 c32 -35 71 -83 87
-108 l29 -45 -36 -31 c-37 -33 -64 -42 -152 -51 l-53 -5 22 49 c17 37 22 67
23 133 0 47 -4 98 -9 114 -8 26 -7 27 12 17 11 -6 46 -39 77 -73z m-305 57 c0
-2 -10 -9 -22 -15 -22 -11 -22 -10 -4 4 21 17 26 19 26 11z m-170 -54 c31 -17
38 -17 62 -5 16 8 28 12 28 10 0 -3 -14 -13 -30 -21 -29 -15 -33 -15 -73 10
-48 29 -39 33 13 6z m-825 -193 c20 -35 19 -41 -6 -28 -24 13 -46 61 -49 105
-4 58 2 59 21 5 10 -30 25 -67 34 -82z m920 122 c30 -7 29 -7 -14 -15 -24 -4
-52 -16 -63 -27 -18 -18 -25 -48 -10 -48 5 0 16 -6 26 -13 16 -11 14 -17 -19
-79 -19 -37 -35 -70 -35 -74 0 -4 16 11 36 34 20 23 39 40 43 38 4 -3 -1 -45
-11 -93 -12 -55 -17 -107 -13 -140 3 -29 3 -53 0 -53 -23 0 -76 33 -95 59 -22
31 -22 34 -6 74 20 52 20 57 2 57 -19 0 -26 34 -21 113 5 73 20 110 57 143 37
34 63 39 123 24z m-1261 -162 c28 -58 79 -109 144 -142 36 -19 35 -31 -4 -40
-31 -8 -54 8 -54 38 -1 20 -1 20 -15 2 -14 -18 -16 -18 -45 14 -17 19 -38 47
-46 63 -22 41 -34 131 -26 186 l6 46 7 -55 c3 -30 18 -81 33 -112z m156 85
c129 -65 135 -70 167 -123 l33 -55 -35 -7 c-20 -4 -48 -14 -63 -22 -43 -22
-83 -16 -139 20 -77 49 -133 149 -133 236 0 36 -4 38 170 -49z m1631 -54 c14
-28 -1 -39 -56 -39 l-39 0 34 30 c42 35 46 36 61 9z m-1331 -120 c0 -5 -14 -9
-31 -9 -21 0 -39 9 -60 32 -47 52 -35 60 31 21 33 -19 60 -39 60 -44z m511
-38 c49 -49 89 -97 89 -107 0 -11 -37 19 -105 87 -58 57 -105 105 -105 107 0
1 7 2 16 2 8 0 55 -40 105 -89z m523 27 c-75 -82 -144 -143 -144 -128 0 18
171 190 188 190 8 0 -12 -28 -44 -62z m-931 -43 c26 -15 47 -29 45 -31 -2 -1
-25 2 -53 8 -56 12 -181 -2 -266 -29 -50 -16 -52 -16 -66 3 -13 18 -11 19 84
27 106 9 167 32 128 49 -14 5 -3 7 30 5 33 -2 68 -14 98 -32z m-168 16 c-6 -5
-33 -11 -62 -13 -52 -3 -60 6 -13 15 47 8 84 7 75 -2z m1465 -40 c0 -5 -18
-13 -40 -19 -48 -12 -52 -7 -7 12 39 17 47 19 47 7z m-1652 -40 c12 -33 8 -41
-23 -41 -31 0 -35 8 -18 41 18 37 28 37 41 0z m449 -47 c48 -19 73 -67 73
-139 0 -102 -59 -175 -140 -175 -68 0 -110 65 -110 172 0 60 14 95 53 136 34
35 52 36 124 6z m1229 -41 c4 -31 4 -103 1 -161 -6 -119 -16 -138 -66 -127
-71 15 -113 119 -91 227 19 97 35 114 112 117 l37 1 7 -57z m-1726 27 c0 -15
-27 -23 -47 -16 -15 6 -15 8 -3 16 20 13 50 12 50 0z m2552 -101 c-8 -117
-109 -317 -209 -410 -63 -59 -111 -86 -100 -56 5 13 -19 67 -31 67 -4 0 -13 4
-20 9 -10 6 -5 30 26 112 42 111 75 167 148 248 48 53 47 67 -2 29 l-28 -22
19 32 c19 32 42 41 61 23 5 -6 30 -4 64 4 30 7 59 12 65 11 5 -1 8 -22 7 -47z
m-3002 9 c41 -12 61 -36 54 -62 -7 -21 14 -106 29 -121 6 -7 8 -2 3 15 -14 56
-18 108 -8 114 6 3 41 -24 78 -61 66 -67 100 -124 153 -261 27 -68 27 -68 -9
-76 -20 -4 -34 -14 -40 -31 -5 -14 -16 -25 -24 -25 -22 0 -129 112 -181 191
-57 85 -114 220 -122 290 -6 49 -5 52 13 45 10 -5 35 -13 54 -18z m2788 14
c-1 -4 -26 -50 -55 -102 -28 -52 -70 -151 -93 -219 -45 -136 -54 -158 -63
-145 -15 26 -8 89 21 179 17 55 37 139 43 188 13 94 10 89 79 100 45 7 72 7
68 -1z m-2626 -67 c15 -27 28 -54 28 -59 0 -4 -25 15 -56 43 -30 28 -61 51
-67 51 -7 0 -6 4 3 10 33 22 64 7 92 -45z m1357 39 c2 -2 -4 -7 -13 -10 -11
-4 -24 0 -34 10 -16 16 -15 17 13 10 17 -4 32 -8 34 -10z m-455 -167 c6 -9 7
-19 3 -23 -9 -10 -57 35 -57 54 0 13 3 13 22 0 12 -8 26 -22 32 -31z m-30 -16
c27 -28 28 -51 3 -51 -15 0 -58 65 -50 74 11 11 19 7 47 -23z m2281 -21 c3 -5
1 -10 -4 -10 -6 0 -11 5 -11 10 0 6 2 10 4 10 3 0 8 -4 11 -10z m37 -180 c-7
-74 -61 -290 -109 -435 -27 -81 -33 -90 -57 -93 -30 -4 -32 7 -11 48 28 55
111 373 121 463 5 56 7 58 32 55 24 -3 27 -7 24 -38z m-789 -58 c7 -42 5 -58
-8 -78 -20 -31 -15 -40 32 -48 55 -9 70 -20 54 -40 -18 -22 -26 -20 -40 10 -9
21 -14 24 -26 14 -12 -10 -18 -10 -32 1 -15 12 -16 12 -10 -3 8 -22 -10 -23
-36 -4 -10 8 -27 12 -37 9 -17 -5 -20 0 -20 35 0 45 28 119 55 146 10 9 27 16
39 14 17 -2 22 -13 29 -56z m964 31 c9 -23 -14 -181 -44 -298 -30 -119 -73
-257 -82 -268 -4 -4 -18 4 -31 17 l-23 25 21 58 c36 98 80 282 107 446 4 28
11 37 26 37 11 0 22 -7 26 -17z m-863 -15 c33 -47 11 -95 -38 -82 -37 9 -41
20 -21 65 20 44 37 49 59 17z m-3054 -38 c0 -5 -4 -10 -9 -10 -6 0 -13 5 -16
10 -3 6 1 10 9 10 9 0 16 -4 16 -10z m737 -2 c6 -7 16 -30 23 -52 10 -32 10
-40 -1 -47 -22 -14 -61 -10 -81 8 -20 18 -24 73 -6 91 16 16 53 15 65 0z
m2316 -73 c49 -20 115 -89 139 -145 27 -63 36 -181 15 -199 -15 -11 -16 -5
-15 61 1 78 -8 104 -63 184 -27 40 -115 94 -152 94 -18 0 -22 11 -10 24 9 8
35 3 86 -19z m-245 -28 c-4 -27 -39 -34 -58 -12 -11 13 -10 19 5 35 23 25 58
10 53 -23z m-64 -31 c9 -13 7 -20 -7 -31 -35 -26 -66 12 -35 43 15 15 28 11
42 -12z m236 -25 c0 -14 -7 -18 -24 -17 -13 0 -22 4 -19 9 2 4 -2 7 -9 8 -7 1
-2 5 12 9 38 12 40 12 40 -9z m115 -2 c7 -22 -7 -39 -33 -39 -16 0 -26 25 -18
45 8 23 44 18 51 -6z m-2370 -23 c29 -44 -7 -75 -47 -39 -22 20 -22 27 -2 47
21 22 31 20 49 -8z m1973 -8 c20 -20 14 -35 -15 -41 -34 -7 -47 4 -38 32 7 23
34 28 53 9z m336 -13 c9 -13 17 -35 17 -47 1 -17 3 -18 6 -5 12 47 52 -18 63
-103 l7 -55 1 50 c1 31 -6 67 -18 94 -25 55 -25 71 0 71 54 0 80 -171 39 -260
-20 -44 -20 -45 -37 -24 -36 45 -105 -17 -74 -66 10 -17 7 -21 -26 -37 -53
-26 -138 -22 -198 8 -26 13 -50 30 -52 37 -2 8 19 0 50 -17 59 -33 94 -37 164
-20 75 19 60 29 -33 23 -82 -5 -91 -4 -128 20 l-40 25 31 1 c42 0 152 35 188
59 18 12 37 39 48 68 20 53 24 88 8 78 -5 -3 -10 -15 -10 -26 0 -11 -9 -38
-21 -60 -25 -50 -83 -79 -173 -86 -47 -4 -66 -11 -84 -30 -27 -28 -46 -26 -50
5 -4 26 26 42 38 21 5 -7 12 -10 16 -6 4 4 -3 16 -15 26 -13 11 -20 24 -17 30
3 5 0 11 -6 14 -10 4 -10 7 -1 18 10 10 16 9 32 -5 22 -20 87 -32 125 -22 28
7 86 53 86 67 0 6 -4 7 -10 4 -6 -3 -7 1 -3 10 4 12 8 13 13 5 10 -17 18 -1
26 51 5 31 3 41 -4 34 -6 -5 -12 -23 -15 -40 -3 -24 -4 -22 -6 12 0 23 -4 50
-8 60 -6 16 -5 17 12 3 12 -10 16 -10 11 -2 -10 17 0 42 18 42 7 0 21 -11 30
-25z m-236 -12 c-2 -20 -9 -28 -23 -28 -13 0 -19 5 -16 15 2 8 4 21 4 28 0 6
9 12 19 12 15 0 19 -6 16 -27z m160 -22 c1 -1 2 -5 2 -11 0 -14 -67 -40 -85
-34 -17 7 -18 14 -9 39 6 15 37 17 92 6z m-2360 -50 c49 -50 142 -61 213 -25
25 13 27 12 27 -14 1 -56 -18 -92 -61 -113 -97 -50 -217 26 -217 137 0 24 2
44 4 44 3 0 18 -13 34 -29z m2100 23 c14 -4 22 -14 21 -28 0 -11 -3 -16 -5
-10 -3 8 -16 9 -38 4 -75 -17 -76 -39 -1 -34 49 3 57 0 71 -20 8 -13 29 -31
47 -40 18 -9 25 -16 15 -16 -9 0 -29 11 -45 24 -25 21 -35 24 -67 16 -21 -4
-48 -18 -61 -30 -20 -19 -26 -20 -47 -9 -12 7 -38 15 -57 18 -19 4 -36 11 -38
17 -7 20 40 66 91 90 53 25 75 28 114 18z m181 -48 c12 -14 16 -14 42 -1 15 8
32 15 36 15 13 -1 -41 -40 -54 -40 -17 0 -31 -29 -26 -54 4 -19 3 -19 -9 -5
-7 9 -25 19 -40 23 -22 5 -28 12 -28 33 0 36 27 65 50 53 9 -5 22 -16 29 -24z
m460 -92 c51 -36 79 -148 42 -171 -17 -11 -25 -6 -64 36 -52 56 -69 84 -62
105 3 9 7 23 10 31 6 20 45 19 74 -1z m-2919 -14 c-20 -13 -33 -13 -25 0 3 6
14 10 23 10 15 0 15 -2 2 -10z m2290 -25 c0 -8 -4 -15 -10 -15 -5 0 -10 7 -10
15 0 8 5 15 10 15 6 0 10 -7 10 -15z m520 -6 c0 -12 42 -72 83 -116 25 -27 28
-35 17 -48 -18 -22 -40 -18 -40 8 0 12 -5 29 -10 37 -8 12 -13 13 -30 3 -23
-15 -90 -17 -90 -4 0 5 3 17 6 26 6 13 9 14 16 3 7 -10 8 -9 4 5 -3 9 -1 28 4
42 7 17 6 25 -1 25 -8 0 -7 5 1 15 14 17 40 20 40 4z m-2920 -14 c0 -2 -9 -9
-20 -15 -12 -6 -20 -7 -20 -1 0 5 8 12 18 14 9 3 18 5 20 6 1 0 2 -1 2 -4z
m2788 -47 c-2 -15 -10 -23 -23 -23 -13 0 -21 8 -23 23 -3 18 1 22 23 22 22 0
26 -4 23 -22z m58 -125 c-10 -26 -18 -8 -9 23 5 21 8 24 11 11 2 -10 1 -25 -2
-34z m117 10 c10 -50 -56 -93 -100 -65 -10 6 -10 12 2 28 8 10 15 26 15 36 0
11 6 15 19 11 10 -3 22 0 25 6 13 20 34 11 39 -16z m-133 -170 c0 -5 -10 -19
-21 -33 -15 -18 -19 -20 -15 -7 3 10 6 25 6 33 0 8 7 14 15 14 8 0 15 -3 15
-7z m-945 -135 c7 -18 -9 -71 -22 -75 -6 -2 -10 7 -9 19 1 13 -3 26 -8 30 -6
4 -5 13 3 22 16 19 30 20 36 4z m-41 -60 c1 -7 6 -19 10 -27 7 -10 1 -21 -20
-38 -64 -51 -176 -57 -234 -12 -21 16 -23 20 -10 29 9 6 36 8 63 5 57 -7 135
15 162 45 19 21 25 21 29 -2z"/>
<path d="M1981 2716 c-21 -34 -28 -86 -12 -86 5 0 14 -12 19 -27 6 -16 11 -21
11 -12 1 8 -6 24 -14 35 -15 20 -20 54 -7 54 4 0 12 10 17 22 6 12 16 24 24
26 8 3 11 0 8 -5 -3 -5 4 -10 16 -10 18 -2 19 0 7 8 -45 30 -48 30 -69 -5z"/>
<path d="M2030 2650 c0 -5 4 -10 9 -10 6 0 13 5 16 10 3 6 -1 10 -9 10 -9 0
-16 -4 -16 -10z"/>
<path d="M1966 2535 c4 -8 11 -15 16 -15 5 0 7 -13 3 -29 -5 -26 -2 -32 24
-45 35 -19 41 -20 41 -5 0 5 -5 7 -10 4 -6 -3 -13 1 -16 10 -4 9 -13 14 -22
10 -11 -4 -12 -2 -5 7 6 7 8 28 6 47 -4 23 -8 29 -14 20 -6 -10 -9 -11 -9 -1
0 6 -4 12 -10 12 -5 0 -7 -7 -4 -15z"/>
<path d="M1530 1500 c0 -5 9 -10 19 -10 34 0 50 -11 43 -28 -5 -15 -4 -15 11
-3 11 9 28 11 49 6 47 -10 116 -7 166 6 52 14 56 30 5 18 -58 -13 -163 -11
-226 6 -69 18 -67 18 -67 5z"/>
<path d="M2346 1458 c-4 -21 -23 -59 -42 -84 -40 -51 -41 -41 15 -138 16 -26
31 -44 34 -39 10 16 17 238 8 269 l-8 29 -7 -37z"/>
<path d="M1605 1334 c-24 -37 -13 -40 14 -4 12 17 17 30 12 30 -5 0 -16 -12
-26 -26z"/>
<path d="M1813 1318 c-6 -7 -14 -24 -17 -38 -6 -21 -4 -20 15 8 21 32 22 56 2
30z"/>
<path d="M3746 1938 c-9 -56 -32 -101 -89 -177 -56 -74 -55 -94 3 -30 48 53
110 171 110 210 0 45 -17 43 -24 -3z"/>
<path d="M970 1791 c0 -4 9 -20 20 -34 11 -14 20 -30 20 -35 0 -16 134 -152
149 -152 8 0 -13 28 -47 63 -66 67 -90 97 -111 140 -14 26 -31 36 -31 18z"/>
<path d="M3371 1434 c0 -11 3 -14 6 -6 3 7 2 16 -1 19 -3 4 -6 -2 -5 -13z"/>
<path d="M2665 591 c-3 -5 -1 -12 5 -16 5 -3 10 1 10 9 0 18 -6 21 -15 7z"/>
<path d="M2600 505 c-7 -9 -8 -15 -2 -15 5 0 12 7 16 15 3 8 4 15 2 15 -2 0
-9 -7 -16 -15z"/>
<path d="M430 3713 c11 -56 31 -103 42 -103 6 0 8 10 4 23 -25 98 -32 117 -42
117 -8 0 -9 -12 -4 -37z"/>
<path d="M775 3718 c25 -123 90 -326 101 -315 3 2 -10 46 -27 98 -24 74 -59
219 -59 245 0 2 -5 4 -11 4 -7 0 -8 -12 -4 -32z"/>
<path d="M851 3680 c22 -82 76 -209 97 -230 18 -18 19 -20 -32 100 -19 47 -43
111 -51 143 -9 31 -20 57 -25 57 -5 0 0 -31 11 -70z"/>
<path d="M3841 3652 c-51 -159 -85 -223 -184 -345 -57 -69 -35 -73 27 -4 80
88 175 286 199 415 13 68 -13 28 -42 -66z"/>
<path d="M2724 3661 c-98 -33 -176 -91 -232 -174 -40 -57 -74 -126 -70 -139 2
-6 20 20 41 59 69 132 134 187 283 243 84 31 65 41 -22 11z"/>
<path d="M1970 3333 c-112 -5 -131 -23 -24 -23 138 -1 232 -35 314 -116 49
-47 79 -59 60 -24 -19 35 -122 109 -182 132 -32 11 -58 25 -58 29 0 5 -6 8
-12 7 -7 -1 -51 -4 -98 -5z"/>
<path d="M2709 3239 c-51 -12 -145 -54 -154 -70 -6 -8 -4 -10 6 -6 152 66 249
81 328 53 52 -19 51 -19 51 -5 0 32 -142 49 -231 28z"/>
<path d="M1970 3193 c-99 -36 -171 -66 -167 -69 2 -3 44 7 92 21 95 27 260 36
282 14 7 -7 19 -9 29 -5 25 10 9 19 -54 33 -59 12 -156 15 -182 6z"/>
<path d="M4520 3009 c0 -7 15 -39 33 -69 57 -95 247 -487 261 -540 7 -26 27
-77 57 -146 20 -45 36 -89 79 -211 15 -45 33 -90 39 -100 41 -70 -29 190 -79
292 -43 90 -69 165 -63 181 4 12 3 15 -5 10 -7 -4 -12 -3 -12 3 0 9 -77 181
-101 223 -5 10 -9 22 -9 27 0 6 -14 34 -31 63 -18 29 -50 87 -71 128 -46 86
-98 161 -98 139z"/>
<path d="M4811 1153 c-1 -12 4 -25 9 -28 12 -7 12 2 0 30 -8 19 -9 19 -9 -2z"/>
<path d="M4770 1033 c0 -25 2 -44 4 -42 8 10 13 89 5 89 -5 0 -9 -21 -9 -47z"/>
<path d="M4876 1004 c-20 -91 -82 -255 -140 -364 -22 -41 -41 -77 -43 -79 -1
-2 -34 11 -73 28 -48 22 -79 31 -95 27 l-24 -6 19 46 c22 50 25 68 10 59 -5
-3 -15 -25 -22 -48 -13 -48 -31 -76 -104 -167 -44 -56 -104 -156 -104 -175 0
-16 23 11 44 53 38 74 151 210 178 214 35 5 88 -8 117 -30 24 -18 26 -25 24
-84 -3 -77 -31 -159 -76 -220 -43 -58 -75 -128 -59 -128 5 0 18 21 30 48 12
26 44 83 70 127 41 70 54 83 100 105 67 32 68 46 1 21 l-51 -20 7 57 c4 31 13
64 20 72 22 26 117 222 142 295 43 126 64 215 54 232 -6 12 -13 -4 -25 -63z"/>
<path d="M4505 769 c9 -17 19 -29 21 -26 7 7 -18 57 -28 57 -5 0 -1 -14 7 -31z"/>
<path d="M0 609 c0 -56 1 -59 25 -59 14 0 42 -7 63 -16 20 -9 59 -23 87 -31
175 -53 399 -210 579 -406 49 -53 93 -97 98 -97 15 0 -4 25 -97 125 -95 103
-193 188 -294 255 -33 22 -61 42 -61 45 0 4 73 -24 180 -70 108 -45 368 -184
482 -256 162 -103 150 -99 298 -99 76 0 129 4 126 9 -8 12 -270 177 -356 224
-130 70 -618 285 -740 325 -105 34 -280 84 -367 105 -22 5 -23 2 -23 -54z"/>
<path d="M3626 503 c-2 -10 -5 -47 -5 -83 -1 -36 -4 -74 -7 -85 -4 -18 -4 -18
6 -3 12 19 27 188 17 188 -3 0 -8 -8 -11 -17z"/>
<path d="M4956 417 c-22 -42 -42 -77 -45 -77 -4 0 -17 18 -31 41 -14 22 -33
45 -42 50 -27 15 -22 2 17 -44 19 -22 35 -46 35 -53 0 -6 6 -17 14 -23 11 -10
16 -9 24 4 6 11 11 -25 15 -112 7 -130 20 -203 37 -203 12 0 12 4 0 71 -5 30
-11 110 -13 179 -3 107 -1 130 15 163 11 21 18 48 16 60 -2 16 -14 1 -42 -56z"/>
<path d="M4894 273 c-15 -48 -39 -106 -90 -220 -16 -36 -20 -53 -11 -53 16 1
127 251 127 287 0 11 -22 0 -26 -14z"/>
<path d="M3936 223 c-29 -57 -57 -158 -55 -199 1 -20 3 -22 5 -9 16 77 41 157
61 198 13 27 22 51 19 54 -2 3 -16 -17 -30 -44z"/>
</g>
</svg>
