<?xml version="1.0" standalone="no"?>
<!DOCTYPE svg PUBLIC "-//W3C//DTD SVG 20010904//EN"
 "http://www.w3.org/TR/2001/REC-SVG-20010904/DTD/svg10.dtd">
<svg version="1.0" xmlns="http://www.w3.org/2000/svg"
 width="2160.000000pt" height="1080.000000pt" viewBox="0 0 2160.000000 1080.000000"
 preserveAspectRatio="xMidYMid meet">

<g transform="translate(0.000000,1080.000000) scale(0.100000,-0.100000)"
fill="#000000" stroke="none">
<path d="M0 5400 l0 -5400 4358 0 c3344 0 4366 3 4397 12 l40 12 -60 6 c-121
13 -471 213 -662 378 -49 42 -115 100 -148 127 -32 28 -66 57 -75 65 -8 8 -59
52 -112 97 -52 46 -164 156 -249 245 -84 90 -180 192 -214 228 -88 94 -213
244 -269 325 -27 39 -66 93 -87 120 -50 68 -163 256 -234 390 -32 61 -72 129
-88 153 -36 50 -32 57 45 67 61 9 249 -37 403 -98 61 -24 119 -48 130 -52 11
-4 27 -9 35 -10 48 -6 211 -61 243 -82 22 -13 40 -23 40 -21 27 54 64 67 206
73 107 4 196 18 216 35 15 12 112 51 165 65 40 10 53 9 116 -12 39 -13 81 -33
92 -43 12 -11 25 -20 31 -20 5 0 11 -4 13 -9 2 -4 79 -16 171 -25 93 -9 187
-23 210 -31 23 -7 70 -17 105 -21 43 -4 60 -10 53 -17 -6 -6 -7 -17 -2 -26 10
-18 -3 -61 -19 -61 -5 0 -10 3 -10 8 0 4 -11 7 -25 7 -20 0 -24 -4 -22 -22 4
-28 17 -42 17 -18 0 14 3 15 15 5 8 -6 19 -9 24 -6 11 7 43 -33 35 -46 -3 -4
6 -8 20 -8 14 0 26 -5 26 -10 0 -7 13 -8 34 -5 20 4 36 2 40 -4 5 -7 -5 -11
-26 -11 l-33 0 25 -22 c22 -21 85 -66 129 -93 26 -16 31 -28 18 -44 -9 -11 -9
-13 0 -8 6 4 14 3 18 -2 3 -6 12 -8 20 -4 8 3 15 0 15 -6 0 -7 16 -21 37 -33
35 -21 35 -22 14 -32 -17 -7 -24 -5 -35 9 -12 17 -14 16 -28 -12 -13 -25 -13
-33 -1 -48 13 -18 14 -18 17 8 0 6 11 13 23 15 17 3 20 -1 16 -17 -3 -12 0
-28 7 -36 7 -8 9 -15 4 -15 -4 0 7 -11 26 -25 19 -14 28 -25 21 -25 -7 0 -11
-6 -8 -12 2 -8 15 -12 30 -10 15 2 27 -1 27 -7 0 -6 -8 -7 -17 -4 -13 5 -15 2
-10 -11 4 -10 7 -20 7 -22 0 -2 9 1 20 8 16 10 24 10 41 0 11 -7 29 -10 40 -7
20 7 27 -9 9 -20 -18 -11 10 -36 31 -30 11 4 19 2 19 -4 0 -6 16 -19 35 -28
21 -10 34 -22 31 -30 -3 -7 1 -13 9 -13 8 0 15 4 15 10 0 5 7 7 15 4 8 -4 15
-12 15 -20 0 -8 9 -15 20 -15 11 -1 25 -3 30 -4 6 -1 15 -3 20 -4 6 0 10 -6
10 -12 0 -7 -11 -8 -30 -4 -32 7 -42 -8 -13 -19 15 -6 15 -8 3 -17 -11 -7 -7
-8 13 -3 17 4 27 2 27 -5 0 -6 10 -11 23 -11 13 0 32 -7 43 -15 18 -15 17 -15
-13 -11 -41 5 -52 -9 -15 -20 40 -12 55 -12 72 0 13 10 13 9 1 -6 -12 -16 -10
-19 15 -29 27 -10 27 -12 9 -19 l-20 -8 20 -7 c11 -3 35 -13 53 -21 18 -8 44
-11 57 -8 34 9 101 -32 84 -52 -12 -14 -3 -19 29 -15 6 1 12 -5 12 -14 0 -9 6
-15 13 -14 6 1 19 1 27 0 12 -1 13 -3 1 -10 -21 -13 -3 -31 32 -32 26 0 28 -2
12 -8 -17 -7 -12 -12 35 -36 30 -15 66 -29 80 -30 14 -1 31 -3 38 -3 6 -1 12
-13 12 -26 0 -20 4 -24 29 -22 17 1 28 -2 25 -6 -3 -4 0 -8 6 -8 6 0 22 -12
35 -26 13 -14 28 -23 34 -20 6 4 22 4 36 0 16 -4 22 -9 16 -14 -7 -4 2 -14 24
-26 20 -10 35 -26 35 -36 0 -10 7 -18 17 -18 13 0 14 3 5 12 -7 7 -12 19 -11
28 0 11 4 9 16 -7 8 -13 23 -23 33 -23 28 0 32 -13 8 -27 -21 -11 -19 -12 28
-13 27 0 55 -5 62 -12 15 -15 56 -22 47 -8 -3 5 1 10 9 10 8 0 18 -5 21 -10 4
-6 1 -9 -6 -8 -6 2 -14 -3 -16 -9 -3 -9 7 -13 31 -13 23 0 39 -6 42 -14 3 -8
31 -23 62 -32 31 -10 60 -22 64 -28 4 -6 33 -16 65 -22 61 -13 79 -17 128 -33
l30 -9 -30 -2 c-50 -4 -55 -5 -55 -12 0 -32 1 -38 11 -38 5 0 7 6 3 13 -4 7
-3 9 2 4 5 -5 9 -12 9 -15 1 -20 18 -29 53 -25 21 2 52 -2 68 -8 16 -7 32 -12
37 -11 4 1 7 -2 7 -8 0 -9 25 -15 100 -24 51 -6 94 -18 101 -28 9 -14 224 -25
243 -13 12 7 19 6 26 -5 10 -16 90 -25 90 -10 0 4 7 10 14 13 10 4 13 1 9 -9
-3 -9 1 -14 12 -14 11 0 15 5 11 15 -4 12 3 15 34 15 22 0 40 -4 40 -10 0 -5
-13 -10 -30 -10 -20 0 -30 -5 -30 -15 0 -10 10 -15 30 -15 17 0 30 4 30 8 0 4
18 9 40 10 28 2 60 -7 108 -29 53 -26 85 -34 154 -39 60 -4 93 -11 105 -22 11
-10 24 -14 33 -9 20 11 261 29 398 31 24 0 41 4 38 9 -9 14 23 22 60 15 22 -4
34 -2 34 5 0 7 26 11 73 12 53 0 66 3 50 9 -13 5 -23 12 -23 14 0 8 120 66
136 66 8 0 14 -4 14 -10 0 -5 -3 -9 -8 -7 -11 3 -62 -39 -55 -47 3 -3 14 -6
24 -6 23 0 72 47 56 54 -17 7 13 26 40 26 12 0 24 4 27 9 4 5 24 12 46 16 59
10 65 31 8 26 -10 -1 -18 4 -18 13 0 11 9 16 29 16 16 0 34 7 41 15 7 8 17 12
24 8 23 -15 71 -8 91 13 16 17 31 22 63 20 35 -2 42 1 42 16 0 13 8 18 25 18
14 0 25 4 25 8 0 10 42 15 103 13 20 0 37 4 37 10 0 5 -6 9 -12 8 -23 -4 -67
13 -65 24 1 6 -8 16 -20 22 -25 11 -30 24 -10 26 27 3 53 -4 68 -17 18 -16 29
-18 29 -4 0 6 -7 10 -15 10 -8 0 -15 7 -15 16 0 8 4 13 9 10 19 -12 73 7 81
29 9 23 52 41 71 29 5 -3 7 -15 3 -27 -6 -20 -6 -20 10 -4 10 9 15 21 12 26
-9 14 14 18 56 11 39 -8 65 1 54 18 -4 6 13 20 40 31 52 23 51 39 -2 39 -36 0
-52 7 -41 18 4 4 34 2 67 -3 61 -10 95 1 43 13 -15 4 -37 13 -48 20 -18 13
-17 14 15 14 19 0 51 -4 70 -10 44 -13 76 -4 59 16 -9 11 -7 14 12 16 13 0 31
1 40 0 10 -1 20 9 23 24 5 17 12 24 21 20 8 -3 15 -1 15 4 0 13 54 37 102 45
45 8 83 28 83 46 0 10 53 42 88 53 11 4 17 16 17 37 0 23 4 30 14 26 10 -4 13
1 11 19 -2 19 2 24 21 24 15 0 24 6 24 15 0 8 6 15 14 15 18 0 29 27 13 34 -7
2 -3 5 8 5 17 1 17 3 5 11 -11 7 -11 10 -2 10 7 0 10 5 7 10 -3 6 1 10 9 10
21 0 20 10 -1 26 -17 12 -16 13 4 14 12 0 28 9 36 20 12 18 15 18 20 5 4 -8
13 -15 22 -15 8 0 15 -4 15 -10 0 -5 5 -10 10 -10 6 0 10 7 10 15 0 8 -6 15
-14 15 -13 0 -26 20 -26 41 0 6 9 7 21 4 13 -4 19 -3 16 2 -11 18 17 43 40 37
18 -5 22 -11 17 -29 -3 -13 -1 -26 5 -29 6 -4 11 1 11 11 0 10 3 29 7 42 5 19
3 23 -8 19 -11 -4 -15 5 -17 39 -2 50 6 73 18 53 6 -9 19 -2 46 25 22 20 49
41 62 46 12 5 21 13 20 18 -2 5 2 9 7 9 6 0 9 -3 8 -8 -1 -4 9 -8 22 -8 14 0
25 4 25 9 0 5 -8 9 -17 9 -27 0 -9 10 25 13 18 2 32 8 32 13 0 5 -4 9 -9 9
-21 0 -21 14 1 20 25 8 78 60 78 76 0 6 9 7 22 3 20 -6 21 -5 10 8 -17 21 -4
52 42 102 20 21 36 42 36 47 0 21 24 57 35 53 6 -3 18 2 25 11 7 8 19 15 26
15 8 0 14 5 14 10 0 6 9 29 20 52 19 40 19 40 0 45 -11 3 -20 12 -20 19 0 11
17 14 69 14 39 0 72 -4 75 -9 7 -11 -68 -148 -100 -182 -13 -14 -24 -29 -24
-35 0 -5 -9 -20 -20 -34 -22 -27 -80 -144 -80 -160 0 -6 -4 -10 -10 -10 -5 0
-10 -6 -10 -14 0 -8 -7 -17 -15 -20 -9 -3 -23 -22 -31 -41 -8 -19 -18 -35 -22
-35 -4 0 -15 -12 -24 -27 -9 -16 -39 -52 -68 -82 -28 -29 -79 -88 -113 -130
-34 -42 -73 -88 -87 -102 -14 -14 -36 -41 -50 -59 -38 -51 -162 -170 -175
-168 -6 2 -90 -76 -186 -173 -97 -97 -190 -184 -207 -195 -18 -10 -32 -22 -32
-26 0 -10 -73 -78 -85 -78 -10 0 -52 -32 -90 -69 -11 -10 -58 -44 -105 -75
-47 -30 -98 -66 -115 -79 -16 -13 -43 -32 -60 -43 -41 -28 -234 -104 -265
-104 -24 -1 -24 -1 -6 -15 17 -13 517 -15 4008 -15 l3988 0 0 2880 c0 2523 -2
2880 -15 2880 -17 0 -39 36 -30 51 4 5 15 7 26 4 19 -6 19 27 19 1989 0 1983
0 1996 -20 2016 -11 11 -20 27 -20 36 0 11 6 15 20 11 20 -5 20 0 20 464 l0
469 -10800 0 -10800 0 0 -5400z m2176 5106 c3 -8 0 -24 -6 -36 -9 -17 -14 -19
-26 -9 -22 18 -18 59 6 59 11 0 23 -6 26 -14z m199 -136 c3 -5 1 -10 -4 -10
-6 0 -11 5 -11 10 0 6 2 10 4 10 3 0 8 -4 11 -10z m-2135 -101 c0 -29 -18 -59
-35 -59 -11 0 -15 12 -15 40 0 36 3 40 25 40 19 0 25 -5 25 -21z m11645 -380
c33 -5 96 -18 140 -30 44 -11 94 -23 110 -25 112 -17 289 -52 317 -64 13 -5
68 -21 123 -36 55 -14 127 -36 160 -49 33 -12 76 -26 95 -30 46 -10 198 -68
285 -109 39 -19 88 -40 110 -46 32 -10 280 -129 370 -178 11 -6 71 -36 134
-67 62 -31 128 -67 145 -80 46 -34 144 -78 161 -72 16 7 80 -17 89 -32 4 -5 2
-12 -4 -16 -33 -20 24 -80 139 -145 38 -21 171 -131 171 -140 0 -5 8 -11 18
-14 9 -3 37 -31 62 -61 30 -37 52 -55 68 -55 12 0 22 -4 22 -8 0 -4 18 -19 39
-32 21 -14 37 -28 34 -32 -2 -5 1 -8 6 -8 12 0 114 -99 169 -165 20 -23 32
-46 29 -56 -3 -10 1 -20 9 -23 7 -3 16 -17 20 -31 3 -14 12 -25 20 -25 8 0 14
-4 14 -9 0 -6 29 -40 64 -78 35 -37 119 -128 187 -200 67 -73 126 -133 132
-133 5 0 7 -11 5 -25 -3 -14 -1 -28 4 -31 4 -3 6 -9 3 -14 -3 -4 24 -38 60
-75 45 -46 63 -71 56 -79 -5 -6 -9 -15 -9 -21 -1 -20 -20 -15 -37 11 -13 20
-14 28 -5 34 8 5 9 10 2 14 -6 3 -12 0 -15 -6 -6 -18 -28 3 -30 29 0 12 -6 19
-13 16 -11 -4 -54 41 -54 58 0 5 -9 18 -20 29 -11 11 -20 27 -20 35 0 8 -4 15
-10 15 -5 0 -10 9 -10 20 0 13 -7 20 -20 20 -11 0 -24 8 -27 18 -4 9 -10 19
-13 22 -4 3 -17 24 -29 48 -12 24 -28 45 -36 49 -8 3 -15 11 -15 19 0 8 -6 14
-13 14 -6 0 -18 13 -25 29 -7 16 -23 32 -35 35 -22 5 -117 125 -117 146 0 6
-5 10 -10 10 -6 0 -14 8 -17 18 -8 20 -45 62 -123 142 -30 30 -69 71 -85 90
-31 36 -54 53 -92 70 -13 5 -23 14 -23 20 0 6 -4 8 -10 5 -5 -3 -10 -2 -10 4
0 6 -37 40 -82 76 -46 36 -115 91 -155 123 -40 31 -72 62 -73 68 0 6 -14 17
-30 24 -17 7 -44 28 -60 46 -43 49 -137 124 -156 124 -8 0 -25 5 -36 11 -14 8
-23 8 -31 0 -20 -20 -57 -11 -155 37 -140 70 -306 164 -315 179 -21 34 -94 70
-272 133 -27 10 -76 30 -108 44 -32 14 -64 26 -71 26 -7 0 -19 7 -26 15 -7 8
-20 15 -30 15 -9 0 -43 13 -76 29 -77 39 -113 53 -144 58 -14 2 -71 17 -128
34 -177 52 -387 101 -522 123 -224 36 -661 60 -713 40 -12 -4 -17 -1 -17 10 0
9 -4 16 -10 16 -5 0 -10 -7 -10 -15 0 -11 -11 -15 -47 -14 -46 2 -47 2 -13 9
l35 6 -27 8 c-15 4 -33 4 -40 0 -7 -5 -26 -7 -42 -5 -16 1 -32 -3 -37 -10 -10
-16 -134 -38 -151 -28 -7 5 -16 3 -20 -4 -6 -9 -11 -8 -18 3 -7 10 -12 12 -17
4 -5 -6 -37 -10 -75 -10 -36 1 -64 -2 -62 -5 4 -7 -47 -19 -105 -24 -19 -2
-37 -9 -41 -15 -4 -7 -24 -12 -44 -13 -20 -1 -36 -5 -36 -10 0 -16 -31 -39
-46 -33 -8 3 -24 0 -34 -7 -16 -9 -24 -9 -40 0 -18 12 -50 8 -50 -6 0 -3 -18
-7 -40 -8 -22 -2 -58 -12 -80 -23 -21 -11 -53 -20 -70 -20 -16 0 -30 -4 -30
-8 0 -5 -6 -9 -12 -10 -7 0 -38 -4 -68 -8 -30 -4 -67 -7 -82 -7 -17 0 -25 -4
-21 -13 3 -7 -5 -14 -19 -16 -15 -2 -22 -9 -20 -20 2 -11 -3 -18 -13 -18 -8 0
-15 8 -16 18 0 10 -3 12 -6 5 -2 -7 -11 -13 -18 -13 -8 0 -16 -4 -19 -9 -8
-12 58 -12 113 0 31 7 48 6 55 -1 8 -8 6 -9 -6 -5 -12 5 -20 1 -24 -9 -4 -10
-18 -16 -40 -16 -27 0 -34 -4 -34 -19 0 -23 -33 -33 -56 -16 -14 10 -24 10
-48 0 -17 -7 -37 -10 -45 -7 -8 3 -11 0 -7 -7 10 -15 -7 -14 -23 2 -10 10 -11
7 -6 -14 4 -16 2 -30 -4 -34 -6 -3 -9 -11 -6 -16 7 -11 -15 -11 -72 0 -24 5
-43 5 -43 2 0 -4 -12 -12 -27 -19 -26 -11 -26 -11 -3 -6 53 11 105 15 94 7 -6
-4 -13 -15 -16 -23 -3 -10 -16 -14 -44 -12 -27 2 -45 -2 -53 -12 -8 -9 -18
-16 -23 -16 -5 0 -34 -11 -64 -25 -31 -14 -60 -23 -65 -20 -5 4 -9 1 -9 -4 0
-6 21 -11 48 -12 26 0 43 -2 37 -4 -5 -1 -29 -8 -53 -16 -24 -7 -48 -21 -53
-30 -6 -11 -16 -16 -25 -12 -10 4 -20 -1 -26 -10 -5 -10 -20 -17 -33 -17 -13
0 -26 -4 -30 -9 -3 -6 10 -8 32 -4 36 5 37 5 18 -10 -11 -9 -31 -17 -46 -17
-14 0 -30 -5 -37 -12 -8 -8 -15 -8 -28 3 -16 12 -17 12 -11 -3 4 -12 2 -15 -9
-11 -11 4 -14 -1 -10 -21 3 -15 1 -24 -4 -21 -4 3 -11 -2 -14 -11 -4 -10 -12
-14 -22 -10 -11 4 -18 -1 -21 -14 -3 -11 -10 -20 -16 -20 -18 0 -57 -54 -51
-72 7 -22 -4 -23 -28 -1 -16 14 -18 15 -18 0 0 -9 5 -19 10 -22 6 -3 10 -11
10 -18 0 -8 -3 -8 -11 0 -8 8 -18 7 -37 -3 -15 -8 -33 -14 -39 -14 -7 0 -13
-7 -13 -15 0 -8 -10 -19 -21 -26 -17 -8 -19 -13 -9 -19 9 -6 4 -9 -16 -12 -23
-2 -29 -8 -29 -26 0 -22 -59 -92 -77 -92 -5 0 -6 -10 -3 -22 5 -18 4 -20 -4
-8 -9 13 -12 12 -25 -5 -9 -11 -14 -24 -12 -30 3 -11 -31 -45 -46 -45 -4 0 -8
-7 -8 -15 0 -8 -6 -12 -13 -10 -6 3 -17 -5 -22 -17 -7 -16 -17 -22 -35 -20
-19 1 -21 0 -11 -7 12 -8 9 -15 -15 -38 -16 -16 -36 -39 -44 -52 -22 -35 -40
-51 -55 -51 -7 0 -16 -11 -19 -25 -4 -14 -11 -22 -19 -19 -8 3 -19 -6 -25 -18
-14 -27 -35 -61 -42 -68 -20 -20 -70 -91 -70 -99 0 -6 -7 -8 -15 -5 -11 5 -13
2 -9 -10 3 -9 1 -16 -5 -16 -6 0 -10 -5 -8 -11 1 -6 -4 -14 -12 -17 -10 -3
-13 1 -8 17 3 12 1 19 -5 15 -5 -3 -8 -14 -5 -24 2 -10 -6 -31 -19 -46 -40
-49 -25 -62 22 -19 15 14 30 23 33 20 3 -4 -9 -18 -27 -32 -19 -14 -31 -31
-28 -39 3 -8 1 -14 -5 -14 -7 0 -10 -17 -7 -45 2 -25 -1 -45 -5 -45 -5 0 -7
27 -5 60 1 33 0 60 -4 60 -5 0 -8 -19 -9 -42 0 -32 -2 -38 -8 -23 -7 16 -10
11 -15 -25 -3 -25 -6 -53 -7 -62 0 -10 -5 -18 -11 -18 -6 0 -8 -13 -4 -35 4
-22 3 -35 -4 -35 -5 0 -10 -9 -10 -20 0 -11 5 -20 10 -20 18 0 10 -18 -10 -23
-11 -3 -20 -10 -20 -16 0 -6 7 -8 15 -5 8 4 15 1 15 -5 0 -6 -6 -11 -14 -11
-7 0 -20 -7 -27 -16 -12 -15 -11 -16 9 -10 22 7 31 -7 12 -19 -7 -4 -7 -12 0
-25 13 -24 13 -30 0 -30 -5 0 -10 7 -10 16 0 9 -6 14 -12 11 -7 -2 -12 -11
-10 -21 2 -9 -2 -16 -8 -16 -23 0 -8 -18 20 -23 17 -4 30 -12 30 -19 0 -9 -3
-9 -12 0 -20 20 -48 15 -48 -9 0 -15 -5 -19 -22 -17 -11 2 -23 -3 -25 -10 -3
-7 3 -11 14 -10 10 0 27 0 38 -1 17 -1 18 -3 5 -11 -8 -5 -25 -10 -37 -10 -18
0 -23 -6 -23 -26 0 -20 -4 -24 -19 -19 -23 7 -38 -10 -16 -19 22 -8 18 -23 -7
-30 -15 -3 -27 0 -34 9 -9 12 -11 4 -10 -39 1 -38 5 -56 15 -58 15 -3 24 -68
10 -68 -5 0 -9 5 -9 10 0 6 -5 10 -11 10 -7 0 -4 -11 6 -26 17 -27 17 -27 -6
-20 -13 4 -39 11 -58 14 -19 4 -36 13 -39 21 -3 10 1 12 17 8 18 -4 20 -3 10
9 -6 8 -17 14 -24 14 -6 0 -22 9 -34 19 -22 19 -22 20 -2 30 11 6 27 8 36 5
15 -6 15 -4 3 15 -11 19 -11 23 5 32 14 8 15 14 7 24 -6 8 -17 12 -25 9 -7 -3
-16 0 -20 6 -5 8 -11 8 -21 -1 -21 -18 -17 -31 9 -23 21 6 21 6 5 -13 -29 -32
-53 -25 -106 30 -186 199 -247 271 -332 397 -24 36 -56 84 -71 106 -16 23 -33
54 -39 68 -13 34 -26 26 -40 -22 -21 -78 -13 -99 110 -288 38 -59 70 -112 70
-117 0 -5 15 -44 34 -86 19 -42 57 -130 86 -196 28 -66 69 -156 91 -200 44
-88 62 -161 38 -153 -8 3 -22 1 -33 -4 -13 -7 -21 -6 -26 2 -4 7 -7 0 -8 -17
-1 -35 -12 -242 -14 -266 -1 -10 -8 -15 -15 -13 -16 6 -16 1 -3 -23 6 -13 5
-24 -6 -37 -14 -18 -15 -18 -9 4 4 12 2 22 -4 22 -5 0 -13 -15 -16 -32 -4 -18
-13 -36 -19 -41 -7 -5 -6 -11 7 -18 9 -5 17 -19 17 -31 0 -17 -3 -18 -15 -8
-8 7 -12 16 -9 21 3 5 0 9 -6 9 -6 0 -8 -10 -4 -25 4 -15 2 -25 -5 -25 -6 0
-11 -4 -11 -10 0 -5 11 -10 25 -10 16 0 25 -6 25 -16 0 -11 -6 -14 -20 -9 -19
6 -27 -5 -13 -18 3 -4 8 -18 9 -32 2 -17 -1 -23 -9 -18 -7 4 -6 0 2 -10 21
-26 -5 -22 -56 11 -31 19 -42 32 -39 45 3 12 -5 21 -30 32 -18 7 -78 57 -131
111 -94 92 -152 132 -174 118 -14 -8 -8 -86 7 -99 19 -16 75 -156 79 -200 6
-50 -2 -94 -21 -119 -23 -33 -184 -24 -184 9 0 8 5 15 11 15 18 0 39 27 45 58
l6 30 -43 -9 c-62 -12 -99 -11 -99 2 0 7 10 9 26 5 17 -5 23 -3 19 4 -3 5 -22
10 -41 10 -39 0 -54 21 -34 45 16 19 13 22 -25 28 -80 14 -151 52 -204 111
-29 32 -60 75 -68 95 -8 20 -23 44 -33 53 -21 20 -35 101 -22 124 5 10 6 30 2
45 -5 16 -4 31 3 38 7 7 6 15 -3 26 -10 12 -10 15 4 15 9 0 16 8 16 20 0 18 3
19 21 10 28 -15 32 -9 33 52 0 29 6 59 13 66 7 7 13 20 13 27 0 8 6 12 14 9
10 -4 13 0 9 14 -2 10 2 25 9 33 18 18 158 298 158 316 0 7 4 13 8 13 17 0
102 130 102 156 0 20 29 64 87 130 128 144 242 290 285 361 28 47 88 121 151
187 58 60 112 117 120 125 34 36 126 121 192 176 39 33 93 81 122 108 28 27
64 57 80 67 15 10 51 40 79 67 27 26 70 61 95 78 24 16 46 32 49 35 25 25 150
130 155 130 9 0 251 166 302 206 23 19 46 34 51 34 5 0 15 7 22 15 7 8 20 15
30 15 10 0 23 7 30 15 7 8 21 15 31 15 11 0 19 5 19 10 0 6 6 10 13 10 6 0 39
18 72 40 33 22 68 40 78 40 10 0 20 7 23 15 3 8 22 17 42 21 21 4 80 28 133
55 52 27 100 49 106 49 6 0 24 6 40 14 65 33 103 44 208 65 60 13 228 72 246
87 8 8 25 14 37 14 12 0 30 4 40 10 9 5 37 14 62 19 25 5 79 19 120 31 95 27
264 60 310 60 20 0 41 5 47 11 7 7 87 13 220 16 114 2 219 5 233 5 14 1 52 1
85 0 102 -3 418 8 424 14 9 9 474 -6 546 -17z m-11607 -202 c4 -29 -12 -37
-22 -11 -10 26 -7 46 7 42 6 -3 13 -17 15 -31z m20556 -83 c20 -8 21 -44 1
-44 -16 0 -38 34 -28 44 8 7 8 7 27 0z m666 -328 c0 -7 -6 -19 -14 -25 -18
-15 -30 11 -13 28 15 15 27 14 27 -3z m-10430 -11 c-6 -13 -70 -9 -84 6 -8 7
4 9 39 7 29 -2 48 -7 45 -13z m-10042 -33 c2 -14 -3 -25 -13 -29 -19 -7 -35
12 -35 40 0 28 44 18 48 -11z m11691 -43 c27 -6 55 -17 62 -25 6 -8 23 -14 38
-14 15 0 35 -6 46 -13 19 -13 139 -52 180 -59 30 -5 26 -34 -5 -30 -42 5 -54
4 -76 -3 -12 -4 -27 -1 -35 7 -24 22 -96 58 -117 58 -11 0 -23 7 -26 16 -3 8
-14 14 -23 13 -35 -5 -93 12 -103 31 -19 35 -16 35 59 19z m8602 -235 c9 -27
-15 -66 -36 -58 -21 8 -28 40 -15 64 14 26 40 23 51 -6z m-8481 -41 c12 -10
-27 -21 -59 -16 -26 4 -33 3 -26 -6 6 -6 26 -13 44 -15 18 -2 38 -9 44 -16 10
-10 0 -11 -45 -7 -31 3 -65 11 -75 17 -16 10 -15 11 5 6 23 -4 23 -4 6 15 -9
10 -24 19 -33 18 -12 0 -11 -3 4 -9 17 -7 17 -9 3 -9 -24 -1 -34 2 -30 12 1 4
-7 7 -18 7 -12 0 -17 -5 -14 -14 4 -11 -10 -13 -79 -9 -60 3 -87 0 -93 -8 -5
-9 0 -10 20 -5 18 4 25 3 21 -4 -6 -10 18 -14 64 -10 14 1 21 -2 17 -9 -5 -7
5 -11 26 -11 27 -1 30 -2 16 -11 -12 -7 -24 -6 -40 2 -13 7 -46 9 -86 6 -81
-6 -145 15 -119 40 22 22 85 33 237 39 74 3 137 7 139 9 4 5 64 -6 71 -12z
m73 0 c-7 -2 -19 -2 -25 0 -7 3 -2 5 12 5 14 0 19 -2 13 -5z m397 -57 c0 -11
-19 -15 -25 -6 -3 5 1 10 9 10 9 0 16 -2 16 -4z m-550 -24 c19 0 64 -11 100
-25 69 -27 65 -34 -10 -16 -25 6 -54 12 -65 13 -37 5 -94 30 -89 38 3 5 11 5
18 -1 6 -5 27 -9 46 -9z m590 -12 c0 -5 -2 -10 -4 -10 -3 0 -8 5 -11 10 -3 6
-1 10 4 10 6 0 11 -4 11 -10z m-50 -22 c0 -13 -23 -5 -28 10 -2 7 2 10 12 6 9
-3 16 -11 16 -16z m120 2 c0 -5 -5 -12 -11 -16 -14 -8 -33 11 -25 25 7 11 36
4 36 -9z m100 0 c0 -5 -2 -10 -4 -10 -3 0 -8 5 -11 10 -3 6 -1 10 4 10 6 0 11
-4 11 -10z m-13206 -16 c4 -9 4 -19 1 -22 -6 -6 -35 18 -35 29 0 16 28 10 34
-7z m12309 9 c-7 -2 -21 -2 -30 0 -10 3 -4 5 12 5 17 0 24 -2 18 -5z m175 -19
c37 -16 52 -28 44 -33 -8 -5 6 -17 44 -35 31 -15 54 -30 51 -32 -2 -3 -24 0
-48 5 -26 6 -48 6 -53 1 -5 -5 -20 -3 -36 5 -15 8 -50 17 -78 21 -40 5 -52 11
-52 24 0 12 -9 17 -36 18 -20 1 -39 4 -43 7 -9 10 22 25 52 25 16 0 26 4 23 9
-12 19 79 9 132 -15z m-1145 -5 c-6 -6 -33 -13 -60 -16 -45 -4 -47 -3 -29 11
23 19 107 23 89 5z m9442 -8 c3 -5 1 -12 -5 -16 -5 -3 -10 1 -10 9 0 18 6 21
15 7z m-693 -84 c19 -15 36 -107 19 -107 -6 0 -11 4 -11 9 0 5 -16 28 -35 51
-19 23 -35 46 -35 51 0 13 42 10 62 -4z m-6667 -88 c11 -17 0 -20 -21 -4 -17
13 -17 14 -2 15 9 0 20 -5 23 -11z m-475 -49 c11 -11 26 -20 34 -20 8 0 18 -9
21 -20 3 -11 11 -20 16 -20 5 0 9 -4 9 -10 0 -15 -26 -12 -40 5 -7 8 -20 15
-30 15 -20 0 -70 41 -70 58 0 19 38 14 60 -8z m37 14 c-3 -3 -12 -4 -19 -1 -8
3 -5 6 6 6 11 1 17 -2 13 -5z m608 -5 c12 -19 -5 -23 -22 -6 -16 16 -16 17 -1
17 9 0 20 -5 23 -11z m-1365 -19 c0 -5 -14 -10 -31 -10 -17 0 -28 4 -24 10 3
6 17 10 31 10 13 0 24 -4 24 -10z m1502 -41 c148 -57 290 -147 296 -187 2 -12
-1 -22 -7 -22 -11 0 -133 79 -142 92 -3 5 -37 15 -75 22 -95 17 -134 41 -134
84 0 17 2 32 5 32 2 0 28 -9 57 -21z m-3112 -3 c0 -2 -9 -6 -20 -9 -11 -3 -18
-1 -14 4 5 9 34 13 34 5z m-50 -11 c0 -2 -10 -9 -22 -15 -22 -11 -22 -10 -4 4
21 17 26 19 26 11z m394 -10 c-7 -16 -24 -21 -24 -6 0 8 7 13 27 20 1 1 0 -6
-3 -14z m471 -5 c-19 -21 -51 -28 -40 -9 6 9 38 26 54 28 2 1 -4 -8 -14 -19z
m-3105 -30 c0 -5 -4 -10 -10 -10 -5 0 -10 5 -10 10 0 6 5 10 10 10 6 0 10 -4
10 -10z m-40 -40 c0 -5 -2 -10 -4 -10 -3 0 -8 5 -11 10 -3 6 -1 10 4 10 6 0
11 -4 11 -10z m3034 -34 c-3 -8 -12 -17 -20 -20 -12 -4 -12 -2 -4 14 12 23 32
27 24 6z m-64 -76 c0 -5 -5 -10 -11 -10 -5 0 -7 5 -4 10 3 6 8 10 11 10 2 0 4
-4 4 -10z m-10992 -42 c-4 -39 -25 -48 -34 -14 -7 29 1 46 22 46 11 0 14 -9
12 -32z m12069 0 c-3 -8 -6 -5 -6 6 -1 11 2 17 5 13 3 -3 4 -12 1 -19z m-473
-34 c25 -9 19 -24 -9 -24 -24 0 -32 10 -18 23 8 8 8 8 27 1z m441 -11 c-2 -10
-7 -31 -10 -47 -3 -16 -31 -54 -66 -88 -32 -33 -59 -66 -59 -74 0 -9 -4 -13
-9 -10 -5 3 -11 -1 -15 -9 -3 -8 -9 -15 -14 -15 -12 0 -9 73 3 82 6 5 4 8 -5
8 -9 0 -5 6 10 17 14 10 28 17 32 15 4 -1 10 9 14 23 3 14 10 25 16 25 5 0 7
8 3 19 -8 25 31 72 43 53 8 -11 10 -11 15 2 9 23 46 21 42 -1z m8488 -8 c7
-16 -8 -29 -23 -20 -15 9 -12 35 4 35 8 0 16 -7 19 -15z m-9075 -17 c8 -8 8
-17 1 -30 -8 -15 -13 -16 -31 -7 -17 9 -23 9 -26 0 -2 -6 -12 -11 -22 -11 -10
0 -21 -4 -25 -10 -3 -5 -22 -14 -41 -19 -33 -9 -38 -7 -59 17 -13 15 -20 31
-15 36 9 9 126 32 176 35 16 0 35 -4 42 -11z m472 2 c0 -5 -4 -10 -10 -10 -5
0 -10 5 -10 10 0 6 5 10 10 10 6 0 10 -4 10 -10z m426 -44 c22 -7 45 -11 52
-9 19 7 62 -24 72 -53 6 -16 14 -22 22 -18 18 12 59 14 53 3 -4 -5 7 -6 26 -2
23 4 30 3 25 -5 -7 -12 60 -46 74 -37 9 6 98 -24 105 -35 3 -4 -12 -4 -33 1
-57 13 -82 11 -82 -7 0 -12 6 -15 27 -10 14 4 39 2 55 -5 29 -12 38 -29 15
-29 -19 0 -50 -37 -42 -49 4 -7 -4 -11 -19 -11 -37 0 -33 -26 5 -39 42 -15 49
-14 43 4 -4 10 0 15 14 15 27 0 37 -16 16 -24 -13 -5 -14 -9 -4 -21 15 -18 14
-20 -22 -29 -17 -4 -28 -2 -28 4 0 5 -8 10 -17 10 -14 0 -13 -3 5 -23 29 -31
28 -37 -8 -37 -35 0 -81 20 -74 31 3 5 -5 9 -17 9 -18 0 -19 2 -9 15 18 21 3
32 -22 16 -17 -11 -23 -10 -37 5 -9 9 -10 14 -3 10 6 -4 12 -2 12 4 0 8 12 10
39 5 30 -5 40 -3 45 10 5 13 0 15 -29 9 -23 -4 -35 -2 -35 5 0 6 7 11 16 11 8
0 12 5 9 10 -10 16 -41 11 -60 -10 -18 -19 -27 -21 -27 -3 0 4 -4 16 -9 25 -6
10 -5 19 1 23 5 3 10 15 10 26 0 22 6 24 25 7 34 -34 57 -48 73 -48 16 1 16 1
0 10 -9 6 -14 18 -11 29 3 13 -2 21 -16 26 -12 3 -21 10 -21 14 0 12 -78 12
-86 0 -4 -7 -10 -6 -18 0 -7 6 -27 11 -44 13 -22 1 -32 7 -32 19 0 8 -11 21
-25 27 -14 6 -25 18 -25 27 0 8 -7 15 -16 15 -11 0 -15 -6 -11 -20 3 -11 0
-20 -5 -20 -6 0 -16 -7 -23 -16 -11 -16 -15 -16 -59 1 -52 20 -54 30 -10 98
21 32 29 37 63 37 21 0 56 -6 77 -14z m-182 -158 c-3 -12 -7 -50 -7 -85 0 -35
-4 -63 -8 -63 -12 0 3 -94 18 -115 15 -20 15 -19 8 3 -5 16 -2 22 10 22 12 0
15 -6 10 -19 -6 -21 7 -33 40 -38 15 -3 17 -1 7 9 -19 19 -15 34 14 53 27 17
50 12 24 -6 -11 -8 -9 -9 9 -4 16 5 21 4 17 -4 -4 -6 -13 -11 -21 -11 -8 0
-17 -5 -21 -11 -4 -8 5 -10 32 -7 22 3 31 3 22 1 -10 -2 -18 -9 -18 -15 0 -5
7 -7 16 -4 9 3 21 6 29 6 7 0 15 9 18 20 4 17 13 20 44 19 47 -3 54 -6 46 -24
-3 -9 -19 -16 -37 -16 l-31 -1 30 -7 c19 -4 35 -16 43 -34 7 -15 21 -27 31
-27 31 0 93 -30 88 -43 -4 -13 -108 -11 -117 3 -3 4 -40 7 -82 6 -43 -1 -78 2
-78 6 0 12 -118 9 -138 -3 -14 -9 -27 -8 -54 5 -38 18 -45 32 -43 81 1 17 3
45 3 63 2 23 7 32 20 33 9 0 12 3 5 6 -28 11 36 223 67 223 7 0 9 -8 4 -22z
m693 -4 c-3 -3 -12 -4 -19 -1 -8 3 -5 6 6 6 11 1 17 -2 13 -5z m-13189 -62 c2
-12 -1 -22 -7 -22 -13 0 -32 35 -24 44 12 12 28 0 31 -22z m12682 14 c0 -2 -9
-6 -20 -9 -11 -3 -20 -1 -20 4 0 5 9 9 20 9 11 0 20 -2 20 -4z m1259 -26 c13
-12 21 -26 17 -35 -3 -9 5 -20 22 -29 15 -8 26 -17 25 -20 -7 -15 -2 -26 12
-26 9 0 18 -6 21 -14 3 -8 13 -12 25 -9 14 4 19 0 19 -15 0 -12 5 -24 10 -27
6 -3 10 -15 10 -26 0 -10 5 -19 11 -19 5 0 7 -4 4 -10 -3 -5 -2 -10 3 -10 4 0
27 -29 51 -64 38 -58 46 -65 84 -71 23 -4 48 -12 54 -17 7 -6 23 -8 36 -4 29
7 49 -27 36 -61 -8 -23 -24 -30 -31 -15 -16 37 -118 82 -118 51 0 -5 -4 -7
-10 -4 -22 13 -8 -15 18 -37 15 -12 27 -30 27 -38 0 -8 11 -20 24 -26 l24 -12
-31 -31 c-17 -17 -35 -31 -40 -31 -11 0 -25 39 -37 97 -3 17 -17 39 -31 49
-13 10 -24 22 -24 26 0 17 -95 141 -126 164 -19 15 -34 32 -34 38 0 7 -11 23
-25 36 -14 13 -25 34 -25 47 0 15 -12 34 -30 50 -16 13 -30 31 -30 39 0 21 18
17 30 -6 6 -11 15 -20 20 -20 17 0 11 25 -10 38 -23 14 -27 34 -5 26 21 -8 19
13 -2 25 -10 6 -13 10 -8 10 6 0 21 -9 34 -19z m-852 -36 c-3 -3 -12 -4 -19
-1 -8 3 -5 6 6 6 11 1 17 -2 13 -5z m-1197 -14 c0 -5 -4 -10 -10 -10 -5 0 -10
5 -10 10 0 6 5 10 10 10 6 0 10 -4 10 -10z m176 -1 c10 -17 -12 -32 -35 -24
-34 11 -25 26 21 34 4 0 10 -4 14 -10z m684 -20 c0 -6 -4 -7 -10 -4 -5 3 -10
11 -10 16 0 6 5 7 10 4 6 -3 10 -11 10 -16z m541 -2 c-13 -13 -26 -3 -16 12 3
6 11 8 17 5 6 -4 6 -10 -1 -17z m-665 -13 c15 -4 20 -11 17 -25 -6 -21 -18
-25 -28 -9 -3 6 -22 10 -40 10 -26 0 -33 3 -29 15 6 15 42 19 80 9z m-735 -27
c-10 -9 -11 -8 -5 6 3 10 9 15 12 12 3 -3 0 -11 -7 -18z m-3951 -2 c0 -8 -2
-15 -4 -15 -2 0 -6 7 -10 15 -3 8 -1 15 4 15 6 0 10 -7 10 -15z m1317 -17 c-3
-8 -6 -5 -6 6 -1 11 2 17 5 13 3 -3 4 -12 1 -19z m3513 7 c0 -2 -8 -9 -18 -14
-14 -8 -19 -6 -19 5 0 7 9 14 19 14 10 0 18 -2 18 -5z m-940 -35 c0 -18 -128
-120 -152 -120 -4 0 -8 11 -8 24 0 40 81 95 153 105 4 1 7 -3 7 -9z m1145 -20
c-3 -5 -11 -10 -16 -10 -6 0 -7 5 -4 10 3 6 11 10 16 10 6 0 7 -4 4 -10z
m-12271 -25 c18 -27 22 -90 6 -80 -12 7 -50 79 -50 95 0 19 28 10 44 -15z
m14514 -144 c3 -8 -1 -12 -9 -9 -7 2 -15 10 -17 17 -3 8 1 12 9 9 7 -2 15 -10
17 -17z m42 -68 c5 -7 10 -15 10 -18 0 -14 41 -43 57 -41 10 2 12 1 6 -1 -16
-5 -16 -18 -2 -44 6 -13 17 -18 26 -15 12 5 14 1 8 -21 -11 -48 -29 -78 -49
-81 -11 -2 -16 0 -12 7 4 5 7 30 8 54 0 44 -38 127 -66 145 -7 4 -16 21 -20
37 -6 28 -5 29 9 10 8 -11 19 -25 25 -32z m81 -25 c5 -10 8 -18 5 -18 -9 0
-66 65 -66 74 0 12 49 -33 61 -56z m-7491 -62 c0 -3 -4 -8 -10 -11 -5 -3 -10
-1 -10 4 0 6 5 11 10 11 6 0 10 -2 10 -4z m-170 -260 c0 -3 -4 -8 -10 -11 -5
-3 -10 -1 -10 4 0 6 5 11 10 11 6 0 10 -2 10 -4z m70 -20 c0 -8 -9 -12 -22
-11 -33 4 -34 4 -18 15 22 14 40 12 40 -4z m5119 -6 c6 8 13 11 17 8 3 -4 -1
-15 -11 -24 -14 -15 -18 -15 -26 -3 -5 8 -9 19 -9 24 0 6 5 3 10 -5 9 -13 11
-13 19 0z m-49 -79 c0 -5 -7 -11 -15 -15 -15 -5 -20 5 -8 17 9 10 23 9 23 -2z
m47 -7 c-3 -3 -12 -4 -19 -1 -8 3 -5 6 6 6 11 1 17 -2 13 -5z m-3637 -11 c-1
-11 -26 -43 -34 -43 -10 0 -7 25 6 38 13 13 28 16 28 5z m3630 -22 c0 -11 5
-21 12 -23 7 -3 9 -12 5 -22 -6 -16 -8 -16 -23 -2 -8 9 -26 16 -40 16 -32 0
-34 37 -1 43 42 8 47 7 47 -12z m7405 -30 c8 -14 -56 -59 -90 -63 -24 -2 -30
1 -30 17 0 13 9 21 30 25 17 4 40 12 50 18 25 14 32 15 40 3z m-7345 -21 c0
-5 -2 -10 -4 -10 -3 0 -8 5 -11 10 -3 6 -1 10 4 10 6 0 11 -4 11 -10z m1923
-32 c6 -23 -6 -38 -32 -38 -10 0 -11 3 -2 14 6 8 11 18 10 22 -5 31 16 32 24
2z m37 7 c0 -8 -4 -15 -10 -15 -5 0 -10 7 -10 15 0 8 5 15 10 15 6 0 10 -7 10
-15z m-95 -35 c9 -14 -4 -52 -16 -45 -5 4 -19 -1 -31 -9 -29 -21 -39 -20 -35
2 6 36 28 62 52 62 13 0 27 -5 30 -10z m-2417 -93 c4 -18 -28 -57 -46 -57 -5
0 -18 -11 -28 -25 -35 -46 -62 -22 -42 37 17 53 37 69 77 66 25 -2 37 -8 39
-21z m-4958 -101 c0 -14 5 -37 11 -53 7 -19 7 -29 0 -31 -6 -2 -11 -8 -11 -13
0 -6 4 -8 9 -5 14 9 42 -60 36 -87 -4 -15 -1 -28 9 -36 9 -7 13 -18 9 -24 -4
-6 -9 -3 -14 9 -6 16 -8 15 -8 -8 -1 -19 4 -28 14 -28 8 0 15 -7 15 -16 0 -14
-3 -14 -15 -4 -11 9 -15 9 -15 1 0 -7 -4 -9 -10 -6 -5 3 -10 -1 -10 -10 0 -9
4 -14 9 -11 5 3 11 -3 14 -14 3 -12 0 -20 -8 -20 -17 0 -26 -26 -19 -56 5 -20
2 -24 -16 -24 -16 0 -20 4 -16 16 3 8 2 12 -4 9 -9 -6 -11 -1 -14 38 -1 6 -5
15 -10 19 -10 7 -10 353 0 369 3 5 14 9 25 9 13 0 19 -7 19 -24z m-93 -298
c-2 -13 -4 -5 -4 17 -1 22 1 32 4 23 2 -10 2 -28 0 -40z m153 -198 c0 -11 -4
-20 -10 -20 -5 0 -10 9 -10 20 0 11 5 20 10 20 6 0 10 -9 10 -20z m2886 -88
c24 -20 58 -81 50 -89 -12 -13 -36 9 -36 32 0 15 -3 24 -8 21 -4 -2 -15 9 -24
25 -19 33 -13 37 18 11z m9262 -250 c2 -23 -1 -32 -12 -32 -19 0 -40 36 -32
57 11 27 41 10 44 -25z m-3614 -131 c-4 -22 -10 -41 -15 -41 -5 0 -9 -12 -9
-27 -1 -25 -2 -26 -11 -10 -8 14 -7 23 4 35 9 9 16 20 16 25 -1 18 13 68 17
64 3 -2 2 -23 -2 -46z m50 -13 c-2 -29 -8 -91 -12 -137 -10 -102 -7 -213 6
-267 14 -53 23 -242 46 -894 5 -152 -8 -386 -28 -485 -8 -44 -19 -102 -24
-130 -11 -61 -54 -208 -63 -215 -10 -8 -29 -82 -23 -91 3 -5 0 -18 -7 -30 -6
-12 -11 -38 -11 -58 0 -20 -4 -41 -10 -48 -5 -7 -7 -16 -4 -22 9 -14 -12 -61
-27 -61 -11 0 -13 9 -6 43 5 23 11 60 13 82 17 161 26 215 40 248 20 46 45
157 56 257 5 41 14 98 19 125 12 64 13 460 1 585 -9 101 -11 235 -5 440 2 87
0 127 -8 132 -11 7 -12 67 -6 441 0 40 5 60 15 64 8 3 14 11 14 19 0 12 21 54
26 54 1 0 0 -24 -2 -52z m4432 -23 c12 -48 -16 -45 -31 3 -5 16 -2 22 9 22 9
0 18 -11 22 -25z m-4499 -207 c-3 -8 -6 -5 -6 6 -1 11 2 17 5 13 3 -3 4 -12 1
-19z m-15487 -77 c7 -14 7 -22 0 -26 -13 -8 -40 13 -40 31 0 21 28 17 40 -5z
m15507 -313 c-3 -8 -6 -5 -6 6 -1 11 2 17 5 13 3 -3 4 -12 1 -19z m-10257
-249 c0 -6 -4 -7 -10 -4 -5 3 -10 11 -10 16 0 6 5 7 10 4 6 -3 10 -11 10 -16z
m9170 -53 c0 -14 -4 -27 -10 -31 -5 -3 -7 -12 -4 -20 3 -7 1 -22 -4 -31 -8
-15 -11 -13 -17 14 -3 18 -11 32 -16 32 -5 0 -9 14 -9 30 0 27 3 30 30 30 25
0 30 -4 30 -24z m-9044 -49 c24 -21 31 -22 57 -13 37 14 53 -5 56 -71 1 -44
14 -109 28 -143 6 -15 8 -21 14 -42 1 -7 5 32 8 87 l6 99 44 -67 c24 -37 56
-77 70 -88 56 -44 131 -122 131 -138 0 -9 26 -44 59 -78 70 -74 69 -67 86
-348 9 -151 25 -225 58 -262 26 -29 29 -39 23 -73 -4 -25 -2 -40 4 -40 15 0
12 -17 -7 -40 -15 -17 -30 -20 -96 -20 l-78 0 -21 -47 c-11 -27 -25 -51 -30
-54 -5 -3 -12 -44 -15 -90 l-6 -84 -50 -47 c-28 -27 -54 -48 -58 -48 -4 0 -14
-7 -22 -15 -21 -21 -98 -39 -130 -31 -20 5 -29 16 -38 49 -6 23 -22 78 -34
122 -60 211 -129 658 -162 1060 -11 142 -4 305 17 360 6 15 8 31 4 36 -3 5 -1
9 5 9 6 0 8 6 5 14 -5 12 6 20 38 25 4 0 19 -10 34 -22z m139 -55 c-8 -9 -25
20 -18 31 3 5 10 2 15 -7 6 -10 7 -20 3 -24z m-5612 -17 c4 -8 2 -17 -3 -20
-6 -4 -10 -4 -10 -1 0 2 -3 11 -6 20 -3 9 -2 16 4 16 5 0 12 -7 15 -15z m-603
-215 c0 -5 -4 -10 -10 -10 -5 0 -10 5 -10 10 0 6 5 10 10 10 6 0 10 -4 10 -10z
m6671 -301 c24 -13 98 -164 101 -208 1 -17 6 -31 10 -31 4 0 8 -7 8 -15 0 -8
-7 -15 -15 -15 -8 0 -15 -4 -15 -8 0 -5 -6 -9 -12 -10 -7 0 -23 -4 -35 -7 -32
-10 -43 21 -42 112 2 71 -3 100 -25 171 -8 25 -4 27 25 11z m-6291 -423 c-1
-29 -1 -30 -15 -12 -8 11 -15 34 -15 50 1 29 1 30 15 12 8 -11 15 -34 15 -50z
m13804 18 c25 -24 20 -69 -10 -93 -42 -33 -65 -36 -86 -11 -26 32 -23 47 16
86 38 38 57 42 80 18z m3023 -260 c4 -11 -1 -22 -12 -30 -30 -22 -45 -17 -45
16 0 25 4 30 25 30 15 0 28 -7 32 -16z m-2127 -19 c0 -8 -4 -16 -9 -19 -5 -3
-8 5 -7 18 1 25 16 26 16 1z m-3250 -171 c0 -46 -48 -114 -82 -114 -27 0 -58
36 -58 69 0 42 40 71 96 71 41 0 44 -2 44 -26z m3270 -103 c0 -16 -22 -25 -30
-11 -4 7 -5 21 -3 31 4 16 7 16 19 4 8 -7 14 -18 14 -24z m-4505 6 c18 -14 15
-18 -17 -30 -14 -5 -18 -1 -18 18 0 28 8 31 35 12z m4969 -35 c15 -24 -65 -65
-119 -60 -48 4 -58 27 -19 45 18 9 32 9 49 1 18 -8 28 -7 46 6 26 18 36 20 43
8z m-10086 -8 c13 -4 22 -14 22 -26 0 -30 -54 -21 -58 10 -4 23 0 25 36 16z
m10535 -98 c6 -16 -2 -28 -14 -20 -12 7 -11 34 0 34 5 0 11 -6 14 -14z m448
-155 c22 -18 23 -19 5 -45 -23 -36 -66 -33 -80 6 -18 51 30 76 75 39z m-4470
-61 c36 -20 17 -75 -32 -93 -23 -8 -59 20 -59 45 0 46 48 71 91 48z m2964
-100 c13 -14 16 -29 12 -56 -11 -66 -43 -80 -112 -47 -43 21 -47 55 -10 96 32
33 83 37 110 7z m-11135 -39 c15 -29 12 -87 -6 -105 -14 -14 -18 -14 -45 0
-30 15 -52 55 -47 83 4 17 44 41 70 41 10 0 22 -9 28 -19z m8320 5 c16 -20 9
-60 -13 -64 -11 -2 -20 5 -26 19 -17 46 11 78 39 45z m-3770 -32 c0 -3 -5 -15
-12 -27 -7 -12 -13 -28 -14 -36 -8 -45 -27 -71 -54 -71 -72 0 -63 70 15 112
51 27 65 32 65 22z m-2802 -36 c6 -6 12 -19 12 -29 0 -24 -46 -69 -69 -69 -38
0 -44 89 -8 112 13 8 45 1 65 -14z m4438 -12 c9 -35 -4 -66 -33 -79 -21 -9
-27 -8 -39 8 -8 10 -14 28 -14 39 0 51 74 78 86 32z m2761 8 c9 -23 -8 -46
-51 -69 -32 -17 -38 -18 -46 -5 -15 23 -12 51 7 72 21 23 81 25 90 2z m6318
-5 c12 -19 -4 -61 -23 -57 -30 6 -28 68 2 68 8 0 18 -5 21 -11z m-18116 -36
c16 -58 14 -63 -23 -63 -52 0 -66 9 -66 40 0 48 9 60 46 60 30 0 34 -4 43 -37z
m10079 -35 c21 -21 13 -48 -20 -68 -24 -14 -35 -16 -45 -8 -14 11 -17 46 -7
72 7 19 55 21 72 4z m620 -17 c8 -4 16 -27 19 -50 5 -36 3 -41 -14 -41 -45 0
-93 67 -66 93 9 10 45 8 61 -2z m3998 -38 c36 -47 21 -106 -31 -119 -76 -19
-137 75 -82 126 27 26 90 22 113 -7z m1148 2 c16 -25 22 -74 9 -76 -44 -4 -65
-3 -70 4 -9 14 19 97 32 97 7 0 20 -11 29 -25z m-13496 -57 c29 -29 0 -85 -37
-73 -32 10 -48 55 -25 72 22 16 46 17 62 1z m13404 -14 c31 -19 -19 -94 -62
-94 -56 0 -78 52 -39 91 17 17 28 20 57 14 20 -4 40 -9 44 -11z m-14372 -49
c0 -15 -8 -26 -20 -30 -38 -12 -52 15 -24 46 20 23 44 14 44 -16z m18304 19
c17 -7 21 -41 8 -62 -12 -18 -72 4 -72 27 0 33 29 48 64 35z m-7730 -432 c2
-4 1 -14 -5 -22 -6 -10 -9 -11 -9 -2 0 6 -7 12 -15 12 -8 0 -15 5 -15 10 0 12
37 14 44 2z m-58 -58 c18 -14 18 -15 -6 -8 -14 3 -32 10 -40 15 -12 7 -11 8 6
9 11 0 29 -7 40 -16z m-39 -31 c-2 -20 -10 -29 -25 -31 -28 -4 -27 0 1 32 28
32 28 32 24 -1z m-74 -43 c-3 -12 -8 -19 -11 -16 -5 6 5 36 12 36 2 0 2 -9 -1
-20z m188 -31 c11 -5 17 -14 13 -20 -4 -7 -10 -6 -19 1 -8 7 -15 7 -19 1 -6
-9 -66 14 -66 25 0 9 72 4 91 -7z m-231 -20 c-7 -11 -14 -18 -17 -15 -8 8 5
36 17 36 7 0 7 -6 0 -21z m110 11 c0 -5 -4 -10 -10 -10 -5 0 -10 5 -10 10 0 6
5 10 10 10 6 0 10 -4 10 -10z m-44 -25 c4 -8 12 -15 20 -15 8 0 14 -4 14 -10
0 -5 7 -10 15 -10 8 0 15 -7 15 -15 0 -8 -9 -15 -19 -15 -11 0 -22 -4 -25 -9
-3 -5 -17 -11 -31 -13 -22 -5 -25 -3 -19 16 4 11 11 23 15 24 11 5 12 42 1 42
-4 0 -13 -5 -20 -12 -9 -9 -12 -7 -12 10 0 26 37 31 46 7z m171 -20 c-2 -5
-13 -11 -25 -13 -11 -2 -26 -10 -32 -18 -16 -18 -31 -18 -24 1 4 9 0 15 -10
15 -9 0 -16 6 -16 14 0 10 14 14 55 13 33 -1 54 -5 52 -12z m-257 -18 c0 -7
-37 -47 -43 -47 -3 0 0 11 6 25 7 14 18 25 25 25 6 0 12 -2 12 -3z m400 -17
c0 -5 -4 -10 -10 -10 -5 0 -10 5 -10 10 0 6 5 10 10 10 6 0 10 -4 10 -10z
m2095 -80 c3 -5 -1 -10 -9 -10 -9 0 -16 5 -16 10 0 6 4 10 9 10 6 0 13 -4 16
-10z m-1165 -199 c0 -5 -8 -12 -18 -15 -10 -3 -43 -30 -73 -60 -31 -30 -67
-58 -80 -61 -13 -3 -44 -24 -68 -45 -33 -30 -53 -40 -78 -40 -18 0 -33 4 -33
10 0 13 38 37 80 51 19 7 46 22 60 34 14 12 37 29 51 37 14 9 47 35 73 57 44
38 86 53 86 32z m6660 -77 c0 -8 -4 -14 -10 -14 -5 0 -10 9 -10 21 0 11 5 17
10 14 6 -3 10 -13 10 -21z m-5890 -6 c0 -9 3 -9 12 0 16 16 28 15 28 -3 0 -8
-4 -15 -8 -15 -5 0 -27 -16 -50 -36 -38 -32 -42 -34 -42 -14 0 30 28 80 45 80
8 0 15 -5 15 -12z m-2300 -109 c0 -24 -23 -21 -28 4 -2 10 3 17 12 17 10 0 16
-9 16 -21z m1095 -89 c-3 -5 -16 -15 -28 -21 -22 -12 -22 -12 -3 10 19 21 43
30 31 11z m-1259 -37 c-2 -10 -10 -19 -19 -21 -20 -4 -22 9 -5 26 17 17 27 15
24 -5z m-2656 -2 c0 -4 -11 -6 -25 -3 -14 2 -25 6 -25 8 0 2 11 4 25 4 14 0
25 -4 25 -9z m1908 -120 c56 -1 72 -4 72 -16 0 -9 -14 -16 -37 -20 -21 -3 -50
-8 -65 -10 -40 -6 -138 15 -138 31 0 17 19 23 60 19 19 -2 68 -4 108 -4z
m2842 -155 c0 -3 -4 -8 -10 -11 -5 -3 -10 -1 -10 4 0 6 5 11 10 11 6 0 10 -2
10 -4z m-1560 -101 c-7 -8 -24 -15 -39 -15 -25 1 -25 1 -7 15 11 8 29 15 39
15 16 0 17 -3 7 -15z m8618 -292 c3 -19 -1 -23 -22 -23 -21 0 -26 5 -26 26 0
21 4 25 23 22 14 -2 23 -11 25 -25z m-3308 -198 c17 -21 -4 -45 -40 -45 -27 0
-40 15 -40 46 0 19 64 19 80 -1z m-5050 -45 c0 -5 -4 -10 -10 -10 -5 0 -10 5
-10 10 0 6 5 10 10 10 6 0 10 -4 10 -10z"/>
<path d="M10620 9830 c8 -5 26 -10 39 -10 32 0 24 6 -19 14 -25 4 -31 3 -20
-4z"/>
<path d="M10505 9820 c4 -6 11 -8 16 -5 14 9 11 15 -7 15 -8 0 -12 -5 -9 -10z"/>
<path d="M10578 9823 c7 -3 16 -2 19 1 4 3 -2 6 -13 5 -11 0 -14 -3 -6 -6z"/>
<path d="M9840 9530 c0 -5 5 -10 10 -10 6 0 10 5 10 10 0 6 -4 10 -10 10 -5 0
-10 -4 -10 -10z"/>
<path d="M9828 9488 c9 -9 15 -9 24 0 9 9 7 12 -12 12 -19 0 -21 -3 -12 -12z"/>
<path d="M9728 9413 c6 -2 18 -2 25 0 6 3 1 5 -13 5 -14 0 -19 -2 -12 -5z"/>
<path d="M9560 9379 c0 -5 9 -9 20 -9 11 0 20 4 20 8 0 4 -9 8 -20 9 -11 1
-20 -2 -20 -8z"/>
<path d="M9520 9320 c0 -13 11 -13 30 0 12 8 11 10 -7 10 -13 0 -23 -4 -23
-10z"/>
<path d="M9495 9310 c-3 -5 -1 -10 4 -10 6 0 11 5 11 10 0 6 -2 10 -4 10 -3 0
-8 -4 -11 -10z"/>
<path d="M9270 9160 c-9 -6 -10 -10 -3 -10 6 0 15 5 18 10 8 12 4 12 -15 0z"/>
<path d="M9235 9120 c3 -5 13 -10 21 -10 8 0 14 5 14 10 0 6 -9 10 -21 10 -11
0 -17 -4 -14 -10z"/>
<path d="M8465 8330 c-3 -5 -1 -10 4 -10 6 0 11 5 11 10 0 6 -2 10 -4 10 -3 0
-8 -4 -11 -10z"/>
<path d="M6606 6994 c-4 -9 -4 -19 -1 -22 2 -3 7 3 11 12 4 9 4 19 1 22 -2 3
-7 -3 -11 -12z"/>
<path d="M7350 6464 c0 -8 4 -13 9 -9 5 3 16 -2 24 -10 25 -24 39 -18 21 10
-18 28 -54 34 -54 9z"/>
<path d="M7400 6395 c7 -9 15 -13 17 -11 7 7 -7 26 -19 26 -6 0 -6 -6 2 -15z"/>
<path d="M7465 6380 c3 -5 8 -10 11 -10 2 0 4 5 4 10 0 6 -5 10 -11 10 -5 0
-7 -4 -4 -10z"/>
<path d="M6965 6370 c-3 -5 -2 -10 4 -10 5 0 13 5 16 10 3 6 2 10 -4 10 -5 0
-13 -4 -16 -10z"/>
<path d="M12430 8860 c-13 -8 -12 -10 3 -10 9 0 17 5 17 10 0 12 -1 12 -20 0z"/>
<path d="M12726 8755 c3 -7 22 -15 42 -18 37 -4 57 -1 31 6 -8 2 -28 9 -46 14
-25 8 -30 8 -27 -2z"/>
<path d="M12500 8060 c0 -5 5 -10 10 -10 6 0 10 5 10 10 0 6 -4 10 -10 10 -5
0 -10 -4 -10 -10z"/>
<path d="M12791 8058 c-12 -31 12 -58 37 -42 9 6 19 20 21 30 3 15 1 16 -12 6
-11 -10 -17 -9 -26 1 -6 8 -8 17 -4 20 3 4 3 7 -1 7 -3 0 -11 -10 -15 -22z"/>
<path d="M13160 7995 c7 -8 20 -15 29 -15 13 1 13 3 -3 15 -26 19 -42 19 -26
0z"/>
<path d="M13230 7889 c0 -5 5 -7 10 -4 6 3 10 8 10 11 0 2 -4 4 -10 4 -5 0
-10 -5 -10 -11z"/>
<path d="M13205 7800 c-3 -5 1 -10 9 -10 9 0 16 5 16 10 0 6 -4 10 -9 10 -6 0
-13 -4 -16 -10z"/>
<path d="M12860 7660 c0 -5 7 -10 16 -10 8 0 12 5 9 10 -3 6 -10 10 -16 10 -5
0 -9 -4 -9 -10z"/>
<path d="M12930 7650 c0 -5 5 -10 10 -10 6 0 10 5 10 10 0 6 -4 10 -10 10 -5
0 -10 -4 -10 -10z"/>
<path d="M14980 6860 c0 -5 5 -10 10 -10 6 0 10 5 10 10 0 6 -4 10 -10 10 -5
0 -10 -4 -10 -10z"/>
<path d="M15016 6861 c-4 -7 -5 -15 -2 -18 9 -9 19 4 14 18 -4 11 -6 11 -12 0z"/>
<path d="M16262 5400 c0 -14 2 -19 5 -12 2 6 2 18 0 25 -3 6 -5 1 -5 -13z"/>
<path d="M16262 5320 c0 -14 2 -19 5 -12 2 6 2 18 0 25 -3 6 -5 1 -5 -13z"/>
<path d="M6327 3821 c10 -76 41 -198 42 -167 1 30 -25 158 -40 191 -5 13 -6 4
-2 -24z"/>
<path d="M8190 2060 c0 -5 5 -10 10 -10 6 0 10 5 10 10 0 6 -4 10 -10 10 -5 0
-10 -4 -10 -10z"/>
<path d="M8168 2003 c7 -3 16 -2 19 1 4 3 -2 6 -13 5 -11 0 -14 -3 -6 -6z"/>
<path d="M7220 1940 c0 -5 7 -10 16 -10 8 0 12 5 9 10 -3 6 -10 10 -16 10 -5
0 -9 -4 -9 -10z"/>
<path d="M8721 1874 c0 -11 3 -14 6 -6 3 7 2 16 -1 19 -3 4 -6 -2 -5 -13z"/>
<path d="M8747 1869 c4 -16 8 -17 14 -7 13 19 11 28 -5 28 -9 0 -12 -7 -9 -21z"/>
<path d="M9122 1551 c2 -7 7 -12 11 -12 12 1 9 15 -3 20 -7 2 -11 -2 -8 -8z"/>
<path d="M9340 1294 c0 -9 32 -33 44 -34 5 0 -1 9 -14 20 -25 21 -30 24 -30
14z"/>
<path d="M14755 1020 c3 -5 10 -10 16 -10 5 0 9 5 9 10 0 6 -7 10 -16 10 -8 0
-12 -4 -9 -10z"/>
<path d="M14668 958 c-15 -15 -16 -18 -3 -18 9 0 18 7 22 15 8 23 0 24 -19 3z"/>
<path d="M14350 745 c-19 -14 -30 -25 -26 -25 10 0 76 40 76 46 0 10 -19 2
-50 -21z"/>
<path d="M14302 649 c-13 -20 -7 -44 7 -34 12 7 21 44 12 49 -4 3 -13 -4 -19
-15z"/>
<path d="M14255 650 c-3 -5 -1 -10 4 -10 6 0 11 5 11 10 0 6 -2 10 -4 10 -3 0
-8 -4 -11 -10z"/>
<path d="M14154 548 c-12 -14 -13 -18 -3 -10 9 6 20 8 24 4 5 -4 5 -2 2 5 -4
6 -1 14 5 16 8 3 8 6 2 6 -6 1 -19 -9 -30 -21z"/>
<path d="M14110 550 c-9 -6 -10 -10 -3 -10 6 0 15 5 18 10 8 12 4 12 -15 0z"/>
<path d="M13975 480 c-3 -5 3 -10 14 -10 11 0 23 5 26 10 3 6 -3 10 -14 10
-11 0 -23 -4 -26 -10z"/>
<path d="M14076 461 c-4 -5 3 -7 14 -4 23 6 26 13 6 13 -8 0 -17 -4 -20 -9z"/>
<path d="M13878 453 c-10 -2 -18 -9 -18 -14 0 -14 20 -11 36 6 16 15 13 16
-18 8z"/>
<path d="M13844 415 c11 -8 24 -15 30 -15 5 0 1 7 -10 15 -10 8 -23 14 -29 14
-5 0 -1 -6 9 -14z"/>
<path d="M10784 385 c-18 -14 -18 -14 8 -15 15 0 38 -4 52 -10 16 -6 27 -6 31
0 4 6 0 10 -8 10 -8 0 -20 7 -27 15 -16 19 -31 19 -56 0z"/>
<path d="M10775 340 c-3 -5 1 -10 10 -10 9 0 13 5 10 10 -3 6 -8 10 -10 10 -2
0 -7 -4 -10 -10z"/>
<path d="M11000 310 c19 -13 30 -13 30 0 0 6 -10 10 -22 10 -19 0 -20 -2 -8
-10z"/>
<path d="M13355 239 c-10 -15 1 -23 20 -15 9 3 13 10 10 16 -8 13 -22 13 -30
-1z"/>
<path d="M11065 200 c-3 -5 1 -10 9 -10 9 0 16 5 16 10 0 6 -4 10 -9 10 -6 0
-13 -4 -16 -10z"/>
<path d="M12503 3 c9 -2 23 -2 30 0 6 3 -1 5 -18 5 -16 0 -22 -2 -12 -5z"/>
</g>
</svg>
