<?xml version="1.0" standalone="no"?>
<!DOCTYPE svg PUBLIC "-//W3C//DTD SVG 20010904//EN"
 "http://www.w3.org/TR/2001/REC-SVG-20010904/DTD/svg10.dtd">
<svg version="1.0" xmlns="http://www.w3.org/2000/svg"
 width="318.000000pt" height="159.000000pt" viewBox="0 0 318.000000 159.000000"
 preserveAspectRatio="xMidYMid meet">

<g transform="translate(0.000000,159.000000) scale(0.100000,-0.100000)"
fill="#000000" stroke="none">
<path d="M88 1550 c-15 -37 -18 -39 -43 -30 -14 5 -31 10 -36 10 -5 0 -9 -297
-9 -765 l0 -765 385 0 c427 0 418 -1 374 62 -18 27 -14 25 28 -15 l49 -48 137
3 137 3 -33 35 c-37 40 -87 106 -87 114 0 11 76 6 215 -15 77 -11 153 -19 168
-16 32 4 36 -1 58 -68 12 -37 22 -51 38 -53 19 -3 21 0 15 25 -5 24 -57 182
-78 238 -5 12 -2 11 8 -5 15 -25 15 -25 16 -2 0 22 2 21 76 -18 42 -22 88 -40
102 -39 20 0 14 4 -20 13 -46 12 -218 114 -218 129 0 7 -68 115 -80 127 -14
14 -70 99 -70 107 0 4 -15 54 -34 111 -25 77 -30 99 -17 89 9 -8 27 -20 40
-27 22 -11 23 -11 16 6 -11 28 -23 107 -18 121 3 6 10 10 18 7 9 -4 14 10 17
49 3 33 14 69 29 93 l24 39 6 -63 c5 -52 11 -69 34 -90 l28 -27 -22 31 c-30
42 -34 160 -6 180 27 20 9 17 -21 -3 -39 -25 -84 -111 -84 -161 0 -39 -2 -42
-19 -33 -30 17 -44 64 -39 140 3 56 8 75 27 95 22 24 23 26 6 42 -23 23 -35
58 -35 100 0 41 11 44 31 7 16 -31 85 -83 108 -82 10 0 12 2 4 6 -7 2 -13 16
-13 29 0 30 -25 92 -47 116 -21 23 -11 23 35 -1 43 -22 102 -75 102 -90 0 -6
4 -11 8 -11 5 0 6 14 4 32 l-5 32 28 -22 c33 -26 62 -28 67 -4 3 14 11 9 43
-23 22 -22 45 -49 52 -60 6 -11 3 9 -7 43 -10 35 -16 71 -13 80 4 10 2 13 -5
8 -7 -4 -8 2 -2 21 16 54 28 78 48 96 l21 19 -15 -48 c-16 -54 -19 -134 -4
-134 6 0 10 8 10 18 0 9 9 30 19 46 l19 29 -3 -64 c-2 -35 -1 -53 1 -39 3 14
17 40 31 58 21 28 27 31 41 20 15 -12 16 -11 4 4 -12 15 -9 19 32 38 25 12 50
19 56 15 5 -3 10 -1 10 6 0 8 20 10 65 7 42 -2 61 0 55 6 -18 18 -124 11 -173
-13 -26 -13 -55 -24 -64 -26 -10 -1 -17 -9 -15 -16 3 -12 1 -12 -10 -1 -11 11
-10 14 2 22 8 5 11 10 6 10 -5 0 -3 7 4 15 26 31 -2 29 -30 -2 -16 -17 -32
-28 -36 -25 -4 4 -5 2 -1 -3 3 -6 2 -17 -4 -25 -6 -11 -9 -8 -9 13 0 15 4 27
8 27 4 0 8 8 8 18 0 9 4 27 8 40 9 27 -9 30 -35 6 -17 -15 -19 -14 -32 17 -21
48 -44 76 -54 65 -4 -5 -2 -11 5 -13 7 -3 20 -19 28 -36 19 -37 18 -36 -28 18
-19 22 -40 41 -48 43 -13 3 43 -67 82 -100 11 -10 17 -22 13 -28 -3 -6 -21 5
-41 24 -38 37 -99 66 -91 43 2 -6 9 -13 15 -13 24 -3 28 -5 60 -34 21 -18 31
-34 26 -41 -5 -8 -3 -9 6 -4 10 6 12 4 7 -9 -4 -10 -7 -25 -7 -34 0 -11 -10
-5 -29 18 -20 24 -26 39 -20 47 7 7 6 14 -1 18 -6 4 -10 3 -9 -2 4 -21 -3 -23
-28 -5 -38 26 -109 52 -136 51 -19 -1 -19 -2 -3 -6 15 -4 16 -7 5 -15 -10 -7
-8 -8 8 -3 48 13 187 -74 168 -106 -5 -7 -4 -10 3 -5 6 3 16 -2 21 -13 12 -22
15 -72 3 -56 -4 6 -20 12 -36 13 -23 3 -28 1 -23 -12 10 -26 -13 -18 -43 14
-28 30 -40 30 -40 -2 0 -16 -8 -13 -45 19 -25 21 -49 38 -53 38 -4 1 -16 5
-27 11 -11 6 -31 8 -45 4 -24 -6 -25 -7 -3 -14 28 -9 54 -50 47 -73 -4 -13 -3
-15 4 -5 7 11 11 8 15 -10 10 -35 8 -60 -3 -53 -6 4 -8 11 -5 16 3 5 0 6 -8 3
-18 -6 -80 65 -72 83 7 21 -13 15 -25 -6 -15 -28 -12 -87 5 -120 8 -16 11 -32
7 -36 -4 -5 -1 -5 7 0 7 4 12 4 9 -1 -48 -100 -56 -173 -25 -236 11 -22 17
-53 16 -77 -2 -22 0 -43 4 -47 10 -11 9 -34 -3 -34 -19 0 -62 90 -58 120 3 17
0 26 -5 23 -5 -3 -7 0 -5 8 3 8 11 13 17 11 7 -1 10 2 6 7 -3 6 -13 7 -21 4
-21 -8 -15 -103 8 -149 l15 -32 -44 34 c-25 19 -51 34 -59 34 -8 0 -14 9 -14
19 0 28 37 111 50 111 5 0 10 5 10 12 0 6 8 21 18 33 9 12 1 5 -19 -15 -30
-30 -53 -74 -76 -150 -4 -12 -7 -11 -19 5 -33 44 -49 170 -26 198 7 8 9 16 6
19 -8 9 68 68 79 61 6 -3 8 -2 4 3 -3 5 13 18 36 29 40 19 40 20 14 23 -35 4
-124 -14 -161 -33 -41 -21 -45 -19 -14 10 15 14 29 24 31 23 2 -2 12 5 22 15
9 10 24 16 32 13 8 -3 11 -1 8 4 -3 6 1 10 10 10 10 0 13 -5 9 -12 -4 -7 -3
-8 5 -4 6 4 8 12 5 18 -5 7 9 9 45 6 44 -4 49 -3 39 10 -16 19 -70 11 -136
-20 -47 -23 -53 -24 -66 -9 -19 22 -29 65 -21 91 l7 22 15 -21 c8 -12 27 -28
43 -36 42 -22 51 -18 13 5 -33 20 -63 66 -63 96 0 15 3 15 20 -4 12 -12 28
-23 38 -23 68 -5 72 -5 78 16 12 46 27 74 34 70 5 -3 12 0 16 6 4 8 3 9 -4 5
-17 -10 -15 6 4 33 13 18 18 20 26 10 6 -10 7 -6 3 10 -6 18 -4 22 6 16 8 -5
11 -5 7 0 -11 12 11 35 27 29 7 -3 16 -1 20 5 4 7 -1 9 -12 5 -13 -4 -11 0 7
14 22 19 25 19 38 4 11 -15 12 -14 2 6 -15 30 -24 28 -75 -19 -47 -43 -56 -39
-30 11 9 17 11 30 6 30 -5 0 -16 -17 -25 -37 -16 -36 -17 -18 -1 20 4 9 3 17
-3 17 -6 0 -13 -13 -17 -30 -9 -39 -21 -38 -30 3 -7 32 -7 32 -15 7 -8 -24 -8
-24 -9 -2 -1 12 -5 22 -11 22 -13 0 -13 0 5 -50 11 -30 12 -46 5 -56 -8 -8 -8
-14 0 -19 6 -3 8 -11 4 -16 -9 -15 -46 22 -39 38 2 8 0 11 -5 8 -6 -3 -24 17
-42 44 -17 28 -33 49 -36 47 -2 -3 6 -21 18 -41 32 -52 20 -52 -20 0 l-35 44
-132 1 c-82 0 -133 -4 -133 -10 0 -5 7 -10 16 -10 8 0 12 -4 9 -10 -4 -6 1 -7
11 -3 11 4 15 2 11 -4 -4 -6 -1 -10 6 -10 6 1 51 -18 100 -41 48 -23 92 -42
97 -42 14 0 32 -39 24 -52 -4 -6 -3 -8 4 -4 6 3 13 2 17 -4 3 -5 0 -10 -7 -10
-9 0 -9 -3 2 -10 13 -8 12 -10 -2 -10 -10 0 -18 5 -18 11 0 5 -5 7 -10 4 -6
-3 -10 -1 -10 5 0 6 -4 9 -9 5 -14 -8 -61 16 -54 28 3 6 1 7 -5 3 -6 -4 -29 3
-52 14 -36 19 -45 30 -41 53 1 5 -3 6 -9 2 -6 -3 -7 -11 -3 -18 3 -6 -10 -1
-29 11 -34 21 -37 21 -41 5 -3 -12 -5 -9 -6 8 0 15 -4 41 -7 58 l-7 31 -251 0
-251 0 -17 -40z m817 -19 c-4 -3 -10 1 -15 9 -7 11 -9 9 -7 -8 1 -15 6 -21 15
-17 8 3 31 -9 52 -27 21 -18 54 -43 73 -55 l35 -21 -2 22 c-1 12 -5 27 -9 33
-12 19 6 23 20 3 12 -16 11 -27 -3 -70 -14 -44 -20 -50 -44 -50 -26 0 -70 27
-98 60 -25 29 -52 95 -52 129 0 34 0 34 20 16 11 -10 18 -21 15 -24z m-368
-68 c-2 -21 -4 -6 -4 32 0 39 2 55 4 38 2 -18 2 -50 0 -70z m179 -33 c43 -22
73 -40 66 -40 -19 0 -112 41 -112 50 0 3 -7 7 -15 7 -22 0 -18 -12 8 -26 l22
-12 -22 5 c-12 2 -24 -1 -27 -8 -2 -6 -5 6 -5 27 -1 20 1 37 3 37 2 0 39 -18
82 -40z m-319 -6 c-3 -3 -12 -4 -19 -1 -8 3 -5 6 6 6 11 1 17 -2 13 -5z m40 0
c-3 -3 -12 -4 -19 -1 -8 3 -5 6 6 6 11 1 17 -2 13 -5z m-127 -28 c0 -2 -7 -7
-16 -10 -8 -3 -12 -2 -9 4 6 10 25 14 25 6z m337 -98 c-2 -18 -4 -6 -4 27 0
33 2 48 4 33 2 -15 2 -42 0 -60z m-564 55 c-13 -2 -35 -2 -50 0 -16 2 -5 4 22
4 28 0 40 -2 28 -4z m80 -10 c-7 -2 -19 -2 -25 0 -7 3 -2 5 12 5 14 0 19 -2
13 -5z m1394 -65 c-3 -8 -6 -5 -6 6 -1 11 2 17 5 13 3 -3 4 -12 1 -19z m-1050
-90 c-2 -18 -4 -6 -4 27 0 33 2 48 4 33 2 -15 2 -42 0 -60z m150 -45 c-2 -21
-4 -4 -4 37 0 41 2 58 4 38 2 -21 2 -55 0 -75z m388 2 c-22 -13 -49 -35 -60
-49 -19 -23 -23 -23 -67 -13 -52 12 -56 18 -33 37 13 11 14 10 9 -4 -4 -11 -1
-16 10 -16 9 0 16 3 16 8 0 12 42 34 90 48 69 19 79 16 35 -11z m-550 -152
c-6 -87 -8 -93 -28 -92 -15 1 -17 3 -6 6 17 4 27 67 31 187 1 41 3 49 6 26 2
-19 1 -77 -3 -127z m172 60 c-3 -10 -5 -2 -5 17 0 19 2 27 5 18 2 -10 2 -26 0
-35z m10 -95 c-3 -7 -5 -2 -5 12 0 14 2 19 5 13 2 -7 2 -19 0 -25z m64 -36
c-7 -2 -18 1 -23 6 -8 8 -4 9 13 5 13 -4 18 -8 10 -11z m213 -41 c-8 -10 -34
11 -34 28 0 30 24 32 31 2 3 -14 4 -28 3 -30z m-82 -2 c20 -10 40 -24 44 -31
6 -10 5 -11 -7 -1 -9 7 -40 24 -70 38 -30 14 -43 22 -29 19 14 -4 42 -15 62
-25z m-505 -5 c-3 -3 -12 -4 -19 -1 -8 3 -5 6 6 6 11 1 17 -2 13 -5z m-117
-49 c-30 -19 -59 -35 -65 -35 -5 0 15 16 45 35 30 19 59 35 65 35 5 0 -15 -16
-45 -35z m730 26 c0 -5 -3 -17 -6 -25 -5 -13 -9 -14 -20 -5 -11 9 -11 15 -3
25 13 16 29 18 29 5z m-493 -83 c-2 -13 -4 -5 -4 17 -1 22 1 32 4 23 2 -10 2
-28 0 -40z m573 -25 c0 -4 -9 2 -19 11 -12 11 -25 15 -33 10 -7 -4 -10 -3 -5
1 4 5 -1 18 -10 29 -10 11 1 5 25 -13 23 -18 42 -35 42 -38z m70 -29 c0 -24 5
-46 11 -49 7 -5 8 5 4 32 -5 28 -4 34 4 23 6 -8 10 -30 9 -47 l-2 -33 -33 32
c-28 27 -33 39 -33 77 0 43 0 44 20 26 14 -13 20 -31 20 -61z m-998 48 c-18
-10 -29 -22 -25 -27 4 -4 3 -5 -3 -2 -7 4 -31 -12 -54 -36 -40 -39 -41 -39
-20 -8 22 32 103 91 124 91 6 -1 -4 -9 -22 -18z m585 -19 c-3 -10 -5 -4 -5 12
0 17 2 24 5 18 2 -7 2 -21 0 -30z m-220 -70 c-2 -16 -4 -5 -4 22 0 28 2 40 4
28 2 -13 2 -35 0 -50z m298 57 c3 -6 -1 -7 -9 -4 -18 7 -21 14 -7 14 6 0 13
-4 16 -10z m-56 -60 c0 -9 -4 -8 -9 5 -5 11 -9 27 -9 35 0 9 4 8 9 -5 5 -11 9
-27 9 -35z m-334 30 c-3 -5 -12 -10 -18 -10 -7 0 -6 4 3 10 19 12 23 12 15 0z
m-40 -20 c-3 -5 -12 -10 -18 -10 -7 0 -6 4 3 10 19 12 23 12 15 0z m825 -35
c0 -5 -5 -3 -10 5 -5 8 -10 20 -10 25 0 6 5 3 10 -5 5 -8 10 -19 10 -25z
m-860 20 c0 -2 -13 -11 -30 -20 -38 -19 -40 -11 -2 9 31 17 32 18 32 11z m621
-32 c13 -16 12 -17 -3 -4 -10 7 -18 15 -18 17 0 8 8 3 21 -13z m-726 -28 c-22
-14 -44 -25 -50 -25 -12 0 66 48 80 49 6 0 -8 -11 -30 -24z m965 10 c7 -9 8
-15 2 -15 -5 0 -12 7 -16 15 -3 8 -4 15 -2 15 2 0 9 -7 16 -15z m-384 -125
c14 -36 21 -60 16 -55 -10 12 -72 168 -72 181 1 11 24 -40 56 -126z m225 83
c13 -16 12 -17 -3 -4 -10 7 -18 15 -18 17 0 8 8 3 21 -13z m-951 -38 c-25 -13
-52 -24 -60 -24 -16 0 78 47 95 48 6 0 -10 -11 -35 -24z m1021 -22 c13 -16 12
-17 -3 -4 -10 7 -18 15 -18 17 0 8 8 3 21 -13z m-552 -63 c0 -9 -4 -8 -9 5 -5
11 -9 27 -9 35 0 9 4 8 9 -5 5 -11 9 -27 9 -35z m602 13 c13 -16 12 -17 -3 -4
-10 7 -18 15 -18 17 0 8 8 3 21 -13z m-554 -129 c-5 -5 -47 81 -47 93 1 5 12
-14 26 -40 14 -27 23 -51 21 -53z m713 -46 c22 -32 39 -58 37 -58 -5 0 -119
148 -130 170 -14 25 49 -51 93 -112z m26 50 l29 -33 -32 29 c-31 28 -38 36
-30 36 2 0 16 -15 33 -32z m-1055 -25 c13 -16 12 -17 -3 -4 -17 13 -22 21 -14
21 2 0 10 -8 17 -17z m643 -53 c25 -38 44 -70 41 -70 -2 0 -22 26 -43 58 -47
70 -54 82 -49 82 2 0 25 -31 51 -70z m-285 3 c16 -32 46 -83 66 -113 21 -32
28 -47 16 -36 -23 21 -74 105 -103 169 -27 58 -12 44 21 -20z m-328 10 c13
-16 12 -17 -3 -4 -10 7 -18 15 -18 17 0 8 8 3 21 -13z m34 -43 c10 -11 16 -20
13 -20 -3 0 -13 9 -23 20 -10 11 -16 20 -13 20 3 0 13 -9 23 -20z m55 -65 c13
-14 21 -25 18 -25 -2 0 -15 11 -28 25 -13 14 -21 25 -18 25 2 0 15 -11 28 -25z
m170 -142 c0 -7 -61 31 -73 46 -7 8 7 2 31 -14 23 -15 42 -30 42 -32z m-260
11 c0 -2 -9 0 -20 6 -11 6 -20 13 -20 16 0 2 9 0 20 -6 11 -6 20 -13 20 -16z"/>
<path d="M916 1479 c3 -5 9 -7 14 -4 5 3 18 -7 29 -21 12 -15 23 -25 26 -22 7
7 -43 51 -60 54 -8 1 -13 -2 -9 -7z"/>
<path d="M2054 1547 c37 -39 106 -154 106 -176 0 -4 -38 -7 -85 -6 -47 1 -85
0 -85 -4 0 -17 -93 -43 -144 -39 -31 2 -52 -1 -49 -6 4 -5 -4 -7 -15 -4 -12 4
-20 2 -16 -3 3 -5 -2 -9 -11 -9 -26 0 -112 -88 -132 -136 -13 -31 -22 -42 -33
-38 -8 3 -35 9 -60 13 -41 7 -48 5 -63 -15 -9 -13 -22 -46 -29 -74 -13 -58
-28 -49 -28 18 0 49 20 94 52 116 12 9 17 16 11 16 -16 0 -62 -57 -67 -83 -3
-12 -7 -35 -9 -52 -2 -16 -6 -37 -9 -45 -3 -8 -3 -12 -1 -7 8 14 20 7 31 -18
13 -28 35 -35 25 -8 -5 12 -2 15 10 10 20 -8 20 -8 6 31 -8 25 -7 38 6 66 15
32 22 36 54 36 20 0 53 -9 73 -20 25 -13 38 -16 40 -8 4 12 19 14 106 17 24 0
41 5 38 9 -3 5 -19 7 -36 4 -44 -6 -38 11 26 76 53 52 57 55 70 37 12 -16 14
-17 20 -2 3 9 11 14 17 10 5 -3 7 -1 4 4 -9 14 18 36 80 68 63 31 144 35 212
10 35 -12 46 -13 52 -3 4 7 11 10 14 6 11 -11 -49 -67 -105 -98 -62 -33 -58
-37 14 -15 51 15 122 20 150 9 13 -5 11 -12 -13 -43 -15 -20 -35 -50 -44 -67
-15 -30 -49 -62 -93 -91 -16 -11 -15 -11 7 -3 15 5 30 6 34 2 4 -4 5 -1 3 7
-1 7 3 16 11 19 9 3 11 0 6 -8 -5 -9 -4 -11 4 -6 6 4 9 11 6 15 -2 5 6 20 20
35 13 14 22 26 19 26 -3 0 0 9 6 20 6 11 15 18 19 15 5 -2 8 3 7 13 0 9 5 16
12 14 8 -1 11 2 7 8 -9 14 83 13 125 -2 l33 -11 -40 -16 c-57 -23 -100 -63
-108 -100 -7 -31 -6 -32 15 -21 l21 11 -20 -39 c-19 -37 -42 -61 -87 -88 -17
-11 -16 -12 8 -10 14 0 24 4 22 7 -2 3 8 11 21 17 29 13 29 12 14 -22 -7 -14
-16 -23 -20 -20 -5 3 -6 -2 -3 -10 6 -15 -6 -21 -29 -17 -5 1 -6 -3 -2 -8 3
-6 -14 -19 -37 -30 -53 -24 -68 -26 -91 -16 -25 11 -42 -8 -22 -25 9 -7 15 -8
15 -2 0 6 -6 13 -12 16 -7 3 -4 5 7 3 27 -3 32 -66 10 -121 -19 -49 -70 -114
-81 -103 -5 4 -4 14 1 21 74 99 87 136 57 161 -15 14 -18 25 -13 54 3 20 6 55
6 79 0 36 3 42 18 38 9 -2 17 1 17 7 0 12 -6 13 -105 20 -33 3 -44 3 -25 1 86
-10 83 -6 78 -92 -3 -51 -18 -118 -43 -197 -22 -66 -39 -122 -40 -125 0 -3 -7
-23 -15 -45 -8 -22 -14 -44 -15 -50 -1 -12 -45 -85 -52 -85 -2 0 -1 6 3 13 8
12 -17 -5 -46 -32 -24 -23 -151 -102 -195 -122 -22 -10 -34 -18 -26 -18 8 -1
43 15 78 34 l63 36 1 -43 c0 -24 4 -52 8 -63 5 -13 -1 -43 -21 -89 -15 -38
-28 -73 -28 -77 0 -5 45 -9 99 -9 l99 0 40 63 c22 34 47 69 56 77 10 8 60 18
121 24 89 8 109 7 148 -8 65 -25 123 -69 149 -116 l23 -40 348 0 347 0 0 676
0 677 -31 -7 c-17 -3 -83 -11 -148 -17 -127 -12 -362 1 -501 28 -41 7 -97 18
-124 23 -27 5 -51 11 -53 14 -2 2 6 20 19 40 21 32 29 36 93 47 66 11 252 49
430 87 l80 17 -288 3 -288 2 -39 -31 c-23 -19 -43 -28 -51 -24 -8 5 -10 4 -5
-3 9 -14 -70 -65 -86 -56 -6 4 -8 3 -5 -3 6 -10 -13 -23 -34 -23 -5 0 -14 11
-21 24 -10 22 -7 28 23 53 18 15 38 27 44 25 5 -2 7 0 3 4 -4 4 -3 13 2 19 7
9 2 12 -21 13 -23 0 -32 -5 -39 -23 -13 -34 -30 -41 -30 -11 0 14 -5 28 -11
32 -8 5 -10 -1 -7 -20 6 -33 -2 -33 -32 -1 -13 14 -29 25 -35 25 -6 0 7 -19
29 -43z m126 29 c0 -2 -8 -10 -17 -17 -16 -13 -17 -12 -4 4 13 16 21 21 21 13z
m196 -12 c-3 -9 -6 -24 -6 -35 0 -15 -20 -30 -82 -59 -82 -38 -138 -57 -138
-47 0 7 116 70 124 68 3 0 24 19 47 44 42 45 66 58 55 29z m-30 -101 c-34 -66
-148 -141 -167 -111 -17 26 -10 56 15 62 13 3 32 9 42 13 13 5 15 3 9 -7 -5
-9 -4 -11 4 -6 6 4 9 12 6 17 -4 5 -2 9 4 9 6 0 27 11 47 25 47 32 58 32 40
-2z m-476 -163 c-8 -5 -11 -10 -6 -10 5 0 3 -7 -4 -15 -7 -9 -21 -13 -30 -10
-12 4 -34 -13 -74 -55 -31 -34 -56 -66 -56 -72 0 -6 -9 -8 -20 -5 -10 3 -27
-1 -37 -9 -30 -22 -34 -16 -18 24 19 44 74 104 88 95 6 -3 7 -1 3 5 -8 13 27
38 68 48 23 5 28 4 22 -7 -4 -8 -1 -6 6 4 7 10 26 17 43 17 23 0 27 -3 15 -10z
m1210 -204 c0 -2 -8 -10 -17 -17 -16 -13 -17 -12 -4 4 13 16 21 21 21 13z
m-40 -39 c0 -1 -26 -27 -57 -57 l-58 -55 55 58 c50 53 60 62 60 54z m-245 -47
c-3 -5 -16 -15 -28 -21 -19 -9 -19 -8 3 10 28 23 34 26 25 11z m-55 -34 c0 -2
-22 -20 -50 -40 -27 -20 -50 -33 -50 -28 0 4 22 21 48 39 51 34 52 35 52 29z
m190 -39 c0 -2 -15 -16 -32 -33 l-33 -29 29 33 c28 30 36 37 36 29z m-300 -40
c0 -2 -12 -14 -27 -28 l-28 -24 24 28 c23 25 31 32 31 24z m240 -30 c0 -2 -10
-12 -22 -23 l-23 -19 19 23 c18 21 26 27 26 19z m-490 -11 c0 -2 -8 -10 -17
-17 -16 -13 -17 -12 -4 4 13 16 21 21 21 13z m790 1 c0 -2 -12 -14 -27 -28
l-28 -24 24 28 c23 25 31 32 31 24z m-676 -113 c-32 -37 -72 -81 -87 -98 l-29
-31 21 31 c11 16 47 59 80 95 33 35 60 68 61 73 0 5 3 6 6 3 4 -4 -20 -37 -52
-73z m336 72 c0 -2 -8 -10 -17 -17 -16 -13 -17 -12 -4 4 13 16 21 21 21 13z
m-542 -39 c-121 -106 -166 -152 -161 -161 3 -6 3 -8 -2 -4 -11 10 -37 -11 -29
-23 3 -5 1 -8 -4 -7 -5 2 -33 -25 -61 -59 -49 -59 -72 -80 -55 -50 31 53 320
338 342 337 4 -1 -9 -15 -30 -33z m496 -22 c-9 -14 -18 -25 -21 -25 -5 0 5 18
20 38 17 22 18 13 1 -13z m-698 -17 c-9 -12 -16 -32 -16 -43 1 -15 4 -11 15
13 8 17 17 32 20 32 3 0 -2 -16 -10 -36 -8 -20 -15 -38 -15 -41 0 -2 -4 -1
-10 2 -5 3 -10 2 -10 -2 0 -5 -7 -18 -15 -29 -11 -14 -10 -5 4 42 21 70 28 84
42 84 6 0 3 -10 -5 -22z m1059 2 c-16 -4 -43 -8 -60 -8 -29 1 -29 1 5 8 19 4
46 7 60 8 22 0 22 -1 -5 -8z m-107 -17 c-10 -2 -26 -2 -35 0 -10 3 -2 5 17 5
19 0 27 -2 18 -5z m-75 -10 c-7 -2 -19 -2 -25 0 -7 3 -2 5 12 5 14 0 19 -2 13
-5z m-44 -7 c-2 -2 -31 -6 -64 -9 -39 -4 -50 -3 -30 2 31 9 102 14 94 7z
m-149 -26 c-14 -4 -34 -8 -45 -8 l-20 -1 20 9 c11 5 31 8 45 8 l25 0 -25 -8z
m-73 -16 c-3 -3 -12 -4 -19 -1 -8 3 -5 6 6 6 11 1 17 -2 13 -5z m-137 -38
c-58 -18 -127 -42 -153 -55 -26 -12 -52 -19 -56 -16 -5 3 -19 -7 -31 -22 -11
-16 -17 -19 -11 -8 5 11 22 34 38 51 15 16 22 22 14 12 -23 -29 -8 -30 52 -3
63 29 201 73 232 74 11 0 -27 -15 -85 -33z m-490 -109 c0 -2 -12 -14 -27 -28
l-28 -24 24 28 c23 25 31 32 31 24z m206 -45 c-17 -16 -18 -16 -5 5 7 12 15
20 18 17 3 -2 -3 -12 -13 -22z m-275 -20 c-5 -10 -18 -25 -27 -33 -11 -9 -9
-2 6 19 26 35 36 42 21 14z m1117 11 c-10 -2 -26 -2 -35 0 -10 3 -2 5 17 5 19
0 27 -2 18 -5z m-100 -10 c-10 -2 -28 -2 -40 0 -13 2 -5 4 17 4 22 1 32 -1 23
-4z m-95 -10 c-7 -2 -21 -2 -30 0 -10 3 -4 5 12 5 17 0 24 -2 18 -5z m-70 -10
c-7 -2 -21 -2 -30 0 -10 3 -4 5 12 5 17 0 24 -2 18 -5z m-60 -10 c-7 -2 -21
-2 -30 0 -10 3 -4 5 12 5 17 0 24 -2 18 -5z m-60 -10 c-7 -2 -19 -2 -25 0 -7
3 -2 5 12 5 14 0 19 -2 13 -5z m-63 -13 c-34 -11 -60 -11 -35 0 11 5 29 8 40
8 16 0 15 -2 -5 -8z m-156 -72 c-30 -46 -123 -168 -130 -168 -2 0 12 21 31 48
91 121 98 134 84 144 -11 8 -10 9 4 4 9 -3 17 -1 17 4 0 6 5 10 10 10 6 0 -2
-19 -16 -42z m-654 -68 c-22 -44 -42 -80 -45 -80 -3 0 13 36 35 80 22 44 42
80 45 80 3 0 -13 -36 -35 -80z m770 57 c0 -2 -15 -16 -32 -33 l-33 -29 29 33
c28 30 36 37 36 29z m-60 -71 c0 -2 -8 -10 -17 -17 -16 -13 -17 -12 -4 4 13
16 21 21 21 13z m-80 -99 c0 -2 -10 -12 -22 -23 l-23 -19 19 23 c18 21 26 27
26 19z"/>
<path d="M1835 1280 c-3 -5 -2 -10 4 -10 5 0 13 5 16 10 3 6 2 10 -4 10 -5 0
-13 -4 -16 -10z"/>
<path d="M3170 1567 c0 -21 -7 -23 -116 -40 -65 -10 -178 -34 -253 -54 -75
-19 -190 -48 -256 -64 l-120 -28 79 5 c43 2 124 16 180 29 55 14 180 36 276
50 96 14 183 28 192 31 14 4 18 -3 21 -43 2 -27 4 -8 5 45 1 50 0 92 -3 92 -3
0 -5 -10 -5 -23z m0 -46 c0 -6 -19 -12 -42 -15 -24 -4 -92 -13 -152 -22 -121
-17 -152 -14 -49 5 234 43 243 44 243 32z"/>
<path d="M1742 1444 c-43 -44 -37 -51 12 -16 21 14 33 28 27 30 -6 2 -9 8 -5
13 10 16 0 8 -34 -27z"/>
<path d="M845 1430 c3 -5 8 -10 11 -10 2 0 4 5 4 10 0 6 -5 10 -11 10 -5 0 -7
-4 -4 -10z"/>
<path d="M1320 1371 c0 -6 4 -13 10 -16 6 -3 7 1 4 9 -7 18 -14 21 -14 7z"/>
<path d="M980 1326 c0 -2 7 -7 16 -10 8 -3 12 -2 9 4 -6 10 -25 14 -25 6z"/>
<path d="M1880 1210 c-8 -5 -12 -12 -9 -15 4 -3 12 1 19 10 14 17 11 19 -10 5z"/>
<path d="M1824 1081 c0 -11 4 -17 8 -15 4 3 8 -3 8 -14 0 -28 -31 -51 -81 -61
-32 -7 -37 -9 -16 -10 15 -1 43 6 62 13 33 14 35 14 35 -4 0 -10 -4 -22 -10
-25 -5 -3 -10 -12 -10 -18 0 -8 3 -8 8 -2 4 6 24 25 45 43 21 17 34 32 30 32
-3 0 -17 -10 -30 -22 l-23 -21 0 44 c0 25 -6 53 -13 63 -12 16 -13 16 -13 -3z"/>
<path d="M1024 1082 c4 -7 2 -21 -5 -30 -12 -15 -11 -15 6 0 16 15 17 20 6 30
-11 11 -13 10 -7 0z"/>
<path d="M1912 1061 c-6 -17 -9 -31 -6 -31 7 0 25 52 20 57 -2 2 -8 -10 -14
-26z"/>
<path d="M1990 1079 c0 -12 36 -60 44 -60 19 2 28 -2 58 -25 36 -29 39 -32
-69 67 -18 16 -33 24 -33 18z"/>
<path d="M1761 1071 c-1 -8 -11 -26 -23 -40 l-22 -26 28 26 c16 15 26 33 23
40 -4 11 -6 11 -6 0z"/>
<path d="M1685 1000 c3 -5 10 -10 16 -10 5 0 9 5 9 10 0 6 -7 10 -16 10 -8 0
-12 -4 -9 -10z"/>
<path d="M1922 984 c10 -10 20 -16 22 -13 3 3 -5 11 -17 18 -21 13 -21 12 -5
-5z"/>
<path d="M1372 965 c0 -16 2 -22 5 -12 2 9 2 23 0 30 -3 6 -5 -1 -5 -18z"/>
<path d="M2279 973 c-13 -16 -12 -17 4 -4 16 13 21 21 13 21 -2 0 -10 -8 -17
-17z"/>
<path d="M2116 863 c-6 -14 -5 -15 5 -6 7 7 10 15 7 18 -3 3 -9 -2 -12 -12z"/>
<path d="M1858 753 c12 -2 32 -2 45 0 12 2 2 4 -23 4 -25 0 -35 -2 -22 -4z"/>
<path d="M1978 753 c12 -2 30 -2 40 0 9 3 -1 5 -23 4 -22 0 -30 -2 -17 -4z"/>
<path d="M1398 736 c35 -8 73 -17 85 -20 12 -3 16 -3 9 0 -6 3 -10 10 -6 15 3
5 -5 9 -18 9 -13 0 -48 2 -78 5 l-55 5 63 -14z"/>
<path d="M1742 743 c-23 -2 -40 -8 -37 -14 9 -13 44 -11 90 6 42 15 36 16 -53
8z"/>
<path d="M1500 736 c0 -2 7 -6 15 -10 8 -3 15 -1 15 4 0 6 -7 10 -15 10 -8 0
-15 -2 -15 -4z"/>
<path d="M1328 643 c7 -3 16 -2 19 1 4 3 -2 6 -13 5 -11 0 -14 -3 -6 -6z"/>
<path d="M1235 630 c-4 -7 -2 -11 6 -10 22 3 59 -11 54 -20 -7 -12 120 -3 143
9 11 6 22 7 26 4 3 -3 6 -1 6 5 0 8 -21 11 -62 10 -35 -2 -86 1 -114 6 -37 6
-54 5 -59 -4z"/>
<path d="M1798 633 c12 -2 32 -2 45 0 12 2 2 4 -23 4 -25 0 -35 -2 -22 -4z"/>
<path d="M1900 630 c-14 -4 -58 -8 -99 -9 -65 -1 -72 -3 -57 -14 10 -8 29 -12
42 -9 13 2 30 -1 38 -7 8 -7 17 -8 20 -3 3 5 21 8 40 7 19 0 33 2 30 6 -6 11
24 19 44 12 14 -5 13 -3 -3 10 -22 18 -21 18 -55 7z"/>
<path d="M1636 539 c-4 -9 -6 -34 -4 -55 3 -37 4 -38 16 -17 9 16 10 33 4 55
-7 25 -11 29 -16 17z"/>
<path d="M1638 403 c7 -3 16 -2 19 1 4 3 -2 6 -13 5 -11 0 -14 -3 -6 -6z"/>
<path d="M1685 35 c-33 -19 -55 -35 -50 -35 6 1 37 16 70 35 33 19 56 35 50
35 -5 -1 -37 -16 -70 -35z"/>
<path d="M1338 53 c7 -3 16 -2 19 1 4 3 -2 6 -13 5 -11 0 -14 -3 -6 -6z"/>
<path d="M1383 43 c9 -2 25 -2 35 0 9 3 1 5 -18 5 -19 0 -27 -2 -17 -5z"/>
</g>
</svg>
