<?xml version="1.0" standalone="no"?>
<!DOCTYPE svg PUBLIC "-//W3C//DTD SVG 20010904//EN"
 "http://www.w3.org/TR/2001/REC-SVG-20010904/DTD/svg10.dtd">
<svg version="1.0" xmlns="http://www.w3.org/2000/svg"
 width="300.000000pt" height="168.000000pt" viewBox="0 0 300.000000 168.000000"
 preserveAspectRatio="xMidYMid meet">

<g transform="translate(0.000000,168.000000) scale(0.100000,-0.100000)"
fill="#000000" stroke="none">
<path d="M0 840 l0 -840 185 0 185 0 0 368 c1 202 2 435 3 517 l2 150 55 -1
c65 -1 189 -44 203 -71 6 -10 30 -40 54 -67 50 -55 67 -86 77 -132 6 -29 4
-33 -21 -42 -15 -6 -21 -10 -13 -10 44 -1 90 34 120 93 28 53 29 57 8 40 l-22
-20 16 25 c8 14 18 23 22 20 4 -3 20 17 35 44 40 67 58 76 88 42 18 -21 23
-39 23 -82 0 -42 3 -54 16 -54 8 0 12 -5 9 -11 -4 -6 -14 -8 -22 -5 -12 5 -14
0 -11 -23 2 -17 1 -28 -2 -26 -4 2 -13 -14 -19 -36 -7 -23 -15 -48 -18 -57 -4
-10 -2 -13 5 -8 7 4 12 13 12 21 0 8 5 26 11 42 l11 28 17 -21 c21 -27 58 -47
71 -39 5 3 0 -13 -13 -37 -14 -27 -35 -49 -57 -60 -26 -13 -30 -17 -14 -18 11
0 25 5 32 12 19 19 64 -10 56 -36 -4 -15 -3 -17 4 -8 7 11 10 9 15 -7 3 -14
13 -21 29 -20 l23 0 -24 10 c-42 17 -16 19 37 4 57 -17 71 -31 21 -21 -17 3
-40 1 -50 -5 -25 -13 -89 -2 -68 12 10 6 11 9 2 9 -7 0 -13 6 -13 13 0 8 -7
14 -15 14 -8 0 -15 -6 -15 -13 0 -19 -27 -24 -40 -8 -10 11 -8 14 10 14 13 0
21 3 18 6 -3 3 -22 2 -41 -1 -28 -6 -35 -11 -35 -28 1 -12 6 -28 12 -36 9 -12
7 -12 -11 -2 -13 6 -23 16 -23 21 0 6 -11 10 -25 10 -14 0 -25 5 -25 10 0 6
-7 10 -15 10 -23 0 -18 17 7 23 13 4 26 1 30 -6 5 -8 8 -6 8 7 0 13 5 17 20
13 11 -3 18 -1 14 4 -3 5 3 9 13 9 17 1 17 1 0 11 -14 8 -15 14 -7 32 11 21
11 21 -4 3 -9 -11 -16 -22 -16 -26 0 -11 -58 -40 -80 -40 -11 0 -19 -4 -16 -9
3 -5 -3 -19 -13 -32 -33 -42 -78 -142 -95 -209 -9 -36 -29 -91 -44 -123 -20
-40 -23 -52 -11 -41 9 8 23 28 29 44 l12 29 27 -19 c17 -13 35 -17 54 -13 l27
5 0 116 c0 95 2 113 13 99 7 -9 26 -17 45 -17 85 0 96 -1 100 -5 3 -3 -1 -11
-8 -20 -7 -9 -10 -18 -6 -22 3 -3 6 -1 6 6 0 7 5 9 10 6 6 -3 10 0 10 8 0 14
20 27 41 27 6 0 8 -10 4 -22 -5 -20 -4 -20 9 3 14 24 19 25 68 22 70 -5 78 -9
78 -32 0 -19 25 -31 69 -31 23 0 23 1 8 18 -18 20 -23 47 -7 37 6 -3 10 -2 10
4 0 6 7 8 15 5 8 -4 17 1 21 10 9 23 24 9 24 -22 -1 -19 -10 -33 -32 -47 -53
-34 -47 -45 24 -45 73 0 79 6 96 90 7 29 10 36 11 20 l2 -25 15 28 c16 29 40
38 30 10 -10 -26 0 -13 53 67 46 68 48 75 39 109 -10 34 -5 153 8 221 7 33 28
39 43 13 7 -12 10 -13 11 -5 0 16 39 51 57 52 9 0 12 -26 10 -96 -1 -67 1 -91
8 -79 30 51 42 60 70 50 14 -6 34 -22 43 -37 16 -28 16 -28 -29 -75 -24 -27
-54 -59 -64 -73 l-20 -25 22 19 c23 19 23 19 24 -5 1 -13 1 -35 1 -49 0 -23 0
-23 5 -3 3 17 12 23 31 24 27 1 27 1 -3 9 -24 6 -18 8 32 9 34 0 64 -3 67 -7
2 -4 -11 -6 -30 -4 -23 3 -34 0 -34 -9 0 -7 3 -9 7 -6 3 4 11 3 18 -3 7 -6 29
-4 60 6 27 8 55 12 61 10 7 -3 14 4 17 15 4 16 9 18 31 9 14 -5 32 -7 40 -4 8
3 23 -7 36 -25 17 -24 18 -32 8 -36 -8 -3 -15 -17 -16 -30 -2 -27 -36 -67 -48
-57 -4 4 -4 2 -1 -4 4 -7 0 -15 -9 -18 -10 -4 -13 -2 -9 7 4 6 0 4 -8 -6 -15
-18 -15 -18 -21 0 -3 10 -4 5 -2 -10 4 -28 3 -29 -38 -24 -22 3 -52 7 -66 10
-14 2 -17 2 -7 0 9 -2 17 -9 17 -14 0 -5 20 -9 45 -9 25 0 45 -4 45 -8 0 -4
-20 -27 -44 -49 -40 -39 -48 -42 -107 -46 l-64 -3 64 -2 c57 -2 62 -4 50 -18
-7 -9 -18 -26 -24 -38 -6 -11 -17 -22 -25 -22 -8 -1 -21 -2 -27 -3 -7 0 -13
-8 -13 -16 0 -11 11 -15 38 -15 20 0 48 -3 62 -6 l25 -6 -22 16 c-41 30 -30
66 42 142 l65 69 35 -37 c19 -21 35 -35 35 -31 0 4 -14 22 -31 39 l-32 33 39
45 c26 29 50 47 72 51 17 3 32 10 32 15 0 5 -8 6 -17 3 -13 -5 -15 -2 -10 13
7 19 7 19 -8 0 -8 -11 -18 -16 -22 -13 -4 4 0 14 9 23 14 14 19 13 53 -10 39
-27 96 -42 114 -31 6 3 11 -1 11 -10 0 -10 5 -13 13 -9 6 4 2 -4 -11 -18 -16
-18 -18 -25 -8 -25 8 0 12 5 9 10 -3 6 -1 7 6 3 9 -6 9 -11 0 -22 -6 -7 -15
-11 -20 -8 -5 3 -12 -2 -15 -10 -3 -9 -10 -13 -15 -10 -5 3 -9 -2 -9 -11 0
-11 -5 -15 -16 -11 -8 3 -12 2 -9 -4 3 -6 1 -10 -5 -10 -6 0 -9 -4 -6 -9 6 -9
-22 -26 -37 -22 -5 1 -6 -3 -2 -9 6 -9 -8 -14 -28 -11 -5 1 -6 -3 -2 -9 3 -6
12 -8 18 -4 7 3 4 -1 -5 -9 -10 -8 -16 -17 -13 -20 3 -4 2 -4 -3 -1 -4 3 -7
10 -7 16 0 6 -8 12 -19 14 -14 2 -16 0 -7 -9 20 -20 12 -35 -31 -61 -24 -14
-38 -26 -32 -26 6 0 28 11 48 25 29 19 41 22 58 14 22 -9 21 -9 -3 -4 -17 3
-31 -1 -40 -11 -7 -8 -28 -22 -47 -30 -42 -17 -45 -17 -36 -2 4 7 3 8 -5 4 -6
-4 -9 -11 -6 -16 3 -5 -12 -11 -32 -13 -28 -3 -20 -5 27 -7 36 -2 72 -3 80 -2
17 2 213 31 245 37 11 2 42 7 69 11 50 7 47 16 -10 27 -24 5 -36 1 -49 -13
-10 -11 -25 -20 -33 -20 -8 0 4 14 26 30 23 17 42 35 42 41 0 5 -4 8 -9 4 -12
-7 -30 25 -24 43 3 6 -2 12 -11 12 -25 0 -19 26 12 55 l27 25 6 -47 5 -48 5
45 c4 43 5 44 16 20 9 -18 12 -20 12 -8 1 10 -8 23 -19 30 -11 7 -20 16 -20
20 0 5 58 8 130 8 l130 0 -2 -72 c-1 -40 -1 -121 0 -180 l2 -108 185 0 185 0
0 840 0 840 -560 0 -560 0 0 -57 c0 -32 7 -83 15 -113 9 -30 18 -73 20 -95 l4
-40 -20 24 c-14 17 -16 27 -9 36 7 9 5 23 -5 46 -16 33 -16 33 -10 4 4 -16 7
-34 8 -40 1 -5 -4 -9 -12 -7 -11 2 -10 -2 3 -22 18 -28 20 -36 8 -36 -8 0 -52
83 -52 97 0 4 7 -2 15 -13 14 -18 15 -17 4 8 -7 15 -16 25 -22 21 -6 -3 -7 -2
-4 3 3 6 -3 36 -14 69 -10 32 -19 71 -19 87 l0 28 -120 0 c-107 0 -122 -2
-140 -20 -11 -11 -30 -20 -42 -20 -21 -1 -21 -2 -5 -11 9 -5 24 -23 32 -40 9
-16 20 -27 25 -24 18 11 50 -15 50 -40 0 -31 -13 -32 -34 -2 -13 18 -13 15 2
-14 9 -21 19 -35 21 -34 2 2 13 -5 24 -16 21 -19 21 -21 5 -49 -9 -17 -13 -30
-8 -30 5 0 14 -17 21 -37 6 -21 25 -66 42 -100 23 -47 37 -64 61 -73 73 -28
106 -44 126 -62 20 -19 20 -18 20 3 0 12 8 23 19 26 12 3 17 11 14 19 -7 19
21 28 46 14 15 -8 21 -8 21 0 0 6 5 8 10 5 5 -3 10 -1 10 5 0 7 9 9 23 5 19
-5 20 -4 5 5 -10 6 -18 20 -18 31 0 12 4 17 11 14 6 -4 8 -13 5 -21 -4 -11 4
-14 34 -14 28 0 46 -6 57 -20 10 -11 29 -20 44 -20 26 0 64 -31 53 -43 -4 -4
1 -9 10 -13 15 -6 15 -7 -1 -21 -17 -14 -17 -14 1 -9 18 6 18 5 2 -19 -16 -25
-16 -26 0 -23 9 2 19 -3 22 -11 3 -8 0 -11 -7 -7 -14 9 -14 0 0 -26 8 -15 8
-23 -2 -32 -9 -8 -10 -8 -5 2 10 17 -4 15 -18 -3 -10 -13 -15 -12 -43 1 -30
15 -36 34 -12 34 6 0 7 -5 3 -11 -4 -7 -1 -10 6 -7 8 2 16 10 18 16 5 17 -33
15 -47 -2 -10 -11 -7 -19 10 -35 13 -11 19 -26 16 -35 -4 -9 -2 -16 3 -16 5 0
11 8 13 18 4 15 5 15 6 -1 1 -11 -7 -21 -19 -24 -13 -3 -20 -14 -20 -28 0 -28
-43 -65 -74 -65 -18 1 -17 3 9 18 26 14 30 21 25 46 -3 18 -14 32 -27 37 -13
5 -22 5 -22 1 3 -19 -2 -26 -10 -13 -7 11 -14 9 -39 -9 -16 -12 -35 -20 -40
-16 -6 4 -8 -3 -5 -16 l6 -23 -27 24 c-19 18 -26 34 -26 63 0 24 -4 37 -10 33
-6 -4 -38 7 -73 23 -34 16 -84 37 -110 46 -87 29 -122 53 -190 129 -37 41 -67
77 -67 80 0 3 8 8 18 10 9 2 3 3 -15 2 -34 -4 -77 28 -51 38 9 4 9 6 1 6 -7 1
-23 12 -36 25 -18 18 -22 27 -13 36 8 8 7 14 -6 21 -15 8 -18 24 -18 84 l0 75
29 0 c16 0 32 -6 34 -12 3 -8 6 -6 6 5 1 11 -6 17 -20 17 -31 0 -58 18 -55 37
2 11 21 25 47 35 24 9 37 17 29 17 -8 1 -54 -17 -102 -38 -57 -26 -89 -35 -92
-27 -2 6 -5 4 -5 -5 -2 -28 -42 -31 -81 -5 -19 13 -44 28 -54 34 -11 5 -27 29
-35 53 -13 36 -22 45 -44 47 -24 3 -27 0 -27 -27 0 -16 -3 -38 -7 -48 -3 -10
-3 -15 2 -11 12 11 35 -11 35 -34 0 -14 -6 -19 -22 -16 -14 2 -22 9 -20 18 2
8 0 12 -4 8 -4 -4 -13 0 -21 10 -13 15 -13 15 -3 -5 6 -13 21 -33 35 -47 26
-26 44 -94 28 -105 -6 -3 -13 -38 -16 -77 -6 -76 -38 -179 -62 -204 -13 -12
-42 -15 -141 -15 -83 0 -112 -3 -87 -8 21 -4 47 -11 58 -17 11 -5 49 -14 85
-20 103 -18 169 -72 96 -77 -82 -7 -118 -5 -128 5 -9 9 -7 12 8 12 31 1 -53
28 -110 35 -59 8 -160 50 -152 64 3 5 -2 15 -12 22 -15 13 -16 12 -3 -3 19
-24 8 -22 -34 6 -20 14 -56 32 -80 42 -44 16 -45 18 -45 59 0 44 22 67 44 45
5 -5 15 -10 20 -10 6 0 -4 10 -21 21 -33 21 -44 53 -20 62 7 3 5 6 -5 6 -23 1
-23 29 -1 53 15 17 15 19 -3 32 -17 13 -16 15 19 21 40 8 84 54 59 63 -7 2 -9
9 -5 15 4 8 1 7 -9 -1 -13 -11 -20 -9 -44 13 -29 26 -29 26 -4 19 22 -6 23 -5
8 10 -9 9 -22 32 -28 51 l-12 35 -184 0 -184 0 0 -840z m2415 625 c29 -12 59
-16 85 -12 35 4 39 3 29 -10 -55 -66 -147 -44 -199 48 l-24 44 32 -27 c17 -14
52 -34 77 -43z m-694 -141 c-1 -43 -3 -79 -5 -81 -5 -6 -54 72 -70 113 -16 39
-16 39 3 15 14 -18 20 -21 26 -11 5 9 4 11 -3 6 -7 -4 -12 -3 -12 2 0 6 11 13
25 16 14 4 25 12 25 18 0 6 3 9 6 5 4 -3 6 -41 5 -83z m205 14 c47 -69 47 -68
27 -68 -20 0 -77 85 -68 101 9 13 10 13 41 -33z m14 22 c0 -5 -2 -10 -4 -10
-3 0 -8 5 -11 10 -3 6 -1 10 4 10 6 0 11 -4 11 -10z m-591 -26 c-17 -21 -31
-17 -19 6 6 11 15 18 21 14 6 -4 6 -11 -2 -20z m-3 -41 c-17 -60 -27 -106 -23
-109 2 -3 10 17 17 43 19 75 20 77 30 67 5 -5 3 -35 -6 -73 -8 -35 -13 -68
-11 -74 2 -7 9 17 16 51 12 60 13 62 34 50 34 -18 139 -128 134 -141 -2 -7
-17 -14 -33 -15 -33 -4 -133 15 -150 29 -8 6 -13 0 -17 -21 -7 -33 -31 -39
-68 -19 -11 6 -34 11 -50 11 -18 1 -25 4 -18 9 8 5 1 17 -25 39 -20 18 -36 36
-36 40 0 4 12 13 28 18 15 6 56 33 92 61 69 53 95 63 86 34z m644 -56 c0 -27
-34 -59 -55 -51 -19 8 -19 24 1 52 21 30 54 29 54 -1z m205 -37 c9 -15 -46
-33 -59 -20 -8 8 -6 9 7 5 9 -4 17 -2 17 4 0 6 7 8 17 4 11 -4 14 -3 9 5 -4 7
-5 12 -2 12 3 0 8 -5 11 -10z m49 -8 c3 -5 -1 -9 -9 -9 -8 0 -12 4 -9 9 3 4 7
8 9 8 2 0 6 -4 9 -8z m-1131 -22 c3 -11 1 -20 -3 -20 -4 0 -6 -8 -3 -19 7 -26
-10 -34 -33 -16 -16 13 -17 16 -4 25 8 5 11 10 7 10 -10 0 11 40 22 40 5 0 11
-9 14 -20z m1187 -14 c19 -11 25 -23 27 -55 2 -38 1 -41 -20 -38 -12 2 -16 2
-9 0 25 -9 11 -24 -20 -21 -24 2 -33 8 -32 21 1 9 -3 17 -9 17 -6 0 -7 3 -4 6
3 4 1 16 -5 27 -9 17 -7 24 12 39 26 21 28 21 60 4z m325 4 c12 -19 -6 -50
-29 -50 -12 0 -47 -6 -77 -14 -123 -33 -200 -29 -170 8 15 18 90 44 151 51 49
6 49 5 -63 -37 -43 -17 -77 -32 -75 -33 2 -2 48 12 103 30 55 19 102 35 105
35 3 0 -2 5 -10 10 -11 7 -6 10 22 10 20 0 40 -5 43 -10z m-1575 -20 c0 -5 -4
-10 -10 -10 -5 0 -10 5 -10 10 0 6 5 10 10 10 6 0 10 -4 10 -10z m118 -2 c10
-14 10 -54 -1 -63 -4 -3 -5 -2 -3 1 2 3 -2 21 -10 40 -14 33 -6 46 14 22z
m-18 -55 c0 -11 -3 -14 -8 -7 -4 6 -14 14 -22 17 -10 4 -8 6 8 6 15 1 22 -5
22 -16z m1463 10 c-7 -2 -19 -2 -25 0 -7 3 -2 5 12 5 14 0 19 -2 13 -5z
m-1258 -13 c3 -5 1 -10 -4 -10 -6 0 -11 5 -11 10 0 6 2 10 4 10 3 0 8 -4 11
-10z m-151 -19 c-21 -21 -29 -19 -21 4 4 8 14 15 23 15 16 0 16 -2 -2 -19z
m110 1 l49 -5 -6 -61 c-3 -36 -1 -53 3 -41 5 11 9 37 9 58 1 35 20 54 22 22 6
-94 -9 -175 -37 -210 -13 -16 -24 -24 -24 -17 0 7 -4 10 -10 7 -5 -3 -2 11 6
31 8 20 13 41 11 47 -2 7 -7 -3 -11 -20 -4 -18 -13 -36 -19 -39 -7 -4 -9 -4
-5 1 4 4 -2 23 -13 42 -11 18 -16 33 -10 33 5 0 13 16 17 36 5 29 2 40 -17 60
-12 13 -29 24 -36 24 -10 0 -11 5 -3 19 5 11 7 21 2 24 -4 2 0 2 8 -1 8 -2 37
-7 64 -10z m-94 -22 c0 -5 -5 -10 -11 -10 -5 0 -7 5 -4 10 3 6 8 10 11 10 2 0
4 -4 4 -10z m424 -6 c24 -9 19 -20 -15 -35 -28 -11 -33 -10 -45 6 -8 10 -14
14 -14 9 0 -6 5 -15 12 -22 9 -9 2 -22 -32 -57 -51 -52 -68 -59 -101 -46 l-24
10 25 0 c38 1 67 27 95 81 29 57 54 71 99 54z m-376 -30 c21 -14 32 -64 14
-64 -4 0 -13 -14 -19 -31 -11 -29 -13 -30 -29 -15 -13 13 -19 14 -30 5 -17
-14 -22 -10 -27 17 -3 20 -8 24 -33 24 -8 0 -12 -5 -8 -11 4 -8 0 -8 -15 0
-11 7 -21 16 -21 20 0 5 -7 12 -16 15 -14 5 -15 4 -4 -9 10 -13 9 -15 -9 -15
-11 0 -20 5 -18 11 1 6 -4 14 -10 16 -18 6 -16 -17 1 -31 11 -9 12 -16 3 -36
l-11 -25 -4 30 c-2 17 -16 43 -30 58 l-27 28 40 -4 c22 -2 50 -1 63 4 17 7 22
5 22 -7 0 -8 5 -12 10 -9 6 4 7 11 4 17 -4 7 -2 8 4 4 9 -5 9 -13 1 -27 -13
-26 -9 -30 20 -22 17 4 19 8 9 14 -11 7 -11 9 1 9 8 0 19 -8 26 -17 11 -15 17
-15 40 -5 20 9 31 10 39 2 7 -7 6 -10 -2 -10 -7 0 -12 -5 -12 -12 0 -7 7 -5
18 6 12 14 14 20 4 23 -6 3 -10 9 -7 13 3 5 -13 7 -36 5 -23 -3 -49 0 -58 5
-14 8 -14 9 2 10 10 0 16 4 12 9 -13 22 63 26 93 5z m-339 -41 c-7 -10 -15
-20 -16 -22 -2 -2 -3 5 -3 17 0 14 6 22 16 22 14 0 15 -3 3 -17z m767 -7 c18
-18 18 -32 0 -39 -18 -7 -56 20 -56 39 0 18 37 18 56 0z m-584 -35 c4 -1 0
-10 -9 -20 -14 -17 -18 -17 -30 -5 -17 17 -9 33 15 29 9 -2 20 -4 24 -4z m586
-14 c6 3 12 -2 12 -11 0 -9 -5 -16 -12 -16 -6 0 -19 -7 -29 -16 -17 -15 -18
-14 -24 9 -9 33 1 50 23 38 9 -4 23 -6 30 -4z m-71 -19 c-3 -8 -6 -5 -6 6 -1
11 2 17 5 13 3 -3 4 -12 1 -19z m160 -10 c-3 -7 -5 -2 -5 12 0 14 2 19 5 13 2
-7 2 -19 0 -25z m426 9 c18 11 36 12 43 2 3 -5 0 -8 -7 -7 -7 2 -16 -10 -20
-27 l-7 -30 -1 28 c0 15 -4 26 -8 26 -22 -4 -33 2 -27 13 6 9 9 9 12 0 2 -7 9
-9 15 -5z m-1143 -18 c0 -11 -4 -17 -10 -14 -5 3 -10 13 -10 21 0 8 5 14 10
14 6 0 10 -9 10 -21z m685 -7 c-3 -3 0 -11 6 -18 11 -14 2 -64 -13 -64 -5 0
-7 -4 -4 -9 3 -4 -1 -17 -9 -27 -13 -17 -14 -15 -15 28 0 26 4 58 10 72 6 18
6 26 -1 26 -6 0 -7 5 -4 10 5 8 11 7 21 -1 8 -6 12 -14 9 -17z m325 17 c4 7 7
0 8 -17 0 -23 -5 -31 -32 -40 -39 -14 -63 -15 -70 -3 -4 5 3 7 14 4 22 -6 80
14 80 28 0 4 -4 11 -10 14 -5 3 -10 12 -9 18 0 8 3 7 6 -2 4 -10 7 -10 13 -2z
m-36 -12 c16 -12 16 -13 -3 -13 -11 0 -17 4 -14 9 3 5 0 7 -8 5 -8 -3 -13 -11
-11 -17 1 -6 -2 -11 -8 -11 -14 0 -13 13 2 28 15 15 20 15 42 -1z m491 -54
c33 -62 39 -68 20 -20 -7 16 -3 18 26 15 l34 -3 1 -57 c1 -32 -3 -55 -7 -52
-5 3 -7 10 -4 15 4 5 -1 9 -9 9 -9 0 -16 5 -16 12 0 6 -2 9 -5 6 -7 -6 35
-102 46 -106 5 -2 9 -20 9 -39 0 -31 -2 -34 -15 -23 -14 11 -14 10 -5 -15 10
-25 9 -27 -5 -15 -14 12 -18 11 -26 -1 -5 -8 -9 -9 -9 -3 0 6 -20 10 -50 10
-28 -1 -50 2 -50 5 0 3 -13 4 -29 1 -27 -4 -32 1 -58 49 -15 30 -29 57 -31 62
-2 4 34 7 80 7 81 0 84 -1 100 -28 9 -15 26 -36 39 -47 12 -11 3 6 -21 37 -23
32 -45 56 -49 54 -3 -2 -15 1 -26 5 -18 9 -18 9 3 5 28 -5 28 -2 -5 45 -21 28
-35 38 -53 37 -23 -1 -23 -1 -3 -5 23 -4 56 -41 48 -53 -2 -4 -30 -5 -62 -4
-73 4 -72 4 -48 14 18 8 18 9 -5 10 -22 2 -20 3 10 12 19 6 31 12 25 14 -6 2
-8 28 -7 59 l4 55 59 0 59 0 35 -67z m-898 34 c4 -7 0 -8 -11 -4 -10 4 -22 7
-27 7 -5 0 -9 4 -9 9 0 12 38 2 47 -12z m-434 7 c18 -6 11 -44 -8 -44 -21 0
-36 25 -23 38 14 14 12 14 31 6z m1054 -16 c-3 -8 -6 -5 -6 6 -1 11 2 17 5 13
3 -3 4 -12 1 -19z m-72 3 c3 -5 1 -12 -5 -16 -5 -3 -10 1 -10 9 0 18 6 21 15
7z m-812 -93 c-5 -47 -8 -56 -23 -55 -10 1 -16 5 -13 10 3 4 -4 11 -16 14 -12
3 -21 12 -21 20 0 12 3 13 14 4 12 -10 16 -6 21 21 4 18 12 40 19 50 17 27 24
1 19 -64z m-183 48 c0 5 4 4 8 -2 4 -7 5 -42 4 -79 l-4 -66 -29 6 c-21 5 -29
3 -29 -7 0 -7 -11 -13 -23 -13 -18 0 -23 5 -19 17 2 10 8 15 13 12 5 -3 9 -1
9 5 0 5 3 16 6 25 5 13 -2 16 -32 17 -31 0 -35 2 -19 9 12 4 30 26 40 49 22
44 43 56 63 32 6 -8 12 -11 12 -5z m1036 15 c-4 -5 0 -12 6 -14 8 -3 6 -6 -4
-6 -18 -1 -24 10 -11 22 9 10 15 8 9 -2z m-918 -32 c9 -13 9 -16 -3 -16 -8 0
-15 9 -15 20 0 11 1 18 3 16 1 -2 8 -11 15 -20z m817 -19 c8 -13 -5 -13 -25 0
-13 8 -13 10 2 10 9 0 20 -4 23 -10z m-865 -22 c0 6 7 12 16 12 11 0 15 -6 11
-20 -3 -11 -1 -18 4 -14 5 3 9 -5 9 -18 0 -18 2 -20 10 -8 8 13 10 12 10 -4 0
-14 5 -17 21 -13 21 6 21 3 15 -46 -3 -29 -6 -69 -6 -91 0 -35 -2 -38 -24 -34
-21 4 -27 -2 -47 -44 -26 -57 -56 -67 -44 -15 5 17 9 44 9 59 1 14 4 24 9 21
4 -2 7 2 7 11 0 8 3 22 6 30 5 12 2 15 -10 10 -19 -7 -19 -6 -5 34 6 17 18 33
27 35 12 3 10 5 -6 6 -27 1 -46 43 -37 80 5 20 8 22 16 10 6 -9 9 -10 9 -1z
m1039 -38 c-6 -16 -18 -30 -26 -30 -11 0 -10 7 7 30 12 17 23 30 25 30 2 0 -1
-13 -6 -30z m-144 -31 c11 -17 -1 -21 -15 -4 -8 9 -8 15 -2 15 6 0 14 -5 17
-11z m-175 -10 c0 -5 6 -6 14 -3 8 3 22 -4 33 -15 10 -11 31 -24 46 -30 15 -6
27 -15 27 -21 0 -16 -36 -20 -187 -23 -163 -3 -170 2 -106 65 36 35 41 36 106
36 37 0 67 -4 67 -9z m96 -15 c1 -9 0 -13 -4 -10 -3 4 -7 14 -8 22 -1 9 0 13
4 10 3 -4 7 -14 8 -22z m265 -9 c5 4 6 -2 2 -11 -5 -13 -3 -15 8 -9 8 4 11 5
7 0 -4 -4 2 -21 14 -38 16 -22 18 -29 7 -25 -10 4 -16 1 -16 -8 0 -8 5 -14 11
-14 12 0 -25 -29 -38 -30 -6 0 -2 6 8 13 15 11 16 16 5 28 -8 8 -15 28 -15 44
-1 17 -4 37 -6 45 -3 8 -3 12 -1 7 3 -4 9 -5 14 -2z m-842 -52 c16 -65 22
-118 13 -131 -7 -11 -14 -11 -38 0 -16 6 -30 13 -32 14 -3 2 41 154 45 154 1
0 7 -17 12 -37z m666 9 c-3 -3 -11 0 -18 7 -9 10 -8 11 6 5 10 -3 15 -9 12
-12z m75 -8 c0 -2 -7 -4 -15 -4 -8 0 -15 4 -15 10 0 5 7 7 15 4 8 -4 15 -8 15
-10z m-1045 -40 c24 -11 25 -13 5 -8 -14 4 -38 13 -55 20 -24 11 -25 13 -5 8
14 -4 39 -13 55 -20z m1045 -14 c0 5 7 10 15 10 23 0 18 -18 -7 -26 -13 -4
-24 -2 -26 5 -2 6 -10 11 -18 11 -8 0 -14 5 -14 11 0 7 10 5 25 -5 14 -9 25
-12 25 -6z m-303 4 c-3 -3 -12 -4 -19 -1 -8 3 -5 6 6 6 11 1 17 -2 13 -5z
m-881 -57 c1 -9 -7 -12 -27 -9 -33 5 -37 16 -11 31 18 10 34 1 38 -22z m1144
12 c0 -6 -4 -7 -10 -4 -5 3 -10 11 -10 16 0 6 5 7 10 4 6 -3 10 -11 10 -16z
m420 -50 l0 -68 -115 1 c-73 1 -115 5 -115 11 0 6 5 37 12 69 l12 59 103 -2
103 -2 0 -68z m-376 42 c4 -5 -3 -7 -14 -4 -23 6 -26 13 -6 13 8 0 17 -4 20
-9z m137 -20 c-8 -5 -12 -19 -9 -35 5 -25 -5 -35 -16 -17 -9 14 12 61 26 61
10 0 9 -3 -1 -9z m-1524 -53 c-3 -8 -6 -5 -6 6 -1 11 2 17 5 13 3 -3 4 -12 1
-19z m35 7 c0 -5 -5 -11 -11 -13 -6 -2 -11 4 -11 13 0 9 5 15 11 13 6 -2 11
-8 11 -13z m1472 -34 c7 -11 -33 -63 -44 -56 -4 3 -10 -2 -14 -10 -3 -9 -12
-12 -23 -8 -16 6 -16 4 2 -17 11 -13 15 -21 9 -17 -6 4 -20 -3 -30 -15 -17
-19 -17 -21 -2 -15 10 3 20 2 22 -2 3 -5 -3 -8 -14 -7 -11 0 -20 5 -19 10 0 5
-5 13 -13 18 -9 6 -8 8 7 6 14 -2 20 3 20 17 0 26 14 47 25 40 5 -3 15 4 24
16 8 12 19 18 26 14 9 -5 10 -1 5 14 -6 21 8 30 19 12z m-144 -141 c0 -5 -2
-10 -4 -10 -3 0 -8 5 -11 10 -3 6 -1 10 4 10 6 0 11 -4 11 -10z m-18 -42 c-9
-9 -15 -9 -24 1 -11 10 -9 11 6 5 16 -6 18 -4 12 12 -6 15 -5 17 5 7 10 -10
10 -16 1 -25z m73 -5 c0 -26 -4 -28 -43 -31 -34 -3 -42 0 -36 10 17 30 38 48
59 48 16 0 21 -6 20 -27z"/>
<path d="M1230 1156 c0 -2 8 -10 18 -17 15 -13 16 -12 3 4 -13 16 -21 21 -21
13z"/>
<path d="M1650 884 c0 -14 3 -14 15 -4 8 7 15 14 15 16 0 2 -7 4 -15 4 -8 0
-15 -7 -15 -16z"/>
<path d="M1260 690 c0 -6 7 -10 15 -10 8 0 15 2 15 4 0 2 -7 6 -15 10 -8 3
-15 1 -15 -4z"/>
<path d="M1308 643 c6 -2 18 -2 25 0 6 3 1 5 -13 5 -14 0 -19 -2 -12 -5z"/>
<path d="M1822 615 c2 -3 29 -7 59 -9 36 -3 47 -2 34 4 -21 9 -102 13 -93 5z"/>
<path d="M2340 591 c0 -6 4 -13 10 -16 6 -3 7 1 4 9 -7 18 -14 21 -14 7z"/>
<path d="M390 1660 c23 -43 85 -53 127 -20 l26 20 -31 0 c-17 0 -34 5 -37 10
-3 6 -26 10 -51 10 -41 0 -44 -1 -34 -20z"/>
<path d="M697 1667 c3 -5 -3 -7 -12 -5 -12 2 -19 -4 -20 -17 -1 -11 -5 -33 -9
-50 l-6 -30 12 32 c7 18 19 38 27 45 11 11 12 9 2 -9 -10 -19 -9 -22 4 -17 18
7 21 -12 3 -19 -8 -4 -4 -8 10 -12 12 -4 22 -11 22 -16 0 -5 8 -4 19 3 16 10
17 16 9 40 -6 16 -20 34 -32 39 -15 7 -9 8 26 5 26 -3 50 -1 53 4 7 12 6 12
-62 14 -28 0 -49 -3 -46 -7z"/>
<path d="M895 1660 c-3 -6 1 -7 9 -4 18 7 21 14 7 14 -6 0 -13 -4 -16 -10z"/>
<path d="M1831 1654 c0 -11 3 -14 6 -6 3 7 2 16 -1 19 -3 4 -6 -2 -5 -13z"/>
<path d="M558 1643 c7 -3 16 -2 19 1 4 3 -2 6 -13 5 -11 0 -14 -3 -6 -6z"/>
<path d="M1191 1634 c0 -11 3 -14 6 -6 3 7 2 16 -1 19 -3 4 -6 -2 -5 -13z"/>
<path d="M916 1613 c-6 -14 -5 -15 5 -6 7 7 10 15 7 18 -3 3 -9 -2 -12 -12z"/>
<path d="M1201 1594 c0 -11 3 -14 6 -6 3 7 2 16 -1 19 -3 4 -6 -2 -5 -13z"/>
<path d="M498 1463 c6 -2 18 -2 25 0 6 3 1 5 -13 5 -14 0 -19 -2 -12 -5z"/>
<path d="M460 1445 c-15 -19 -29 -90 -21 -104 4 -6 12 -7 21 -1 10 7 11 10 3
10 -14 0 -18 57 -5 77 6 10 12 10 28 -2 15 -12 16 -16 5 -24 -11 -7 -9 -10 8
-16 19 -6 20 -9 9 -23 -7 -10 0 -6 15 7 27 25 36 38 17 26 -5 -3 -10 3 -10 14
0 12 -11 26 -29 35 -26 14 -30 14 -41 1z"/>
<path d="M622 1430 c16 -45 14 -43 31 -33 12 6 9 14 -14 38 l-29 30 12 -35z"/>
<path d="M760 1426 c-14 -8 -38 -37 -55 -65 -16 -28 -38 -54 -49 -57 -15 -5
-9 -11 30 -34 27 -15 69 -46 94 -67 70 -62 118 -66 145 -12 33 63 8 148 -60
207 -20 18 -40 32 -45 32 -4 0 -14 2 -22 5 -7 2 -24 -2 -38 -9z m18 -12 c-16
-8 -28 -19 -28 -24 0 -6 -6 -10 -12 -10 -7 0 0 12 15 25 15 14 33 25 40 25 7
-1 0 -8 -15 -16z m89 -27 c16 -19 16 -20 1 -8 -15 11 -18 11 -18 0 0 -7 -7 -3
-16 9 -8 12 -20 19 -26 16 -6 -4 -8 -2 -5 4 10 15 42 4 64 -21z m-83 5 c3 -5
-1 -9 -9 -9 -8 0 -12 4 -9 9 3 4 7 8 9 8 2 0 6 -4 9 -8z m136 -86 c0 -3 -4 -8
-10 -11 -5 -3 -10 -1 -10 4 0 6 5 11 10 11 6 0 10 -2 10 -4z m-158 -45 c-5
-13 -3 -14 10 -3 13 10 15 9 14 -10 -1 -13 3 -27 9 -31 6 -5 4 -7 -5 -4 -8 2
-14 12 -12 22 2 9 -1 14 -7 11 -12 -8 -30 24 -23 43 3 10 6 11 12 1 5 -7 5
-20 2 -29z m154 1 c-17 -16 -18 -16 -5 5 7 12 15 20 18 17 3 -2 -3 -12 -13
-22z m7 -53 c-8 -8 -13 -7 -18 2 -6 8 -4 10 5 4 10 -6 12 -4 6 11 -6 15 -5 17
5 7 9 -10 10 -16 2 -24z m-61 -16 c-9 -4 -10 -8 -2 -18 9 -11 7 -12 -10 -8
-16 4 -18 8 -9 19 6 8 17 14 23 13 6 0 6 -3 -2 -6z"/>
<path d="M421 1414 c0 -11 3 -14 6 -6 3 7 2 16 -1 19 -3 4 -6 -2 -5 -13z"/>
<path d="M438 1263 c13 -3 27 -15 32 -29 12 -29 17 -31 15 -3 -2 24 -22 39
-50 37 -17 -1 -16 -1 3 -5z"/>
<path d="M501 1227 c2 -1 15 -11 29 -22 l25 -20 -19 23 c-11 12 -24 22 -29 22
-6 0 -8 -1 -6 -3z"/>
<path d="M432 1204 c10 -10 20 -16 22 -13 3 3 -5 11 -17 18 -21 13 -21 12 -5
-5z"/>
<path d="M488 1183 c12 -2 22 -9 22 -14 0 -5 4 -9 10 -9 5 0 7 7 4 15 -4 9
-17 14 -33 14 -23 -2 -24 -2 -3 -6z"/>
<path d="M599 1151 c13 -12 28 -21 34 -21 12 0 11 0 -28 24 l-30 17 24 -20z"/>
<path d="M2056 1125 c-3 -8 -1 -15 4 -15 6 0 10 7 10 15 0 8 -2 15 -4 15 -2 0
-6 -7 -10 -15z"/>
<path d="M2168 1123 c7 -3 16 -2 19 1 4 3 -2 6 -13 5 -11 0 -14 -3 -6 -6z"/>
<path d="M1911 1067 c0 -16 -5 -26 -10 -23 -5 4 -4 -7 2 -24 8 -20 15 -26 22
-19 7 7 6 12 -3 18 -10 6 -9 11 4 22 10 8 15 9 11 3 -4 -7 5 -11 23 -12 17 0
30 4 30 9 0 6 -4 8 -9 4 -5 -3 -17 5 -25 17 -9 12 -16 17 -16 10 0 -18 -18
-14 -23 6 -3 10 -5 6 -6 -11z"/>
<path d="M1996 1081 c-3 -5 3 -11 14 -14 24 -6 36 8 14 17 -20 8 -22 8 -28 -3z"/>
<path d="M1875 1070 c3 -5 8 -10 11 -10 2 0 4 5 4 10 0 6 -5 10 -11 10 -5 0
-7 -4 -4 -10z"/>
<path d="M2055 1070 c-3 -5 3 -10 15 -10 12 0 18 5 15 10 -3 6 -10 10 -15 10
-5 0 -12 -4 -15 -10z"/>
<path d="M855 1045 c-16 -8 -23 -14 -15 -14 8 0 26 6 40 14 32 18 15 18 -25 0z"/>
<path d="M2121 1023 c-7 -8 -22 -12 -32 -10 -11 3 -17 2 -14 -3 3 -4 14 -10
26 -13 11 -3 18 -3 15 0 -3 3 2 12 12 19 9 7 15 15 12 17 -3 3 -11 -2 -19 -10z"/>
<path d="M1966 1012 c-3 -5 1 -9 9 -9 8 0 15 4 15 9 0 4 -4 8 -9 8 -6 0 -12
-4 -15 -8z"/>
<path d="M1973 975 c-15 -16 -16 -25 -5 -25 4 0 13 9 20 20 14 23 3 26 -15 5z"/>
<path d="M2080 960 c0 -25 -17 -26 -23 -2 -3 10 -5 6 -6 -11 -1 -22 3 -28 16
-25 17 3 38 58 22 58 -5 0 -9 -9 -9 -20z"/>
<path d="M408 733 c7 -3 16 -2 19 1 4 3 -2 6 -13 5 -11 0 -14 -3 -6 -6z"/>
<path d="M1611 724 c0 -11 3 -14 6 -6 3 7 2 16 -1 19 -3 4 -6 -2 -5 -13z"/>
<path d="M478 723 c7 -3 16 -2 19 1 4 3 -2 6 -13 5 -11 0 -14 -3 -6 -6z"/>
<path d="M538 713 c6 -2 18 -2 25 0 6 3 1 5 -13 5 -14 0 -19 -2 -12 -5z"/>
<path d="M613 703 c15 -2 39 -2 55 0 15 2 2 4 -28 4 -30 0 -43 -2 -27 -4z"/>
<path d="M1602 660 c0 -14 2 -19 5 -12 2 6 2 18 0 25 -3 6 -5 1 -5 -13z"/>
<path d="M1650 634 c0 -14 4 -23 9 -20 5 3 7 15 4 26 -7 28 -13 25 -13 -6z"/>
<path d="M1021 641 c-16 -10 -6 -31 15 -31 8 0 14 9 14 20 0 22 -7 25 -29 11z"/>
<path d="M1690 510 c-16 -13 -19 -18 -7 -14 16 6 18 1 15 -37 -2 -36 -7 -44
-21 -42 -17 1 -18 -4 -11 -50 4 -29 6 -65 5 -80 -1 -17 3 -26 9 -22 5 3 10 1
10 -5 0 -7 -7 -10 -15 -7 -8 4 -17 2 -20 -3 -4 -6 -15 -10 -25 -10 -14 0 -18
5 -13 16 5 14 3 15 -16 5 -12 -7 -32 -11 -44 -9 -17 3 -13 7 21 18 41 13 42
15 42 55 0 24 3 56 6 72 5 24 2 31 -14 35 -13 4 -28 -5 -48 -30 -48 -59 -59
-76 -44 -67 8 5 11 3 8 -6 -3 -8 -10 -13 -15 -12 -17 3 -12 -36 5 -40 15 -4
15 -5 0 -6 -13 -1 -18 -9 -17 -28 0 -16 3 -22 6 -15 4 10 28 12 109 6 l104 -7
-1 24 c0 22 -1 23 -9 4 -7 -15 -9 -10 -9 23 -1 26 -6 42 -13 42 -10 0 -10 2
-2 8 7 4 16 51 21 105 5 53 9 97 8 97 0 0 -11 -9 -25 -20z"/>
<path d="M1627 462 c-14 -15 -14 -19 -3 -19 8 0 17 9 19 19 3 10 4 18 3 18 -2
0 -10 -8 -19 -18z"/>
<path d="M1765 454 c-10 -10 -14 -25 -11 -38 3 -12 6 -37 6 -55 0 -27 3 -32
12 -23 9 9 15 9 27 -1 14 -11 14 -10 2 5 -7 10 -18 15 -24 11 -5 -3 -7 -1 -4
4 4 6 2 25 -4 42 -9 27 -8 35 6 51 22 24 13 27 -10 4z"/>
<path d="M1651 444 c0 -11 3 -14 6 -6 3 7 2 16 -1 19 -3 4 -6 -2 -5 -13z"/>
<path d="M1982 420 c0 -14 2 -19 5 -12 2 6 2 18 0 25 -3 6 -5 1 -5 -13z"/>
<path d="M2251 364 c0 -11 3 -14 6 -6 3 7 2 16 -1 19 -3 4 -6 -2 -5 -13z"/>
<path d="M956 313 c-6 -14 -5 -15 5 -6 7 7 10 15 7 18 -3 3 -9 -2 -12 -12z"/>
<path d="M1838 323 c12 -2 30 -2 40 0 9 3 -1 5 -23 4 -22 0 -30 -2 -17 -4z"/>
<path d="M2570 295 c-14 -7 -25 -17 -24 -22 1 -4 -6 -18 -14 -31 -8 -12 -12
-25 -9 -29 4 -3 11 5 16 19 5 14 24 37 41 51 34 29 30 34 -10 12z"/>
<path d="M929 275 c-1 -3 -2 -11 -3 -17 -1 -7 -9 -12 -19 -12 -24 2 -21 -3 12
-21 22 -11 32 -12 37 -3 4 6 3 8 -2 5 -6 -3 -16 -1 -24 4 -11 8 -3 9 27 6 35
-4 41 -2 36 11 -5 11 -3 13 8 7 8 -5 11 -4 6 0 -11 12 -38 15 -31 4 3 -5 -5
-7 -18 -5 -13 2 -22 9 -20 15 2 10 -7 16 -9 6z"/>
<path d="M1024 262 c0 -10 6 -19 13 -19 8 0 9 6 2 19 -12 23 -15 23 -15 0z"/>
<path d="M2385 255 c-11 -24 -13 -85 -2 -78 4 2 7 13 7 24 0 11 7 19 18 19 11
0 13 3 6 8 -7 4 -13 16 -16 27 l-4 20 -9 -20z"/>
<path d="M2500 247 c-30 -26 -37 -74 -15 -102 16 -20 16 -20 6 2 -17 34 -13
59 15 92 30 36 29 39 -6 8z"/>
<path d="M1018 223 c6 -2 18 -2 25 0 6 3 1 5 -13 5 -14 0 -19 -2 -12 -5z"/>
<path d="M2438 223 c7 -3 16 -2 19 1 4 3 -2 6 -13 5 -11 0 -14 -3 -6 -6z"/>
<path d="M1511 203 c-1 -7 -8 -10 -16 -7 -15 6 -21 -11 -7 -20 13 -8 35 11 29
25 -4 9 -6 10 -6 2z"/>
<path d="M2512 175 c0 -16 2 -22 5 -12 2 9 2 23 0 30 -3 6 -5 -1 -5 -18z"/>
<path d="M1445 181 c-3 -5 -2 -12 3 -15 5 -3 9 1 9 9 0 17 -3 19 -12 6z"/>
<path d="M2515 130 c-3 -5 -1 -10 4 -10 6 0 11 5 11 10 0 6 -2 10 -4 10 -3 0
-8 -4 -11 -10z"/>
<path d="M599 63 c-13 -16 -12 -17 4 -4 16 13 21 21 13 21 -2 0 -10 -8 -17
-17z"/>
</g>
</svg>
