<?xml version="1.0" standalone="no"?>
<!DOCTYPE svg PUBLIC "-//W3C//DTD SVG 20010904//EN"
 "http://www.w3.org/TR/2001/REC-SVG-20010904/DTD/svg10.dtd">
<svg version="1.0" xmlns="http://www.w3.org/2000/svg"
 width="310.000000pt" height="163.000000pt" viewBox="0 0 310.000000 163.000000"
 preserveAspectRatio="xMidYMid meet">

<g transform="translate(0.000000,163.000000) scale(0.100000,-0.100000)"
fill="#000000" stroke="none">
<path d="M2 1594 c3 -35 6 -37 58 -54 84 -26 146 -60 129 -71 -10 -6 -7 -9 12
-9 28 0 114 -52 122 -74 4 -11 -3 -13 -34 -9 -25 4 -39 2 -39 -6 0 -6 18 -11
45 -11 37 0 51 -5 72 -27 19 -21 23 -22 15 -7 -6 11 -18 27 -27 34 -15 12 -14
15 7 27 22 13 22 14 1 8 -16 -4 -36 5 -73 32 l-51 38 28 7 c59 15 301 34 373
30 105 -7 118 -7 278 6 139 12 339 45 351 58 3 4 -6 5 -20 2 -17 -3 -26 0 -26
9 0 7 3 13 7 13 3 0 6 9 7 20 2 20 -4 20 -618 20 l-620 0 3 -36z"/>
<path d="M1380 1609 c-46 -24 -17 -23 35 1 25 11 32 18 20 18 -11 0 -36 -8
-55 -19z"/>
<path d="M1590 1623 c0 -5 4 -14 8 -20 6 -9 12 -7 25 7 16 19 16 20 -8 20 -14
0 -25 -3 -25 -7z"/>
<path d="M2508 1618 c7 -7 13 -32 14 -57 1 -44 2 -45 5 -8 5 42 23 41 24 -1 0
-25 1 -25 9 -6 5 12 22 31 39 43 17 12 31 27 31 32 0 5 -30 9 -67 9 -52 0 -64
-3 -55 -12z"/>
<path d="M2627 1588 c-21 -21 -43 -36 -48 -33 -13 9 -11 -9 3 -23 6 -6 11 -28
11 -49 0 -21 2 -28 4 -15 3 12 9 19 15 16 5 -3 2 8 -7 26 -15 30 -15 33 2 46
26 19 31 18 48 -16 21 -41 19 -55 -12 -67 -24 -9 -25 -11 -7 -12 14 -1 33 -19
56 -54 81 -121 287 -329 380 -381 42 -24 27 -8 -40 42 -87 65 -237 215 -301
302 -34 45 -61 85 -61 90 0 4 12 15 26 25 18 12 29 13 38 6 7 -6 17 -7 21 -3
5 4 5 2 2 -4 -9 -15 38 -58 54 -49 7 5 10 4 6 -2 -4 -6 4 -19 16 -30 35 -31
246 -163 261 -163 2 0 5 88 6 195 l1 196 -165 -1 c-132 -1 -164 -4 -160 -15 8
-19 -21 -69 -57 -99 l-31 -26 -22 42 c-21 42 -21 44 -3 71 26 38 9 31 -36 -15z
m159 -73 c-1 -8 -5 -17 -8 -21 -5 -4 -4 16 1 34 3 9 9 -1 7 -13z m128 -56 c-8
-13 -21 -11 -27 5 -4 10 0 12 14 9 10 -3 16 -9 13 -14z m-57 -46 c0 -9 -4 -10
-14 -2 -7 6 -13 12 -13 14 0 1 6 2 13 2 8 0 14 -6 14 -14z"/>
<path d="M2714 1599 c14 -17 26 -35 26 -41 0 -6 3 -9 6 -5 8 8 -27 65 -44 72
-8 3 -2 -9 12 -26z"/>
<path d="M1500 1604 l-25 -14 26 0 c16 0 26 5 26 15 0 8 -1 15 -1 14 -1 -1
-12 -7 -26 -15z"/>
<path d="M1998 1593 c6 -2 18 -2 25 0 6 3 1 5 -13 5 -14 0 -19 -2 -12 -5z"/>
<path d="M1409 1562 c-36 -29 -49 -55 -24 -46 8 4 13 10 10 14 -3 5 9 20 27
34 18 14 30 26 27 26 -3 0 -21 -12 -40 -28z"/>
<path d="M1950 1580 c-8 -5 -10 -10 -5 -10 6 0 17 5 25 10 8 5 11 10 5 10 -5
0 -17 -5 -25 -10z"/>
<path d="M1891 1535 c-17 -20 -31 -39 -31 -42 0 -4 3 -3 8 3 4 5 20 24 36 42
17 17 27 32 24 32 -3 0 -20 -16 -37 -35z"/>
<path d="M1751 1537 c2 -1 14 -11 27 -21 12 -11 22 -16 22 -13 0 10 -31 37
-42 37 -6 0 -9 -1 -7 -3z"/>
<path d="M1295 1505 c-33 -13 -54 -24 -47 -24 7 -1 29 6 49 14 53 22 60 18 27
-17 l-29 -33 31 28 c17 15 31 34 31 42 0 8 -1 15 -1 14 -1 0 -28 -11 -61 -24z"/>
<path d="M1708 1510 c18 -4 41 -14 50 -21 10 -8 7 -4 -6 9 -13 12 -35 22 -50
21 -25 -1 -25 -2 6 -9z"/>
<path d="M2552 1495 c0 -16 2 -22 5 -12 2 9 2 23 0 30 -3 6 -5 -1 -5 -18z"/>
<path d="M2495 1453 c-29 -69 -29 -74 0 -20 14 27 25 53 23 58 -2 5 -12 -12
-23 -38z"/>
<path d="M678 1483 c6 -2 18 -2 25 0 6 3 1 5 -13 5 -14 0 -19 -2 -12 -5z"/>
<path d="M20 1469 c14 -5 33 -26 44 -50 11 -22 24 -43 29 -46 4 -3 -3 18 -17
46 -19 36 -22 51 -13 51 19 0 100 -53 154 -102 27 -23 38 -31 25 -16 -18 19
-20 27 -10 31 8 3 5 6 -7 6 -11 1 -40 17 -64 36 -24 19 -49 36 -55 36 -6 1 7
5 29 9 30 5 18 7 -50 8 -66 0 -83 -2 -65 -9z"/>
<path d="M580 1465 c-25 -7 -38 -13 -30 -14 8 0 38 6 65 13 28 8 41 14 30 14
-11 0 -40 -6 -65 -13z"/>
<path d="M1175 1465 c-40 -19 -16 -19 26 0 19 8 27 14 19 14 -8 0 -28 -7 -45
-14z"/>
<path d="M1438 1473 c7 -3 16 -2 19 1 4 3 -2 6 -13 5 -11 0 -14 -3 -6 -6z"/>
<path d="M1365 1450 c-3 -6 1 -7 9 -4 18 7 21 14 7 14 -6 0 -13 -4 -16 -10z"/>
<path d="M2522 1415 c-12 -25 -41 -67 -64 -93 l-42 -47 45 43 c42 39 97 127
87 137 -2 3 -14 -16 -26 -40z"/>
<path d="M1438 1443 c7 -3 16 -2 19 1 4 3 -2 6 -13 5 -11 0 -14 -3 -6 -6z"/>
<path d="M2631 1434 c0 -11 3 -14 6 -6 3 7 2 16 -1 19 -3 4 -6 -2 -5 -13z"/>
<path d="M1088 1433 c7 -3 16 -2 19 1 4 3 -2 6 -13 5 -11 0 -14 -3 -6 -6z"/>
<path d="M1243 1411 c-28 -15 -66 -42 -84 -59 -65 -60 -263 -106 -528 -122
-95 -6 -178 -13 -183 -16 -11 -7 -28 13 -28 32 0 9 120 48 259 84 23 6 41 13
39 15 -5 6 -177 -38 -250 -64 -57 -20 -57 -20 -63 0 -4 11 -8 19 -10 17 -2 -2
7 -35 20 -73 13 -39 24 -76 25 -82 0 -22 -59 -14 -98 12 -20 14 -43 25 -52 25
-8 0 3 -9 25 -20 22 -11 48 -32 58 -47 10 -16 16 -20 13 -10 -4 13 1 17 24 17
32 0 34 -6 24 -59 -4 -19 -13 -31 -22 -31 -8 0 -12 -3 -9 -7 7 -6 -11 -33 -22
-33 -3 0 -6 23 -6 51 0 44 -4 54 -32 79 -85 76 -203 26 -203 -85 0 -80 57
-131 138 -122 28 3 40 1 34 -5 -5 -5 -27 -12 -48 -14 -50 -6 -101 19 -131 65
-13 19 -23 30 -23 24 0 -19 51 -78 78 -90 15 -7 20 -12 12 -12 -18 -1 -107 41
-134 63 -19 16 -19 16 4 41 13 14 21 27 18 30 -3 4 -15 -6 -27 -21 -21 -26
-22 -26 -41 -9 -36 33 -21 7 18 -30 38 -36 147 -95 177 -95 9 0 13 -4 10 -10
-4 -6 7 -8 27 -5 l33 5 -30 -14 -30 -14 37 1 c28 1 45 -6 66 -26 31 -30 44
-34 36 -12 -3 8 -9 13 -13 12 -3 -1 -19 8 -35 20 -24 20 -27 25 -16 39 12 13
10 14 -11 9 -13 -3 -36 -2 -49 4 -24 9 -24 10 10 12 19 1 40 2 47 2 6 0 27 21
45 48 24 36 40 49 58 50 14 0 19 3 12 6 -10 4 -9 9 4 24 12 13 32 19 63 20 41
1 43 2 16 8 l-30 8 40 10 c73 20 111 23 160 14 37 -7 65 -5 109 6 62 16 163
10 135 -8 -9 -6 1 -9 32 -9 25 0 54 -7 65 -15 18 -14 18 -14 -11 -15 -16 -1
-43 -7 -60 -15 -23 -11 -24 -13 -5 -7 14 4 51 7 83 7 50 0 55 2 40 13 -10 7
-17 17 -16 22 2 5 -3 7 -11 4 -23 -9 -26 11 -11 62 21 72 70 144 97 145 20 0
20 1 5 8 -28 10 90 121 130 121 21 0 24 3 14 9 -12 8 -9 11 12 16 15 4 27 11
27 16 0 12 2 13 -57 -20z m-163 -145 c0 -2 -7 -7 -16 -10 -8 -3 -12 -2 -9 4 6
10 25 14 25 6z m-802 -138 c16 -16 15 -43 -1 -56 -24 -21 -106 -37 -118 -25
-13 13 9 56 40 80 21 16 64 16 79 1z m722 2 c0 -5 -4 -10 -10 -10 -5 0 -10 5
-10 10 0 6 5 10 10 10 6 0 10 -4 10 -10z"/>
<path d="M1048 1423 c7 -3 16 -2 19 1 4 3 -2 6 -13 5 -11 0 -14 -3 -6 -6z"/>
<path d="M1350 1393 c-23 -20 -46 -46 -51 -57 -6 -12 1 -7 16 11 14 18 40 44
58 57 18 14 29 26 25 26 -5 0 -26 -16 -48 -37z"/>
<path d="M970 1410 c-20 -6 -21 -8 -5 -8 11 0 31 4 45 8 20 6 21 8 5 8 -11 0
-31 -4 -45 -8z"/>
<path d="M1281 1394 c0 -11 3 -14 6 -6 3 7 2 16 -1 19 -3 4 -6 -2 -5 -13z"/>
<path d="M1879 1390 c-15 -12 -18 -19 -9 -18 8 2 20 10 27 18 6 8 15 12 19 8
4 -4 1 -14 -5 -22 -10 -12 -9 -14 4 -12 8 1 21 8 27 14 15 15 27 15 48 0 9 -7
5 -3 -8 10 -29 27 -72 28 -103 2z"/>
<path d="M918 1393 c7 -3 16 -2 19 1 4 3 -2 6 -13 5 -11 0 -14 -3 -6 -6z"/>
<path d="M2651 1364 c0 -11 3 -14 6 -6 3 7 2 16 -1 19 -3 4 -6 -2 -5 -13z"/>
<path d="M1729 1343 c-22 -25 -22 -26 -1 -9 12 11 22 16 22 11 0 -4 7 -2 15 5
9 7 15 8 15 2 0 -6 8 -9 18 -8 9 2 21 -2 25 -8 6 -7 7 -6 4 4 -2 8 -9 15 -14
15 -6 0 -15 3 -19 8 -15 14 -41 6 -65 -20z"/>
<path d="M105 1345 c4 -11 8 -25 8 -32 0 -7 4 -10 9 -7 4 3 3 15 -3 27 -16 30
-24 37 -14 12z"/>
<path d="M1930 1274 c-41 -41 -82 -79 -91 -84 -19 -11 -97 14 -116 38 -13 15
-13 15 -4 -3 5 -11 30 -31 55 -44 24 -14 42 -29 39 -34 -3 -6 -1 -7 6 -3 6 4
9 11 6 16 -3 4 2 10 10 13 9 4 12 1 8 -9 -3 -7 1 -14 8 -14 7 0 9 3 6 7 -4 3
-2 12 4 20 6 7 8 13 5 13 -4 0 4 11 16 24 13 13 26 22 29 20 3 -2 23 15 44 36
22 22 35 40 31 40 -5 0 -3 7 4 15 11 13 15 13 21 3 7 -10 9 -9 9 5 0 9 -3 17
-8 17 -4 0 -41 -34 -82 -76z m50 33 c0 -2 -17 -19 -37 -38 l-38 -34 34 38 c33
34 41 42 41 34z"/>
<path d="M2667 1247 c7 -114 -7 -202 -48 -298 -37 -86 -77 -152 -88 -145 -4 3
-19 -6 -31 -19 -24 -25 -58 -35 -44 -13 4 7 3 8 -4 4 -7 -4 -12 -3 -12 3 0 5
6 12 13 14 7 3 5 6 -5 6 -13 1 -17 -6 -16 -23 1 -14 5 -24 9 -23 4 1 8 -2 8
-7 1 -6 -6 -11 -15 -12 -21 -3 -30 -13 -39 -41 -4 -14 -2 -23 4 -23 6 0 11 4
11 10 0 6 9 6 25 0 18 -7 28 -5 40 6 13 14 15 14 15 0 0 -24 -36 -39 -62 -25
-20 9 -19 7 4 -13 14 -12 32 -34 38 -48 9 -18 3 -14 -20 13 -53 63 -59 63
-124 2 -68 -65 -125 -104 -217 -150 -80 -41 -87 -42 -141 -14 -130 66 -222
148 -253 224 -14 33 -25 52 -25 42 0 -23 43 -106 73 -137 26 -28 22 -25 130
-95 56 -37 76 -55 75 -69 -2 -10 -29 -42 -61 -70 -47 -41 -60 -47 -67 -36 -8
13 -10 13 -10 -1 0 -13 -166 -189 -178 -189 -3 0 -11 -8 -19 -17 -10 -13 -16
-14 -19 -6 -3 7 -16 27 -30 45 -13 18 -30 47 -39 63 -13 28 -14 28 -15 7 0
-13 -11 -38 -24 -55 -13 -18 -37 -60 -53 -94 l-30 -63 154 2 153 1 0 23 c0 13
-9 28 -21 34 -27 15 -69 4 -69 -16 0 -11 -5 -14 -16 -10 -9 3 -18 6 -20 6 -2
0 -4 7 -4 15 0 9 11 21 25 27 14 6 25 16 26 22 0 6 4 2 9 -9 9 -19 9 -19 16 2
3 13 11 20 16 17 5 -3 7 -12 4 -20 -7 -17 10 -19 18 -1 5 9 7 9 12 -1 3 -7 12
-18 19 -26 8 -7 17 -25 21 -40 l6 -26 187 0 186 0 23 50 c32 70 40 120 18 120
-30 0 -16 15 31 34 l46 19 19 -22 c10 -13 19 -37 19 -55 2 -28 2 -29 6 -5 3
17 -9 51 -32 95 -36 68 -37 76 -20 147 7 26 7 26 -32 16 -21 -6 -42 -15 -47
-20 -13 -12 -53 -11 -61 1 -4 6 -16 10 -28 8 -16 -2 -23 3 -25 18 -2 16 5 25
28 34 49 20 149 87 212 141 31 27 58 49 60 49 2 0 1 -42 -2 -92 -5 -89 -1
-128 21 -209 l9 -37 111 39 c99 35 115 38 150 29 44 -12 47 -19 19 -45 -17
-16 -25 -17 -59 -7 -21 7 -47 12 -57 11 -22 -1 -15 -4 45 -19 43 -11 44 -12
25 -31 -14 -14 -35 -20 -74 -21 -35 0 -48 -3 -35 -8 18 -6 17 -9 -13 -24 -17
-9 -32 -19 -32 -22 0 -3 21 6 46 21 25 15 51 24 59 22 15 -6 52 18 78 50 32
40 75 56 130 49 58 -6 127 -47 127 -74 0 -19 -3 -21 -113 -71 -65 -29 -133
-71 -94 -58 12 5 17 1 17 -11 0 -10 14 -31 30 -47 17 -16 30 -39 30 -52 0 -16
6 -23 19 -23 21 0 31 40 31 132 0 54 2 59 30 73 17 9 30 13 30 10 0 -4 7 0 15
8 8 8 15 31 17 50 1 20 6 35 11 34 5 -1 12 4 15 12 2 8 0 11 -6 7 -6 -3 -14
-1 -18 6 -4 7 -4 10 1 6 4 -4 13 -3 20 2 9 7 11 1 11 -23 -1 -17 -4 -37 -9
-44 -5 -8 4 -10 30 -7 21 2 56 5 78 7 l40 3 3 207 c1 114 0 207 -2 207 -32 0
-192 -95 -299 -177 -35 -28 -107 -65 -190 -99 -72 -30 -151 -64 -174 -74 -32
-15 -43 -16 -43 -7 0 7 17 19 38 26 227 78 268 98 387 186 50 37 134 87 187
113 l98 47 0 87 0 87 -52 35 c-68 44 -142 109 -194 166 -59 66 -121 145 -106
136 6 -4 12 -3 12 3 0 5 -5 13 -10 16 -6 4 -28 29 -50 56 l-38 49 5 -93z m174
-234 c13 -16 12 -17 -3 -4 -10 7 -18 15 -18 17 0 8 8 3 21 -13z m-112 -44
c-15 -15 -24 -18 -32 -10 -8 8 -6 11 6 11 9 0 17 5 17 10 0 6 7 10 15 10 11 0
10 -5 -6 -21z m17 -96 c-11 -11 -19 6 -11 24 8 17 8 17 12 0 3 -10 2 -21 -1
-24z m-106 7 c0 -5 -7 -7 -15 -4 -8 4 -12 10 -9 15 6 11 24 2 24 -11z m354 -5
c-4 -8 -8 -15 -10 -15 -2 0 -4 7 -4 15 0 8 4 15 10 15 5 0 7 -7 4 -15z m-124
-55 c0 -5 -2 -10 -4 -10 -3 0 -8 5 -11 10 -3 6 -1 10 4 10 6 0 11 -4 11 -10z
m203 -86 c4 -4 -15 -17 -41 -29 -26 -12 -94 -52 -151 -89 -56 -37 -107 -66
-113 -64 -11 4 134 99 222 144 l55 29 -75 6 -75 5 86 2 c47 1 89 -1 92 -4z
m-613 -24 c0 -19 -18 -19 -23 -1 -3 14 -1 18 9 14 8 -3 14 -9 14 -13z m275
-10 c3 -5 1 -10 -4 -10 -6 0 -11 5 -11 10 0 6 2 10 4 10 3 0 8 -4 11 -10z
m-160 -60 c-3 -5 -10 -10 -16 -10 -5 0 -9 5 -9 10 0 6 7 10 16 10 8 0 12 -4 9
-10z m83 -165 c-10 -11 -272 -115 -276 -110 -5 5 23 18 158 74 87 36 131 49
118 36z m376 -36 c-3 -5 -10 -7 -15 -3 -5 3 -7 10 -3 15 3 5 10 7 15 3 5 -3 7
-10 3 -15z m-1009 -29 c-4 -6 -51 -44 -104 -85 -70 -52 -114 -95 -151 -145
-28 -40 -54 -69 -57 -66 -4 3 1 14 10 24 27 30 20 38 -10 11 l-27 -24 25 32
c13 18 29 30 35 28 6 -2 26 16 44 38 18 23 63 64 100 90 37 27 80 62 96 78 27
28 52 40 39 19z m90 -41 c15 -23 -64 -89 -108 -89 -16 0 -18 -3 -9 -9 10 -6
-6 -22 -55 -56 -37 -26 -80 -59 -95 -73 -37 -34 -35 -21 8 50 32 53 44 64 103
90 36 17 71 31 77 31 6 0 9 9 7 19 -3 10 -3 24 0 31 6 16 64 21 72 6z m632
-15 c-3 -3 -12 -4 -19 -1 -8 3 -5 6 6 6 11 1 17 -2 13 -5z m113 -14 c8 -5 11
-10 5 -10 -5 0 -17 5 -25 10 -8 5 -10 10 -5 10 6 0 17 -5 25 -10z m50 -22 c0
-4 -4 -8 -9 -8 -6 0 -12 4 -15 8 -3 5 1 9 9 9 8 0 15 -4 15 -9z m-670 -25 c0
-10 -220 -126 -226 -120 -5 5 205 126 219 127 4 0 7 -3 7 -7z m9 -30 c0 -7
-81 -50 -153 -81 -59 -26 -6 14 69 52 73 37 85 41 84 29z m571 -138 c0 -84 -5
-89 -51 -47 -21 20 -39 44 -39 54 0 29 20 21 36 -14 14 -31 14 -26 -2 35 -5
21 -5 21 10 3 9 -11 16 -29 16 -40 0 -12 5 -28 10 -36 13 -19 2 47 -12 74 -7
13 -6 21 3 27 22 13 29 0 29 -56z"/>
<path d="M1234 1298 l-29 -33 33 29 c30 28 37 36 29 36 -2 0 -16 -15 -33 -32z"/>
<path d="M2190 1313 c0 -12 5 -25 10 -28 13 -8 13 15 0 35 -8 12 -10 11 -10
-7z"/>
<path d="M1393 1298 c-15 -20 -25 -38 -20 -38 3 0 12 11 21 25 17 26 16 35 -1
13z"/>
<path d="M1702 1285 c0 -16 2 -22 5 -12 2 9 2 23 0 30 -3 6 -5 -1 -5 -18z"/>
<path d="M2340 1288 c0 -16 5 -28 10 -28 13 0 13 20 0 40 -8 12 -10 9 -10 -12z"/>
<path d="M286 1277 c3 -10 9 -15 12 -12 3 3 0 11 -7 18 -10 9 -11 8 -5 -6z"/>
<path d="M2107 1271 c-5 -20 -84 -60 -121 -62 -12 0 -15 -3 -8 -6 10 -4 5 -14
-17 -37 -16 -17 -30 -34 -31 -38 0 -5 0 -13 0 -19 0 -5 -6 -7 -12 -3 -7 4 -10
4 -6 -1 4 -4 3 -15 -3 -24 -6 -9 5 2 24 24 20 21 33 43 31 47 -3 4 0 8 6 8 7
0 20 10 29 21 13 17 28 22 62 21 24 0 59 5 76 11 25 8 36 8 44 0 9 -9 4 -17
-20 -31 -17 -10 -28 -22 -24 -25 3 -4 -8 -7 -26 -7 -17 0 -45 -10 -60 -21 -17
-13 -35 -18 -43 -14 -7 4 -5 0 4 -10 17 -18 18 -18 38 8 16 21 30 27 58 27 31
0 87 19 58 20 -5 0 1 11 14 25 21 23 24 23 52 9 33 -17 29 -33 -10 -35 -27 -2
-27 -2 -2 -6 14 -3 38 -17 53 -31 l28 -27 -28 -7 c-17 -5 -31 -3 -38 4 -7 8
-5 9 6 5 13 -4 15 -1 12 14 -3 10 -9 17 -13 14 -4 -2 -22 0 -39 5 -49 14 -121
-3 -148 -34 -12 -14 -30 -26 -40 -27 -14 0 -13 -2 5 -10 20 -7 27 -4 48 20 22
26 64 48 64 33 -1 -4 -7 -18 -15 -32 -8 -14 -14 -40 -15 -59 0 -28 2 -32 15
-21 12 10 17 7 27 -15 10 -23 10 -29 -5 -40 -11 -8 -15 -19 -11 -29 6 -15 10
-14 35 10 19 18 33 24 39 18 13 -13 -10 -74 -28 -74 -7 0 -10 5 -6 12 4 7 3 8
-4 4 -6 -4 -9 -13 -6 -20 11 -28 114 25 114 59 0 16 -38 41 -57 37 -35 -7 -56
87 -28 124 15 19 15 18 36 -6 16 -19 20 -34 16 -66 -4 -38 -2 -43 19 -47 21
-4 24 0 24 24 0 35 8 40 73 46 29 3 59 9 67 14 10 5 1 7 -25 5 -22 -2 -48 1
-57 6 -13 6 -18 5 -18 -7 0 -19 -36 -20 -44 0 -3 8 3 19 14 25 27 14 47 12 54
-5 3 -8 10 -15 15 -15 6 0 8 7 5 15 -4 9 0 15 9 15 9 0 23 10 31 22 24 34 19
40 -9 13 -29 -30 -74 -32 -106 -6 -22 18 -22 20 -7 26 10 4 15 11 12 16 -3 5
6 23 20 40 14 17 26 36 26 42 0 7 -9 -1 -19 -17 -11 -16 -26 -33 -34 -38 -18
-9 -77 20 -77 39 0 6 -9 9 -20 6 -21 -5 -28 11 -10 22 6 3 10 11 10 18 0 6 -7
2 -15 -11 -10 -13 -25 -21 -40 -20 -20 2 -23 6 -19 25 4 13 4 23 1 23 -2 0 -7
-9 -10 -19z m18 -51 c-3 -5 -17 -10 -31 -10 -14 0 -22 4 -19 10 3 6 17 10 31
10 14 0 22 -4 19 -10z m155 -60 c0 -5 -5 -10 -11 -10 -5 0 -7 5 -4 10 3 6 8
10 11 10 2 0 4 -4 4 -10z"/>
<path d="M2556 1275 c-9 -26 -7 -32 5 -12 6 10 9 21 6 23 -2 3 -7 -2 -11 -11z"/>
<path d="M1153 1273 c9 -2 23 -2 30 0 6 3 -1 5 -18 5 -16 0 -22 -2 -12 -5z"/>
<path d="M1616 1265 c-3 -8 -1 -15 4 -15 6 0 10 7 10 15 0 8 -2 15 -4 15 -2 0
-6 -7 -10 -15z"/>
<path d="M1987 1254 c-10 -13 -25 -24 -33 -24 -9 0 -12 -5 -8 -11 4 -7 18 0
37 20 17 17 29 32 26 35 -2 2 -12 -7 -22 -20z"/>
<path d="M1173 1253 c13 -3 16 -10 11 -26 -8 -26 -2 -21 15 11 11 20 10 22
-16 21 -18 -1 -21 -3 -10 -6z"/>
<path d="M1113 1243 c9 -2 23 -2 30 0 6 3 -1 5 -18 5 -16 0 -22 -2 -12 -5z"/>
<path d="M164 1220 c0 -13 4 -16 10 -10 7 7 7 13 0 20 -6 6 -10 3 -10 -10z"/>
<path d="M378 1233 c7 -3 16 -2 19 1 4 3 -2 6 -13 5 -11 0 -14 -3 -6 -6z"/>
<path d="M2526 1208 l-18 -33 21 25 c18 22 26 40 18 40 -1 0 -11 -15 -21 -32z"/>
<path d="M1601 1214 c0 -11 3 -14 6 -6 3 7 2 16 -1 19 -3 4 -6 -2 -5 -13z"/>
<path d="M17 1201 c-3 -12 -2 -19 2 -16 5 2 13 -6 18 -18 14 -31 63 -87 75
-87 6 0 -4 15 -22 33 -18 17 -40 49 -50 70 -15 33 -18 35 -23 18z"/>
<path d="M1640 1213 c0 -6 8 -17 18 -24 16 -13 16 -13 2 6 -8 11 -16 22 -17
24 -2 2 -3 0 -3 -6z"/>
<path d="M2795 1169 c70 -72 289 -238 301 -227 2 3 -18 19 -44 36 -72 46 -159
115 -223 177 -66 64 -92 74 -34 14z"/>
<path d="M1170 1191 c0 -5 -10 -13 -22 -17 -28 -8 -56 -32 -70 -59 -6 -11 2
-6 19 12 16 17 42 35 56 39 15 3 27 12 27 20 0 8 -2 14 -5 14 -3 0 -5 -4 -5
-9z"/>
<path d="M1305 1190 c4 -6 2 -17 -4 -24 -8 -10 -5 -18 12 -32 l22 -19 -18 22
c-22 25 -6 42 21 22 9 -8 6 -1 -7 14 -25 27 -38 36 -26 17z"/>
<path d="M1614 1185 c-4 -8 1 -27 11 -41 16 -24 16 -27 -1 -45 -23 -26 -40
-24 -71 9 l-26 27 18 -35 c10 -19 21 -42 25 -50 9 -20 83 -70 93 -63 13 8 -4
-41 -17 -50 -7 -5 -3 -7 9 -5 11 2 22 14 25 28 3 14 14 26 23 28 14 3 17 -1
11 -21 -8 -34 3 -67 21 -61 18 7 32 -36 15 -46 -7 -4 -9 -13 -5 -20 6 -10 10
-9 17 4 5 9 13 16 18 16 15 0 12 -37 -5 -54 -26 -25 1 -27 29 -1 26 24 35 64
16 66 -5 1 -15 2 -21 3 -19 2 -39 39 -39 73 0 36 5 39 30 21 9 -7 5 -3 -10 10
-42 38 -45 39 -65 31 -31 -12 -47 -11 -39 4 5 7 0 6 -11 -3 -14 -11 -19 -12
-22 -2 -3 6 -13 12 -23 12 -10 0 -25 11 -34 25 l-16 25 32 -6 c22 -4 29 -2 20
4 -15 11 -1 25 36 36 26 9 30 -8 5 -23 -10 -6 -13 -11 -7 -11 6 0 17 7 24 15
7 8 21 15 31 15 11 0 19 5 19 11 0 6 9 1 21 -12 11 -13 17 -18 13 -10 -5 11
-3 13 10 8 11 -4 15 -3 11 4 -4 6 -13 8 -20 5 -7 -2 -16 1 -18 8 -4 9 -20 12
-50 9 -38 -4 -48 -1 -61 18 -18 26 -13 38 8 20 8 -7 21 -9 27 -5 8 4 9 3 5 -4
-4 -7 -4 -12 1 -13 4 0 17 -2 28 -4 20 -4 20 -4 1 11 -19 13 -18 14 10 14 16
0 34 4 41 8 6 4 -12 6 -40 6 -30 -1 -62 5 -75 13 -19 12 -23 12 -28 -2z"/>
<path d="M2324 1178 l-19 -23 23 19 c21 18 27 26 19 26 -2 0 -12 -10 -23 -22z"/>
<path d="M160 1149 l-35 -30 35 24 c19 14 44 27 55 30 20 5 20 5 0 6 -12 0
-36 -13 -55 -30z"/>
<path d="M1063 1173 c9 -2 25 -2 35 0 9 3 1 5 -18 5 -19 0 -27 -2 -17 -5z"/>
<path d="M1238 1173 c7 -3 16 -2 19 1 4 3 -2 6 -13 5 -11 0 -14 -3 -6 -6z"/>
<path d="M1132 1134 c-57 -40 -68 -117 -22 -164 17 -17 30 -37 30 -45 0 -11
13 -15 56 -15 50 0 59 3 90 34 30 30 34 40 34 86 0 46 -4 56 -34 86 -29 29
-41 34 -83 34 -28 0 -58 -7 -71 -16z m121 -21 c40 -50 -4 -79 -74 -48 -46 21
-49 39 -11 59 35 20 63 16 85 -11z"/>
<path d="M1028 1103 c7 -3 16 -2 19 1 4 3 -2 6 -13 5 -11 0 -14 -3 -6 -6z"/>
<path d="M1803 1075 c0 -8 4 -12 9 -9 5 3 6 10 3 15 -9 13 -12 11 -12 -6z"/>
<path d="M1440 1071 c0 -6 4 -13 10 -16 6 -3 7 1 4 9 -7 18 -14 21 -14 7z"/>
<path d="M1877 1073 c-4 -3 -15 -7 -25 -8 -26 -2 -26 -18 0 -34 21 -12 21 -12
5 2 -16 14 -16 15 -1 21 10 4 21 1 25 -6 5 -8 8 -5 6 10 -1 25 -1 24 -10 15z"/>
<path d="M102 1040 c0 -19 2 -27 5 -17 2 9 2 25 0 35 -3 9 -5 1 -5 -18z"/>
<path d="M1355 1059 c-4 -6 -4 -13 -1 -16 3 -4 6 0 6 7 0 8 13 1 33 -17 17
-16 40 -33 50 -36 9 -4 17 -14 17 -24 0 -16 1 -16 13 1 11 15 21 17 59 11 41
-6 48 -11 64 -46 9 -22 21 -42 26 -45 5 -4 -2 17 -16 45 -20 39 -32 51 -50 51
-13 0 -41 12 -62 26 -21 15 -32 19 -25 10 8 -9 11 -19 8 -23 -10 -10 -66 18
-86 43 -21 27 -27 29 -36 13z"/>
<path d="M858 1053 c6 -2 18 -2 25 0 6 3 1 5 -13 5 -14 0 -19 -2 -12 -5z"/>
<path d="M545 1020 c27 -12 43 -12 25 0 -8 5 -22 9 -30 9 -10 0 -8 -3 5 -9z"/>
<path d="M2375 994 c29 -28 31 -28 48 -11 9 9 25 17 34 17 9 0 13 3 10 6 -4 4
-20 1 -36 -5 -25 -11 -34 -10 -58 5 l-28 17 30 -29z"/>
<path d="M2500 999 c31 -13 29 -11 46 -56 l15 -38 -6 34 c-6 42 -31 71 -59 70
-19 0 -19 -1 4 -10z"/>
<path d="M1336 973 c-6 -14 -5 -15 5 -6 7 7 10 15 7 18 -3 3 -9 -2 -12 -12z"/>
<path d="M441 976 c2 -2 15 -9 29 -15 24 -11 24 -11 6 3 -16 13 -49 24 -35 12z"/>
<path d="M2453 948 c-13 -15 -22 -43 -26 -78 -4 -36 -3 -46 3 -30 4 14 8 39 9
56 1 17 4 34 7 37 8 7 46 -11 56 -27 5 -8 8 -7 8 2 0 7 -11 17 -25 24 -28 12
-23 32 6 25 11 -3 19 -1 19 4 0 17 -37 9 -57 -13z"/>
<path d="M1433 948 c-9 -14 -78 -68 -88 -68 -3 0 -19 -9 -34 -21 -23 -17 -33
-19 -49 -10 -11 6 -27 11 -34 11 -7 0 6 -9 29 -20 25 -11 51 -33 63 -52 11
-18 20 -28 20 -21 0 6 -11 25 -25 41 -30 36 -22 41 58 43 52 2 52 2 12 8 l-40
6 30 17 c35 19 81 65 73 74 -4 3 -10 0 -15 -8z"/>
<path d="M1305 930 c-22 -25 -78 -43 -115 -38 -25 4 -28 2 -19 -14 5 -10 15
-18 22 -18 7 0 6 4 -3 10 -12 8 -9 10 13 10 15 0 44 7 63 15 20 8 41 12 48 8
6 -3 8 -3 4 2 -4 4 -3 16 3 26 13 24 7 24 -16 -1z"/>
<path d="M1811 918 c-1 -15 4 -30 9 -33 12 -7 12 12 0 40 -8 18 -9 17 -9 -7z"/>
<path d="M431 913 c7 -12 15 -20 18 -17 3 2 -3 12 -13 22 -17 16 -18 16 -5 -5z"/>
<path d="M2549 875 c-4 -16 -9 -39 -13 -50 -4 -11 0 -7 9 8 9 16 15 38 13 50
-3 18 -5 17 -9 -8z"/>
<path d="M382 849 c21 -22 36 -44 34 -48 -3 -4 1 -8 9 -8 16 0 -7 39 -44 75
-41 38 -40 24 1 -19z"/>
<path d="M1051 854 c-12 -15 -21 -32 -21 -38 0 -6 6 -2 12 9 6 11 18 28 26 38
8 9 12 17 9 17 -3 0 -15 -12 -26 -26z"/>
<path d="M1644 845 c17 -40 35 -73 36 -64 0 10 -40 99 -46 99 -2 0 2 -16 10
-35z"/>
<path d="M2491 833 c-10 -26 -10 -27 4 -9 8 11 15 23 15 28 0 15 -7 8 -19 -19z"/>
<path d="M1087 814 c-16 -19 -24 -34 -20 -34 14 0 64 58 55 64 -4 2 -20 -11
-35 -30z"/>
<path d="M1450 840 c34 -11 60 -11 35 0 -11 5 -29 8 -40 8 -16 0 -15 -2 5 -8z"/>
<path d="M99 793 c-51 -27 -95 -55 -98 -63 -2 -9 10 -4 33 13 20 16 69 44 109
62 40 19 67 34 60 35 -7 0 -54 -21 -104 -47z"/>
<path d="M1554 803 c27 -14 56 -32 64 -39 7 -8 23 -19 35 -25 15 -7 13 -3 -8
15 -30 27 -118 76 -132 76 -4 -1 14 -12 41 -27z"/>
<path d="M189 807 c-24 -19 -46 -59 -53 -97 -5 -29 -4 -32 6 -15 6 11 18 29
27 40 15 18 15 19 -1 6 -33 -25 -20 9 16 45 33 33 36 45 5 21z"/>
<path d="M1216 793 c5 -5 12 -12 16 -18 4 -6 8 -2 8 8 0 9 -7 17 -17 17 -9 0
-12 -3 -7 -7z"/>
<path d="M1856 773 c-5 -18 -2 -31 10 -42 16 -15 17 -15 6 1 -8 9 -10 27 -6
42 3 14 4 26 1 26 -3 0 -8 -12 -11 -27z"/>
<path d="M199 773 c-13 -16 -12 -17 4 -4 16 13 21 21 13 21 -2 0 -10 -8 -17
-17z"/>
<path d="M651 766 c-12 -14 -10 -15 16 -5 20 7 38 7 57 -1 15 -5 32 -8 37 -4
19 12 72 13 93 2 19 -10 20 -10 7 6 -12 14 -24 16 -55 12 -52 -8 -63 -8 -107
0 -25 4 -39 1 -48 -10z"/>
<path d="M385 760 c-10 -16 5 -50 23 -50 13 0 13 2 -3 14 -11 8 -16 19 -12 30
7 18 2 22 -8 6z"/>
<path d="M436 757 c3 -10 9 -15 12 -12 3 3 0 11 -7 18 -10 9 -11 8 -5 -6z"/>
<path d="M1040 754 c-14 -8 -18 -14 -10 -14 8 1 24 7 34 15 24 19 10 18 -24
-1z"/>
<path d="M1125 760 c-3 -5 -2 -10 4 -10 5 0 13 5 16 10 3 6 2 10 -4 10 -5 0
-13 -4 -16 -10z"/>
<path d="M1681 754 c0 -11 3 -14 6 -6 3 7 2 16 -1 19 -3 4 -6 -2 -5 -13z"/>
<path d="M310 735 c13 -14 26 -25 28 -25 3 0 -5 11 -18 25 -13 14 -26 25 -28
25 -3 0 5 -11 18 -25z"/>
<path d="M1319 722 c20 -20 38 -36 40 -34 6 3 -61 72 -70 72 -4 0 9 -17 30
-38z"/>
<path d="M872 720 c0 -14 2 -19 5 -12 2 6 2 18 0 25 -3 6 -5 1 -5 -13z"/>
<path d="M631 714 c0 -11 3 -14 6 -6 3 7 2 16 -1 19 -3 4 -6 -2 -5 -13z"/>
<path d="M653 713 c4 -6 3 -14 -3 -18 -16 -10 -2 -24 41 -42 28 -11 38 -20 35
-30 -3 -8 -6 -26 -6 -40 0 -19 -3 -23 -13 -17 -7 5 -4 1 7 -9 28 -26 41 -16
44 34 2 25 10 47 18 52 18 10 8 28 -11 21 -8 -4 -12 -10 -9 -15 3 -5 -2 -9
-10 -9 -9 0 -16 4 -16 9 0 5 -19 24 -42 43 -23 18 -39 28 -35 21z m46 -40 c4
-3 -28 2 -47 6 -2 1 0 6 3 11 5 8 12 7 23 -2 10 -7 19 -14 21 -15z m51 -68 c0
-8 -4 -15 -10 -15 -5 0 -10 7 -10 15 0 8 5 15 10 15 6 0 10 -7 10 -15z"/>
<path d="M2000 710 c-8 -4 -34 -11 -57 -15 -24 -4 -43 -9 -43 -11 0 -10 65
-134 71 -134 4 0 -2 17 -12 38 -16 32 -17 44 -8 70 6 18 17 32 24 32 7 0 20 3
29 6 11 4 16 -3 19 -33 l4 -38 1 42 c2 45 -5 56 -28 43z"/>
<path d="M824 694 c-18 -15 -18 -15 2 -5 12 6 25 7 29 3 5 -4 5 -1 1 6 -9 15
-8 15 -32 -4z"/>
<path d="M530 681 c0 -9 49 -56 53 -50 1 2 -10 16 -25 31 -15 15 -28 23 -28
19z"/>
<path d="M859 673 c-13 -16 -12 -17 4 -4 9 7 17 15 17 17 0 8 -8 3 -21 -13z"/>
<path d="M1097 669 c7 -7 15 -10 18 -7 3 3 -2 9 -12 12 -14 6 -15 5 -6 -5z"/>
<path d="M120 645 c0 -14 4 -25 9 -25 4 0 6 11 3 25 -2 14 -6 25 -8 25 -2 0
-4 -11 -4 -25z"/>
<path d="M1290 666 c0 -2 8 -10 18 -17 15 -13 16 -12 3 4 -13 16 -21 21 -21
13z"/>
<path d="M831 644 c21 -25 19 -43 -4 -56 -12 -6 -24 -11 -27 -11 -3 1 -4 -4
-2 -9 2 -6 -4 -8 -13 -4 -9 3 -14 2 -11 -3 3 -4 -6 -14 -20 -21 -21 -12 -28
-11 -52 7 -15 12 -26 26 -25 31 1 6 -5 16 -15 24 -15 11 -16 11 -5 -3 7 -9 10
-18 7 -21 -7 -7 54 -58 70 -58 7 0 40 19 74 43 69 49 104 52 143 11 12 -13 27
-24 32 -24 5 0 -1 9 -14 20 -31 26 -13 25 30 -1 30 -18 34 -32 10 -35 -5 -1
-12 -2 -16 -3 -3 0 2 -10 12 -21 10 -11 21 -17 26 -14 4 2 13 -4 18 -15 19
-35 -16 -32 -53 5 -33 33 -48 39 -91 34 -41 -4 -33 -15 9 -12 38 3 46 0 74
-32 18 -20 32 -46 32 -56 0 -14 7 -20 22 -20 21 0 21 0 2 15 -16 13 -17 16 -4
25 19 12 30 13 30 1 0 -5 14 -14 31 -20 27 -9 29 -13 19 -33 -10 -22 -10 -22
4 -4 22 28 46 5 46 -45 0 -40 -7 -48 -28 -27 -7 7 -12 8 -12 2 0 -5 5 -15 12
-22 9 -9 9 -15 0 -24 -18 -18 -14 -28 11 -28 17 0 19 -2 7 -10 -9 -5 -19 -5
-24 0 -5 5 -23 1 -44 -10 -33 -18 -62 -19 -35 -2 7 5 9 13 4 21 -6 10 -11 5
-16 -17 -8 -38 -56 -105 -90 -128 -14 -9 -54 -27 -88 -40 -34 -13 -53 -23 -42
-23 31 -1 139 54 168 85 15 15 29 25 32 22 4 -3 9 -30 12 -60 5 -51 8 -56 37
-66 40 -15 160 -16 151 -2 -3 5 0 10 8 10 24 0 66 40 89 83 26 51 28 152 5
217 l-16 45 21 -25 c29 -36 64 -109 72 -152 10 -55 -9 -112 -51 -153 -20 -19
-31 -35 -26 -35 20 0 72 70 83 111 22 80 -33 216 -114 283 -37 31 -45 46 -23
46 12 0 57 59 57 75 0 4 -11 -7 -23 -26 -13 -19 -29 -33 -34 -32 -6 1 -21 -9
-33 -22 -32 -34 -44 -31 -25 5 22 43 18 50 -6 10 -12 -19 -27 -38 -33 -42 -17
-12 -29 -9 -23 5 4 10 -4 14 -26 14 -19 0 -37 8 -49 22 -24 31 -23 40 5 34 12
-3 20 -4 17 -2 -3 2 -16 13 -29 24 -14 11 -21 14 -16 6 6 -11 4 -13 -9 -8 -10
4 -20 7 -22 7 -2 0 -4 5 -4 10 0 6 6 10 13 10 7 0 29 17 48 37 18 21 23 28 9
17 -41 -35 -47 -35 -89 -7 l-41 27 22 24 23 24 -35 -21 c-47 -28 -85 -27 -116
4 -28 28 -44 34 -23 9z m384 -273 c3 -5 0 -13 -6 -17 -7 -4 -9 -3 -5 4 3 5 0
13 -6 15 -9 4 -10 6 -1 6 6 1 14 -3 18 -8z m60 0 c3 -5 2 -12 -3 -15 -5 -3 -9
1 -9 9 0 17 3 19 12 6z m50 -82 c4 -5 3 -9 -2 -10 -100 -9 -145 -5 -127 14 10
9 123 7 129 -4z m-60 -49 c38 0 65 -3 62 -7 -4 -3 -33 -5 -66 -4 l-58 2 -7
-42 -7 -42 -22 21 c-12 11 -31 22 -42 24 -19 5 -19 5 -2 13 12 5 24 2 36 -10
18 -16 19 -15 23 2 2 10 1 32 -4 48 -6 26 -6 28 6 13 10 -14 28 -18 81 -18z
m-195 -68 c0 -5 -7 -9 -15 -9 -8 0 -15 4 -15 9 0 4 7 8 15 8 8 0 15 -4 15 -8z
m259 -8 c2 -2 -27 -3 -65 -3 -53 1 -62 3 -39 9 27 7 94 3 104 -6z m-135 -40
c3 -8 2 -12 -4 -9 -6 3 -10 10 -10 16 0 14 7 11 14 -7z"/>
<path d="M430 631 c0 -6 4 -13 10 -16 6 -3 7 1 4 9 -7 18 -14 21 -14 7z"/>
<path d="M540 622 c0 -6 9 -14 20 -17 11 -4 18 -11 15 -16 -8 -12 2 -11 26 2
15 8 25 7 37 -3 14 -10 14 -9 -1 9 -14 16 -15 22 -5 26 7 3 3 6 -10 6 -13 1
-21 -3 -17 -8 11 -18 -15 -22 -40 -5 -14 9 -25 12 -25 6z"/>
<path d="M508 603 c7 -3 16 -2 19 1 4 3 -2 6 -13 5 -11 0 -14 -3 -6 -6z"/>
<path d="M2003 580 c-6 -17 -8 -30 -3 -30 8 0 24 50 18 56 -2 2 -9 -10 -15
-26z"/>
<path d="M460 591 c0 -15 53 -28 80 -20 20 6 17 7 -18 8 -26 1 -41 5 -37 11 3
6 -1 10 -9 10 -9 0 -16 -4 -16 -9z"/>
<path d="M122 570 c0 -14 2 -19 5 -12 2 6 2 18 0 25 -3 6 -5 1 -5 -13z"/>
<path d="M424 558 l-19 -23 23 19 c21 18 27 26 19 26 -2 0 -12 -10 -23 -22z"/>
<path d="M1332 555 c0 -16 2 -22 5 -12 2 9 2 23 0 30 -3 6 -5 -1 -5 -18z"/>
<path d="M1355 570 c-4 -6 -1 -9 6 -8 7 2 14 -1 14 -7 2 -14 108 -121 118
-117 4 1 7 -3 6 -10 -3 -26 1 -38 14 -35 8 1 11 -8 10 -28 -2 -23 0 -27 8 -15
7 11 9 3 5 -30 -4 -31 -3 -39 3 -25 7 16 10 10 14 -30 3 -34 4 -29 2 17 -3 79
-34 151 -92 213 -51 54 -100 88 -108 75z m127 -115 c6 -11 9 -18 6 -15 -2 3
-24 28 -48 55 -42 48 -42 48 -6 15 21 -19 42 -44 48 -55z"/>
<path d="M372 550 c9 -14 30 -30 49 -36 l33 -11 -31 -32 c-43 -42 -75 -41
-120 7 l-37 37 20 -35 c13 -22 32 -39 53 -46 26 -8 30 -12 17 -17 -10 -4 -30
-5 -44 -2 -26 5 -26 5 3 -9 25 -12 26 -15 10 -17 -35 -3 -49 2 -74 24 -13 12
-21 16 -16 8 5 -9 3 -12 -6 -9 -8 2 -21 19 -29 37 -9 17 -19 29 -22 25 -4 -3
-16 9 -27 27 -23 37 -28 34 -10 -5 10 -20 9 -30 -5 -50 -9 -14 -16 -33 -16
-43 0 -10 9 2 20 26 16 35 23 41 34 32 18 -15 27 -51 13 -48 -18 3 -50 -71
-55 -127 -4 -38 -7 -46 -13 -31 -5 14 -8 15 -8 4 -1 -8 10 -43 23 -77 l25 -62
-49 0 c-36 0 -49 -4 -55 -17 -5 -15 -4 -16 6 -5 30 29 124 5 168 -42 32 -34
83 -51 111 -36 11 6 20 13 20 16 0 2 -8 1 -17 -4 -19 -10 -35 -9 -72 3 -26 8
-26 20 -1 52 27 34 25 48 -2 29 -12 -9 -32 -16 -43 -15 -12 0 -1 9 30 23 45
21 51 22 63 7 7 -9 11 -11 7 -4 -9 19 -13 116 -4 101 7 -10 9 -10 9 2 0 13 1
13 10 0 8 -12 10 -11 10 6 0 11 9 29 20 39 17 16 20 16 20 2 0 -9 4 -18 9 -21
5 -4 7 4 4 16 -4 21 -3 21 7 5 7 -10 10 -27 7 -37 -3 -11 0 -22 7 -25 6 -3 -8
-3 -32 -1 -23 2 -40 0 -37 -4 3 -5 0 -12 -6 -16 -7 -4 -9 -3 -5 4 3 6 2 13 -4
17 -6 3 -10 -4 -10 -18 0 -20 4 -23 25 -20 20 4 28 -2 46 -31 11 -20 23 -36
26 -36 10 0 -11 46 -28 61 -19 16 -16 29 7 29 19 0 55 -42 50 -57 -3 -7 -2
-12 2 -11 12 4 72 -45 72 -58 0 -7 23 -27 52 -44 47 -29 53 -31 64 -16 9 13
22 15 55 11 40 -5 39 -4 -16 13 -140 42 -224 104 -245 182 -7 24 -28 76 -47
114 l-35 70 26 23 c15 13 34 23 42 23 23 0 16 -28 -8 -32 -21 -3 -21 -4 5 -9
23 -5 27 -3 27 15 0 11 11 34 24 51 19 23 34 30 77 36 l54 6 -48 2 c-42 1 -53
-3 -79 -29 -17 -17 -33 -29 -35 -26 -11 10 20 47 55 65 20 11 30 20 22 21 -9
0 -20 -4 -26 -9 -27 -28 -91 -18 -123 18 -9 11 -9 8 1 -9z m-8 -176 c9 -22 8
-24 -11 -25 -12 -1 -10 -3 6 -8 13 -3 28 -17 32 -29 6 -16 5 -21 -2 -16 -6 3
-22 -6 -34 -22 l-23 -29 -11 28 c-17 44 -14 94 7 106 24 14 29 13 36 -5z m-94
-104 c0 -5 -5 -10 -11 -10 -5 0 -7 5 -4 10 3 6 8 10 11 10 2 0 4 -4 4 -10z
m28 -15 c-3 -3 -9 2 -12 12 -6 14 -5 15 5 6 7 -7 10 -15 7 -18z m-138 -60 c0
-5 -5 -3 -10 5 -5 8 -10 20 -10 25 0 6 5 3 10 -5 5 -8 10 -19 10 -25z m62 6
c12 -14 13 -21 5 -25 -7 -2 -4 -5 6 -5 11 -1 17 6 17 19 0 11 5 20 10 20 6 0
10 -6 8 -14 -2 -8 2 -15 7 -15 6 0 9 6 7 14 -1 7 2 17 8 20 8 5 10 -4 7 -26
-3 -28 -8 -34 -26 -32 -12 2 -20 -1 -17 -5 3 -5 -10 -16 -29 -25 -32 -15 -34
-15 -40 2 -3 11 -12 22 -20 25 -26 10 -16 26 18 27 17 1 24 3 15 6 -21 5 -25
33 -5 33 7 0 20 -9 29 -19z m26 -115 c-10 -7 -14 -17 -10 -22 4 -4 -1 -2 -12
6 -18 14 -18 15 5 21 35 10 36 10 17 -5z m392 -64 c0 -7 -15 -2 -40 14 -22 15
-40 28 -40 30 0 1 18 -5 40 -14 22 -9 40 -23 40 -30z"/>
<path d="M181 544 c0 -11 3 -14 6 -6 3 7 2 16 -1 19 -3 4 -6 -2 -5 -13z"/>
<path d="M555 550 c3 -5 11 -10 16 -10 6 0 7 5 4 10 -3 6 -11 10 -16 10 -6 0
-7 -4 -4 -10z"/>
<path d="M913 543 c9 -2 23 -2 30 0 6 3 -1 5 -18 5 -16 0 -22 -2 -12 -5z"/>
<path d="M1282 520 c0 -14 2 -19 5 -12 2 6 2 18 0 25 -3 6 -5 1 -5 -13z"/>
<path d="M1120 500 c-9 -6 -10 -10 -3 -10 6 0 15 5 18 10 8 12 4 12 -15 0z"/>
<path d="M1801 505 c1 -19 18 -51 18 -35 0 8 -4 22 -9 30 -5 8 -9 11 -9 5z"/>
<path d="M513 485 c-28 -19 -45 -73 -38 -116 7 -42 11 -45 29 -30 9 7 16 34
18 63 4 63 25 82 58 53 18 -17 21 -28 17 -64 -5 -43 -30 -77 -48 -66 -4 3 -10
-4 -14 -15 -3 -11 -10 -20 -15 -20 -5 0 -7 -6 -4 -13 3 -8 20 -13 42 -13 44 1
66 24 76 79 20 107 -52 191 -121 142z"/>
<path d="M861 467 c-14 -16 -24 -43 -28 -77 -6 -48 -4 -53 11 -47 10 4 21 7
26 7 4 0 6 9 3 20 -8 30 16 80 38 80 25 0 42 -45 34 -87 -5 -26 -2 -34 16 -43
11 -7 23 -10 25 -7 3 2 5 31 5 63 1 53 -2 61 -30 86 -38 34 -70 36 -100 5z"/>
<path d="M2289 473 c-13 -15 -12 -15 9 -4 23 12 28 21 13 21 -5 0 -15 -7 -22
-17z"/>
<path d="M2265 439 c-4 -6 -5 -12 -2 -15 2 -3 7 2 10 11 7 17 1 20 -8 4z"/>
<path d="M1821 414 c0 -11 3 -14 6 -6 3 7 2 16 -1 19 -3 4 -6 -2 -5 -13z"/>
<path d="M420 380 c-13 -8 -12 -10 3 -10 9 0 17 5 17 10 0 12 -1 12 -20 0z"/>
<path d="M1079 316 c-24 -48 -21 -68 6 -46 10 8 14 22 11 34 -3 11 0 26 6 33
6 8 8 16 5 19 -3 4 -16 -14 -28 -40z m7 -32 c-4 -9 -9 -15 -11 -12 -3 3 -3 13
1 22 4 9 9 15 11 12 3 -3 3 -13 -1 -22z"/>
<path d="M1831 344 c0 -11 3 -14 6 -6 3 7 2 16 -1 19 -3 4 -6 -2 -5 -13z"/>
<path d="M910 323 c-29 -5 -53 -46 -37 -62 16 -16 73 -13 86 3 10 12 9 20 -4
40 -10 14 -18 25 -19 25 0 -1 -12 -4 -26 -6z"/>
<path d="M102 300 c0 -14 2 -19 5 -12 2 6 2 18 0 25 -3 6 -5 1 -5 -13z"/>
<path d="M2498 303 c7 -3 16 -2 19 1 4 3 -2 6 -13 5 -11 0 -14 -3 -6 -6z"/>
<path d="M2435 279 c-4 -6 -13 -8 -21 -5 -11 4 -12 1 -5 -12 12 -23 51 -58 51
-46 0 5 -9 15 -21 22 -20 13 -20 14 -3 33 9 10 14 19 11 19 -3 0 -9 -5 -12
-11z"/>
<path d="M701 215 c0 -11 3 -14 6 -7 2 6 22 12 43 12 21 0 41 4 44 8 3 5 -17
9 -44 8 -43 -1 -50 -4 -49 -21z"/>
<path d="M2947 223 c-10 -9 -9 -23 1 -23 5 0 9 7 9 15 0 17 -1 18 -10 8z"/>
<path d="M781 194 c0 -11 3 -14 6 -6 3 7 2 16 -1 19 -3 4 -6 -2 -5 -13z"/>
<path d="M331 155 c0 -6 7 -26 15 -45 l14 -35 -6 35 c-5 31 -25 69 -23 45z"/>
<path d="M722 151 c7 -25 37 -38 48 -21 16 24 11 36 -5 14 -15 -19 -15 -19
-31 1 -9 11 -14 14 -12 6z"/>
<path d="M2216 118 c-3 -13 -5 -34 -5 -48 1 -15 5 -7 10 19 9 47 6 68 -5 29z"/>
<path d="M2498 103 c7 -3 16 -2 19 1 4 3 -2 6 -13 5 -11 0 -14 -3 -6 -6z"/>
<path d="M2605 94 c28 -7 57 -13 65 -13 8 0 -7 7 -35 15 -27 7 -57 13 -65 13
-8 0 8 -7 35 -15z"/>
<path d="M290 75 c0 -8 2 -15 4 -15 2 0 6 7 10 15 3 8 1 15 -4 15 -6 0 -10 -7
-10 -15z"/>
<path d="M2287 71 c-4 -17 -3 -21 5 -13 5 5 8 16 6 23 -3 8 -7 3 -11 -10z"/>
<path d="M69 60 c13 -11 30 -20 38 -20 8 0 11 -4 8 -10 -3 -5 -32 -11 -63 -11
l-57 -2 45 -7 c28 -5 57 -4 77 3 24 8 35 8 48 -3 8 -7 18 -11 21 -8 3 3 -28
22 -68 42 -43 21 -63 27 -49 16z"/>
<path d="M760 21 c0 -5 9 -7 20 -4 11 3 20 7 20 9 0 2 -9 4 -20 4 -11 0 -20
-4 -20 -9z"/>
</g>
</svg>
