<?xml version="1.0" standalone="no"?>
<!DOCTYPE svg PUBLIC "-//W3C//DTD SVG 20010904//EN"
 "http://www.w3.org/TR/2001/REC-SVG-20010904/DTD/svg10.dtd">
<svg version="1.0" xmlns="http://www.w3.org/2000/svg"
 width="300.000000pt" height="168.000000pt" viewBox="0 0 300.000000 168.000000"
 preserveAspectRatio="xMidYMid meet">

<g transform="translate(0.000000,168.000000) scale(0.100000,-0.100000)"
fill="#000000" stroke="none">
<path d="M0 840 l0 -840 350 0 350 0 0 478 c0 263 3 641 7 840 l6 362 -356 0
-357 0 0 -840z m671 -472 c-3 -21 -6 -26 -9 -15 -3 17 3 47 11 47 2 0 1 -15
-2 -32z"/>
<path d="M720 968 c0 -392 -3 -770 -7 -840 l-6 -128 190 0 190 0 43 122 c56
161 56 161 89 155 16 -3 33 -1 38 4 6 6 20 5 39 -5 22 -11 89 -42 112 -52 3
-2 -7 -19 -85 -161 l-35 -63 196 0 c108 0 196 3 196 6 0 3 -24 53 -54 110
l-55 104 39 0 c33 0 88 16 181 54 12 6 23 -19 59 -134 l43 -140 554 0 553 0 0
840 0 840 -683 0 -683 0 -29 -30 c-20 -21 -26 -33 -19 -40 8 -8 15 -6 24 5 13
16 30 20 30 8 0 -5 -11 -16 -24 -25 -22 -16 -24 -16 -36 8 -12 21 -11 27 9 48
l23 25 -446 1 -446 1 0 -713z m815 682 c17 -7 16 -9 -10 -10 -30 -2 -30 -2 -5
-10 14 -4 19 -8 13 -9 -7 -1 -13 -5 -13 -11 0 -5 7 -7 15 -4 15 6 63 -42 58
-58 -2 -5 2 -8 7 -8 5 0 10 -12 10 -26 0 -16 -5 -24 -12 -21 -7 2 -18 -8 -25
-22 l-11 -26 -1 31 c-1 19 -7 34 -16 38 -13 4 -13 2 -5 -14 16 -30 -7 -34 -34
-6 -24 27 -47 37 -27 12 18 -21 -4 -30 -30 -13 -26 19 -65 3 -79 -33 -9 -24
-10 -23 -7 7 5 45 -12 30 -19 -18 -8 -47 -24 -62 -24 -22 l0 28 -15 -29 c-8
-15 -15 -40 -16 -55 l0 -26 -10 23 c-5 13 -7 28 -3 33 3 5 3 9 -1 9 -3 0 -9
-9 -13 -21 -7 -18 -10 -16 -22 21 -11 33 -11 46 -2 61 16 26 15 34 -3 19 -10
-8 -15 -9 -15 -1 0 6 12 18 28 28 45 28 62 54 50 78 -10 18 -10 19 6 6 9 -8
19 -11 23 -8 3 4 12 2 20 -5 11 -9 12 -7 7 7 -9 21 11 35 52 35 16 0 34 4 40
9 7 8 31 15 64 19 3 0 14 -3 25 -8z m84 -14 c-13 -14 -26 -22 -29 -19 -5 4 37
43 47 43 3 0 -5 -11 -18 -24z m-328 -53 c12 -15 12 -16 -3 -10 -10 3 -24 -1
-33 -10 -9 -8 -18 -13 -21 -10 -10 9 6 27 24 27 15 0 15 2 2 10 -13 8 -13 10
1 10 9 0 23 -8 30 -17z m155 -118 c-5 -21 -3 -25 15 -25 19 0 20 -2 8 -17 -12
-16 -12 -17 2 -6 8 7 32 12 53 11 20 -1 32 -4 26 -8 -17 -11 0 -40 24 -40 21
1 21 1 -2 13 -21 12 -20 13 19 12 24 -1 44 -6 47 -13 6 -20 -7 -64 -18 -57 -5
3 -16 -7 -24 -22 -8 -15 -32 -46 -55 -67 -36 -35 -43 -38 -78 -33 -23 4 -45
16 -55 29 -10 13 -28 33 -40 45 -17 18 -20 25 -10 35 7 7 12 27 12 46 0 31 2
34 23 29 18 -5 20 -4 7 6 -8 7 -16 24 -18 40 -2 21 3 30 20 37 40 16 51 12 44
-15z m49 -4 c-3 -2 -16 -6 -28 -8 -15 -2 -18 0 -9 5 14 9 45 12 37 3z m45 -1
c8 -5 11 -12 8 -16 -4 -3 -14 1 -23 10 -18 17 -9 21 15 6z m269 -95 c38 -58
65 -102 60 -99 -21 13 -7 -17 16 -33 14 -10 46 -47 72 -83 25 -36 57 -77 71
-92 13 -14 21 -31 18 -36 -3 -6 10 -24 29 -41 50 -43 137 -162 131 -178 -3 -7
0 -12 7 -10 7 1 11 -6 11 -15 -1 -10 2 -16 6 -13 8 5 31 -33 51 -83 6 -15 5
-21 -1 -17 -15 9 -12 -6 6 -26 21 -24 44 -114 44 -177 0 -60 -15 -63 -22 -5
-9 60 -66 197 -110 263 -22 34 -42 59 -45 56 -3 -2 9 -25 27 -50 41 -61 85
-150 100 -204 6 -24 14 -51 17 -60 4 -11 -5 -6 -25 12 -21 19 -34 44 -41 76
-13 61 -45 141 -79 199 -15 25 -26 51 -24 57 1 6 -8 18 -20 26 -13 9 -38 37
-57 64 -31 46 -29 44 33 -20 40 -43 61 -73 55 -77 -7 -4 -8 -9 -1 -13 6 -3 12
-1 14 6 2 6 28 -18 58 -55 29 -37 56 -65 58 -62 8 7 -65 92 -182 212 -60 62
-137 150 -171 196 -61 81 -110 165 -102 173 8 8 68 -77 61 -88 -4 -6 -3 -8 3
-5 13 8 156 -137 146 -148 -4 -4 -2 -5 5 -1 16 9 10 18 -67 96 -95 97 -125
138 -112 154 8 10 9 16 1 21 -5 3 -10 -1 -10 -11 0 -23 -23 -3 -50 44 l-21 37
31 -33 c48 -52 46 -32 -3 29 -36 46 -74 119 -61 119 2 0 34 -47 73 -105z
m-452 40 c-15 -16 -19 -13 -11 9 3 9 10 13 15 10 5 -3 3 -11 -4 -19z m-27 -37
c0 -4 -7 -5 -15 -2 -8 4 -15 16 -15 27 0 20 0 20 15 1 8 -10 15 -22 15 -26z
m-240 -43 c0 -11 11 -36 23 -55 34 -50 48 -95 34 -109 -6 -6 -7 -11 -3 -11 5
0 3 -6 -3 -14 -9 -11 -9 -16 0 -21 6 -4 15 -1 20 6 6 9 9 10 9 2 0 -19 -20
-26 -35 -13 -10 8 -15 9 -15 2 0 -6 5 -14 10 -17 15 -10 12 -35 -5 -35 -8 0
-15 -5 -15 -12 0 -6 -3 -8 -7 -5 -3 4 2 17 13 29 17 19 17 21 2 15 -15 -5 -16
-2 -8 18 9 24 8 25 -33 25 -25 0 -54 -8 -72 -20 -38 -25 -55 -26 -24 -1 18 15
23 29 23 69 1 48 -1 51 -28 56 -16 3 -39 6 -53 6 -13 0 -22 4 -19 9 3 4 40 9
82 10 43 1 81 4 85 6 4 3 3 21 -1 41 -10 42 -3 74 11 52 5 -7 9 -22 9 -33z
m267 20 c0 -8 -4 -12 -9 -9 -4 3 -8 9 -8 15 0 5 4 9 8 9 5 0 9 -7 9 -15z
m-127 -23 c0 -5 -7 -17 -16 -28 -8 -10 -14 -14 -11 -9 2 6 7 18 10 28 7 17 17
23 17 9z m-10 -71 c0 -24 -39 -83 -50 -76 -16 10 -12 30 10 55 11 12 18 26 15
30 -2 3 2 7 10 7 8 0 15 -7 15 -16z m360 -22 c0 -11 5 -17 10 -14 6 3 10 1 10
-5 0 -6 11 -8 28 -5 26 6 26 5 -4 -9 -40 -18 -56 -41 -23 -32 21 6 22 6 6 -4
-18 -11 -18 -12 -1 -25 16 -11 15 -12 -14 -9 -18 2 -32 -1 -32 -6 0 -6 -5 -10
-12 -10 -6 0 -1 11 12 25 13 14 20 25 16 25 -5 0 -3 7 4 15 8 10 9 15 2 15 -6
0 -16 -9 -22 -20 -8 -15 -17 -19 -33 -14 -21 6 -21 5 -3 -8 18 -14 18 -15 -5
-31 -13 -10 -39 -17 -59 -16 -34 0 -34 1 13 13 26 7 51 16 55 21 4 4 -2 5 -13
2 -57 -17 -75 -19 -75 -8 0 24 -19 9 -25 -19 -8 -37 -21 -46 -28 -20 -3 11 0
18 5 17 6 -1 13 4 15 11 6 16 -12 16 -29 -1 -7 -7 -24 -18 -38 -24 -24 -11
-24 -12 8 -6 38 6 40 -1 10 -28 l-23 -20 28 17 c26 16 27 15 27 -3 0 -10 -13
-26 -29 -36 -29 -17 -30 -17 -50 11 -19 27 -24 42 -35 109 -4 26 -2 31 10 26
9 -3 14 -13 11 -24 -5 -18 17 -34 34 -23 5 3 17 7 26 9 10 2 36 11 58 19 22 8
51 12 65 10 23 -5 24 -4 7 9 -10 9 -14 18 -8 21 5 3 11 2 13 -2 1 -5 21 0 43
10 37 18 25 20 -20 3 -14 -6 -10 2 14 28 36 38 51 40 51 6z m-230 -43 c0 -30
-25 -74 -36 -63 -5 4 26 97 32 97 2 0 4 -15 4 -34z m371 -3 c13 -16 12 -17 -3
-4 -17 13 -22 21 -14 21 2 0 10 -8 17 -17z m-61 -3 c0 -5 -2 -10 -4 -10 -3 0
-8 5 -11 10 -3 6 -1 10 4 10 6 0 11 -4 11 -10z m40 -29 c-5 -10 -7 -21 -4 -24
3 -3 0 -8 -7 -13 -8 -4 -10 -3 -5 4 4 7 2 12 -4 12 -7 0 -5 7 4 16 9 8 13 20
10 26 -4 7 -2 8 4 4 8 -5 9 -13 2 -25z m-504 -13 l19 -23 -25 20 c-14 11 -27
21 -29 22 -2 2 0 3 6 3 5 0 18 -10 29 -22z m531 -70 c-2 -13 -4 -5 -4 17 -1
22 1 32 4 23 2 -10 2 -28 0 -40z m32 -6 c1 -7 -3 -10 -9 -7 -5 3 -10 21 -9 38
1 31 1 31 9 7 4 -14 8 -31 9 -38z m-543 26 c4 4 2 -1 -5 -10 -14 -19 -26 -25
-16 -9 3 5 1 12 -5 16 -5 3 -10 12 -10 18 0 7 6 4 14 -5 7 -10 17 -14 22 -10z
m31 -17 c8 -18 9 -30 3 -26 -5 3 -10 12 -10 20 0 7 -8 21 -17 31 -13 12 -13
16 -3 12 8 -2 20 -19 27 -37z m350 33 c-3 -3 -12 -4 -19 -1 -8 3 -5 6 6 6 11
1 17 -2 13 -5z m-57 -11 c-8 -3 -24 -10 -35 -15 -20 -9 -20 -9 -1 6 11 9 27
16 35 15 14 0 14 -1 1 -6z m-60 -15 c0 -11 -30 -38 -61 -53 -34 -18 -33 -18
-15 26 12 28 19 34 45 34 17 0 31 -3 31 -7z m-323 -11 c-3 -7 1 -24 9 -38 8
-15 14 -18 14 -9 0 11 3 11 11 -3 7 -12 8 -22 1 -29 -12 -12 -53 56 -46 77 4
8 8 15 11 15 3 0 3 -6 0 -13z m123 -7 c0 -5 -2 -10 -4 -10 -3 0 -8 5 -11 10
-3 6 -1 10 4 10 6 0 11 -4 11 -10z m-205 -27 c-3 -10 -33 -47 -67 -83 -67 -71
-67 -69 12 38 51 69 69 84 55 45z m425 6 c0 -5 -4 -9 -8 -9 -5 0 -9 7 -9 15 0
8 4 12 9 9 4 -3 8 -9 8 -15z m220 -13 c0 -7 -7 -21 -15 -32 -15 -18 -15 -18
-8 0 4 11 2 17 -3 13 -5 -3 -10 3 -10 14 0 19 1 20 14 2 14 -17 14 -17 9 5 -3
12 -1 20 4 16 5 -3 9 -11 9 -18z m-422 -11 c0 -14 -4 -27 -8 -30 -3 -2 -5 6
-4 18 1 12 3 25 3 30 2 18 9 5 9 -18z m-202 -18 c-1 -24 -19 -57 -60 -115 -33
-45 -63 -82 -68 -82 -6 0 -8 -6 -5 -12 2 -7 -2 -26 -10 -42 -11 -21 -15 -68
-17 -163 0 -73 -4 -133 -8 -133 -12 0 -14 162 -3 220 5 24 5 24 -10 5 -9 -11
-13 -25 -10 -33 2 -7 1 -11 -4 -8 -9 6 -28 -35 -58 -124 -9 -25 -16 -78 -16
-119 0 -56 -2 -69 -10 -55 -9 16 -13 119 -7 219 3 66 72 235 116 289 24 28
168 186 170 186 0 0 0 -15 0 -33z m28 -5 c2 -17 0 -30 -4 -27 -4 2 -7 18 -8
36 -1 39 7 33 12 -9z m646 3 c0 -19 -4 -35 -10 -35 -11 0 -13 30 -4 54 10 25
14 19 14 -19z m-323 18 c-9 -2 -15 -8 -12 -13 3 -4 -11 -11 -31 -15 -35 -6
-35 -7 -18 -26 9 -10 15 -19 12 -19 -3 0 -13 9 -22 19 -18 19 -17 20 20 39 22
11 46 20 54 20 10 0 9 -2 -3 -5z m-290 -35 c-3 -8 -6 -5 -6 6 -1 11 2 17 5 13
3 -3 4 -12 1 -19z m571 -13 c0 -19 -4 -37 -8 -40 -5 -3 -6 5 -3 17 l5 23 -16
-22 c-10 -13 -21 -23 -26 -23 -5 0 2 12 15 26 14 15 25 33 25 40 0 8 2 14 4
14 2 0 4 -16 4 -35z m-789 -46 c1 -20 -5 -41 -11 -47 -10 -8 -12 4 -9 56 4 70
19 63 20 -9z m391 39 c0 -26 -9 -19 -15 11 -2 12 0 19 6 16 5 -4 9 -16 9 -27z
m70 -55 c0 -3 -6 0 -14 6 -8 7 -16 8 -18 4 -3 -4 -4 -3 -2 3 1 7 -5 22 -13 35
-9 14 -3 10 16 -9 17 -18 31 -36 31 -39z m-234 34 c1 -9 -2 -15 -7 -11 -5 3
-7 9 -4 14 3 4 0 11 -5 13 -6 3 -5 4 1 3 7 -1 13 -10 15 -19z m-41 -16 c2 -11
0 -21 -4 -21 -5 0 -8 11 -8 25 0 30 6 28 12 -4z m538 16 c-2 -4 -10 -6 -16 -5
-7 2 -28 -8 -47 -20 l-35 -24 29 25 c20 17 24 26 15 29 -8 3 2 5 23 4 20 -1
34 -4 31 -9z m91 -2 c-4 -8 -8 -15 -10 -15 -2 0 -4 7 -4 15 0 8 4 15 10 15 5
0 7 -7 4 -15z m-567 -22 c-10 -9 24 -44 36 -36 6 4 7 1 2 -6 -5 -9 -13 -7 -31
10 -21 19 -24 39 -7 39 4 0 3 -3 0 -7z m363 -18 c7 -9 8 -15 2 -15 -5 0 -12 7
-16 15 -3 8 -4 15 -2 15 2 0 9 -7 16 -15z m117 -2 c0 -9 -4 -10 -10 -4 -7 7
-20 5 -40 -5 -17 -9 -26 -11 -22 -4 15 25 72 35 72 13z m81 -14 c-1 -17 -7
-33 -12 -36 -5 -4 -6 4 -3 18 4 13 7 30 7 37 0 6 2 12 5 12 3 0 4 -14 3 -31z
m-590 -8 c15 -10 31 -19 35 -19 16 -1 20 -12 4 -12 -9 0 -19 5 -22 11 -4 6
-13 8 -21 5 -7 -3 -18 4 -24 14 -13 25 -5 25 28 1z m106 -23 c-9 -14 -23 2
-17 18 4 12 8 13 14 3 4 -7 5 -17 3 -21z m286 18 c0 -2 -7 -7 -16 -10 -8 -3
-12 -2 -9 4 6 10 25 14 25 6z m34 -4 c3 -5 -1 -9 -9 -9 -8 0 -12 4 -9 9 3 4 7
8 9 8 2 0 6 -4 9 -8z m-318 -32 c7 7 11 6 11 -3 0 -20 -25 -16 -44 7 -18 21
-18 21 3 4 14 -12 24 -14 30 -8z m280 11 c-4 -5 -3 -11 1 -14 5 -2 2 -2 -6 0
-8 2 -21 -2 -30 -9 -10 -7 -6 -3 7 10 24 23 38 29 28 13z m-47 -4 c-37 -27
-56 -34 -56 -22 0 8 3 12 7 10 3 -2 12 0 20 6 13 8 40 14 29 6z m204 -42 c-18
-25 -41 -36 -27 -12 13 21 29 36 37 37 4 0 0 -11 -10 -25z m-395 -11 c5 3 9
-1 9 -9 0 -16 -31 -4 -43 18 -6 8 -3 8 9 -1 9 -8 20 -11 25 -8z m92 -4 c-19
-11 -44 -19 -55 -19 -11 0 -3 6 18 14 21 7 41 16 44 19 4 3 11 6 17 6 6 -1 -5
-9 -24 -20z m85 10 c3 -5 13 -7 23 -4 15 5 15 4 -1 -6 -13 -8 -22 -9 -31 -1
-7 6 -17 7 -21 3 -5 -4 -5 -1 -1 6 9 14 23 16 31 2z m-49 -32 c0 -34 -20 -48
-66 -48 -27 0 -39 -4 -34 -11 4 -7 26 -9 63 -5 31 4 51 3 45 -1 -7 -4 -14 -19
-15 -33 -5 -34 -30 -36 -66 -6 -17 14 -33 22 -37 18 -12 -12 -34 27 -29 49 5
19 4 20 -15 8 -11 -7 -19 -16 -16 -20 2 -4 -6 -9 -19 -12 -21 -6 -21 -5 3 16
14 12 24 31 23 42 -2 11 0 14 3 7 3 -6 10 -10 15 -6 5 3 9 1 9 -4 0 -11 79 0
105 16 28 16 31 15 31 -10z m214 12 c-8 -5 -19 -10 -25 -10 -5 0 -3 5 5 10 8
5 20 10 25 10 6 0 3 -5 -5 -10z m-152 -35 c-3 -3 -9 2 -12 12 -6 14 -5 15 5 6
7 -7 10 -15 7 -18z m177 15 c4 -6 -1 -7 -11 -3 -10 4 -15 2 -11 -4 3 -5 0 -10
-8 -10 -11 0 -12 4 -4 14 14 15 26 17 34 3z m-91 -16 c3 -7 -7 -11 -25 -9 -44
3 -55 20 -14 20 19 0 37 -5 39 -11z m-25 -41 c-13 -15 -11 -16 13 -11 15 3 25
1 22 -3 -10 -16 -71 -10 -78 7 -5 14 -4 15 9 4 12 -10 16 -9 21 4 3 9 11 16
16 16 6 0 4 -7 -3 -17z m-82 -18 c-15 -6 -24 -15 -20 -20 5 -4 2 -5 -5 -1 -18
11 17 45 38 38 10 -4 6 -9 -13 -17z m246 4 c3 -12 1 -31 -4 -42 -8 -19 -9 -18
-4 6 3 16 2 26 -2 24 -5 -3 -19 1 -33 9 l-25 14 30 -6 c23 -4 26 -3 15 5 -13
9 -13 11 1 11 9 0 19 -9 22 -21z m-483 -10 c0 8 2 12 5 9 3 -3 3 -12 -1 -21
-4 -13 -9 -14 -19 -4 -7 7 -11 16 -8 21 3 4 9 2 14 -5 7 -12 9 -12 9 0z m53
-6 c-7 -2 -19 -2 -25 0 -7 3 -2 5 12 5 14 0 19 -2 13 -5z m222 -13 c-3 -5 -14
-8 -25 -7 -10 1 -17 5 -14 9 3 4 12 4 21 1 12 -5 14 -3 8 7 -5 9 -4 11 4 6 6
-4 9 -11 6 -16z m50 -2 c-11 -6 -23 -16 -27 -22 -5 -7 -8 -5 -8 6 0 17 14 26
40 27 10 0 8 -3 -5 -11z m105 5 c-14 -3 -28 -10 -32 -17 -6 -8 -8 -7 -8 2 0 7
-4 11 -8 8 -4 -2 -14 -1 -22 5 -10 6 3 8 40 7 30 0 44 -3 30 -5z m-418 -35
c-8 -8 -9 -4 -5 13 4 13 8 18 11 10 2 -7 -1 -18 -6 -23z m32 17 c-4 -8 -8 -15
-10 -15 -2 0 -4 7 -4 15 0 8 4 15 10 15 5 0 7 -7 4 -15z m-105 -44 c-12 -23
-24 -39 -26 -38 -2 2 7 22 19 45 13 22 24 39 26 37 2 -2 -6 -22 -19 -44z m268
-13 c-2 -13 -4 -3 -4 22 0 25 2 35 4 23 2 -13 2 -33 0 -45z m302 12 c0 -9 -4
-8 -9 5 -5 11 -9 27 -9 35 0 9 4 8 9 -5 5 -11 9 -27 9 -35z m-858 -21 c-6 -24
-11 -61 -11 -81 0 -36 -27 -108 -40 -108 -11 0 7 112 25 160 9 25 19 53 22 63
11 35 14 9 4 -34z m755 42 c-8 -12 -46 -21 -46 -11 0 5 10 11 23 13 12 2 23 5
25 6 2 0 1 -3 -2 -8z m54 -1 c0 -5 -7 -10 -16 -10 -8 0 -12 5 -9 10 3 6 10 10
16 10 5 0 9 -4 9 -10z m-445 -30 c-9 -17 -20 -28 -25 -25 -4 3 1 16 13 30 29
32 31 31 12 -5z m282 -12 c-3 -7 -5 -2 -5 12 0 14 2 19 5 13 2 -7 2 -19 0 -25z
m70 10 c7 -1 10 -5 7 -10 -3 -4 -13 -4 -22 1 -9 4 -24 11 -32 15 -8 3 -4 4 10
0 14 -3 30 -6 37 -6z m100 -50 c-3 -7 -5 -2 -5 12 0 14 2 19 5 13 2 -7 2 -19
0 -25z m-517 -13 c0 -5 -5 -3 -10 5 -5 8 -10 20 -10 25 0 6 5 3 10 -5 5 -8 10
-19 10 -25z m-47 10 c-3 -10 -1 -15 7 -13 7 2 15 -4 17 -12 4 -12 3 -12 -5 -2
-7 11 -10 11 -16 -3 -3 -9 -10 -13 -16 -10 -5 3 -10 2 -10 -4 0 -5 -3 -18 -7
-28 -6 -16 -5 -16 10 -4 15 12 17 12 11 -3 -3 -9 -10 -16 -15 -16 -20 0 -20
30 1 69 20 40 35 56 23 26z m78 -12 c-12 -20 -14 -14 -5 12 4 9 9 14 11 11 3
-2 0 -13 -6 -23z m331 -18 c3 -13 1 -22 -3 -19 -9 5 -13 44 -5 44 2 0 6 -11 8
-25z m185 -22 c-3 -10 -5 -4 -5 12 0 17 2 24 5 18 2 -7 2 -21 0 -30z m68 -92
c-3 -2 -5 2 -5 10 -1 10 -3 9 -11 -3 -5 -10 -15 -18 -20 -18 -6 0 -3 7 6 17
12 12 15 25 10 47 -16 70 -14 77 5 17 11 -36 17 -67 15 -70z m-89 84 c-3 -8
-10 -15 -15 -15 -5 0 -4 11 2 25 12 25 23 16 13 -10z m-259 -32 c-3 -10 -5 -2
-5 17 0 19 2 27 5 18 2 -10 2 -26 0 -35z m191 10 c-10 -2 -28 -2 -40 0 -13 2
-5 4 17 4 22 1 32 -1 23 -4z m-468 -38 c0 -5 -5 -3 -10 5 -5 8 -10 20 -10 25
0 6 5 3 10 -5 5 -8 10 -19 10 -25z m-83 5 c-6 -23 12 -27 32 -7 10 9 10 7 0
-11 -8 -12 -20 -20 -26 -17 -7 2 -13 -3 -13 -11 0 -13 6 -15 27 -9 15 3 31 12
35 18 5 8 8 6 8 -5 0 -10 -4 -18 -9 -18 -5 0 -23 -3 -40 -6 -28 -6 -31 -4 -31
17 0 29 10 69 17 69 3 0 3 -9 0 -20z m453 6 c0 -2 -7 -7 -16 -10 -8 -3 -12 -2
-9 4 6 10 25 14 25 6z m-77 -41 c-7 -21 -13 -19 -13 6 0 11 4 18 10 14 5 -3 7
-12 3 -20z m32 15 c3 -5 1 -10 -4 -10 -6 0 -11 5 -11 10 0 6 2 10 4 10 3 0 8
-4 11 -10z m-614 -23 c-10 -9 -11 -8 -5 6 3 10 9 15 12 12 3 -3 0 -11 -7 -18z
m849 -1 c0 -2 -7 -7 -16 -10 -8 -3 -12 -2 -9 4 6 10 25 14 25 6z m-869 -47
c-5 -13 -10 -19 -10 -12 -1 15 10 45 15 40 3 -2 0 -15 -5 -28z m647 24 c-10
-2 -26 -2 -35 0 -10 3 -2 5 17 5 19 0 27 -2 18 -5z m-617 -74 c-6 -16 -10 -18
-10 -7 -1 22 12 55 16 42 2 -6 -1 -22 -6 -35z m30 -111 c-3 -71 -6 -94 -11
-73 -10 40 -12 190 -3 199 14 14 18 -23 14 -126z m170 -86 c-8 -12 -10 10 -11
80 0 130 14 159 18 35 1 -53 -2 -105 -7 -115z"/>
<path d="M1400 1546 c-6 -8 -19 -13 -28 -10 -9 2 -7 -1 6 -7 20 -11 26 -9 45
9 17 18 18 22 5 22 -8 0 -21 -6 -28 -14z"/>
<path d="M1241 1434 c0 -11 3 -14 6 -6 3 7 2 16 -1 19 -3 4 -6 -2 -5 -13z"/>
<path d="M1484 1379 c-3 -6 -1 -16 6 -22 10 -9 12 -8 7 6 -4 9 -2 17 4 17 7 0
9 -10 5 -24 -7 -29 1 -37 29 -25 11 4 15 8 9 8 -7 1 -15 12 -18 26 -7 26 -30
34 -42 14z"/>
<path d="M1600 1371 c0 -6 4 -12 8 -15 5 -3 9 1 9 9 0 8 -4 15 -9 15 -4 0 -8
-4 -8 -9z"/>
<path d="M1396 1361 c-12 -18 2 -61 19 -61 19 0 19 30 2 55 -10 13 -16 15 -21
6z m24 -32 c0 -5 -4 -9 -10 -9 -5 0 -10 7 -10 16 0 8 5 12 10 9 6 -3 10 -10
10 -16z"/>
<path d="M1475 1249 c-10 -14 -1 -21 19 -13 9 3 13 10 10 15 -7 12 -21 11 -29
-2z"/>
<path d="M1120 1139 c0 -5 5 -7 10 -4 6 3 10 8 10 11 0 2 -4 4 -10 4 -5 0 -10
-5 -10 -11z"/>
<path d="M912 728 c-37 -50 -92 -148 -92 -165 0 -4 13 15 28 42 27 48 63 104
98 153 33 45 5 20 -34 -30z"/>
</g>
</svg>
