<?xml version="1.0" standalone="no"?>
<!DOCTYPE svg PUBLIC "-//W3C//DTD SVG 20010904//EN"
 "http://www.w3.org/TR/2001/REC-SVG-20010904/DTD/svg10.dtd">
<svg version="1.0" xmlns="http://www.w3.org/2000/svg"
 width="375.000000pt" height="210.000000pt" viewBox="0 0 375.000000 210.000000"
 preserveAspectRatio="xMidYMid meet">

<g transform="translate(0.000000,210.000000) scale(0.100000,-0.100000)"
fill="#000000" stroke="none">
<path d="M0 1797 l0 -304 39 -59 c21 -32 52 -76 69 -97 17 -21 33 -56 37 -78
8 -49 -5 -70 -29 -46 -18 17 -21 43 -7 52 10 5 -78 147 -99 160 -7 4 -10 -57
-10 -189 l0 -196 33 0 c28 -1 35 -7 53 -44 14 -28 19 -48 13 -57 -17 -28 -11
-39 17 -29 14 6 34 10 44 10 18 0 18 -4 -6 -73 -13 -39 -26 -78 -29 -85 -4
-10 -12 -9 -37 4 -18 9 -41 23 -51 32 -17 15 -15 18 20 56 l38 40 -46 -39 -46
-40 26 -23 c14 -13 65 -42 113 -64 48 -22 89 -46 92 -53 2 -7 -2 -23 -9 -36
-8 -13 -19 -34 -24 -46 -6 -13 -16 -23 -23 -23 -21 0 -88 59 -83 73 3 7 -16
21 -45 34 -28 12 -50 18 -50 14 0 -5 14 -14 30 -21 46 -19 50 -34 7 -27 l-37
6 0 -225 c0 -185 2 -224 14 -224 8 0 21 -17 30 -38 8 -20 23 -49 33 -64 17
-27 17 -28 -17 -65 -42 -46 45 35 245 227 83 80 202 188 265 242 250 210 339
288 290 255 -59 -39 -55 -40 -97 16 -144 192 -229 409 -221 563 5 103 38 87
174 -82 40 -51 121 -141 179 -200 89 -91 99 -99 62 -49 -99 130 -173 290 -223
477 -32 118 -36 151 -41 294 -5 146 3 257 23 309 5 13 -37 15 -355 15 l-361 0
0 -303z m290 108 c-7 -8 -18 -15 -24 -15 -6 0 -2 7 8 15 25 19 32 19 16 0z
m136 -41 c-8 -20 -36 -18 -36 3 0 9 8 25 18 36 17 19 17 19 20 -3 2 -12 1 -28
-2 -36z m-290 9 c8 -11 13 -13 14 -5 0 6 6 12 14 12 10 0 12 -7 9 -22 -5 -19
-3 -21 8 -10 23 21 30 13 14 -18 -20 -39 -19 -45 8 -57 20 -9 26 -8 38 8 8 11
34 29 59 40 l45 20 14 -20 c7 -12 20 -21 28 -21 10 0 5 -18 -21 -64 -34 -64
-34 -65 -14 -82 11 -11 22 -14 26 -9 4 6 15 16 25 24 29 23 10 -15 -27 -54
-36 -39 -57 -50 -109 -59 -62 -11 -95 1 -116 42 -32 64 -39 105 -31 188 7 67
6 81 -8 92 -11 8 -12 12 -3 12 8 0 20 -8 27 -17z m204 -3 c0 -12 -42 -31 -50
-23 -6 5 30 33 42 33 4 0 8 -5 8 -10z m-220 -21 c0 -5 -5 -9 -11 -9 -7 0 -9
-10 -6 -25 3 -16 0 -24 -7 -22 -13 4 -20 42 -12 63 5 14 36 9 36 -7z m130 -18
c0 -24 -18 -37 -32 -23 -8 8 -7 16 2 27 17 21 30 19 30 -4z m200 -11 c0 -5 -2
-10 -4 -10 -3 0 -8 5 -11 10 -3 6 -1 10 4 10 6 0 11 -4 11 -10z m-4 -32 c4 -6
0 -16 -9 -23 -9 -7 -14 -15 -11 -18 3 -3 -3 -3 -14 -1 -17 5 -18 9 -8 30 12
26 30 31 42 12z m-362 -53 c7 -18 -34 -49 -48 -35 -6 6 -3 17 9 30 22 24 31
25 39 5z m316 -29 c0 -16 -18 -31 -27 -22 -8 8 5 36 17 36 5 0 10 -6 10 -14z
m-250 -142 c0 -15 -32 1 -49 24 -18 27 -19 30 -4 45 15 15 18 13 35 -24 10
-23 18 -43 18 -45z m250 41 c-7 -8 -17 -15 -23 -15 -5 0 -2 9 8 20 21 23 35
19 15 -5z m-315 -83 c-3 -9 0 -12 8 -9 16 6 45 -24 40 -40 -2 -6 1 -14 6 -18
14 -8 14 -55 0 -55 -6 0 -3 -7 5 -16 10 -9 16 -33 16 -61 0 -26 -2 -44 -5 -41
-8 8 -106 251 -112 278 l-6 25 27 -25 c15 -13 24 -30 21 -38z m95 17 c0 -5 -4
-9 -10 -9 -5 0 -10 7 -10 16 0 8 5 12 10 9 6 -3 10 -10 10 -16z m-36 2 c3 -5
-1 -14 -9 -21 -8 -7 -15 -10 -15 -7 0 3 -3 12 -6 21 -7 17 20 23 30 7z m155
-22 c-14 -10 -26 -14 -28 -8 -4 13 31 39 43 32 5 -3 -2 -14 -15 -24z m198
-195 c28 -6 30 -8 42 -91 6 -47 11 -86 9 -87 -2 -1 -27 24 -56 55 l-52 56 25
28 c15 15 24 29 22 32 -3 2 -16 -10 -30 -27 -26 -30 -26 -30 -56 -12 -38 21
-39 28 -3 40 33 12 60 14 99 6z m-283 -61 c-24 -19 -41 -28 -43 -21 -2 7 2 14
10 17 7 2 25 16 39 30 14 14 27 22 29 17 2 -6 -14 -25 -35 -43z m46 -18 c-13
-14 -26 -23 -28 -20 -3 3 5 16 18 30 13 14 26 23 28 20 3 -3 -5 -16 -18 -30z
m146 20 c15 -10 20 -22 17 -40 -7 -35 -19 -31 -43 15 -22 43 -12 53 26 25z
m399 -16 c8 -24 7 -24 -22 -33 -29 -9 -39 11 -17 35 22 24 31 24 39 -2z m-524
-22 c-13 -13 -26 -3 -16 12 3 6 11 8 17 5 6 -4 6 -10 -1 -17z m210 -34 c41
-44 51 -70 44 -114 -6 -35 -4 -39 13 -39 11 0 22 6 25 13 3 6 14 -9 26 -34 18
-41 19 -50 8 -90 -7 -24 -17 -43 -22 -42 -6 1 -15 26 -20 55 -6 29 -14 48 -18
42 -3 -6 0 -35 8 -65 13 -49 13 -55 -2 -66 -9 -7 -27 -13 -39 -13 -12 0 -25 6
-27 13 -3 6 -6 -2 -6 -19 -1 -38 -15 -50 -61 -56 -19 -3 -43 -8 -52 -13 -15
-6 -18 -2 -18 32 0 21 11 92 25 158 15 66 33 157 42 202 17 91 22 93 74 36z
m329 -7 c-10 -10 -40 -1 -40 13 0 14 34 19 42 7 4 -6 3 -15 -2 -20z m24 -25
c4 -5 0 -12 -6 -14 -8 -3 -6 -6 5 -6 9 -1 17 -3 17 -5 0 -2 3 -13 7 -23 4 -13
-3 -9 -25 11 -18 17 -32 33 -32 38 0 11 27 10 34 -1z m-541 -44 c-9 -15 -21 4
-15 25 5 21 6 21 12 2 4 -10 5 -22 3 -27z m-156 -22 c-2 -5 -10 -34 -17 -62
-8 -29 -17 -53 -21 -53 -3 0 -12 14 -19 30 -7 17 -21 35 -31 40 -16 9 -14 14
24 50 38 36 43 38 55 22 7 -9 11 -21 9 -27z m419 -22 c-10 -10 -19 5 -10 18 6
11 8 11 12 0 2 -7 1 -15 -2 -18z m74 -153 c-23 -15 -28 -12 -22 16 4 24 6 24
21 9 14 -14 14 -17 1 -25z m46 -50 l27 -41 -42 -43 c-33 -33 -48 -42 -67 -38
-13 2 -24 0 -24 -7 0 -5 6 -8 14 -5 8 3 44 -11 80 -32 72 -42 72 -42 5 -95
l-38 -30 -17 33 c-10 18 -23 51 -30 73 -8 25 -13 32 -13 19 -1 -26 -112 -133
-164 -158 -43 -20 -49 -30 -9 -15 35 13 99 63 135 106 16 18 32 33 36 33 4 0
18 -23 32 -51 l23 -51 -26 -22 c-14 -11 -62 -51 -107 -89 l-81 -67 -34 67
c-28 57 -33 77 -31 123 4 82 27 129 90 179 37 29 52 48 48 59 -3 12 -2 13 4 5
9 -13 52 10 116 64 16 13 33 23 38 23 5 0 21 -18 35 -40z m-350 -125 c-27
-187 -26 -185 -78 -185 -16 0 -28 2 -28 5 0 3 9 36 19 74 11 38 22 99 26 136
l7 66 30 -28 c26 -25 29 -33 24 -68z m412 31 c13 -19 22 -43 20 -53 -2 -13
-11 -6 -36 30 -36 54 -37 57 -19 57 6 0 23 -16 35 -34z m-14 -44 c16 -23 26
-45 22 -49 -7 -7 -93 35 -103 50 -7 11 28 48 41 44 6 -2 24 -22 40 -45z m66
-16 c0 -3 -4 -8 -10 -11 -5 -3 -10 -1 -10 4 0 6 5 11 10 11 6 0 10 -2 10 -4z
m-660 -142 c0 -2 -7 -4 -15 -4 -8 0 -15 4 -15 10 0 5 7 7 15 4 8 -4 15 -8 15
-10z m144 -325 c-43 -46 -57 -51 -93 -33 -17 8 -31 19 -31 24 0 14 71 37 124
39 l30 1 -30 -31z"/>
<path d="M517 1023 c-8 -14 -30 -144 -25 -148 2 -3 11 31 19 75 15 76 16 90 6
73z"/>
<path d="M578 983 c7 -3 16 -2 19 1 4 3 -2 6 -13 5 -11 0 -14 -3 -6 -6z"/>
<path d="M431 500 c14 -31 19 -36 19 -24 0 6 -7 19 -16 30 -14 18 -14 18 -3
-6z"/>
<path d="M822 2038 c22 -35 73 -121 115 -193 80 -138 194 -317 200 -311 2 1
-11 33 -27 70 -31 68 -110 333 -130 439 l-11 57 -94 0 -93 0 40 -62z"/>
<path d="M1409 2002 c27 -53 82 -153 122 -222 88 -152 99 -184 106 -326 l6
-111 -89 -68 c-80 -61 -148 -119 -104 -88 67 47 183 134 220 164 76 63 160
129 164 129 2 0 6 -10 9 -22 4 -13 -2 -32 -14 -49 -10 -15 -19 -31 -19 -37 0
-5 -7 -15 -15 -22 -8 -7 -12 -16 -9 -21 3 -5 -3 -6 -12 -2 -11 4 -15 3 -10 -5
4 -6 -5 -19 -20 -28 -22 -15 -27 -15 -36 -3 -8 11 -9 10 -4 -5 5 -15 2 -17
-14 -13 -13 3 -18 1 -13 -6 4 -7 0 -8 -11 -4 -11 4 -15 3 -10 -4 4 -7 0 -9
-14 -5 -11 4 -23 2 -27 -3 -3 -7 0 -8 9 -5 28 11 17 -5 -14 -21 -34 -17 -44
-19 -35 -5 4 6 -1 7 -11 3 -13 -5 -14 -8 -5 -11 7 -2 -8 -17 -35 -33 -79 -46
-43 -33 73 26 60 30 97 46 83 34 -46 -39 -293 -219 -420 -307 -69 -47 -177
-126 -240 -175 -100 -79 -145 -116 -295 -246 -17 -14 -48 -41 -70 -60 -48 -41
-189 -167 -265 -237 -30 -28 -89 -76 -130 -106 -84 -62 -131 -108 -110 -108 8
0 25 10 39 22 14 13 20 16 14 8 -7 -8 -13 -18 -13 -22 0 -4 211 -8 469 -8
l469 0 27 77 c15 43 29 85 32 93 2 8 -4 1 -15 -16 -11 -18 -33 -35 -48 -38
-42 -11 -54 -25 -54 -61 l0 -33 -146 -7 c-164 -8 -345 5 -430 32 -56 17 -67
28 -36 37 24 6 368 74 416 81 83 13 20 15 -170 4 -186 -9 -335 -5 -333 10 0 3
33 35 73 71 l71 65 95 16 c135 23 411 82 406 87 -2 2 -43 -4 -91 -13 l-88 -16
-55 43 c-30 24 -57 48 -58 53 -1 6 27 35 64 66 l67 56 73 -44 c41 -23 76 -43
78 -43 3 0 -23 26 -57 57 l-61 57 38 34 c57 50 214 168 329 247 55 38 160 113
233 167 73 54 137 98 142 98 6 0 10 -15 10 -34 0 -19 3 -41 6 -50 5 -13 -2
-16 -37 -16 -23 0 -62 -9 -86 -21 -41 -20 -113 -92 -113 -113 0 -5 13 8 29 30
41 55 103 88 168 89 46 0 56 -4 87 -34 20 -19 50 -62 67 -96 l32 -61 -18 -59
c-13 -39 -32 -73 -60 -102 -40 -41 -80 -59 -69 -30 8 22 -13 65 -40 82 -42 28
-95 35 -138 20 -32 -10 -40 -10 -46 0 -4 8 -6 -19 -5 -58 1 -56 -3 -80 -18
-106 -11 -18 -18 -35 -16 -37 2 -2 17 20 33 49 28 49 32 52 73 55 71 5 118
-46 79 -87 -11 -11 -9 -12 8 -2 29 14 38 2 58 -79 11 -46 14 -53 11 -22 -3 23
-12 61 -20 84 -7 23 -12 45 -9 50 3 5 26 18 51 30 51 24 97 81 115 142 16 56
20 58 47 24 l23 -29 -26 7 c-32 8 -33 -3 -2 -45 14 -18 22 -39 19 -47 -3 -8 3
-24 12 -34 18 -20 17 -20 -28 -20 -37 0 -47 -4 -47 -16 0 -12 3 -14 13 -6 6 6
36 9 65 8 29 -1 54 0 57 2 2 3 -10 12 -27 21 -39 20 -49 42 -16 34 20 -6 19
-1 -14 35 -45 50 -49 72 -9 43 39 -28 46 -26 23 7 -11 15 -27 43 -37 62 l-18
35 23 -20 c89 -76 111 -102 121 -138 8 -31 13 -36 24 -27 10 8 18 6 34 -11 11
-12 30 -27 42 -33 12 -6 27 -19 33 -29 9 -15 5 -23 -22 -48 -34 -30 -62 -38
-62 -16 0 8 -3 7 -10 -3 -12 -20 16 -36 35 -20 8 6 16 7 19 2 3 -5 16 -12 28
-15 l23 -6 -23 18 -24 17 36 32 c43 37 46 38 77 14 78 -59 100 -74 97 -66 -4
16 12 167 28 252 9 46 13 86 11 89 -3 2 -12 -31 -20 -74 l-15 -78 -1 95 c-1
100 19 247 39 291 15 34 55 29 46 -5 -16 -54 -45 -200 -42 -203 2 -2 6 7 9 20
6 20 28 30 159 74 224 76 587 169 614 159 24 -9 -11 -51 -137 -166 -105 -95
-275 -218 -476 -345 -51 -31 -93 -59 -93 -60 0 -1 24 4 53 12 67 18 149 21
154 7 2 -6 -40 -55 -94 -108 -98 -97 -252 -224 -254 -209 0 4 0 42 1 83 0 53
-2 71 -10 60 -5 -8 -7 -22 -4 -31 4 -16 -7 -180 -22 -336 -10 -91 11 -83 70
28 26 49 53 88 59 86 23 -7 26 -78 6 -111 -11 -17 -19 -40 -18 -51 1 -13 4 -9
10 11 14 48 32 58 68 40 16 -9 37 -16 45 -16 8 0 29 -12 48 -27 l33 -27 -28
31 c-16 17 -43 35 -60 40 l-32 9 75 56 c73 56 75 57 94 39 18 -19 18 -21 -3
-89 -11 -39 -21 -73 -21 -76 0 -3 37 -6 83 -5 l82 0 64 74 c35 41 68 72 72 69
4 -2 15 8 23 24 11 22 25 32 52 37 59 11 62 -9 7 -45 -26 -18 -63 -47 -80 -63
-36 -34 -42 -30 -17 9 9 13 14 27 11 30 -11 11 -39 -58 -33 -82 4 -13 2 -24
-3 -24 -5 0 -12 -8 -15 -17 -6 -14 -2 -12 17 5 29 27 66 28 147 2 68 -22 99
-25 62 -8 -15 8 -21 17 -17 27 4 9 8 30 11 46 3 27 3 26 -7 -5 -6 -19 -14 -38
-18 -43 -8 -8 -121 12 -121 22 0 13 131 63 150 58 21 -5 28 7 10 18 -5 3 -10
12 -10 20 0 8 -11 26 -25 41 -14 15 -25 32 -25 38 0 6 4 4 10 -4 12 -19 14
-15 28 55 27 136 127 353 164 355 3 0 -2 -33 -13 -72 -43 -168 -73 -317 -74
-368 0 -30 -2 -84 -4 -120 -3 -62 -3 -63 -13 -30 -7 24 -6 53 2 93 14 72 6 87
-10 20 -14 -56 -14 -64 -4 -120 8 -53 23 -54 47 -5 9 20 23 45 31 55 29 38
131 14 143 -34 3 -10 11 -19 18 -19 6 0 20 -9 30 -20 10 -11 22 -20 28 -20 5
0 -1 9 -14 19 l-24 19 60 7 c33 3 67 7 75 8 11 2 14 12 12 35 -3 28 6 43 68
112 65 73 75 80 106 77 19 -1 34 -5 34 -8 0 -4 -21 -30 -46 -58 -25 -28 -41
-51 -36 -51 6 0 12 -17 14 -37 2 -27 9 -41 26 -49 l23 -11 -36 -32 -36 -31 81
0 c70 0 80 2 80 18 0 23 -49 94 -60 87 -14 -9 -21 12 -7 23 6 5 26 14 42 20
29 10 29 10 5 11 -15 1 -31 -4 -38 -11 -9 -9 -12 -9 -12 1 0 7 16 29 35 48 20
20 34 38 32 40 -6 5 -68 -56 -84 -82 -11 -17 -11 -15 -6 15 8 48 29 79 66 96
l32 15 -29 -6 c-26 -6 -28 -4 -17 9 8 9 20 16 27 16 17 0 18 17 2 23 -10 4
-10 7 0 15 9 6 12 41 11 130 l-1 121 -25 -30 c-14 -16 -38 -36 -54 -44 -34
-18 -99 -19 -122 -2 -24 18 -57 103 -57 145 0 44 21 123 27 104 4 -9 8 -10 18
-2 11 9 11 4 5 -27 -9 -37 -1 -53 25 -53 6 0 3 5 -5 10 -13 8 -13 10 2 10 19
0 58 50 58 73 0 13 6 14 32 6 43 -12 98 -12 98 1 0 6 -9 10 -19 10 -11 0 -23
5 -26 10 -4 7 3 8 20 4 21 -5 27 -4 23 7 -3 8 -14 15 -26 17 -12 2 -22 7 -22
12 0 12 36 31 44 23 3 -3 6 258 6 580 0 323 -2 587 -5 587 -7 0 -81 -47 -103
-65 -57 -48 -91 -83 -86 -88 3 -3 -4 -8 -15 -12 -12 -3 -21 -12 -21 -19 0 -8
-8 -20 -17 -27 -15 -12 -16 -12 -7 1 5 8 14 31 19 50 9 30 27 46 120 108 61
40 112 78 114 83 5 15 -51 -16 -151 -82 -69 -46 -89 -66 -98 -94 -7 -21 -30
-50 -58 -72 -25 -21 -65 -57 -89 -81 -42 -41 -131 -92 -163 -92 -8 0 -28 11
-45 24 -28 22 -32 23 -68 10 -22 -8 -46 -14 -55 -14 -8 0 -31 -15 -52 -34 -22
-19 -53 -36 -76 -40 -21 -4 -63 -23 -91 -42 -61 -40 -263 -137 -271 -129 -3 3
2 13 11 23 9 10 20 32 23 50 4 17 9 31 13 30 8 -1 44 14 51 21 10 12 72 41 86
41 8 0 14 4 14 10 0 5 6 7 14 4 8 -3 25 1 38 9 13 8 38 18 56 22 17 4 32 10
32 15 0 5 14 11 30 15 17 4 30 11 30 16 0 5 6 9 14 9 14 0 106 87 106 101 0
12 -82 69 -99 69 -9 0 -23 5 -31 10 -10 7 -1 8 30 4 61 -9 100 -26 141 -62 25
-22 39 -28 50 -21 7 5 40 9 72 9 76 0 116 22 216 115 44 41 97 81 118 90 94
38 203 91 203 98 0 13 -20 7 -88 -26 -37 -19 -93 -44 -124 -56 -31 -13 -65
-32 -74 -43 -32 -35 -137 -86 -231 -112 -118 -33 -136 -33 -185 7 -37 30 -47
32 -126 36 -95 4 -85 -2 -233 130 -58 52 -30 48 -417 52 -216 2 -295 0 -304
-9 -15 -15 -58 -16 -58 -2 0 6 3 9 8 9 18 -3 32 2 32 11 0 6 -105 10 -295 10
l-295 0 49 -98z m746 38 c-16 -4 -50 -8 -73 -9 -57 -1 -102 -23 -149 -72 -27
-28 -46 -39 -67 -39 l-29 0 26 20 c14 11 29 20 34 20 4 0 1 -5 -7 -11 -13 -9
-13 -10 0 -6 23 6 18 32 -5 29 -16 -2 -12 4 14 25 51 42 87 52 191 51 64 0 85
-3 65 -8z m391 1 c5 -4 34 -16 64 -27 30 -10 59 -22 65 -26 12 -10 -43 0 -93
17 -28 10 -40 10 -51 2 -12 -10 -14 -9 -9 3 4 11 -2 16 -24 17 -16 1 -26 -2
-23 -7 3 -5 -8 -8 -25 -8 -31 1 -40 12 -17 21 7 3 6 6 -5 6 -9 1 -19 -3 -23
-9 -4 -6 -15 -6 -32 1 -14 5 -34 7 -45 3 -11 -3 -36 -7 -57 -9 -21 -2 -48 -8
-59 -14 -11 -6 -38 -11 -59 -12 -57 -1 -107 -22 -111 -46 -4 -25 -63 -88 -89
-95 -10 -2 -43 1 -73 8 -50 11 -52 12 -18 13 51 1 67 9 84 43 8 16 36 42 62
59 38 24 56 29 108 29 40 0 77 7 105 20 37 16 66 20 180 20 74 0 139 -4 145
-9z m-1069 -27 c-3 -3 -12 -4 -19 -1 -8 3 -5 6 6 6 11 1 17 -2 13 -5z m13 -44
c0 -12 -8 -12 -35 0 -18 8 -17 9 8 9 15 1 27 -3 27 -9z m1265 -30 c11 -17 -5
-11 -28 11 l-22 21 22 -11 c12 -6 25 -16 28 -21z m855 -24 c0 -3 -4 -8 -10
-11 -5 -3 -10 -1 -10 4 0 6 5 11 10 11 6 0 10 -2 10 -4z m105 -5 c-18 -16
-105 -50 -105 -40 0 5 5 9 11 9 5 0 7 6 3 13 -4 6 -4 9 0 5 4 -3 24 0 44 7 45
16 60 18 47 6z m-20 -61 c-10 -11 -24 -20 -32 -20 -8 0 -11 -4 -8 -10 3 -5 -3
-26 -13 -47 -11 -21 -23 -52 -26 -69 -8 -35 -56 -89 -56 -62 0 8 11 25 24 37
17 16 25 38 30 79 8 67 11 74 51 95 41 22 52 21 30 -3z m-96 -52 c-10 -57 -23
-87 -52 -121 -22 -26 -34 -30 -128 -42 -57 -8 -129 -14 -159 -14 l-55 0 52 24
c29 13 63 35 77 48 23 23 143 107 153 107 3 0 -12 -16 -33 -35 -20 -19 -35
-38 -31 -41 3 -4 2 -15 -3 -25 -7 -12 -6 -20 2 -25 7 -5 8 -3 3 6 -5 9 -2 10
13 6 27 -9 71 14 100 53 12 16 22 33 22 37 0 7 40 64 44 64 2 0 0 -19 -5 -42z
m-1424 -13 c25 -24 35 -85 15 -85 -5 0 -10 13 -10 29 0 49 -43 74 -94 55 -8
-3 -25 -38 -37 -77 -12 -40 -26 -77 -30 -83 -9 -11 42 -74 60 -74 6 0 18 16
26 36 17 41 20 98 5 89 -5 -3 -10 -1 -10 4 0 21 25 11 54 -21 24 -28 26 -29
12 -6 -25 43 -18 46 15 8 18 -20 26 -26 20 -13 -6 12 -11 24 -11 27 0 12 37
-9 67 -37 18 -17 54 -37 79 -46 53 -18 67 -37 32 -44 -15 -3 -10 -5 14 -6 28
-1 42 -7 54 -26 9 -14 14 -29 10 -33 -4 -3 -11 -1 -15 7 -7 10 -14 10 -42 -2
-46 -19 -86 -64 -72 -78 8 -8 11 -6 10 6 -1 10 4 20 12 23 10 3 12 -2 7 -21
-5 -21 -2 -27 25 -36 27 -9 35 -7 65 16 19 14 32 28 29 31 -3 3 -14 -3 -25
-13 -24 -21 -39 -13 -19 11 14 17 61 13 87 -8 21 -18 33 -56 26 -84 -6 -25 -7
-24 -31 16 -14 23 -27 39 -31 36 -3 -3 3 -15 13 -26 28 -30 31 -108 6 -148
-12 -17 -28 -32 -38 -32 -13 0 -14 3 -5 12 7 7 12 19 12 27 -1 11 -5 8 -14 -7
-26 -48 -117 -83 -129 -49 -3 7 -32 -15 -74 -56 -64 -63 -73 -68 -138 -82
-127 -27 -150 -17 -203 83 -37 68 -40 109 -17 210 17 73 30 101 42 89 4 -5 2
-11 -4 -15 -8 -5 -9 -13 -3 -22 8 -13 10 -12 10 2 0 16 39 52 48 44 2 -2 -4
-18 -12 -35 -9 -16 -16 -38 -15 -48 0 -10 3 -13 6 -5 2 6 9 12 14 12 5 0 4 -9
-3 -19 -9 -15 -15 -17 -25 -9 -9 7 -13 7 -13 0 0 -6 10 -18 22 -26 19 -14 24
-13 52 10 17 14 39 42 48 62 10 21 18 30 18 22 0 -12 3 -11 11 3 12 20 39 23
39 5 0 -9 4 -8 11 2 8 11 12 12 16 3 2 -7 11 -13 19 -13 17 0 18 -12 2 -30
-11 -12 -10 -12 5 -1 9 7 17 25 16 40 0 14 -3 20 -6 14 -2 -7 -9 -13 -15 -13
-6 0 -7 7 -4 16 5 13 1 15 -19 10 -21 -5 -25 -3 -25 14 0 12 5 30 11 42 11 20
11 20 26 -2 14 -20 16 -20 28 -3 13 17 14 17 9 -2 -4 -17 2 -24 30 -35 43 -16
44 -22 11 -48 -15 -12 -21 -23 -16 -27 7 -4 7 -12 2 -23 -66 -125 -74 -159
-41 -180 18 -11 25 -10 50 8 17 12 30 18 30 13 0 -4 6 1 12 11 8 15 8 21 0 24
-13 4 -4 32 10 32 5 0 6 -5 3 -11 -4 -5 5 -21 20 -35 30 -27 76 -32 95 -9 16
19 5 34 -12 17 -15 -15 -55 -16 -63 -2 -3 6 1 10 10 10 22 0 65 49 65 74 0 18
-3 16 -20 -11 -37 -61 -72 -32 -40 33 24 45 16 64 -12 29 -21 -28 -59 -33 -77
-11 -10 12 -9 13 8 9 13 -3 25 3 37 21 20 31 12 46 -11 22 -9 -9 -22 -16 -28
-16 -7 0 -6 4 3 10 20 12 23 85 4 101 -8 6 -23 9 -34 6 -13 -3 -21 1 -25 14
-3 10 -16 21 -27 25 -27 8 -68 -35 -68 -72 0 -32 -24 -27 -28 5 -2 14 6 33 20
48 14 16 17 24 8 21 -8 -2 -24 -19 -35 -36 -22 -35 -37 -39 -55 -17 -11 13 -9
21 8 45 12 16 22 32 22 36 0 13 -42 -31 -50 -52 -12 -31 -60 -21 -60 12 0 12
5 26 10 29 6 3 10 11 10 17 0 18 -27 -10 -40 -43 -10 -22 -15 -27 -21 -17 -6
9 -9 3 -9 -17 0 -17 6 -37 13 -44 10 -10 7 -10 -13 -3 -38 14 -44 56 -13 92
28 34 14 41 -17 8 -14 -16 -20 -18 -20 -7 0 23 30 59 59 71 20 9 22 12 9 15
-9 2 -27 -1 -38 -7 -19 -10 -21 -10 -11 8 15 29 53 50 108 60 l48 10 -45 1
c-37 1 -42 3 -27 12 10 6 36 9 58 7 l39 -4 0 38 c0 70 85 104 135 53z m-15
-20 c16 -19 6 -45 -18 -45 -29 0 -48 26 -32 45 16 19 34 19 50 0z m-104 -111
c-4 -9 -9 -15 -11 -12 -3 3 -3 13 1 22 4 9 9 15 11 12 3 -3 3 -13 -1 -22z m27
-16 c-5 -27 -23 -40 -23 -17 0 13 20 52 25 47 2 -1 1 -15 -2 -30z m1058 12
c31 -17 22 -29 -33 -44 -66 -18 -128 -26 -128 -16 0 14 32 35 79 52 57 20 58
20 82 8z m-1041 -50 c-7 -22 -17 -40 -21 -40 -8 0 -6 11 13 63 16 42 23 22 8
-23z m1190 -2 c19 1 76 4 125 7 108 6 86 -10 -26 -20 -110 -9 -139 -14 -160
-25 -10 -6 -19 -9 -19 -6 0 3 -21 -1 -47 -9 -27 -7 -69 -16 -95 -19 -44 -4
-103 -35 -121 -63 -4 -6 -22 -15 -40 -18 -17 -4 -40 -16 -50 -26 -10 -11 -26
-19 -36 -19 -10 0 -40 -11 -67 -25 -27 -14 -61 -26 -76 -27 -15 -1 -29 -7 -32
-15 -3 -8 -10 -11 -16 -8 -6 3 -13 -1 -16 -10 -4 -9 -12 -14 -19 -11 -8 3 -16
-5 -19 -20 -4 -13 -11 -24 -16 -24 -6 0 -10 -7 -10 -15 0 -8 -5 -15 -11 -15
-5 0 -8 -4 -5 -9 3 -4 -3 -16 -14 -26 -11 -10 -17 -22 -14 -26 3 -5 -3 -12
-13 -16 -27 -10 -103 -94 -103 -115 0 -10 -4 -18 -10 -18 -5 0 -12 -11 -16
-25 -3 -14 -10 -25 -14 -25 -8 0 21 138 34 158 4 6 24 16 46 22 41 11 90 59
90 89 0 38 40 109 64 115 13 3 54 33 90 66 37 33 91 74 121 91 30 17 58 35 61
40 6 11 54 12 54 1 0 -4 -18 -26 -40 -47 -22 -21 -40 -44 -40 -51 0 -13 -22
-24 -50 -24 -24 0 -120 -50 -120 -62 0 -12 60 0 80 17 8 7 33 16 54 19 40 8
90 52 138 122 18 26 30 33 73 38 27 3 75 15 105 25 39 15 68 19 100 14 25 -3
61 -5 80 -5z m-1220 -7 c0 -6 -4 -13 -10 -16 -5 -3 -10 1 -10 9 0 9 5 16 10
16 6 0 10 -4 10 -9z m448 -34 c26 -39 28 -75 6 -103 -15 -18 -15 -18 -5 3 6
12 11 32 10 45 l0 23 -10 -23 c-11 -30 -53 -27 -57 4 -4 31 23 50 46 33 9 -7
6 -2 -6 13 -21 23 -28 25 -55 17 -44 -12 -48 -10 -12 6 45 21 58 18 83 -18z
m-99 -93 c24 15 9 -12 -24 -44 -38 -37 -50 -22 -13 17 12 13 16 23 10 23 -6 0
-14 -4 -17 -10 -3 -5 -12 -10 -18 -10 -7 1 -1 10 12 21 17 14 26 17 32 8 4 -6
12 -8 18 -5z m-469 -14 c0 -5 -2 -10 -4 -10 -3 0 -8 5 -11 10 -3 6 -1 10 4 10
6 0 11 -4 11 -10z m696 -29 c-8 -12 -77 -44 -83 -38 -3 3 12 15 34 26 41 22
57 26 49 12z m-758 -29 c2 -12 -1 -22 -7 -22 -6 0 -11 5 -11 10 0 6 -7 10 -15
10 -18 0 -20 16 -2 23 20 9 32 2 35 -21z m143 -31 c-15 -26 -41 -27 -41 -1 0
21 31 43 43 30 5 -4 4 -17 -2 -29z m379 29 c0 -5 -4 -10 -10 -10 -5 0 -10 5
-10 10 0 6 5 10 10 10 6 0 10 -4 10 -10z m-560 -51 c-10 -23 -10 -23 -5 4 4
19 2 26 -5 22 -12 -8 -14 -55 -1 -55 5 0 16 10 25 23 15 19 16 20 10 2 -3 -11
-7 -29 -9 -39 -1 -11 -7 -22 -15 -24 -7 -3 -10 0 -6 7 4 6 1 11 -7 11 -29 0
-36 50 -11 75 22 22 38 5 24 -26z m465 -49 c-3 -5 -10 -10 -16 -10 -5 0 -9 5
-9 10 0 6 7 10 16 10 8 0 12 -4 9 -10z m-480 -30 c3 -5 1 -10 -4 -10 -6 0 -11
5 -11 10 0 6 2 10 4 10 3 0 8 -4 11 -10z m425 2 c0 -16 -32 -52 -46 -52 -17 0
-19 31 -2 48 13 13 48 16 48 4z m-442 -78 c-9 -9 -21 -13 -27 -10 -20 13 -11
26 16 26 25 0 26 -1 11 -16z m473 -73 c-11 -16 -30 -31 -41 -34 -28 -7 -25 11
3 22 13 5 29 16 36 25 22 27 24 18 2 -13z m-360 -74 c10 -17 9 -17 -20 -2 -34
17 -34 16 -24 41 6 16 7 15 20 -2 8 -10 19 -27 24 -37z m-166 -57 c14 -27 23
-50 21 -50 -5 0 -40 59 -49 83 -13 35 3 16 28 -33z m30 -10 c9 -16 13 -30 11
-30 -3 0 -12 14 -21 30 -9 17 -13 30 -11 30 3 0 12 -13 21 -30z m155 20 c0 -5
9 -10 20 -10 11 0 20 -4 20 -10 0 -18 -35 -11 -48 10 -7 12 -8 20 -2 20 5 0
10 -4 10 -10z m70 1 c0 -6 -4 -13 -10 -16 -5 -3 -10 1 -10 9 0 9 5 16 10 16 6
0 10 -4 10 -9z m140 -4 c0 -8 -3 -17 -7 -20 -9 -9 -34 13 -27 24 8 14 34 11
34 -4z m-266 -8 c13 -6 27 -20 29 -31 3 -10 9 -18 14 -17 22 4 33 -4 51 -40
27 -51 52 -136 52 -175 0 -25 -10 -12 -60 78 -33 59 -74 128 -91 152 -32 48
-32 50 5 33z m1173 -8 c27 -13 48 -31 59 -53 9 -18 30 -48 45 -66 25 -28 28
-39 25 -83 -2 -28 -9 -56 -15 -62 -17 -17 -13 -31 4 -17 26 21 16 -4 -16 -43
-35 -43 -53 -43 -20 -1 14 18 18 30 11 34 -7 4 -3 16 10 32 23 30 27 46 7 29
-8 -6 -16 -8 -19 -6 -3 3 -8 -11 -11 -31 -3 -20 -14 -56 -23 -81 -15 -38 -19
-42 -27 -27 -7 13 -7 19 1 22 8 2 9 9 2 22 -5 10 -7 27 -4 37 5 15 4 15 -5 3
-8 -12 -13 -12 -23 -2 -9 9 -8 23 5 64 15 50 15 52 -1 32 -9 -12 -22 -30 -28
-40 -26 -44 -49 40 -23 88 6 11 8 22 5 25 -2 3 -16 -17 -30 -44 -22 -41 -25
-44 -26 -22 0 14 11 43 25 63 14 20 25 39 25 41 0 10 -57 -20 -84 -44 -26 -23
-27 -24 -17 -4 6 11 23 30 38 42 20 14 23 20 12 21 -17 0 -89 -45 -101 -64 -5
-6 -8 -1 -8 12 0 15 21 45 57 83 63 66 81 71 150 40z m-1147 -134 c54 -62 33
-52 -24 12 -36 40 -86 112 -86 125 0 5 13 -10 28 -33 16 -23 53 -70 82 -104z
m322 -24 l-4 -162 -27 32 c-14 18 -32 36 -41 41 -8 6 -35 29 -60 52 l-44 42
72 36 c39 20 74 36 77 36 2 0 1 -10 -4 -23 -5 -13 -12 -50 -15 -83 l-6 -59 15
60 c8 33 19 90 26 128 7 37 13 66 14 65 1 -2 0 -76 -3 -165z m603 38 c-17 -34
-38 -51 -28 -24 6 18 33 53 40 53 2 0 -3 -13 -12 -29z m132 -16 c-13 -26 -22
-31 -32 -16 -6 10 21 41 35 41 4 0 3 -11 -3 -25z m-81 -20 c-3 -9 -11 -13 -16
-10 -8 5 -7 11 1 21 14 18 24 11 15 -11z m754 -5 c0 -5 -4 -10 -9 -10 -6 0
-13 5 -16 10 -3 6 1 10 9 10 9 0 16 -4 16 -10z m-909 -80 c-12 -40 -31 -46
-31 -10 0 32 22 72 33 61 7 -7 6 -24 -2 -51z m71 37 c-24 -26 -29 -66 -10 -85
7 -7 8 -12 2 -12 -5 0 -15 5 -22 12 -9 9 -12 9 -12 0 0 -43 70 -10 100 47 35
65 35 65 64 36 14 -14 26 -33 26 -41 0 -8 4 -12 10 -9 5 3 18 1 27 -4 17 -10
16 -11 -4 -17 -30 -8 -51 -86 -31 -111 15 -19 26 -16 55 15 25 26 26 23 6 -25
-5 -12 -3 -14 8 -8 8 4 1 -7 -16 -25 -56 -61 -156 -88 -219 -59 -40 19 -74
126 -62 195 5 22 22 50 47 75 41 41 68 55 31 16z m688 14 c0 -6 -4 -12 -9 -15
-5 -3 -7 -15 -4 -26 4 -14 0 -20 -11 -20 -11 0 -14 4 -9 13 4 6 8 17 9 22 0 6
2 16 2 23 2 14 22 17 22 3z m93 -32 c-17 -17 -37 -1 -22 17 8 10 15 12 23 4 7
-7 7 -13 -1 -21z m-743 7 c0 -16 -18 -31 -27 -22 -8 8 5 36 17 36 5 0 10 -6
10 -14z m150 -16 c0 -5 -4 -10 -10 -10 -5 0 -10 5 -10 10 0 6 5 10 10 10 6 0
10 -4 10 -10z m-743 -97 c-2 -21 -4 -6 -4 32 0 39 2 55 4 38 2 -18 2 -50 0
-70z m-112 47 c-10 -11 -22 -20 -28 -20 -5 0 1 9 14 20 31 25 37 25 14 0z m86
-61 c16 -34 28 -63 25 -66 -8 -9 -96 57 -96 73 0 17 22 54 32 54 4 0 22 -27
39 -61z m-81 31 c-6 -11 -13 -20 -16 -20 -2 0 0 9 6 20 6 11 13 20 16 20 2 0
0 -9 -6 -20z m565 -1 c5 -15 -1 -30 -23 -53 -38 -40 -52 -68 -52 -104 0 -33
-16 -35 -54 -6 -19 13 -19 15 -3 49 18 37 103 135 118 135 4 0 11 -9 14 -21z
m305 -2 c0 -14 -20 -37 -32 -37 -12 0 -10 24 4 38 16 16 28 15 28 -1z m-2120
-47 c0 -5 -4 -10 -9 -10 -6 0 -13 5 -16 10 -3 6 1 10 9 10 9 0 16 -4 16 -10z
m1812 -92 c-14 -38 -25 -53 -38 -53 -28 0 -21 69 13 119 l26 41 9 -27 c7 -20
4 -41 -10 -80z m288 82 c0 -5 -5 -10 -11 -10 -5 0 -7 5 -4 10 3 6 8 10 11 10
2 0 4 -4 4 -10z m60 -10 c0 -5 -5 -10 -11 -10 -5 0 -7 5 -4 10 3 6 8 10 11 10
2 0 4 -4 4 -10z m30 -35 c0 -15 -48 -45 -71 -45 -7 0 0 14 16 30 31 32 55 39
55 15z m-340 -47 c0 -30 -15 -52 -28 -44 -8 4 -8 16 0 36 12 35 28 40 28 8z
m257 -15 c-11 -20 -38 -84 -57 -136 -23 -60 -44 -69 -33 -14 9 52 54 146 72
150 9 3 17 5 19 6 2 0 1 -2 -1 -6z m28 -25 c-14 -33 -47 -139 -59 -192 -6 -26
-9 -27 -22 -14 -13 13 -12 23 11 84 35 93 65 154 76 154 5 0 2 -15 -6 -32z
m593 16 c2 -1 1 -12 -3 -23 -7 -24 -37 -27 -58 -7 -8 9 -24 12 -36 9 -22 -6
-24 -3 -15 21 4 12 17 14 57 9 29 -3 54 -7 55 -9z m-1078 -22 c0 -16 -8 -32
-20 -40 -23 -14 -27 -1 -10 42 13 34 30 33 30 -2z m240 -10 c-15 -5 -41 18
-34 30 3 5 15 1 26 -9 11 -10 15 -19 8 -21z m-287 -19 c-4 -37 -13 -54 -37
-75 -17 -15 -25 -27 -18 -28 14 0 -46 -97 -65 -104 -25 -10 -12 25 22 63 21
23 32 42 25 46 -5 3 -10 15 -10 25 0 10 -3 20 -7 23 -5 2 -2 2 5 1 6 -2 12 0
12 5 0 8 71 91 77 91 2 0 0 -21 -4 -47z m-1808 -7 c-9 -46 -50 -81 -105 -90
-24 -4 -44 -5 -47 -3 -2 2 31 34 74 70 42 37 78 65 80 63 3 -2 1 -20 -2 -40z
m1932 -102 c7 -12 8 -26 3 -34 -16 -25 -40 52 -39 122 l1 63 12 -65 c6 -36 17
-74 23 -86z m703 125 c0 -24 -23 -21 -28 4 -2 10 3 17 12 17 10 0 16 -9 16
-21z m-674 -16 c-6 -6 -36 9 -36 18 0 5 9 4 20 -3 10 -7 18 -14 16 -15z m224
8 c-15 -29 -27 -33 -50 -19 -33 21 -24 38 20 38 37 0 40 -2 30 -19z m23 -29
c-9 -23 -22 -42 -30 -42 -18 0 -17 4 13 51 31 50 39 46 17 -9z m387 40 c0 -5
-7 -17 -16 -28 -14 -17 -15 -17 -10 -1 3 10 6 23 6 28 0 5 5 9 10 9 6 0 10 -4
10 -8z m84 -56 c6 -52 5 -57 -9 -46 -21 17 -43 -2 -47 -43 -3 -30 -5 -32 -68
-43 -36 -6 -67 -10 -69 -8 -3 2 97 152 116 174 3 3 13 -6 24 -19 l19 -23 0 24
c0 20 19 54 25 45 1 -1 5 -29 9 -61z m188 32 c-12 -12 -35 -1 -27 12 3 5 13 6
21 3 10 -4 12 -9 6 -15z m-887 -24 c-14 -20 -25 -44 -25 -52 0 -13 -2 -14 -12
-3 -10 11 -10 14 0 18 6 3 12 9 12 14 0 4 -7 6 -15 3 -11 -5 -15 1 -14 22 1
16 3 22 6 12 7 -27 30 -28 42 -2 6 13 15 24 20 24 6 0 -1 -16 -14 -36z m120
18 c0 -18 -20 -15 -23 4 -3 10 1 15 10 12 7 -3 13 -10 13 -16z m453 -14 c-4
-39 -19 -45 -37 -16 -12 19 -11 23 5 35 28 20 36 16 32 -19z m-496 -6 c18 -10
44 -25 57 -32 24 -12 24 -13 6 -26 -10 -8 -33 -14 -49 -14 -22 0 -27 -3 -17
-9 11 -7 1 -16 -37 -35 -28 -14 -56 -26 -62 -26 -16 0 -12 30 11 80 16 35 22
42 30 30 8 -11 9 -10 4 7 -7 24 0 43 15 43 5 0 24 -8 42 -18z m762 8 c12 0 31
-7 42 -15 17 -14 15 -14 -26 -8 -25 3 -48 11 -52 17 -5 7 -8 4 -8 -7 0 -10 -4
-15 -10 -12 -5 3 -10 2 -10 -3 0 -6 18 -8 42 -5 57 8 42 -12 -24 -32 -65 -19
-68 -19 -68 4 0 23 59 73 78 66 8 -3 24 -5 36 -5z m-2791 -6 c25 -9 8 -42 -24
-46 -34 -5 -34 -4 -11 27 20 28 16 26 35 19z m2286 -94 c-16 -53 -18 -57 -14
-23 5 44 23 98 30 92 2 -2 -5 -33 -16 -69z m701 22 c0 -5 -39 -13 -87 -19 -75
-8 -83 -11 -56 -17 l33 -8 -19 -24 c-11 -13 -44 -52 -75 -85 -64 -68 -71 -68
-107 4 -11 21 -23 36 -26 33 -8 -8 45 -95 68 -109 10 -6 19 -20 19 -29 0 -15
-9 -18 -52 -18 -29 0 -64 -3 -77 -7 -23 -6 -24 -4 -18 33 6 32 5 35 -3 15 -10
-22 -12 -22 -28 -8 -9 9 -30 21 -47 27 l-30 11 58 56 c59 57 83 63 80 22 -1
-13 1 -17 3 -7 3 9 20 23 37 31 42 20 82 63 68 72 -25 15 3 23 86 24 48 1 89
4 92 6 8 9 81 5 81 -3z m-1290 -6 c0 -2 -7 -9 -15 -16 -13 -11 -14 -10 -9 4 5
14 24 23 24 12z m389 -23 c-8 -10 -9 -14 -2 -10 7 4 27 1 45 -7 32 -14 31 -14
-47 -15 -72 0 -78 1 -61 14 23 17 40 20 31 5 -3 -5 -1 -10 4 -10 6 0 11 6 11
14 0 12 11 21 29 25 2 1 -3 -7 -10 -16z m629 -6 c2 -11 -5 -20 -20 -26 -26
-10 -33 -6 -42 25 -6 18 -2 21 26 20 23 -1 34 -6 36 -19z m-818 -37 c6 -11 20
-20 31 -20 25 0 35 -25 18 -46 -8 -10 -25 -14 -48 -12 -31 3 -37 8 -47 38 -6
19 -9 40 -7 47 8 20 41 15 53 -7z m312 -12 c-11 -11 -173 -22 -216 -14 -69 13
-35 21 94 22 72 0 127 -3 122 -8z m378 7 c0 -3 -27 -33 -61 -67 -46 -48 -62
-59 -69 -48 -11 18 -23 81 -16 88 16 15 146 40 146 27z m-380 -35 c-14 -4 -41
-8 -60 -8 l-35 1 40 7 c57 10 87 10 55 0z m716 -79 c-1 -46 -4 -57 -13 -49
-16 13 -17 80 -1 96 7 7 13 12 13 12 1 0 1 -27 1 -59z m-486 23 c10 -24 -3
-51 -52 -108 -17 -21 -7 71 12 102 24 39 28 39 40 6z m-156 10 c32 -12 14 -30
-69 -72 -47 -23 -85 -38 -85 -33 0 7 128 110 137 111 1 0 8 -3 17 -6z"/>
<path d="M2207 1550 c3 -19 7 -37 9 -39 2 -2 24 -4 50 -5 46 -2 47 -2 18 10
-16 7 -32 10 -36 7 -5 -2 -8 6 -8 18 0 12 -3 19 -7 16 -3 -4 -12 1 -19 11 -12
15 -13 13 -7 -18z"/>
<path d="M2376 1511 c-3 -4 6 -6 19 -3 14 2 25 6 25 8 0 8 -39 4 -44 -5z"/>
<path d="M2120 1366 c0 -2 8 -10 18 -17 15 -13 16 -12 3 4 -13 16 -21 21 -21
13z"/>
<path d="M2014 1185 c-11 -26 4 -45 35 -45 42 0 45 13 11 38 -35 26 -39 27
-46 7z m36 -25 c0 -5 -4 -10 -10 -10 -5 0 -10 5 -10 10 0 6 5 10 10 10 6 0 10
-4 10 -10z"/>
<path d="M2827 579 c7 -7 15 -10 18 -7 3 3 -2 9 -12 12 -14 6 -15 5 -6 -5z"/>
<path d="M2328 2093 c12 -2 30 -2 40 0 9 3 -1 5 -23 4 -22 0 -30 -2 -17 -4z"/>
<path d="M2710 2091 c0 -5 11 -12 24 -15 14 -3 28 -16 31 -27 6 -17 9 -19 16
-8 6 10 9 8 9 -8 0 -13 6 -23 13 -23 8 0 24 -11 37 -25 12 -13 26 -22 31 -19
10 6 89 -28 89 -38 0 -4 7 -4 17 -1 10 4 14 2 10 -4 -12 -19 74 -41 139 -37
60 4 87 14 136 46 14 10 33 18 40 18 8 0 23 9 33 20 10 11 26 20 37 20 10 0
18 5 18 10 0 6 7 10 15 10 25 0 235 73 235 82 0 4 -209 8 -465 8 -266 0 -465
-4 -465 -9z"/>
<path d="M1462 1174 c-12 -8 -28 -12 -35 -9 -6 3 -4 0 5 -7 15 -11 9 -16 -44
-46 -33 -18 -62 -31 -65 -28 -3 2 18 18 47 34 28 16 48 32 43 35 -12 8 -105
-62 -98 -73 4 -6 -2 -10 -12 -10 -10 0 -50 -24 -90 -53 -39 -28 -124 -90 -188
-137 -64 -47 -120 -89 -123 -95 -7 -12 -6 -11 175 120 76 56 195 132 265 170
70 39 123 72 117 74 -6 2 2 12 18 22 15 10 23 19 18 19 -6 0 -21 -7 -33 -16z"/>
<path d="M1401 914 c0 -11 3 -14 6 -6 3 7 2 16 -1 19 -3 4 -6 -2 -5 -13z"/>
<path d="M3716 710 c-26 -46 -36 -86 -23 -99 13 -13 31 -15 23 -2 -3 5 3 11
14 14 12 3 20 14 20 25 0 15 -5 19 -20 15 -11 -3 -20 0 -20 6 0 6 9 16 20 23
11 7 20 21 20 30 0 27 -14 22 -34 -12z"/>
<path d="M1970 652 c0 -17 4 -34 10 -37 6 -4 7 6 3 27 -8 44 -13 48 -13 10z"/>
<path d="M3595 650 c3 -5 8 -10 11 -10 2 0 4 5 4 10 0 6 -5 10 -11 10 -5 0 -7
-4 -4 -10z"/>
<path d="M1810 624 c8 -4 23 -16 32 -28 10 -11 18 -15 18 -8 0 6 9 12 20 12
11 0 20 5 20 10 0 6 -12 10 -27 10 -16 0 -39 3 -53 5 -14 3 -18 2 -10 -1z"/>
<path d="M3585 610 c3 -5 14 -10 23 -10 15 0 15 2 2 10 -20 13 -33 13 -25 0z"/>
<path d="M1884 579 c-17 -7 -17 -8 4 -8 12 -1 22 -5 22 -10 0 -5 14 -11 30
-13 17 -3 30 -1 30 4 0 4 -10 8 -22 8 -17 0 -19 3 -10 9 19 11 -28 20 -54 10z"/>
<path d="M1288 551 c26 -23 21 -51 -5 -29 -8 6 -24 13 -34 15 -23 4 -26 -29
-4 -47 22 -19 18 -32 -6 -19 -17 9 -25 8 -37 -5 -14 -13 -14 -16 -2 -16 8 -1
28 -11 44 -24 21 -17 27 -29 22 -43 -3 -10 5 -3 19 15 22 26 34 32 64 32 47 0
96 -40 88 -71 -8 -31 16 -18 34 20 10 17 21 32 25 33 5 0 23 -26 41 -58 18
-33 33 -54 33 -48 0 5 -16 37 -36 70 -33 53 -35 63 -27 96 7 27 7 35 -2 31 -7
-2 -15 3 -18 11 -7 18 -53 43 -87 47 -14 1 -37 -4 -52 -11 -23 -11 -31 -10
-55 4 l-28 17 23 -20z m10 -69 c8 -7 12 -16 8 -19 -10 -10 -61 32 -65 53 -3
18 -2 18 20 -1 13 -11 30 -26 37 -33z m32 28 c0 -5 -4 -10 -10 -10 -5 0 -10 5
-10 10 0 6 5 10 10 10 6 0 10 -4 10 -10z m-71 -61 c35 -12 43 -34 9 -24 -21 7
-59 35 -47 35 3 0 20 -5 38 -11z"/>
<path d="M1530 540 c-6 -11 -8 -20 -6 -20 3 0 10 9 16 20 6 11 8 20 6 20 -3 0
-10 -9 -16 -20z"/>
<path d="M2183 546 c26 -20 21 -29 -13 -24 -24 4 -30 1 -25 -10 4 -11 0 -13
-15 -9 -23 6 -22 -3 6 -72 19 -45 12 -49 -20 -11 -14 17 -30 29 -35 26 -5 -4
-12 2 -16 13 -3 10 -15 29 -27 42 l-21 24 7 -30 c8 -32 44 -67 60 -58 5 3 6 1
3 -5 -10 -15 4 -44 19 -38 7 3 18 -2 24 -10 7 -8 16 -14 20 -14 12 0 32 57 27
77 -3 12 -5 9 -6 -9 -1 -39 -15 -35 -30 8 -11 30 -11 38 0 45 9 6 18 3 27 -8
11 -15 12 -15 12 5 0 21 9 27 40 22 10 -1 7 6 -9 24 -14 14 -29 26 -35 26 -6
0 -3 -7 7 -14z"/>
<path d="M1148 443 c7 -3 16 -2 19 1 4 3 -2 6 -13 5 -11 0 -14 -3 -6 -6z"/>
<path d="M1088 433 c7 -3 16 -2 19 1 4 3 -2 6 -13 5 -11 0 -14 -3 -6 -6z"/>
<path d="M1641 424 c0 -11 3 -14 6 -6 3 7 2 16 -1 19 -3 4 -6 -2 -5 -13z"/>
<path d="M1038 423 c7 -3 16 -2 19 1 4 3 -2 6 -13 5 -11 0 -14 -3 -6 -6z"/>
<path d="M2192 370 c-36 -33 -52 -38 -52 -15 0 8 -2 15 -5 15 -10 0 -82 -53
-98 -73 -29 -36 -41 -65 -13 -32 14 17 25 33 26 38 0 4 7 7 15 7 21 0 20 -6
-28 -97 -34 -65 -46 -80 -57 -73 -25 16 -29 12 -35 -38 -3 -26 -8 -58 -10 -72
-3 -20 1 -25 20 -26 20 -2 24 5 35 60 20 93 33 113 79 121 22 4 45 4 50 1 10
-7 27 52 17 61 -3 4 -6 -1 -6 -9 0 -10 -17 -22 -45 -31 -25 -9 -45 -14 -45
-11 0 17 33 62 58 81 28 21 31 21 35 5 3 -11 5 -8 6 9 1 18 14 34 46 57 25 17
45 36 45 42 0 14 -1 13 -38 -20z"/>
<path d="M1236 325 c-9 -26 -7 -32 5 -12 6 10 9 21 6 23 -2 3 -7 -2 -11 -11z"/>
<path d="M1597 296 c-4 -10 -11 -14 -17 -11 -5 3 -10 -1 -10 -11 0 -11 6 -15
20 -11 11 3 18 2 15 -3 -3 -4 11 -20 30 -35 38 -28 71 -87 100 -173 9 -29 19
-51 22 -49 7 7 -45 146 -68 184 -11 18 -32 42 -47 53 -18 14 -20 18 -6 11 27
-13 80 -73 89 -101 4 -12 9 -19 12 -17 16 17 -78 137 -108 137 -5 0 -13 10
-18 22 -7 19 -8 19 -14 4z"/>
<path d="M3630 255 c-7 -9 -11 -17 -9 -20 3 -2 10 5 17 15 14 24 10 26 -8 5z"/>
<path d="M1490 229 c-36 -15 -76 -29 -90 -29 -21 0 -34 -16 -77 -93 -29 -52
-53 -96 -53 -100 0 -4 7 -7 15 -7 9 0 15 9 15 25 0 33 16 32 35 -2 l16 -28 -6
31 c-6 31 -6 31 46 38 61 8 139 33 157 50 7 7 -17 3 -55 -10 -77 -25 -173 -40
-173 -27 0 5 12 28 28 52 24 38 37 47 106 72 l79 29 33 -21 c39 -24 86 -91
110 -159 15 -40 22 -50 41 -50 23 0 22 3 -23 92 -29 58 -62 107 -88 130 -22
21 -43 38 -46 37 -3 -1 -34 -14 -70 -30z"/>
<path d="M1386 223 c-6 -14 -5 -15 5 -6 7 7 10 15 7 18 -3 3 -9 -2 -12 -12z"/>
<path d="M1970 189 c-7 -11 -10 -23 -7 -25 2 -2 9 7 15 21 14 30 7 33 -8 4z"/>
<path d="M2120 103 c0 -53 -4 -62 -40 -86 l-24 -17 37 0 37 0 0 75 c0 41 -2
75 -5 75 -3 0 -5 -21 -5 -47z"/>
<path d="M1740 117 c0 -12 34 -104 41 -112 5 -5 0 19 -12 53 -17 51 -29 75
-29 59z"/>
</g>
</svg>
